<svg width="24" height="24" viewBox="0 0 24 24" fill="none" xmlns="http://www.w3.org/2000/svg">
<path d="M16.8772 10.6987C17.6337 10.9807 18.3069 11.449 18.8345 12.0602C19.3622 12.6714 19.7271 13.4057 19.8958 14.1953C20.0644 14.985 20.0311 15.8043 19.7992 16.5777C19.5672 17.3511 19.1439 18.0535 18.5686 18.6199C17.9932 19.1864 17.2843 19.5986 16.5074 19.8185C15.7305 20.0384 14.9107 20.0588 14.1238 19.8779C13.3369 19.697 12.6083 19.3206 12.0055 18.7835C11.4026 18.2464 10.9449 17.566 10.6747 16.8051M8.0016 7.20128H8.80192V10.4026M15.7727 13.5078L16.3329 14.076L14.076 16.3329M13.6038 8.80192C13.6038 11.4539 11.4539 13.6038 8.80192 13.6038C6.14989 13.6038 4 11.4539 4 8.80192C4 6.14989 6.14989 4 8.80192 4C11.4539 4 13.6038 6.14989 13.6038 8.80192Z" stroke="#CDC1FF" stroke-linecap="round" stroke-linejoin="round"/>
</svg>
