<svg id="visual" viewBox="0 0 900 600" width="900" height="600" xmlns="http://www.w3.org/2000/svg" xmlns:xlink="http://www.w3.org/1999/xlink" version="1.1"><rect x="0" y="0" width="900" height="600" fill="#0d1117"></rect><path d="M0 571L10.7 572.2C21.3 573.3 42.7 575.7 64.2 576C85.7 576.3 107.3 574.7 128.8 569.8C150.3 565 171.7 557 193 557.2C214.3 557.3 235.7 565.7 257 565.5C278.3 565.3 299.7 556.7 321.2 554.3C342.7 552 364.3 556 385.8 558.8C407.3 561.7 428.7 563.3 450 562.5C471.3 561.7 492.7 558.3 514.2 557.3C535.7 556.3 557.3 557.7 578.8 555.5C600.3 553.3 621.7 547.7 643 546.7C664.3 545.7 685.7 549.3 707 556C728.3 562.7 749.7 572.3 771.2 575.8C792.7 579.3 814.3 576.7 835.8 570.3C857.3 564 878.7 554 889.3 549L900 544L900 601L889.3 601C878.7 601 857.3 601 835.8 601C814.3 601 792.7 601 771.2 601C749.7 601 728.3 601 707 601C685.7 601 664.3 601 643 601C621.7 601 600.3 601 578.8 601C557.3 601 535.7 601 514.2 601C492.7 601 471.3 601 450 601C428.7 601 407.3 601 385.8 601C364.3 601 342.7 601 321.2 601C299.7 601 278.3 601 257 601C235.7 601 214.3 601 193 601C171.7 601 150.3 601 128.8 601C107.3 601 85.7 601 64.2 601C42.7 601 21.3 601 10.7 601L0 601Z" fill="#7371fc"></path><path d="M0 566L10.7 565.5C21.3 565 42.7 564 64.2 561.3C85.7 558.7 107.3 554.3 128.8 554.5C150.3 554.7 171.7 559.3 193 560.8C214.3 562.3 235.7 560.7 257 561.2C278.3 561.7 299.7 564.3 321.2 568.8C342.7 573.3 364.3 579.7 385.8 576.8C407.3 574 428.7 562 450 560.2C471.3 558.3 492.7 566.7 514.2 567.8C535.7 569 557.3 563 578.8 560.7C600.3 558.3 621.7 559.7 643 563.7C664.3 567.7 685.7 574.3 707 577.7C728.3 581 749.7 581 771.2 580C792.7 579 814.3 577 835.8 573.3C857.3 569.7 878.7 564.3 889.3 561.7L900 559L900 601L889.3 601C878.7 601 857.3 601 835.8 601C814.3 601 792.7 601 771.2 601C749.7 601 728.3 601 707 601C685.7 601 664.3 601 643 601C621.7 601 600.3 601 578.8 601C557.3 601 535.7 601 514.2 601C492.7 601 471.3 601 450 601C428.7 601 407.3 601 385.8 601C364.3 601 342.7 601 321.2 601C299.7 601 278.3 601 257 601C235.7 601 214.3 601 193 601C171.7 601 150.3 601 128.8 601C107.3 601 85.7 601 64.2 601C42.7 601 21.3 601 10.7 601L0 601Z" fill="#b0a2fe"></path><path d="M0 565L10.7 568.8C21.3 572.7 42.7 580.3 64.2 584.3C85.7 588.3 107.3 588.7 128.8 588.8C150.3 589 171.7 589 193 587.5C214.3 586 235.7 583 257 580.8C278.3 578.7 299.7 577.3 321.2 578.2C342.7 579 364.3 582 385.8 580.5C407.3 579 428.7 573 450 570.5C471.3 568 492.7 569 514.2 569.7C535.7 570.3 557.3 570.7 578.8 572.7C600.3 574.7 621.7 578.3 643 577.3C664.3 576.3 685.7 570.7 707 567.5C728.3 564.3 749.7 563.7 771.2 565C792.7 566.3 814.3 569.7 835.8 569.5C857.3 569.3 878.7 565.7 889.3 563.8L900 562L900 601L889.3 601C878.7 601 857.3 601 835.8 601C814.3 601 792.7 601 771.2 601C749.7 601 728.3 601 707 601C685.7 601 664.3 601 643 601C621.7 601 600.3 601 578.8 601C557.3 601 535.7 601 514.2 601C492.7 601 471.3 601 450 601C428.7 601 407.3 601 385.8 601C364.3 601 342.7 601 321.2 601C299.7 601 278.3 601 257 601C235.7 601 214.3 601 193 601C171.7 601 150.3 601 128.8 601C107.3 601 85.7 601 64.2 601C42.7 601 21.3 601 10.7 601L0 601Z" fill="#cdc1ff"></path><path d="M0 592L10.7 590C21.3 588 42.7 584 64.2 583C85.7 582 107.3 584 128.8 586C150.3 588 171.7 590 193 589C214.3 588 235.7 584 257 582.5C278.3 581 299.7 582 321.2 583.5C342.7 585 364.3 587 385.8 588.2C407.3 589.3 428.7 589.7 450 589.3C471.3 589 492.7 588 514.2 585C535.7 582 557.3 577 578.8 574.7C600.3 572.3 621.7 572.7 643 572.3C664.3 572 685.7 571 707 571.2C728.3 571.3 749.7 572.7 771.2 573.5C792.7 574.3 814.3 574.7 835.8 575.2C857.3 575.7 878.7 576.3 889.3 576.7L900 577L900 601L889.3 601C878.7 601 857.3 601 835.8 601C814.3 601 792.7 601 771.2 601C749.7 601 728.3 601 707 601C685.7 601 664.3 601 643 601C621.7 601 600.3 601 578.8 601C557.3 601 535.7 601 514.2 601C492.7 601 471.3 601 450 601C428.7 601 407.3 601 385.8 601C364.3 601 342.7 601 321.2 601C299.7 601 278.3 601 257 601C235.7 601 214.3 601 193 601C171.7 601 150.3 601 128.8 601C107.3 601 85.7 601 64.2 601C42.7 601 21.3 601 10.7 601L0 601Z" fill="#b0a2fe"></path><path d="M0 582L10.7 583.8C21.3 585.7 42.7 589.3 64.2 591.7C85.7 594 107.3 595 128.8 593.8C150.3 592.7 171.7 589.3 193 586.7C214.3 584 235.7 582 257 584C278.3 586 299.7 592 321.2 592C342.7 592 364.3 586 385.8 584.5C407.3 583 428.7 586 450 586C471.3 586 492.7 583 514.2 582.5C535.7 582 557.3 584 578.8 586.5C600.3 589 621.7 592 643 593C664.3 594 685.7 593 707 592.7C728.3 592.3 749.7 592.7 771.2 592C792.7 591.3 814.3 589.7 835.8 588.8C857.3 588 878.7 588 889.3 588L900 588L900 601L889.3 601C878.7 601 857.3 601 835.8 601C814.3 601 792.7 601 771.2 601C749.7 601 728.3 601 707 601C685.7 601 664.3 601 643 601C621.7 601 600.3 601 578.8 601C557.3 601 535.7 601 514.2 601C492.7 601 471.3 601 450 601C428.7 601 407.3 601 385.8 601C364.3 601 342.7 601 321.2 601C299.7 601 278.3 601 257 601C235.7 601 214.3 601 193 601C171.7 601 150.3 601 128.8 601C107.3 601 85.7 601 64.2 601C42.7 601 21.3 601 10.7 601L0 601Z" fill="#7371fc"></path></svg>