<svg width="513" height="127" viewBox="0 0 513 127" fill="none" xmlns="http://www.w3.org/2000/svg" class="waveform">
<path d="M-100 62.6109L-92.7853 62.6101L-85.5693 62.6052L-78.3497 62.5923L-71.1225 62.5675L-63.8808 62.5285L-56.6145 62.4751L-49.3112 62.4124L-41.9577 62.3534L-34.5449 62.3231L-27.0744 62.3621L-19.5626 62.5218L-12.0304 62.8434L-4.49589 63.342L3.02847 63.9995L10.5366 64.7695L18.0272 65.5889L25.5016 66.3996L32.9619 67.1733L40.4114 67.9264L47.8531 68.7162L55.2873 69.597L62.7134 70.5794L70.1343 71.6129L77.5598 72.5987L85.0056 73.4209L92.4819 73.989L99.9824 74.2786L107.474 74.3531L114.903 74.3642L122.218 74.5105L129.407 74.9471L136.513 75.7212L143.627 76.7483L150.869 77.8195L158.364 78.632L166.206 78.832L174.426 78.0662L182.966 76.0529L191.688 72.6581L200.412 67.9795L208.979 62.4107L217.305 56.5706L225.37 51.144L233.2 46.7149L240.822 43.6492L248.255 42.0595L255.512 41.8474L262.595 42.7911L269.529 44.6252L276.361 47.0576L283.133 49.7385L289.868 52.2786L296.58 54.3277L303.276 55.6652L309.969 56.269L316.682 56.3286L323.432 56.1863L330.217 56.2411L337.018 56.828L343.811 58.1132L350.577 60.0704L357.314 62.5157L364.031 65.1731L370.745 67.7413L377.474 69.9513L384.233 71.6198L391.028 72.6849L397.862 73.2164L404.731 73.3907L411.631 73.4129L418.547 73.4178L425.47 73.4396L432.399 73.4265L439.346 73.2882L446.326 72.9394L453.345 72.3432L460.391 71.5253L467.436 70.5722L474.445 69.6038L481.399 68.7283L488.302 67.9974L495.177 67.4034L502.055 66.9L508.965 66.4245L515.923 65.9252L522.928 65.3777L529.968 64.7903L537.028 64.1987L544.098 63.6549L551.181 63.2083L558.293 62.8846L565.44 62.677L572.618 62.5623L579.822 62.5133L587.043 62.5058L594.275 62.5214L601.514 62.5479L608.756 62.5788L616 62.6109" stroke="#7371FC" stroke-opacity="0.1" stroke-width="0.25"/>
<path d="M-100 62.1868L-92.7876 62.1878L-85.5732 62.184L-78.3538 62.1703L-71.1241 62.1421L-63.8761 62.0956L-56.5984 62.0296L-49.2773 61.9486L-41.8998 61.8662L-34.4584 61.8106L-26.9603 61.8291L-19.4251 61.9785L-11.8765 62.3023L-4.33562 62.8152L3.18149 63.4962L10.6652 64.2921L18.1137 65.1359L25.5308 65.9697L32.9248 66.7716L40.3073 67.5701L47.6897 68.4306L55.0806 69.4014L62.4883 70.4678L69.9272 71.5437L77.4194 72.4916L84.987 73.1689L92.6385 73.4754L100.355 73.3952L108.085 73.0194L115.76 72.5451L123.317 72.2282L130.732 72.2899L138.032 72.832L145.287 73.7969L152.598 74.9709L160.075 76.0132L167.814 76.509L175.857 76.0382L184.172 74.2555L192.652 70.9883L201.142 66.3372L209.508 60.7325L217.676 54.844L225.632 49.4007L233.392 45.0215L240.971 42.098L248.371 40.759L255.594 40.9237L262.64 42.3623L269.538 44.7674L276.328 47.7656L283.051 50.9108L289.737 53.7353L296.407 55.845L303.083 57.0256L309.789 57.2953L316.545 56.9041L323.362 56.2684L330.23 55.8606L337.123 56.0711L344.003 57.0999L350.844 58.9288L357.63 61.3636L364.359 64.0925L371.041 66.7738L377.694 69.105L384.345 70.8834L391.016 72.0428L397.73 72.6602L404.502 72.9296L411.334 73.0631L418.222 73.1836L425.158 73.2976L432.146 73.3217L439.198 73.1403L446.317 72.664L453.494 71.87L460.695 70.8117L467.873 69.6124L474.986 68.4321L482.01 67.4134L488.949 66.6282L495.829 66.0711L502.68 65.68L509.535 65.3677L516.417 65.0514L523.337 64.6777L530.292 64.2332L537.272 63.7429L544.271 63.2583L551.295 62.8371L558.358 62.5169L565.469 62.3014L572.624 62.1747L579.816 62.1137L587.032 62.0965L594.264 62.1052L601.506 62.1275L608.752 62.156L616 62.1868" stroke="#7371FC" stroke-opacity="0.1" stroke-width="0.25"/>
<path d="M-100 61.7621L-92.7895 61.7645L-85.5763 61.7613L-78.3568 61.7469L-71.1249 61.7159L-63.8713 61.6634L-56.5835 61.5876L-49.2471 61.4924L-41.8492 61.3924L-34.3841 61.318L-26.8639 61.3223L-19.3111 61.4648L-11.7511 61.7895L-4.2079 62.3076L3.29978 62.9935L10.76 63.791L18.1697 64.6331L25.5344 65.4659L32.8685 66.2758L40.1914 67.1005L47.5236 68.0105L54.8823 69.047L62.2856 70.1759L69.7584 71.2783L77.3304 72.1819L85.0247 72.7126L92.8396 72.7527L100.74 72.29L108.659 71.4444L116.52 70.4604L124.261 69.659L131.859 69.3203L139.332 69.5919L146.73 70.4463L154.129 71.6703L161.618 72.8935L169.281 73.6428L177.166 73.4314L185.262 71.8621L193.491 68.7343L201.734 64.1536L209.884 58.5753L217.881 52.7046L225.715 47.3215L233.397 43.093L240.931 40.4432L248.307 39.5188L255.505 40.2281L262.527 42.3155L269.394 45.4215L276.144 49.086L282.816 52.7671L289.448 55.9181L296.073 58.1093L302.728 59.1279L309.442 59.0316L316.237 58.1376L323.119 56.9471L330.068 56.0114L337.049 55.782L344.016 56.4955L350.932 58.1435L357.774 60.5077L364.529 63.2377L371.201 65.9496L377.807 68.3098L384.377 70.1039L390.953 71.2751L397.574 71.9209L404.27 72.2537L411.056 72.4913L417.932 72.741L424.899 72.9729L431.961 73.0634L439.124 72.8672L446.379 72.2852L453.695 71.3025L461.022 69.9997L468.3 68.5408L475.483 67.1307L482.554 65.9474L489.518 65.0858L496.402 64.5483L503.238 64.2622L510.057 64.1152L516.883 63.9947L523.734 63.816L530.614 63.5401L537.52 63.1786L544.451 62.7812L551.415 62.4119L558.427 62.1174L565.501 61.9104L572.633 61.7822L579.811 61.7153L587.022 61.6909L594.253 61.6931L601.497 61.7101L608.747 61.7346L616 61.7621" stroke="#7371FC" stroke-opacity="0.1" stroke-width="0.25"/>
<path d="M-100 61.3373L-92.7905 61.3397L-85.5776 61.3361L-78.3571 61.3203L-71.122 61.2862L-63.8622 61.2286L-56.5646 61.1456L-49.2146 61.0416L-41.8002 60.9326L-34.319 60.8523L-26.7856 60.8563L-19.2234 61.0045L-11.6586 61.3382L-4.11655 61.8637L3.3812 62.5482L10.8199 63.3306L18.1954 64.1438L25.5156 64.942L32.8001 65.7249L40.0759 66.5437L47.3708 67.4763L54.7094 68.5582L62.117 69.7341L69.6258 70.8539L77.2697 71.7115L85.068 72.1027L93.0069 71.8929L101.034 71.0719L109.068 69.7787L117.03 68.2971L124.87 67.0006L132.581 66.2298L140.188 66.1845L147.728 66.8696L155.251 68.0741L162.811 69.4028L170.465 70.3414L178.25 70.345L186.163 68.9592L194.155 65.9553L202.145 61.4512L210.063 55.9336L217.872 50.1496L225.569 44.9244L233.164 40.973L240.652 38.7459L248.007 38.4034L255.201 39.8455L262.222 42.7749L269.082 46.7485L275.807 51.2016L282.438 55.4866L289.019 58.983L295.601 61.2292L302.232 62.0306L308.953 61.5025L315.786 60.0468L322.727 58.2547L329.749 56.7574L336.809 56.0589L343.855 56.4142L350.845 57.8066L357.745 59.9947L364.536 62.6041L371.214 65.2236L377.797 67.5034L384.321 69.2295L390.837 70.3552L397.399 71L404.052 71.3831L410.817 71.7105L417.699 72.0633L424.701 72.3839L431.831 72.5198L439.088 72.3037L446.452 71.6269L453.875 70.4822L461.287 68.9711L468.621 67.2896L475.837 65.6771L482.926 64.3455L489.906 63.4134L496.802 62.8921L503.643 62.7023L510.455 62.7136L517.26 62.7856L524.073 62.8061L530.903 62.7129L537.754 62.5012L544.632 62.2152L551.545 61.9213L558.512 61.6741L565.549 61.4938L572.654 61.3775L579.816 61.3132L587.017 61.2863L594.246 61.2838L601.491 61.2956L608.743 61.3149L616 61.3373" stroke="#7371FC" stroke-opacity="0.1" stroke-width="0.25"/>
<path d="M-100 60.9138L-92.7907 60.915L-85.5774 60.9102L-78.3551 60.8932L-71.1162 60.858L-63.85 60.7999L-56.5432 60.7174L-49.1817 60.6161L-41.7553 60.5131L-34.2651 60.4434L-26.7268 60.4611L-19.1632 60.6221L-11.6006 60.9611L-4.06498 61.477L3.42075 62.1318L10.8414 62.8658L18.1925 63.6187L25.4841 64.3584L32.7399 65.1002L39.992 65.9095L47.2718 66.8662L54.6083 67.9934L62.0308 69.2121L69.5744 70.3458L77.2713 71.1594L85.1318 71.4288L93.1284 71.0027L101.194 69.8627L109.242 68.1606L117.203 66.2071L125.051 64.4156L132.801 63.1729L140.487 62.7309L148.138 63.132L155.779 64.19L163.433 65.5037L171.118 66.5272L178.852 66.6723L186.632 65.4469L194.429 62.6008L202.199 58.2477L209.91 52.8933L217.554 47.3261L225.144 42.4143L232.684 38.9058L240.157 37.2903L247.522 37.7282L254.738 40.09L261.773 44.0107L268.623 48.9457L275.309 54.2154L281.874 59.0794L288.382 62.8637L294.901 65.1034L301.5 65.6421L308.225 64.6607L315.096 62.6436L322.1 60.2609L329.201 58.2116L336.347 57.0374L343.484 57.0059L350.563 58.0895L357.543 60.0196L364.395 62.3945L371.109 64.7919L377.702 66.8688L384.213 68.4238L390.702 69.4264L397.236 70.012L403.869 70.4039L410.628 70.7977L417.524 71.2475L424.563 71.6602L431.751 71.8521L439.081 71.6358L446.518 70.8929L453.999 69.6194L461.444 67.9352L468.786 66.0594L475.994 64.2611L483.076 62.7775L490.06 61.7528L496.974 61.2165L503.842 61.0927L510.678 61.2361L517.497 61.4831L524.309 61.693L531.123 61.7802L537.948 61.7243L544.791 61.5617L551.669 61.3596L558.601 61.1778L565.606 61.0424L572.685 60.9532L579.829 60.9025L587.02 60.88L594.243 60.8763L601.487 60.8839L608.741 60.8975L616 60.9138" stroke="#7371FC" stroke-opacity="0.1" stroke-width="0.25"/>
<path d="M-100 60.4896L-92.7901 60.4891L-85.5758 60.4833L-78.3518 60.4669L-71.1099 60.435L-63.8395 60.384L-56.5274 60.3136L-49.1604 60.2298L-41.7299 60.1491L-34.2404 60.1037L-26.7075 60.1418L-19.1527 60.3118L-11.6007 60.6418L-4.07632 61.127L3.39851 61.7298L10.809 62.3953L18.1507 63.0732L25.4333 63.7415L32.6812 64.4288L39.928 65.2103L47.2079 66.1697L54.5512 67.3205L61.9883 68.5656L69.5536 69.7113L77.2743 70.5029L85.1495 70.692L93.137 70.1096L101.157 68.7213L109.121 66.671L116.98 64.2796L124.74 61.989L132.451 60.239L140.163 59.3481L147.901 59.4091L155.665 60.2567L163.434 61.4836L171.189 62.5121L178.915 62.723L186.603 61.5991L194.244 58.8783L201.828 54.6833L209.364 49.5478L216.874 44.2953L224.385 39.839L231.898 36.9624L239.384 36.1565L246.785 37.566L254.041 41.015L261.105 46.0522L267.961 52.0203L274.629 58.1384L281.157 63.5864L287.619 67.6547L294.102 69.8903L300.681 70.179L307.41 68.7599L314.307 66.1802L321.355 63.1852L328.512 60.5323L335.72 58.798L342.923 58.2583L350.067 58.8816L357.109 60.3861L364.019 62.3645L370.788 64.4028L377.43 66.1711L383.983 67.4842L390.506 68.3345L397.068 68.8618L403.726 69.2841L410.51 69.7682L417.432 70.328L424.5 70.8381L431.722 71.094L439.085 70.8966L446.545 70.122L454.027 68.7643L461.447 66.9476L468.743 64.9048L475.902 62.925L482.952 61.2775L489.933 60.138L496.875 59.5575L503.793 59.4659L510.688 59.7092L517.561 60.1028L524.41 60.4835L531.243 60.743L538.069 60.8443L544.902 60.8154L551.762 60.722L558.673 60.6254L565.655 60.5542L572.715 60.5079L579.843 60.4818L587.025 60.4707L594.244 60.4692L601.485 60.4735L608.74 60.4809L616 60.4896" stroke="#7371FC" stroke-opacity="0.1" stroke-width="0.25"/>
<path d="M-100 60.0657L-92.7889 60.0627L-85.5732 60.0564L-78.3475 60.0433L-71.1037 60.0207L-63.8314 59.9872L-56.5181 59.9441L-49.1514 59.8972L-41.7247 59.8598L-34.2445 59.8552L-26.7257 59.9207L-19.1881 60.0939L-11.6532 60.3966L-4.14283 60.8232L3.32332 61.3414L10.7316 61.9059L18.0779 62.4794L25.3705 63.0552L32.6325 63.6771L39.8957 64.4317L47.1913 65.402L54.546 66.5928L61.9891 67.893L69.5512 69.0873L77.2521 69.9068L85.0804 70.0843L92.9815 69.4275L100.87 67.8845L108.667 65.585L116.345 62.8422L123.951 60.1175L131.573 57.8974L139.278 56.5388L147.089 56.1712L154.979 56.6662L162.887 57.6396L170.745 58.5132L178.504 58.6492L186.14 57.5187L193.654 54.8592L201.075 50.8059L208.452 45.9286L215.841 41.1013L223.284 37.2744L230.786 35.24L238.305 35.4748L245.769 38.085L253.095 42.8009L260.221 49.0545L267.116 56.072L273.795 62.9858L280.315 68.9398L286.76 73.2269L293.225 75.4207L299.796 75.4519L306.528 73.6242L313.439 70.5473L320.511 67.0042L327.697 63.7701L334.943 61.4293L342.19 60.2541L349.389 60.2274L356.494 61.0981L363.476 62.4956L370.323 64.0364L377.047 65.4082L383.68 66.4315L390.276 67.0973L396.901 67.5518L403.609 67.9992L410.431 68.5797L417.381 69.2712L424.47 69.9155L431.702 70.2874L439.059 70.1712L446.492 69.4334L453.92 68.062L461.26 66.1794L468.465 64.0171L475.542 61.8759L482.543 60.058L489.521 58.7738L496.505 58.0956L503.497 57.9653L510.483 58.2363L517.443 58.7168L524.366 59.2243L531.25 59.6295L538.105 59.8772L544.95 59.9843L551.812 60.0105L558.718 60.0156L565.689 60.0266L572.738 60.0387L579.858 60.0491L587.033 60.0568L594.247 60.0618L601.486 60.0644L608.74 60.0654L616 60.0657" stroke="#7371FC" stroke-opacity="0.1" stroke-width="0.25"/>
<path d="M-100 59.6406L-92.7866 59.6352L-85.5686 59.6297L-78.3405 59.6241L-71.0945 59.6193L-63.8208 59.6169L-56.508 59.62L-49.1458 59.633L-41.7299 59.6614L-34.2666 59.7163L-26.7688 59.8213L-19.2525 60.002L-11.736 60.2735L-4.23797 60.6299L3.22471 61.0454L10.639 61.4849L18.0005 61.9269L25.3157 62.3825L32.6031 62.913L39.8898 63.6187L47.2026 64.5898L54.5639 65.8256L61.9966 67.1963L69.5241 68.4715L77.1584 69.3709L84.8796 69.6129L92.6265 68.9862L100.314 67.4066L107.877 64.9688L115.323 61.9664L122.745 58.873L130.26 56.2L137.952 54.3425L145.832 53.4661L153.843 53.4666L161.888 53.9956L169.86 54.5195L177.677 54.4151L185.295 53.1574L192.724 50.5058L200.022 46.6368L207.275 42.1674L214.564 37.9996L221.944 35.0685L229.417 34.1127L236.937 35.5415L244.425 39.3947L251.79 45.3412L258.958 52.7202L265.896 60.6744L272.616 68.2854L279.177 74.6768L285.668 79.1597L292.182 81.3491L298.797 81.2208L305.566 79.1108L312.506 75.6482L319.6 71.6298L326.805 67.8445L334.072 64.8856L341.352 63.0338L348.597 62.2853L355.768 62.4219L362.835 63.1181L369.781 64.0268L376.609 64.8705L383.347 65.4985L390.04 65.9104L396.746 66.2442L403.518 66.6892L410.383 67.3613L417.353 68.2004L424.438 69.006L431.643 69.5263L438.951 69.5354L446.307 68.8898L453.633 67.5632L460.855 65.6617L467.944 63.4111L474.933 61.1253L481.894 59.1355L488.888 57.6837L495.938 56.8698L503.031 56.651L510.133 56.8866L517.205 57.3869L524.222 57.9606L531.178 58.4632L538.082 58.825L544.958 59.0506L551.837 59.192L558.75 59.305L565.722 59.4129L572.766 59.505L579.878 59.573L587.047 59.6166L594.255 59.6398L601.491 59.648L608.742 59.6467L616 59.6406" stroke="#7371FC" stroke-opacity="0.1" stroke-width="0.25"/>
<path d="M-100 59.217L-92.7843 59.2086L-85.5642 59.2051L-78.3343 59.2117L-71.0874 59.2342L-63.8145 59.2788L-56.5056 59.3509L-49.1518 59.4518L-41.7506 59.5749L-34.3071 59.7157L-26.8311 59.8815L-19.3349 60.0828L-11.8333 60.3242L-4.34231 60.5971L3.12177 60.8803L10.5468 61.1542L17.9278 61.4179L25.2689 61.7082L32.5843 62.1113L39.8957 62.7453L47.2244 63.7107L54.5858 65.0065L61.9935 66.4938L69.4627 67.9267L76.9965 69.0042L84.5679 69.4294L92.1147 68.9625L99.5611 67.48L106.867 65.0334L114.078 61.8872L121.326 58.5069L128.754 55.4192L136.447 53.0463L144.404 51.5915L152.542 50.9887L160.727 50.916L168.818 50.8889L176.701 50.3556L184.32 48.8426L191.69 46.1462L198.888 42.4758L206.027 38.4692L213.209 35.0237L220.495 33.0336L227.892 33.1859L235.356 35.8296L242.812 40.9282L250.168 48.054L257.349 56.469L264.316 65.2548L271.089 73.4641L277.726 80.2347L284.309 84.9098L290.918 87.1438L297.623 86.953L304.469 84.7008L311.469 81.0227L318.607 76.7035L325.851 72.5174L333.157 69.0498L340.486 66.5817L347.796 65.1216L355.049 64.4865L362.211 64.402L369.262 64.5794L376.202 64.79L383.054 64.9191L389.853 64.9814L396.645 65.1165L403.476 65.5028L410.37 66.2293L417.338 67.2021L424.391 68.1875L431.534 68.9061L438.753 69.1136L445.997 68.6427L453.195 67.4396L460.285 65.5863L467.258 63.2944L474.171 60.8859L481.114 58.7157L488.146 57.0575L495.279 56.0425L502.485 55.654L509.709 55.7636L516.9 56.1875L524.019 56.7409L531.054 57.2759L538.015 57.7111L544.93 58.0371L551.835 58.2935L558.763 58.5249L565.743 58.7446L572.787 58.9335L579.896 59.0737L587.06 59.1643L594.264 59.2131L601.496 59.2309L608.744 59.2288L616 59.217" stroke="#7371FC" stroke-opacity="0.1" stroke-width="0.25"/>
<path d="M-100 58.7923L-92.7826 58.7804L-85.561 58.7793L-78.3301 58.8006L-71.0833 58.8564L-63.8123 58.9584L-56.5078 59.1145L-49.1624 59.3226L-41.7743 59.5612L-34.3472 59.8091L-26.8879 60.0563L-19.406 60.2974L-11.9141 60.5272L-4.42713 60.7353L3.03974 60.9094L10.4745 61.045L17.8712 61.1597L25.2314 61.3096L32.5647 61.5978L39.8875 62.163L47.2171 63.1235L54.5632 64.4862L61.9337 66.1143L69.3363 67.755L76.7655 69.0931L84.1866 69.8066L91.5336 69.6147L98.7372 68.3376L105.781 65.9642L112.752 62.7163L119.818 59.0389L127.148 55.469L134.832 52.4661L142.853 50.2881L151.103 48.9271L159.415 48.1261L167.616 47.4469L175.569 46.4042L183.204 44.602L190.534 41.8839L197.653 38.4912L204.69 35.06L211.758 32.4346L218.926 31.4393L226.207 32.6838L233.566 36.4469L240.936 42.6149L248.24 50.6859L255.414 59.8621L262.432 69.2164L269.314 77.8269L276.111 84.8614L282.879 89.7064L289.675 92.0583L296.543 91.9536L303.513 89.7524L310.597 86.0678L317.79 81.6551L325.072 77.2542L332.416 73.4261L339.792 70.4439L347.162 68.3379L354.484 66.9727L361.723 66.1293L368.854 65.5773L375.876 65.1406L382.806 64.7429L389.676 64.4283L396.525 64.3398L403.393 64.6455L410.303 65.4137L417.264 66.5254L424.284 67.7201L431.368 68.6868L438.497 69.147L445.627 68.9041L452.691 67.8706L459.642 66.0916L466.497 63.7605L473.338 61.2019L480.263 58.7912L487.333 56.84L494.55 55.5238L501.868 54.8669L509.217 54.767L516.528 55.0501L523.754 55.5309L530.875 56.0607L537.901 56.5487L544.863 56.9694L551.802 57.3452L558.754 57.7042L565.747 58.0467L572.798 58.3427L579.908 58.5633L587.071 58.7065L594.273 58.7841L601.502 58.8128L608.747 58.8102L616 58.7923" stroke="#7371FC" stroke-opacity="0.1" stroke-width="0.25"/>
<path d="M-100 58.3693L-92.7817 58.3545L-85.559 58.357L-78.3269 58.3948L-71.0789 58.4869L-63.8066 58.6503L-56.5016 58.8954L-49.1568 59.2154L-41.7719 59.572L-34.3504 59.9275L-26.8981 60.2559L-19.4237 60.5393L-11.9394 60.7659L-4.46015 60.9263L2.99969 61.0175L10.4286 61.0499L17.8217 61.0577L25.1816 61.1156L32.5179 61.348L39.8435 61.9065L47.1707 62.9212L54.5046 64.409L61.8462 66.2358L69.193 68.1408L76.5269 69.787L83.8001 70.8157L90.9407 70.8977L97.8879 69.7927L104.657 67.4388L111.372 64.0213L118.234 59.9679L125.431 55.827L133.063 52.1043L141.109 49.1298L149.437 46.9717L157.852 45.4417L166.152 44.1574L174.175 42.6722L181.84 40.6444L189.159 37.9787L196.234 34.944L203.203 32.1571L210.185 30.4015L217.255 30.4228L224.435 32.7412L231.703 37.5416L239.004 44.6203L246.279 53.408L253.478 63.0762L260.587 72.7017L267.624 81.4156L274.624 88.4629L281.624 93.308L288.651 95.704L295.727 95.707L302.866 93.6602L310.077 90.1381L317.355 85.8413L324.691 81.453L332.074 77.4826L339.484 74.1864L346.886 71.6071L354.238 69.6513L361.502 68.1593L368.655 66.9694L375.697 65.9615L382.646 65.1049L389.534 64.465L396.399 64.1877L403.275 64.4334L410.182 65.2562L417.129 66.5156L424.121 67.9222L431.159 69.1297L438.218 69.8259L445.246 69.7793L452.178 68.8638L458.986 67.0934L465.712 64.6514L472.463 61.8721L479.353 59.1543L486.445 56.8456L493.734 55.1655L501.16 54.1816L508.633 53.8257L516.068 53.9396L523.405 54.3357L530.619 54.8526L537.72 55.3856L544.739 55.8951L551.723 56.3881L558.71 56.8756L565.729 57.3429L572.795 57.7483L579.914 58.0513L587.08 58.2486L594.281 58.3558L601.508 58.3961L608.751 58.3932L616 58.3693" stroke="#7371FC" stroke-opacity="0.1" stroke-width="0.25"/>
<path d="M-100 57.9429L-92.781 57.9298L-85.5571 57.9409L-78.323 58.0011L-71.0714 58.1352L-63.7942 58.3648L-56.483 58.6997L-49.1321 59.1246L-41.7418 59.5875L-34.3161 60.0379L-26.8609 60.4372L-19.3854 60.7583L-11.9029 60.9862L-4.42916 61.1167L3.02034 61.1564L10.4347 61.1303L17.8101 61.0889L25.1514 61.1233L32.4698 61.3683L39.7785 61.9854L47.0877 63.1134L54.4004 64.7783L61.712 66.8444L69.0101 69.0423L76.2618 71.0113L83.4043 72.354L90.3577 72.6906L97.0714 71.726L103.583 69.3507L110.046 65.7197L116.688 61.2484L123.722 56.4967L131.261 52.0089L139.286 48.1775L147.654 45.1553L156.145 42.8397L164.532 40.9285L172.625 39.0382L180.33 36.8668L187.658 34.3553L194.718 31.7944L201.651 29.7671L208.58 28.9735L215.585 30.0472L222.695 33.3958L229.899 39.1086L237.159 46.8956L244.427 56.1304L251.67 65.9838L258.884 75.5951L266.091 84.184L273.317 91.087L280.575 95.8416L287.868 98.2486L295.193 98.373L302.541 96.5342L309.908 93.2505L317.292 89.1493L324.691 84.8488L332.103 80.8161L339.52 77.2903L346.917 74.3377L354.252 71.9166L361.49 69.9329L368.611 68.2829L375.617 66.8886L382.532 65.7392L389.392 64.9108L396.236 64.5447L403.093 64.7902L409.986 65.6949L416.92 67.1039L423.898 68.7094L430.909 70.1392L437.917 71.0407L444.858 71.1388L451.672 70.2706L458.348 68.4299L464.955 65.8004L471.616 62.7308L478.458 59.6456L485.551 56.9301L492.887 54.8487L500.397 53.5094L507.979 52.8737L515.532 52.8008L522.982 53.1045L530.297 53.6092L537.482 54.1941L544.571 54.8013L551.611 55.418L558.643 56.0367L565.695 56.6274L572.784 57.1391L579.916 57.5248L587.088 57.778L594.291 57.9175L601.516 57.9718L608.755 57.9708L616 57.9429" stroke="#7371FC" stroke-opacity="0.1" stroke-width="0.25"/>
<path d="M-100 57.52L-92.7805 57.5137L-85.5553 57.5384L-78.3178 57.6256L-71.0604 57.8055L-63.7742 58.1021L-56.4508 58.522L-49.086 59.0373L-41.6812 59.586L-34.2412 60.1082L-26.7732 60.5572L-19.2877 60.9028L-11.8001 61.1316L-4.32854 61.2467L3.10988 61.2676L10.5038 61.2322L17.8516 61.2035L25.1622 61.2833L32.451 61.6168L39.7336 62.3712L47.0193 63.6834L54.3087 65.5785L61.594 67.9206L68.8534 70.4275L76.0382 72.706L83.0691 74.3099L89.8575 74.8083L96.3624 73.8739L102.639 71.383L108.856 67.482L115.261 62.5757L122.09 57.2231L129.48 51.9933L137.424 47.3325L145.781 43.4773L154.318 40.417L162.78 37.932L170.956 35.7084L178.729 33.4925L186.101 31.2525L193.181 29.2694L200.111 28.0694L207.024 28.259L214.004 30.3481L221.088 34.6262L228.274 41.0692L235.533 49.3151L242.83 58.7158L250.143 68.4739L257.474 77.8075L264.846 86.0526L272.279 92.6617L279.773 97.2464L287.316 99.6416L294.884 99.9099L302.451 98.334L309.998 95.3657L317.516 91.5573L325.003 87.4471L332.464 83.4512L339.898 79.8001L347.284 76.5911L354.585 73.8405L361.769 71.5097L368.818 69.5465L375.737 67.9077L382.562 66.601L389.339 65.705L396.117 65.3578L402.931 65.6949L409.795 66.7416L416.712 68.3324L423.677 70.1385L430.667 71.7585L437.632 72.8002L444.5 72.9541L451.216 72.0349L457.784 70.0325L464.286 67.1442L470.858 63.7358L477.64 60.2557L484.71 57.1182L492.066 54.6233L499.636 52.9177L507.308 51.9924L514.966 51.7206L522.524 51.9189L529.939 52.4049L537.211 53.039L544.375 53.743L551.477 54.4807L558.558 55.2231L565.649 55.927L572.765 56.5354L579.914 56.9988L587.094 57.3061L594.3 57.4779L601.524 57.5472L608.759 57.5499L616 57.52" stroke="#7371FC" stroke-opacity="0.1" stroke-width="0.25"/>
<path d="M-100 57.0952L-92.7806 57.0967L-85.5541 57.1353L-78.3129 57.248L-71.0479 57.4696L-63.7494 57.8253L-56.409 58.3182L-49.0233 58.9075L-41.5956 59.5227L-34.1321 60.097L-26.6418 60.5788L-19.1373 60.9368L-11.6364 61.1629L-4.16025 61.2728L3.27112 61.3005L10.6447 61.2982L17.9595 61.3408L25.2279 61.5377L32.4715 62.0366L39.7133 63.0062L46.9672 64.5771L54.2313 66.7596L61.4924 69.4L68.7183 72.1892L75.8483 74.7061L82.7922 76.4739L89.462 77.0321L95.8186 76.037L101.917 73.3622L107.929 69.1544L114.113 63.8108L120.725 57.8997L127.927 52.0147L135.739 46.6586L144.032 42.132L152.569 38.4947L161.078 35.5959L169.325 33.1752L177.173 31.0212L184.612 29.1197L191.742 27.7323L198.71 27.3169L205.644 28.3757L212.637 31.3007L219.731 36.2663L226.929 43.1589L234.212 51.5605L241.554 60.8226L248.937 70.2078L256.372 79.0358L263.884 86.7696L271.493 92.9717L279.196 97.3338L286.971 99.7159L294.779 100.17L302.576 98.9275L310.324 96.3636L317.998 92.937L325.593 89.1087L333.116 85.2501L340.573 81.5874L347.947 78.2418L355.206 75.2789L362.316 72.7229L369.265 70.5784L376.067 68.8426L382.764 67.5366L389.417 66.7267L396.086 66.5306L402.816 67.0584L409.625 68.3085L416.51 70.0887L423.455 72.0516L430.426 73.7745L437.358 74.8422L444.175 74.9197L450.826 73.8199L457.321 71.557L463.745 68.3546L470.238 64.5976L476.951 60.7464L483.976 57.2322L491.322 54.3796L498.922 52.3584L506.656 51.1826L514.4 50.7409L522.055 50.8524L529.566 51.3252L536.926 52.0054L544.165 52.7951L551.329 53.6373L558.462 54.4856L565.592 55.2844L572.738 55.9717L579.906 56.4969L587.096 56.8466L594.306 57.0429L601.53 57.1232L608.763 57.1277L616 57.0952" stroke="#7371FC" stroke-opacity="0.1" stroke-width="0.25"/>
<path d="M-100 56.671L-92.781 56.6806L-85.5534 56.7324L-78.3079 56.8681L-71.0337 57.1257L-63.7199 57.5315L-56.3576 58.0843L-48.9449 58.7315L-41.4865 59.3954L-33.9908 60.0039L-26.4688 60.5024L-18.9361 60.8621L-11.4141 61.0822L-3.92815 61.1885L3.49869 61.2311L10.8513 61.2777L18.129 61.4191L25.3472 61.7732L32.5342 62.4865L39.722 63.722L46.9325 65.5968L54.1657 68.0945L61.4013 71.0299L68.6009 74.0634L75.6961 76.7447L82.5945 78.5713L89.2046 79.0718L95.4785 77.9134L101.458 74.9898L107.307 70.4626L113.286 64.7336L119.67 58.3644L126.652 51.9688L134.287 46.0861L142.467 41.064L150.964 37.0149L159.494 33.8375L167.804 31.3236L175.735 29.2964L183.255 27.7495L190.458 26.9223L197.483 27.2026L204.464 28.9928L211.496 32.5729L218.627 38.0021L225.863 45.076L233.187 53.3347L240.576 62.1529L248.023 70.8832L255.545 78.9901L263.178 86.0802L270.942 91.8251L278.831 95.9769L286.814 98.409L294.838 99.1433L302.844 98.3453L310.777 96.2981L318.6 93.3635L326.301 89.9151L333.892 86.2757L341.382 82.6689L348.759 79.2562L355.989 76.1671L363.041 73.4925L369.9 71.2819L376.584 69.566L383.143 68.3757L389.651 67.7697L396.186 67.8354L402.81 68.6504L409.548 70.1758L416.391 72.1755L423.311 74.271L430.26 76.0208L437.166 77.0012L443.954 76.8841L450.575 75.507L457.032 72.9202L463.404 69.3764L469.831 65.2785L476.47 61.0922L483.428 57.2575L490.73 54.1103L498.317 51.837L506.075 50.4653L513.874 49.8932L521.603 49.9381L529.195 50.4016L536.634 51.1189L543.946 51.9773L551.173 52.9024L558.357 53.8326L565.529 54.7038L572.705 55.4499L579.893 56.0203L587.096 56.4002L594.311 56.6136L601.535 56.701L608.766 56.7061L616 56.671" stroke="#7371FC" stroke-opacity="0.1" stroke-width="0.25"/>
<path d="M-100 56.2471L-92.7818 56.264L-85.5533 56.3271L-78.3033 56.4816L-71.0195 56.7681L-63.6893 57.2129L-56.3032 57.8114L-48.8605 58.5007L-41.3675 59.1973L-33.8343 59.8249L-26.2738 60.3284L-18.7042 60.6814L-11.1506 60.8914L-3.64243 60.9993L3.79173 61.0705L11.1327 61.1904L18.3773 61.4628L25.542 62.01L32.66 62.9743L39.7725 64.5014L46.9132 66.6903L54.0922 69.4949L61.2925 72.6925L68.4724 75.9122L75.5625 78.6784L82.4672 80.4753L89.0858 80.8418L95.3524 79.4661L101.289 76.2694L107.039 71.4334L112.859 65.3663L119.033 58.6322L125.783 51.849L133.197 45.5774L141.207 40.2078L149.603 35.8992L158.106 32.5907L166.448 30.098L174.449 28.2654L182.063 27.0957L189.368 26.8079L196.495 27.7283L203.574 30.1647L210.7 34.283L217.918 40.028L225.232 47.101L232.625 55.003L240.078 63.1512L247.589 71.0049L255.18 78.174L262.889 84.4176L270.745 89.5464L278.75 93.3972L286.873 95.8577L295.059 96.9082L303.238 96.6281L311.335 95.1816L319.301 92.8166L327.115 89.8204L334.785 86.4682L342.323 82.9945L349.714 79.6047L356.927 76.4873L363.927 73.7941L370.699 71.6209L377.261 70.0198L383.668 69.0305L390.008 68.6989L396.376 69.0868L402.85 70.231L409.473 72.0485L416.244 74.2666L423.127 76.4757L430.066 78.2137L436.984 79.0549L443.796 78.6925L450.438 76.9997L456.902 74.0647L463.253 70.1742L469.631 65.7502L476.196 61.2632L483.071 57.157L490.299 53.7766L497.841 51.3188L505.591 49.8167L513.415 49.1657L521.196 49.1778L528.854 49.6461L536.363 50.3948L543.741 51.302L551.026 52.2839L558.259 53.2696L565.469 54.1879L572.673 54.9708L579.881 55.5686L587.095 55.9661L594.315 56.1891L601.54 56.2799L608.769 56.2846L616 56.2471" stroke="#7371FC" stroke-opacity="0.1" stroke-width="0.25"/>
<path d="M-100 55.8223L-92.7815 55.8524L-85.5508 55.9315L-78.2948 56.1068L-70.9995 56.4193L-63.6512 56.8928L-56.2402 57.5152L-48.7669 58.2197L-41.2387 58.9209L-33.667 59.5411L-26.0658 60.0265L-18.4554 60.3573L-10.8644 60.5513L-3.32671 60.6625L4.12412 60.7736L11.4633 60.984L18.6828 61.407L25.7974 62.1668L32.844 63.396L39.8726 65.2229L46.9287 67.7171L54.0375 70.8025L61.1972 74.2237L68.3737 77.5758L75.495 80.3616L82.4556 82.0602L89.1374 82.2234L95.4527 80.5722L101.401 77.0692L107.107 71.9258L112.811 65.5606L118.804 58.5455L125.333 51.5072L132.522 45.0204L140.339 39.5004L148.604 35.1327L157.048 31.8759L165.398 29.5548L173.458 28.0141L181.163 27.2482L188.573 27.4518L195.81 28.8979L202.996 31.8058L210.217 36.2302L217.52 42.0159L224.909 48.794L232.37 56.0541L239.887 63.2721L247.465 70.0351L255.13 76.1098L262.926 81.4137L270.88 85.8924L278.987 89.4543L287.216 91.9945L295.508 93.4401L303.792 93.7698L311.995 93.0291L320.059 91.348L327.956 88.9172L335.69 85.9624L343.273 82.7168L350.691 79.4259L357.907 76.334L364.882 73.6587L371.598 71.5585L378.067 70.1242L384.346 69.3979L390.524 69.4018L396.714 70.1572L403.015 71.6584L409.491 73.7793L416.158 76.1991L422.988 78.4793L429.923 80.1504L436.875 80.8002L443.745 80.1487L450.448 78.1116L456.954 74.8172L463.317 70.5907L469.666 65.8764L476.166 61.15L482.953 56.8522L490.09 53.326L497.557 50.7665L505.262 49.2051L513.078 48.5323L520.879 48.5539L528.58 49.0521L536.141 49.8403L543.572 50.7878L550.905 51.8057L558.179 52.8187L565.42 53.7539L572.648 54.5448L579.872 55.1453L587.095 55.5438L594.319 55.7667L601.544 55.857L608.772 55.8608L616 55.8223" stroke="#7371FC" stroke-opacity="0.1" stroke-width="0.25"/>
<path d="M-100 55.3984L-92.7808 55.4402L-85.5475 55.5322L-78.2852 55.7226L-70.9784 56.0515L-63.6123 56.5396L-56.1775 57.1684L-48.6746 57.8712L-41.1113 58.5632L-33.4996 59.1656L-25.8542 59.625L-18.1971 59.925L-10.5603 60.0939L-2.98208 60.2004L4.49835 60.3433L11.8491 60.6377L19.0565 61.2064L26.1315 62.1738L33.1127 63.6642L40.0581 65.782L47.0279 68.5682L54.0653 71.9089L61.1835 75.5084L68.359 78.9325L75.5243 81.6696L82.5675 83.2052L89.3524 83.1111L95.7673 81.1425L101.784 77.3068L107.503 71.8596L113.146 65.2447L119.001 58.0385L125.333 50.8752L132.3 44.3405L139.909 38.8601L148.014 34.6217L156.367 31.5778L164.7 29.5501L172.808 28.3806L180.606 28.0588L188.132 28.7532L195.493 30.682L202.799 33.9728L210.131 38.5727L217.527 44.2295L224.995 50.5209L232.521 56.9447L240.098 63.0561L247.735 68.5747L255.462 73.4217L263.324 77.6621L271.343 81.368L279.516 84.5389L287.807 87.1045L296.157 88.9405L304.493 89.9238L312.745 89.9697L320.858 89.0646L328.805 87.2923L336.591 84.8224L344.226 81.8909L351.689 78.7842L358.936 75.8067L365.92 73.2339L372.61 71.273L379.014 70.0443L385.182 69.5946L391.208 69.9291L397.218 71.0362L403.335 72.8676L409.648 75.2567L416.195 77.8514L422.961 80.1839L429.888 81.7772L436.879 82.2295L443.816 81.2916L450.595 78.9144L457.164 75.2733L463.56 70.7345L469.903 65.7674L476.355 60.8534L483.061 56.4294L490.103 52.829L497.48 50.2378L505.116 48.6769L512.891 48.0267L520.682 48.0792L528.396 48.6084L535.986 49.4237L543.453 50.3944L550.821 51.4291L558.125 52.4496L565.39 53.3821L572.634 54.1626L579.868 54.7502L587.096 55.1379L594.322 55.3528L601.548 55.4379L608.774 55.4387L616 55.3984" stroke="#7371FC" stroke-opacity="0.1" stroke-width="0.25"/>
<path d="M-100 54.9746L-92.7795 55.0235L-85.543 55.1228L-78.2741 55.3203L-70.9555 55.6548L-63.5719 56.1447L-56.1144 56.7673L-48.584 57.4564L-40.9881 58.1274L-33.3377 58.7018L-25.6474 59.1278L-17.9401 59.395L-10.2508 59.5426L-2.62363 59.6521L4.89566 59.8335L12.2693 60.2114L19.4768 60.9151L26.5243 62.0706L33.4501 63.7917L40.3185 66.1603L47.2045 69.188L54.1695 72.729L61.2455 76.462L68.4229 79.9336L75.6396 82.6194L82.7799 84.0025L89.6957 83.6682L96.253 81.3993L102.395 77.2446L108.193 71.5073L113.843 64.6724L119.626 57.336L125.812 50.1404L132.587 43.6775L139.994 38.3717L147.924 34.3984L156.157 31.6942L164.442 30.0628L172.572 29.3272L180.447 29.4601L188.085 30.6131L195.565 32.9532L202.983 36.5225L210.408 41.1647L217.879 46.5369L225.401 52.1702L232.974 57.5913L240.593 62.4432L248.272 66.5792L256.045 70.0739L263.949 73.1463L272.001 75.9944L280.199 78.7114L288.509 81.2536L296.87 83.4627L305.212 85.1198L313.469 86.0049L321.594 85.9524L329.567 84.9213L337.398 83.0229L345.095 80.4851L352.629 77.6334L359.94 74.8304L366.968 72.4089L373.669 70.62L380.039 69.6151L386.124 69.4512L392.019 70.1213L397.861 71.5843L403.796 73.7483L409.938 76.3977L416.349 79.1422L423.035 81.4985L429.942 82.9929L436.969 83.2421L443.983 82.0195L450.857 79.3147L457.515 75.3438L463.972 70.5143L470.332 65.321L476.75 60.2588L483.381 55.7598L490.322 52.1451L497.592 49.5894L505.135 48.1002L512.844 47.5395L520.6 47.6792L528.305 48.2791L535.906 49.1429L543.392 50.1382L550.783 51.1783L558.105 52.1882L565.384 53.0969L572.637 53.8457L579.874 54.4002L587.103 54.76L594.328 54.9546L601.552 55.0266L608.776 55.0197L616 54.9746" stroke="#7371FC" stroke-opacity="0.1" stroke-width="0.25"/>
<path d="M-100 54.5484L-92.7777 54.5976L-85.5378 54.6954L-78.2623 54.8881L-70.9327 55.213L-63.5331 55.6871L-56.0556 56.2874L-48.5013 56.9511L-40.8764 57.5949L-33.1902 58.1383L-25.4556 58.5302L-17.6954 58.7649L-9.94766 58.8887L-2.26123 58.9936L5.31168 59.2023L12.7247 59.6512L19.949 60.475L26.9839 61.7972L33.8666 63.7213L40.668 66.3128L47.4754 69.5568L54.3691 73.2795L61.4011 77.1277L68.5785 80.6212L75.8492 83.2234L83.0992 84.4204L90.1691 83.8116L96.9029 81.2073L103.215 76.7011L109.144 70.656L114.859 63.6103L120.622 56.1933L126.709 49.0599L133.325 42.8003L140.546 37.825L148.301 34.2821L156.404 32.075L164.622 30.973L172.753 30.7721L180.689 31.4233L188.422 33.0478L196.008 35.7499L203.522 39.4914L211.024 44.032L218.55 48.9608L226.111 53.7943L233.71 58.0991L241.352 61.6079L249.06 64.3008L256.865 66.3949L264.794 68.2397L272.855 70.154L281.038 72.3127L289.315 74.7221L297.639 77.2185L305.945 79.5074L314.169 81.2283L322.274 82.065L330.252 81.8463L338.118 80.6014L345.879 78.5437L353.499 76.0304L360.901 73.4741L368.002 71.2571L374.743 69.6685L381.106 68.8894L387.128 68.9928L392.906 69.9648L398.589 71.736L404.345 74.1841L410.318 77.0648L416.597 79.962L423.207 82.3749L430.102 83.8219L437.173 83.9238L444.272 82.4718L451.254 79.4844L458.019 75.2172L464.557 70.1197L470.953 64.7281L477.355 59.5559L483.921 55.03L490.762 51.4599L497.919 48.9991L505.354 47.6282L512.974 47.1844L520.668 47.4233L528.337 48.0928L535.924 48.9937L543.411 50L550.807 51.0296L558.134 52.0117L565.414 52.8791L572.664 53.5787L579.896 54.0841L587.119 54.4023L594.338 54.5666L601.558 54.6191L608.779 54.6008L616 54.5484" stroke="#7371FC" stroke-opacity="0.1" stroke-width="0.25"/>
<path d="M-100 54.1257L-92.7759 54.1679L-85.5328 54.2555L-78.2514 54.4317L-70.9121 54.732L-63.4989 55.1733L-56.0048 55.7365L-48.4308 56.3643L-40.7819 56.9748L-33.0642 57.4874L-25.2879 57.8504L-17.4748 58.0591L-9.66493 58.1634L-1.9127 58.263L5.72166 58.4899L13.1827 58.9892L20.4319 59.9008L27.4616 61.3477L34.3056 63.4266L41.0393 66.1881L47.764 69.5965L54.5802 73.4543L61.5622 77.3882L68.7372 80.9034L76.0676 83.4532L83.4435 84.5181L90.6996 83.7029L97.6589 80.8337L104.203 76.0392L110.331 69.7316L116.177 62.513L121.983 55.0632L128.021 48.0579L134.512 42.087L141.565 37.5427L149.148 34.543L157.11 32.9468L165.248 32.4785L173.367 32.8916L181.349 34.1122L189.164 36.2204L196.841 39.2639L204.43 43.1185L211.976 47.4524L219.514 51.8063L227.069 55.7039L234.662 58.7763L242.316 60.8663L250.061 62.075L257.921 62.7492L265.9 63.3635L273.978 64.3306L282.129 65.8929L290.322 68.0856L298.528 70.7439L306.71 73.5321L314.831 75.9998L322.865 77.685L330.816 78.2854L338.706 77.7364L346.54 76.2224L354.264 74.1079L361.781 71.8453L368.986 69.8633L375.801 68.4988L382.193 67.9563L388.186 68.3193L393.876 69.5684L399.42 71.6186L405.004 74.3156L410.8 77.3826L416.927 80.3813L423.433 82.8059L430.288 84.1816L437.388 84.1485L444.578 82.5143L451.686 79.312L458.585 74.82L465.238 69.5182L471.705 63.9725L478.122 58.7221L484.646 54.2048L491.4 50.7174L498.443 48.3914L505.755 47.184L513.265 46.9059L520.871 47.2869L528.482 48.0596L536.034 49.0188L543.502 50.0403L550.887 51.0488L558.205 51.9806L565.474 52.7774L572.711 53.3976L579.93 53.8268L587.14 54.0813L594.351 54.1998L601.564 54.2232L608.781 54.1883L616 54.1257" stroke="#7371FC" stroke-opacity="0.1" stroke-width="0.25"/>
<path d="M-100 53.7015L-92.7738 53.7316L-85.5276 53.8021L-78.2406 53.9522L-70.8931 54.2148L-63.4686 54.6078L-55.9614 55.1183L-48.3718 55.6969L-40.7026 56.2651L-32.9568 56.7413L-25.1407 57.0725L-17.2747 57.2558L-9.40096 57.344L-1.5796 57.4409L6.12076 57.6836L13.6346 58.2204L20.9139 59.1955L27.9432 60.731L34.7535 62.9168L41.4238 65.7933L48.0671 69.3089L54.8035 73.2468L61.7314 77.2193L68.9014 80.7244L76.2932 83.2121L83.8057 84.1616L91.2684 83.1774L98.4854 80.0997L105.304 75.091L111.683 68.6109L117.722 61.3091L123.636 53.921L129.69 47.1582L136.112 41.6046L143.033 37.6202L150.455 35.2746L158.271 34.3796L166.309 34.6093L174.394 35.6801L182.401 37.4733L190.272 40.0245L198.006 43.3155L205.633 47.1477L213.188 51.1351L220.709 54.7894L228.235 57.6561L235.811 59.4533L243.484 60.1498L251.291 59.9752L259.238 59.3728L267.294 58.8874L275.402 58.983L283.508 59.9376L291.577 61.817L299.596 64.4701L307.566 67.5487L315.492 70.5588L323.376 72.9424L331.241 74.267L339.119 74.3744L347.013 73.4038L354.856 71.7212L362.521 69.7931L369.87 68.0855L376.797 66.9617L383.245 66.6481L389.23 67.2377L394.845 68.7101L400.257 70.9735L405.676 73.8619L411.301 77.0868L417.279 80.1949L423.682 82.6659L430.497 84.0281L437.628 83.9243L444.911 82.1772L452.159 78.8363L459.218 74.1982L466.016 68.7662L472.586 63.1323L479.046 57.8579L485.551 53.3955L492.232 50.0337L499.164 47.8844L506.349 46.8752L513.734 46.7836L521.233 47.3177L528.76 48.196L536.254 49.2085L543.683 50.2332L551.039 51.2022L558.331 52.0615L565.575 52.764L572.786 53.2808L579.981 53.6116L587.172 53.7849L594.368 53.8452L601.573 53.8321L608.784 53.7765L616 53.7015" stroke="#7371FC" stroke-opacity="0.1" stroke-width="0.25"/>
<path d="M-100 53.2762L-92.7687 53.2914L-85.5165 53.3409L-78.2227 53.4584L-70.8676 53.6736L-63.4363 54.0052L-55.9235 54.4484L-48.3276 54.9644L-40.6472 55.4814L-32.8817 55.9174L-25.0331 56.2183L-17.1186 56.3795L-9.18099 56.4545L-1.28585 56.5494L6.4884 56.8033L14.0649 57.3644L21.3844 58.3739L28.4231 59.9537L35.2077 62.1919L41.8195 65.1196L48.3832 68.6761L55.0378 72.6378L61.9051 76.6142L69.0599 80.0978L76.5033 82.5366L84.147 83.4041L91.8234 82.3087L99.3222 79.1007L106.455 73.9562L113.133 67.3694L119.415 60.0464L125.491 52.7817L131.61 46.3282L138.004 41.2716L144.826 37.9472L152.114 36.3764L159.797 36.303L167.737 37.3325L175.778 39.1273L183.792 41.5256L191.7 44.5197L199.471 48.0243L207.108 51.7709L214.634 55.3194L222.097 58.1797L229.558 59.9546L237.09 60.457L244.764 59.7666L252.621 58.2299L260.65 56.3942L268.783 54.8742L276.918 54.1726L284.968 54.5773L292.889 56.1362L300.687 58.6902L308.402 61.8828L316.086 65.2079L323.788 68.0782L331.548 69.9834L339.402 70.6764L347.351 70.2483L355.308 69.0302L363.125 67.4895L370.634 66.0967L377.696 65.2363L384.235 65.1525L390.248 65.9475L395.823 67.6123L401.129 70.0475L406.395 73.0762L411.846 76.3963L417.664 79.5585L423.953 82.0504L430.719 83.406L437.876 83.277L445.257 81.4918L452.659 78.1017L459.895 73.4041L466.859 67.9177L473.552 62.2573L480.073 57.0082L486.573 52.6404L493.191 49.4416L500.016 47.5009L507.074 46.7144L514.326 46.8287L521.706 47.5262L529.136 48.5102L536.557 49.5676L543.932 50.5826L551.246 51.4959L558.502 52.2625L565.709 52.8476L572.886 53.2379L580.05 53.4497L587.215 53.5242L594.392 53.5121L601.584 53.4521L608.789 53.3688L616 53.2762" stroke="#7371FC" stroke-opacity="0.1" stroke-width="0.25"/>
<path d="M-100 52.8536L-92.7621 52.8522L-85.5031 52.8785L-78.2023 52.9602L-70.841 53.1235L-63.4065 53.3884L-55.8942 53.7571L-48.2998 54.2005L-40.6173 54.6557L-32.8404 55.044L-24.9672 55.3078L-17.0118 55.4391L-9.01652 55.4904L-1.05176 55.5666L6.79511 55.8066L14.436 56.3601L21.8011 57.3681L28.8572 58.9481L35.6261 61.1834L42.1903 64.1006L48.6819 67.636L55.2549 71.5662L62.0546 75.5001L69.1828 78.9373L76.6658 81.3289L84.4346 82.1545L92.3262 81.0227L100.115 77.7779L107.581 72.6083L114.591 66.0377L121.16 58.8159L127.444 51.7899L133.676 45.7482L140.088 41.2859L146.848 38.7017L154.023 37.9558L161.581 38.7286L169.42 40.5691L177.406 43.0841L185.408 46.0619L193.322 49.4373L201.087 53.0666L208.683 56.6229L216.133 59.6441L223.497 61.6587L230.864 62.3277L238.34 61.5637L246.019 59.5694L253.945 56.8187L262.083 53.9402L270.322 51.5854L278.508 50.2533L286.515 50.2085L294.283 51.47L301.832 53.8558L309.242 57.009L316.619 60.4379L324.066 63.5608L331.664 65.8396L339.459 66.9649L347.442 66.9654L355.515 66.1324L363.5 64.9179L371.194 63.7956L378.422 63.1562L385.077 63.2512L391.139 64.1871L396.692 65.9623L401.914 68.4852L407.048 71.5875L412.346 74.9732L418.018 78.1927L424.194 80.7407L430.906 82.1572L438.081 82.0964L445.552 80.3778L453.105 77.0485L460.525 72.4067L467.67 66.975L474.507 61.3837L481.117 56.2365L487.641 52.0161L494.221 49.0121L500.958 47.2968L507.895 46.7387L515.016 47.0568L522.27 47.9098L529.596 48.9886L536.934 50.077L544.243 51.0641L551.503 51.9002L558.71 52.5522L565.872 52.9996L573.007 53.246L580.132 53.3239L587.266 53.2876L594.421 53.1941L601.598 53.0812L608.794 52.9665L616 52.8536" stroke="#7371FC" stroke-opacity="0.1" stroke-width="0.25"/>
<path d="M-100 52.4281L-92.754 52.4148L-85.4871 52.4229L-78.179 52.4748L-70.8125 52.5927L-63.3779 52.7964L-55.8712 53.0918L-48.2857 53.4573L-40.6099 53.8395L-32.8308 54.1679L-24.9413 54.3874L-16.9536 54.4845L-8.90956 54.5042L-0.882637 54.5471L7.03274 54.7501L14.738 55.2595L22.1506 56.2126L29.2261 57.727L35.9782 59.8822L42.4866 62.7053L48.8887 66.137L55.3575 69.9622L62.069 73.8005L69.159 77.1611L76.678 79.5084L84.5643 80.3286L92.659 79.2292L100.728 76.0488L108.524 70.9749L115.878 64.5472L122.762 57.5457L129.298 50.8565L135.695 45.2997L142.178 41.4696L148.922 39.6359L156.02 39.7018L163.474 41.2846L171.216 43.8772L179.133 47.046L187.099 50.5464L194.993 54.275L202.724 58.0338L210.257 61.4431L217.611 64.0149L224.859 65.2906L232.118 64.991L239.52 63.1203L247.177 59.988L255.136 56.1601L263.345 52.3612L271.656 49.2894L279.879 47.4401L287.845 47.0305L295.474 48.0228L302.793 50.1937L309.916 53.1792L316.998 56.499L324.198 59.6079L331.632 62.0017L339.361 63.3605L347.365 63.6573L355.532 63.1311L363.667 62.2L371.537 61.3237L378.933 60.8824L385.718 61.1233L391.852 62.1573L397.405 63.9822L402.558 66.5138L407.565 69.6017L412.699 72.9667L418.203 76.1812L424.253 78.7501L430.911 80.2293L438.112 80.2795L445.687 78.7139L453.403 75.5565L461.022 71.0844L468.367 65.8116L475.374 60.3775L482.101 55.4071L488.677 51.3956L495.244 48.6313L501.916 47.1722L508.748 46.8602L515.746 47.3861L522.878 48.3892L530.093 49.5508L537.34 50.6561L544.576 51.6021L551.775 52.3488L558.928 52.8738L566.04 53.173L573.129 53.2676L580.215 53.2065L587.317 53.0556L594.449 52.8776L601.612 52.7098L608.799 52.5622L616 52.4281" stroke="#7371FC" stroke-opacity="0.1" stroke-width="0.25"/>
<path d="M-100 52.0053L-92.7457 51.9846L-85.4709 51.9805L-78.1564 52.0108L-70.7869 52.0944L-63.356 52.2503L-55.8607 52.4857L-48.2913 52.7831L-40.6302 53.0954L-32.857 53.3584L-24.9597 53.5206L-16.9483 53.5666L-8.86409 53.5348L-0.783741 53.5201L7.19155 53.6564L14.9535 54.0877L22.4083 54.9483L29.5003 56.3523L36.2327 58.3805L42.6788 61.0673L48.978 64.3614L55.3194 68.0588L61.9103 71.7852L68.9274 75.0557L76.4561 77.3525L84.4513 78.1814L92.7394 77.1566L101.077 74.1164L109.195 69.2366L116.89 63.0538L124.097 56.3708L130.907 50.0959L137.502 45.0601L144.095 41.8604L150.865 40.7373L157.919 41.5462L165.285 43.8475L172.922 47.0928L180.749 50.8144L188.647 54.7367L196.486 58.7243L204.159 62.5457L211.614 65.7981L218.867 67.9776L226 68.6457L233.145 67.5592L240.46 64.7772L248.076 60.6885L256.047 55.9608L264.314 51.3982L272.7 47.7499L280.973 45.5209L288.924 44.8833L296.447 45.7155L303.568 47.7207L310.421 50.507L317.211 53.6141L324.145 56.547L331.393 58.8468L339.039 60.2216L347.059 60.634L355.32 60.2706L363.602 59.4945L371.645 58.7344L379.212 58.3659L386.136 58.6339L392.357 59.6589L397.93 61.4555L403.028 63.9558L407.908 67.0149L412.866 70.3726L418.186 73.6152L424.092 76.2515L430.685 77.8349L437.918 78.0284L445.603 76.6481L453.485 73.7138L461.304 69.4887L468.854 64.4713L476.045 59.2989L482.912 54.5954L489.569 50.8572L496.158 48.3671L502.794 47.1677L509.549 47.081L516.445 47.7823L523.467 48.899L530.577 50.1106L537.734 51.2087L544.896 52.0986L552.033 52.7518L559.132 53.1576L566.196 53.3218L573.242 53.2784L580.292 53.0889L587.366 52.8297L594.476 52.5694L601.625 52.346L608.805 52.1635L616 52.0053" stroke="#7371FC" stroke-opacity="0.1" stroke-width="0.25"/>
<path d="M-100 51.5802L-92.7377 51.5617L-85.4559 51.5574L-78.1367 51.5825L-70.7668 51.6534L-63.3435 51.7865L-55.8644 51.9858L-48.3172 52.2314L-40.6789 52.4777L-32.9218 52.6658L-25.0278 52.7502L-17.0036 52.7188L-8.89059 52.6039L-0.766391 52.4929L7.26261 52.5122L15.0796 52.8016L22.5795 53.4956L29.6931 54.7099L36.4105 56.5346L42.796 59.0229L48.988 62.144L55.1899 65.7063L61.6402 69.3294L68.5511 72.5237L76.0426 74.773L84.0951 75.6021L92.5401 74.6543L101.104 71.7792L109.502 67.1448L117.506 61.287L125.024 55.0185L132.114 49.2511L138.931 44.8087L145.667 42.2666L152.492 41.8329L159.523 43.324L166.811 46.2645L174.347 50.0816L182.075 54.2948L189.895 58.6116L197.671 62.8756L205.283 66.8286L212.67 70.0406L219.838 71.9887L226.87 72.2242L233.906 70.5205L241.12 66.9792L248.658 62.0609L256.588 56.5231L264.854 51.2604L273.267 47.0935L281.57 44.548L289.524 43.7622L296.987 44.5502L303.969 46.5346L310.621 49.2552L317.178 52.2228L323.895 54.9558L330.981 57.0297L338.546 58.2016L346.573 58.4729L354.913 58.0246L363.324 57.1835L371.526 56.3478L379.257 55.8812L386.326 56.0306L392.65 56.9266L398.271 58.594L403.347 60.984L408.135 63.9774L412.941 67.332L418.086 70.6327L423.836 73.3668L430.33 75.0722L437.545 75.4168L445.308 74.2379L453.335 71.5646L461.338 67.6421L469.087 62.9429L476.465 58.0866L483.486 53.6928L490.249 50.2518L496.887 48.0444L503.519 47.1069L510.226 47.2448L517.043 48.1141L523.971 49.3364L530.99 50.5955L538.066 51.6882L545.16 52.5292L552.242 53.0998L559.294 53.3994L566.32 53.4438L573.334 53.2765L580.356 52.9691L587.406 52.6072L594.499 52.2661L601.637 51.9859L608.809 51.7657L616 51.5802" stroke="#7371FC" stroke-opacity="0.1" stroke-width="0.25"/>
<path d="M-100 51.156L-92.7321 51.1468L-85.4463 51.1525L-78.1266 51.1888L-70.7625 51.2712L-63.3543 51.4135L-55.8996 51.6139L-48.3837 51.8457L-40.7771 52.059L-33.0455 52.1927L-25.1644 52.2002L-17.1373 52.07L-9.00553 51.8308L-0.847982 51.565L7.22555 51.3977L15.0918 51.4726L22.6377 51.9317L29.7846 52.9026L36.5106 54.4929L42.8673 56.776L48.9874 59.7408L55.0787 63.1964L61.3939 66.7415L68.17 69.8668L75.5586 72.0596L83.573 72.865L92.0682 71.956L100.774 69.2134L109.38 64.8069L117.641 59.2582L125.438 53.3697L132.795 48.0504L139.837 44.1233L146.738 42.1536L153.656 42.3191L160.708 44.3968L167.955 47.8808L175.413 52.187L183.051 56.83L190.784 61.5188L198.482 66.1007L206.025 70.3174L213.347 73.7155L220.445 75.7403L227.389 75.9036L234.317 73.9524L241.406 69.9882L248.82 64.5064L256.646 58.3208L264.841 52.4111L273.219 47.693L281.51 44.7601L289.45 43.767L296.875 44.4892L303.777 46.4747L310.302 49.187L316.704 52.079L323.272 54.6389L330.25 56.4561L337.777 57.3177L345.84 57.2563L354.275 56.4794L362.825 55.3168L371.186 54.1632L379.076 53.3847L386.291 53.2435L392.732 53.8811L398.426 55.3384L403.518 57.5858L408.255 60.5347L412.952 63.9557L417.951 67.399L423.549 70.3066L429.917 72.1895L437.068 72.713L444.844 71.7246L452.964 69.2751L461.11 65.6232L469.028 61.2258L476.581 56.6857L483.76 52.6116L490.648 49.4875L497.367 47.5819L504.033 46.9153L510.731 47.2773L517.506 48.3166L524.372 49.649L531.322 50.9609L538.332 52.0579L545.37 52.8659L552.404 53.374L559.419 53.589L566.414 53.5347L573.402 53.2618L580.403 52.8501L587.436 52.393L594.517 51.9729L601.646 51.6345L608.813 51.3733L616 51.156" stroke="#7371FC" stroke-opacity="0.1" stroke-width="0.25"/>
<path d="M-100 50.7311L-92.7305 50.7366L-85.4455 50.7607L-78.1314 50.8218L-70.7803 50.9368L-63.3946 51.1166L-55.9717 51.3519L-48.4934 51.606L-40.9251 51.8164L-33.2259 51.9106L-25.3651 51.8343L-17.3426 51.5733L-9.19901 51.1601L-1.01372 50.6783L7.10155 50.2585L15.0202 50.0541L22.6237 50.2219L29.825 50.9103L36.5905 52.2532L42.9586 54.352L49.0495 57.208L55.0659 60.6099L61.2646 64.1211L67.8991 67.2077L75.1457 69.3448L83.0504 70.0926L91.4992 69.1531L100.238 66.444L108.951 62.1695L117.376 56.8491L125.376 51.2749L132.951 46.3526L140.202 42.9007L147.275 41.4577L154.314 42.1652L161.425 44.7595L168.674 48.7166L176.09 53.4517L183.663 58.4959L191.326 63.5741L198.956 68.5524L206.436 73.172L213.687 76.9615L220.697 79.3403L227.52 79.783L234.294 77.9897L241.203 74.0081L248.424 68.296L256.061 61.6723L264.093 55.1871L272.354 49.8691L280.581 46.4192L288.498 45.062L295.915 45.5875L302.798 47.499L309.281 50.1809L315.624 53.0099L322.132 55.4172L329.075 56.9754L336.611 57.4645L344.738 56.9292L353.286 55.6104L361.986 53.8779L370.521 52.1607L378.599 50.8491L385.999 50.2291L392.608 50.4637L398.438 51.6257L403.62 53.7266L408.385 56.6972L413.045 60.2807L417.946 63.9534L423.403 67.0995L429.618 69.2009L436.636 69.9156L444.333 69.1088L452.448 66.8529L460.661 63.4333L468.693 59.3042L476.383 55.0524L483.705 51.2784L490.722 48.4573L497.543 46.8448L504.277 46.4408L511.006 47.0188L517.779 48.219L524.62 49.6611L531.532 51.0373L538.502 52.1606L545.502 52.9674L552.506 53.4546L559.496 53.6335L566.473 53.5293L573.445 53.1945L580.434 52.7112L587.457 52.179L594.529 51.6886L601.652 51.2926L608.816 50.9862L616 50.7311" stroke="#7371FC" stroke-opacity="0.1" stroke-width="0.25"/>
<path d="M-100 50.3071L-92.7324 50.332L-85.4525 50.3801L-78.15 50.4732L-70.8196 50.6289L-63.4645 50.854L-56.0805 51.1303L-48.6457 51.4089L-41.121 51.6161L-33.4591 51.6703L-25.6233 51.5099L-17.6086 51.1165L-9.45355 50.524L-1.23874 49.8183L6.92191 49.1317L14.8993 48.6257L22.5715 48.4754L29.8469 48.8603L36.6834 49.9491L43.1071 51.8747L49.2241 54.6447L55.2229 58.0081L61.3518 61.4854L67.8662 64.5098L74.9598 66.5506L82.706 67.173L91.0236 66.0997L99.6875 63.2884L108.396 58.9867L116.877 53.7379L124.98 48.3484L132.692 43.7264L140.095 40.6735L147.314 39.6928L154.473 40.8776L161.666 43.9452L168.957 48.3666L176.378 53.5603L183.927 59.0632L191.54 64.6212L199.095 70.1175L206.469 75.3171L213.579 79.7586L220.408 82.8431L227.011 83.9944L233.54 82.8392L240.2 79.3315L247.19 73.8302L254.632 67.0931L262.511 60.1695L270.672 54.1692L278.86 49.9545L286.8 47.9085L294.282 47.9015L301.247 49.4375L307.801 51.8468L314.192 54.4302L320.729 56.5589L327.703 57.7601L335.291 57.8009L343.508 56.7405L352.19 54.854L361.057 52.5426L369.78 50.2398L378.051 48.3483L385.642 47.1782L392.432 46.9293L398.428 47.7308L403.747 49.6478L408.606 52.6364L413.3 56.4041L418.168 60.3416L423.525 63.7518L429.596 66.0726L436.455 66.9581L444.014 66.2816L452.039 64.1391L460.223 60.8443L468.282 56.8862L476.041 52.8536L483.455 49.346L490.572 46.8289L497.486 45.5369L504.296 45.4401L511.077 46.2909L517.879 47.7162L524.729 49.3361L531.636 50.8442L538.593 52.0578L545.576 52.9186L552.561 53.433L559.534 53.6162L566.497 53.4956L573.459 53.1243L580.439 52.5872L587.458 51.9888L594.528 51.4288L601.651 50.9699L608.815 50.61L616 50.3071" stroke="#7371FC" stroke-opacity="0.1" stroke-width="0.25"/>
<path d="M-100 49.8829L-92.7354 49.9318L-85.4616 50.0071L-78.1711 50.1331L-70.8612 50.3262L-63.5342 50.587L-56.1842 50.8877L-48.7871 51.1682L-41.3009 51.3439L-33.6743 51.3247L-25.8655 51.0442L-17.8645 50.4865L-9.70568 49.6947L-1.46834 48.766L6.73417 47.8336L14.773 47.0649L22.5269 46.648L29.8998 46.7805L36.8423 47.6645L43.3674 49.4508L49.5653 52.1373L55.6039 55.4332L61.714 58.8161L68.1443 61.6945L75.0975 63.5308L82.6666 63.9021L90.8005 62.5521L99.3066 59.4707L107.907 54.96L116.341 49.631L124.455 44.3173L132.225 39.9322L139.721 37.2528L147.051 36.7275L154.325 38.4101L161.625 41.9901L169.003 46.9412L176.479 52.6835L184.041 58.7634L191.614 64.9497L199.072 71.1678L206.293 77.204L213.198 82.6037L219.773 86.7307L226.088 88.9407L232.312 88.7623L238.671 86.0334L245.387 81.0016L252.606 74.3434L260.333 67.0766L268.415 60.3633L276.596 55.2066L284.604 52.1624L292.216 51.2386L299.349 52.0034L306.082 53.7833L312.634 55.8232L319.301 57.4389L326.375 58.1213L334.052 57.6267L342.365 56L351.167 53.5359L360.181 50.6693L369.072 47.8504L377.529 45.4828L385.319 43.8888L392.316 43.299L398.514 43.8805L404.016 45.7326L409.021 48.8091L413.807 52.7606L418.696 56.9064L424.001 60.5002L429.954 62.951L436.653 63.9126L444.034 63.2717L451.897 61.1434L459.963 57.8748L467.959 53.9998L475.704 50.1357L483.141 46.8785L490.309 44.6745L497.289 43.7252L504.166 43.9688L511.008 45.1344L517.857 46.839L524.739 48.6948L531.662 50.3941L538.622 51.7565L545.6 52.7314L552.575 53.3279L559.537 53.5635L566.488 53.4651L573.443 53.0848L580.421 52.509L587.441 51.8487L594.515 51.2142L601.643 50.6799L608.811 50.2506L616 49.8829" stroke="#7371FC" stroke-opacity="0.1" stroke-width="0.25"/>
<path d="M-100 49.46L-92.7423 49.5354L-85.4779 49.639L-78.2014 49.7949L-70.9112 50.0169L-63.6085 50.2982L-56.2854 50.6024L-48.9169 50.862L-41.46 50.9873L-33.862 50.8841L-26.0782 50.4816L-18.0922 49.7614L-9.93263 48.7737L-1.67627 47.6288L6.56474 46.4689L14.6642 45.4656L22.5014 44.8165L29.9816 44.7469L37.0521 45.4783L43.7161 47.1685L50.0439 49.795L56.1805 53.0327L62.3335 56.3295L68.7372 59.0723L75.5895 60.7066L82.9958 60.817L90.927 59.1659L99.2248 55.7813L107.643 51.0137L115.943 45.5253L123.977 40.1879L131.721 35.9108L139.237 33.4529L146.626 33.2401L153.984 35.304L161.381 39.3265L168.852 44.7739L176.404 51.0696L183.996 57.7651L191.538 64.652L198.894 71.6924L205.944 78.6999L212.616 85.2076L218.907 90.5422L224.91 93.9955L230.815 95.0063L236.867 93.3011L243.31 89.0045L250.311 82.6745L257.893 75.2566L265.914 67.9161L274.116 61.7592L282.224 57.5187L290.018 55.3884L297.384 55.0395L304.369 55.8287L311.159 57.0066L318.03 57.8766L325.26 57.9028L333.049 56.8007L341.45 54.5857L350.345 51.5513L359.471 48.1699L368.5 44.9384L377.118 42.2514L385.088 40.4146L392.284 39.6635L398.692 40.1902L404.404 42.1062L409.597 45.3341L414.524 49.4662L419.483 53.7755L424.772 57.4836L430.626 59.991L437.156 60.9576L444.333 60.2866L451.988 58.1214L459.875 54.8431L467.743 51.016L475.418 47.285L482.835 44.2418L490.019 42.3118L497.039 41.6698L503.967 42.2315L510.864 43.7095L517.766 45.7059L524.692 47.8233L531.648 49.7475L538.626 51.2985L545.608 52.4266L552.576 53.1443L559.526 53.4682L566.466 53.4212L573.412 53.0527L580.388 52.451L587.411 51.7344L594.492 51.0244L601.627 50.409L608.803 49.9019L616 49.46" stroke="#7371FC" stroke-opacity="0.1" stroke-width="0.25"/>
<path d="M-100 49.0346L-92.7513 49.1421L-85.4972 49.2779L-78.233 49.465L-70.9568 49.7118L-63.6675 50.0034L-56.3562 50.2956L-48.9986 50.5152L-41.5538 50.5685L-33.9707 50.3589L-26.2041 49.8123L-18.2337 48.9095L-10.0814 47.7098L-1.81633 46.3448L6.45547 44.9873L14.6103 43.8181L22.5308 43.0385L30.1245 42.8708L37.3358 43.5362L44.1574 45.1741L50.6418 47.736L56.9094 50.8747L63.1439 54.0303L69.56 56.5851L76.3484 57.9895L83.616 57.8324L91.3517 55.8949L99.4238 52.2322L107.621 47.224L115.733 41.5645L123.627 36.1456L131.281 31.8767L138.754 29.5028L146.14 29.452L153.533 31.7639L160.994 36.1275L168.542 42.0082L176.161 48.8346L183.787 56.1735L191.308 63.8361L198.575 71.8003L205.465 79.8891L211.92 87.61L217.954 94.2495L223.69 99.0505L229.332 101.374L235.125 100.837L241.314 97.4352L248.081 91.6074L255.48 84.201L263.398 76.3515L271.599 69.2171L279.809 63.6691L287.807 60.0893L295.462 58.3249L302.784 57.8393L309.911 57.9238L317.071 57.8866L324.516 57.1802L332.441 55.4738L340.918 52.7316L349.861 49.2094L359.04 45.3873L368.143 41.7987L376.866 38.871L384.976 36.9088L392.349 36.1435L398.961 36.7493L404.889 38.8161L410.29 42.2253L415.387 46.5097L420.454 50.9243L425.77 54.6965L431.565 57.2276L437.96 58.1776L444.944 57.4663L452.383 55.2621L460.058 51.9675L467.747 48.1715L475.288 44.5355L482.621 41.6532L489.763 39.932L496.774 39.5298L503.72 40.3514L510.65 42.0972L517.595 44.3632L524.567 46.7444L531.562 48.9148L538.568 50.6854L545.563 52.0029L552.533 52.8768L559.478 53.3198L566.412 53.3499L573.356 53.0143L580.335 52.4017L587.367 51.6363L594.459 50.8518L601.606 50.1508L608.793 49.5589L616 49.0346" stroke="#7371FC" stroke-opacity="0.1" stroke-width="0.25"/>
<path d="M-100 48.6106L-92.7624 48.7486L-85.5195 48.9134L-78.2661 49.1248L-70.9986 49.3846L-63.7128 49.6706L-56.3986 49.9344L-49.0334 50.1022L-41.5806 50.0816L-33.9941 49.7775L-26.2313 49.1148L-18.2713 48.0692L-10.129 46.6993L-1.86447 45.1501L6.42453 43.6195L14.6212 42.3111L22.6131 41.4326L30.3098 41.2004L37.6554 41.8184L44.6354 43.4071L51.2878 45.8944L57.7103 48.9234L64.0601 51.9303L70.5294 54.2981L77.2945 55.4803L84.4607 55.0702L92.0279 52.8609L99.8892 48.9246L107.863 43.6672L115.767 37.8133L123.484 32.2768L130.998 27.9721L138.368 25.6302L145.686 25.6745L153.043 28.1544L160.504 32.7777L168.085 39.027L175.747 46.3395L183.396 54.2867L190.891 62.6989L198.067 71.572L204.804 80.7215L211.06 89.634L216.883 97.5551L222.422 103.674L227.888 107.282L233.523 107.915L239.558 105.478L246.169 100.292L253.425 93.0904L261.245 84.9223L269.428 76.937L277.716 70.1094L285.891 65.0016L293.825 61.6666L301.5 59.7361L309.004 58.5947L316.511 57.5803L324.225 56.1368L332.316 53.8894L340.861 50.7174L349.808 46.8077L358.971 42.6207L368.075 38.73L376.837 35.6289L385.033 33.6227L392.539 32.9213L399.329 33.6692L405.464 35.9047L411.077 39.4742L416.36 43.8725L421.552 48.3479L426.912 52.132L432.662 54.6348L438.932 55.5341L445.731 54.7707L452.949 52.5306L460.399 49.2333L467.885 45.4745L475.265 41.9198L482.48 39.1632L489.547 37.6059L496.519 37.3958L503.455 38.4305L510.4 40.4084L517.377 42.9185L524.39 45.5448L531.426 47.9546L538.464 49.9517L545.481 51.4745L552.46 52.5265L559.408 53.1109L566.341 53.2374L573.287 52.9496L580.273 52.3376L587.317 51.532L594.423 50.6784L601.583 49.8942L608.782 49.2178L616 48.6106" stroke="#7371FC" stroke-opacity="0.1" stroke-width="0.25"/>
<path d="M-100 48.1852L-92.7737 48.3526L-85.5412 48.5436L-78.2959 48.7735L-71.0311 49.0362L-63.7395 49.3035L-56.4095 49.5259L-49.0206 49.6347L-41.5419 49.5454L-33.9348 49.1689L-26.1632 48.4314L-18.2068 47.3018L-10.0762 45.8287L-1.82298 44.1578L6.46589 42.5028L14.684 41.0925L22.728 40.1365L30.5135 39.842L37.9853 40.3967L45.123 41.9016L51.9488 44.2609L58.5355 47.1195L65.0139 49.9307L71.5532 52.0924L78.3156 53.0625L85.4045 52.4415L92.8256 50.027L100.487 45.8971L108.229 40.4618L115.894 34.4508L123.388 28.7814L130.7 24.3647L137.898 21.9341L145.084 21.9255L152.361 24.425L159.8 29.192L167.409 35.7459L175.124 43.5332L182.816 52.1213L190.308 61.3243L197.42 71.1285L204.041 81.3272L210.154 91.377L215.847 100.492L221.291 107.81L226.691 112.573L232.267 114.262L238.221 112.713L244.713 108.162L251.82 101.245L259.501 92.9282L267.607 84.3107L275.926 76.3964L284.255 69.8836L292.462 65.0107L300.497 61.5843L308.404 59.1313L316.294 57.084L324.317 54.9116L332.607 52.2138L341.235 48.7897L350.171 44.7247L359.273 40.4093L368.312 36.4039L377.039 33.2267L385.252 31.212L392.832 30.5549L399.75 31.3625L406.056 33.6411L411.862 37.2124L417.329 41.5712L422.662 45.9805L428.091 49.6997L433.826 52.1532L440 53.0166L446.634 52.2312L453.642 49.9899L460.87 46.715L468.148 43.0074L475.35 39.5375L482.426 36.8922L489.388 35.4628L496.287 35.3911L503.18 36.5767L510.111 38.725L517.102 41.4319L524.149 44.2791L531.229 46.9248L538.309 49.1571L545.356 50.9017L552.354 52.1467L559.311 52.8831L566.251 53.1128L573.206 52.8761L580.205 52.2662L587.265 51.422L594.386 50.501L601.561 49.6349L608.771 48.8749L616 48.1852" stroke="#7371FC" stroke-opacity="0.1" stroke-width="0.25"/>
<path d="M-100 47.7609L-92.7864 47.9525L-85.5649 48.1636L-78.3266 48.4041L-71.0611 48.6597L-63.7567 48.8985L-56.3995 49.0747L-48.9711 49.1289L-41.447 48.9883L-33.7986 48.5744L-25.9996 47.815L-18.0353 46.6709L-9.91563 45.1756L-1.68335 43.4648L6.58716 41.7516L14.8031 40.2726L22.8718 39.2424L30.7172 38.8583L38.2883 39.295L45.5626 40.6502L52.549 42.8253L59.2996 45.4758L65.9176 48.0767L72.5468 50.0382L79.3313 50.8177L86.3642 50.006L93.6552 47.4052L101.125 43.0992L108.638 37.5049L116.056 31.3491L123.3 25.5386L130.375 20.9807L137.355 18.4168L144.359 18.3066L151.505 20.7829L158.876 25.651L166.477 32.4692L174.228 40.7009L181.962 49.9021L189.473 59.8617L196.562 70.53L203.121 81.6596L209.161 92.6708L214.806 102.742L220.243 110.999L225.674 116.666L231.285 119.212L237.247 118.433L243.694 114.497L250.706 107.941L258.268 99.62L266.279 90.5578L274.579 81.7668L282.997 74.0315L291.418 67.761L299.779 62.9504L308.08 59.2915L316.373 56.3194L324.743 53.5591L333.276 50.5903L342.018 47.1233L350.948 43.1241L359.957 38.884L368.87 34.9063L377.483 31.7188L385.625 29.6938L393.192 29.019L400.165 29.792L406.588 32.0108L412.557 35.4791L418.199 39.6975L423.679 43.9588L429.195 47.5442L434.94 49.889L441.041 50.6735L447.534 49.8424L454.355 47.5907L461.374 44.3441L468.443 40.6949L475.455 37.3058L482.367 34.7536L489.197 33.4204L495.998 33.4446L502.831 34.7351L509.74 37.0169L516.746 39.8996L523.834 42.9641L530.968 45.848L538.099 48.3195L545.186 50.2849L552.212 51.7195L559.188 52.6045L566.143 52.9364L573.116 52.7532L580.134 52.1506L587.213 51.2757L594.352 50.2972L601.54 49.3591L608.762 48.5245L616 47.7609" stroke="#7371FC" stroke-opacity="0.1" stroke-width="0.25"/>
<path d="M-100 47.3364L-92.7975 47.5563L-85.5849 47.7913L-78.3505 48.0454L-71.08 48.2954L-63.7573 48.5051L-56.3661 48.6323L-48.8899 48.6283L-41.3115 48.4373L-33.6126 47.9973L-25.7779 47.2431L-17.8002 46.1277L-9.68962 44.6677L-1.48191 42.9745L6.76017 41.2434L14.9578 39.7076L23.0301 38.585L30.9114 38.0703L38.5562 38.3346L45.9427 39.4762L53.0728 41.4089L59.9805 43.8079L66.7431 46.1672L73.4757 47.9104L80.2996 48.495L87.2962 47.5163L94.4738 44.7779L101.761 40.3588L109.039 34.67L116.192 28.4265L123.156 22.5223L129.951 17.8552L136.671 15.1677L143.45 14.9457L150.428 17.3628L157.701 22.2892L165.283 29.3442L173.073 38.0064L180.874 47.7997L188.438 58.4659L195.547 69.9042L202.104 81.8206L208.151 93.6022L213.835 104.416L219.351 113.377L224.886 119.72L230.604 122.919L236.641 122.766L243.11 119.383L250.085 113.24L257.568 105.093L265.494 95.8671L273.747 86.5123L282.203 77.8569L290.773 70.4371L299.402 64.4085L308.058 59.623L316.735 55.7455L325.447 52.3791L334.222 49.1327L343.072 45.6707L351.977 41.8452L360.863 37.8186L369.602 34L378.041 30.8761L386.049 28.8303L393.547 28.0645L400.523 28.6705L407.018 30.6487L413.111 33.8252L418.904 37.7497L424.529 41.7632L430.15 45.1759L435.93 47.4275L441.992 48.1845L448.372 47.3702L455.022 45.1692L461.834 42.0018L468.687 38.461L475.495 35.1917L482.228 32.7584L488.912 31.5369L495.607 31.6661L502.373 33.0604L509.258 35.4566L516.279 38.4814L523.413 41.7221L530.61 44.8104L537.807 47.4973L544.953 49.6693L552.026 51.2833L559.038 52.3079L566.025 52.7329L573.025 52.5964L580.068 51.999L587.168 51.0967L594.324 50.0675L601.525 49.0658L608.755 48.1654L616 47.3364" stroke="#7371FC" stroke-opacity="0.1" stroke-width="0.25"/>
<path d="M-100 46.9134L-92.8067 47.1595L-85.601 47.417L-78.3682 47.6847L-71.0903 47.9314L-63.7468 48.1172L-56.3184 48.2042L-48.7899 48.1535L-41.1504 47.9238L-33.3929 47.467L-25.5139 46.7269L-17.5158 45.656L-9.41249 44.2576L-1.23552 42.6199L6.96402 40.9127L15.121 39.3477L23.1697 38.1349L31.0574 37.4684L38.7476 37.5254L46.2211 38.4188L53.4735 40.0822L60.5212 42.2199L67.4166 44.3473L74.2462 45.8921L81.1074 46.3121L88.0673 45.1939L95.1282 42.3342L102.224 37.8166L109.251 32.0478L116.11 25.737L122.761 19.7718L129.242 15.0426L135.667 12.2822L142.195 11.9656L148.986 14.2848L156.149 19.1709L163.7 26.3163L171.526 35.2488L179.404 45.4948L187.058 56.7423L194.254 68.8291L200.894 81.3953L207.03 93.7815L212.822 105.131L218.471 114.568L224.158 121.354L230.028 124.998L236.197 125.307L242.757 122.398L249.766 116.679L257.227 108.807L265.096 99.6182L273.3 89.9855L281.759 80.7189L290.416 72.4393L299.237 65.4615L308.181 59.7903L317.198 55.226L326.235 51.4382L335.251 48.0425L344.218 44.6613L353.111 41.0644L361.877 37.3024L370.431 33.687L378.672 30.643L386.509 28.5396L393.893 27.586L400.826 27.8985L407.352 29.5156L413.537 32.3119L419.46 35.8888L425.219 39.6312L430.947 42.872L436.778 45.0463L442.817 45.8001L449.102 45.0395L455.595 42.9319L462.207 39.8773L468.843 36.4489L475.436 33.2846L481.978 30.9508L488.506 29.8214L495.085 30.0319L501.782 31.4987L508.645 33.9721L515.687 37.1001L522.876 40.4833L530.149 43.7516L537.428 46.6356L544.65 48.9978L551.788 50.7783L558.855 51.933L565.887 52.4471L572.925 52.3594L580 51.7756L587.125 50.8582L594.299 49.7935L601.512 48.7443L608.75 47.7933L616 46.9134" stroke="#7371FC" stroke-opacity="0.1" stroke-width="0.25"/>
<path d="M-100 46.4888L-92.8122 46.7602L-85.6094 47.0397L-78.3746 47.3219L-71.0863 47.5681L-63.7208 47.7354L-56.2562 47.7887L-48.6772 47.6994L-40.9788 47.4389L-33.1642 46.9736L-25.2425 46.2572L-17.2263 45.2424L-9.13344 43.9209L-0.992108 42.3591L7.15687 40.6986L15.2618 39.127L23.2706 37.8385L31.1418 37.0149L38.8476 36.8302L46.3759 37.4157L53.7211 38.7431L60.8877 40.5555L67.9058 42.398L74.8332 43.7227L81.7368 43.9885L88.6591 42.7679L95.5904 39.8493L102.466 35.3046L109.189 29.5197L115.686 23.183L121.944 17.1788L128.041 12.4057L134.13 9.58942L140.415 9.19479L147.063 11.4268L154.176 16.2646L161.761 23.471L169.683 32.616L177.693 43.2243L185.494 54.9397L192.842 67.5276L199.634 80.5585L205.922 93.318L211.871 104.936L217.682 114.563L223.54 121.522L229.585 125.385L235.923 126L242.63 123.483L249.748 118.21L257.268 110.762L265.147 101.857L273.334 92.2701L281.788 82.7578L290.488 73.969L299.428 66.3264L308.576 59.9633L317.849 54.7888L327.141 50.5714L336.351 46.9751L345.41 43.6227L354.27 40.2277L362.896 36.7457L371.243 33.3779L379.257 30.47L386.891 28.3597L394.124 27.2521L400.974 27.2805L407.489 28.5194L413.731 30.8987L419.759 34.0926L425.646 37.5359L431.484 40.5847L437.379 42.6726L443.413 43.4278L449.613 42.7247L455.952 40.71L462.362 37.773L468.768 34.4701L475.131 31.4276L481.461 29.2122L487.819 28.1965L494.291 28.5052L500.952 30.0511L507.836 32.5931L514.941 35.7989L522.223 39.2903L529.6 42.7013L536.984 45.7499L544.303 48.2797L551.526 50.2101L558.664 51.484L565.753 52.0794L572.836 52.0377L579.944 51.4713L587.093 50.55L594.283 49.466L601.505 48.3872L608.748 47.4029L616 46.4888" stroke="#7371FC" stroke-opacity="0.1" stroke-width="0.25"/>
<path d="M-100 46.0639L-92.814 46.3557L-85.6109 46.6531L-78.3713 46.9474L-71.0715 47.194L-63.6852 47.3474L-56.1875 47.3758L-48.5629 47.2574L-40.81 46.9741L-32.9415 46.5023L-24.9794 45.8031L-16.9468 44.8336L-8.86708 43.5803L-0.765933 42.089L7.32514 40.4772L15.3676 38.9072L23.3222 37.5473L31.1589 36.5638L38.8611 36.1324L46.4237 36.4011L53.8422 37.383L61.1122 38.8679L68.2431 40.4389L75.2626 41.5594L82.2063 41.6906L89.0881 40.3987L95.8776 37.4571L102.5 32.911L108.863 27.1278L114.914 20.7814L120.677 14.7706L126.283 10.0097L131.958 7.21649L137.988 6.83386L144.567 9.05572L151.747 13.8865L159.492 21.1389L167.632 30.4409L175.883 41.3196L183.922 53.3642L191.491 66.2609L198.483 79.4988L204.949 92.3199L211.058 103.86L217.021 113.328L223.033 120.122L229.246 123.913L235.768 124.607L242.665 122.351L249.953 117.488L257.6 110.543L265.546 102.14L273.746 92.9376L282.183 83.6045L290.875 74.7592L299.855 66.8667L309.113 60.1568L318.556 54.6394L328.038 50.1475L337.399 46.3997L346.52 43.0387L355.341 39.7661L363.833 36.4859L371.985 33.3261L379.785 30.5575L387.219 28.4501L394.293 27.1753L401.04 26.867L407.519 27.6522L413.792 29.5472L419.907 32.3035L425.905 35.402L431.845 38.2221L437.8 40.2018L443.83 40.9571L449.955 40.3394L456.147 38.4635L462.345 35.683L468.499 32.535L474.597 29.6413L480.681 27.5746L486.844 26.7055L493.207 27.144L499.861 28.7874L506.816 31.3996L514.042 34.6697L521.468 38.2422L528.996 41.7613L536.519 44.938L543.959 47.599L551.282 49.6462L558.499 51.0083L565.647 51.6619L572.772 51.6522L579.908 51.099L587.075 50.1787L594.276 49.0874L601.503 47.995L608.748 46.9948L616 46.0639" stroke="#7371FC" stroke-opacity="0.1" stroke-width="0.25"/>
<path d="M-100 45.6406L-92.8105 45.9459L-85.6023 46.2549L-78.3543 46.5557L-71.0418 46.7997L-63.6368 46.9388L-56.1126 46.9427L-48.452 46.7945L-40.6559 46.4844L-32.7442 45.9991L-24.749 45.3138L-16.7031 44.3954L-8.63477 43.2277L-0.569387 41.8413L7.46776 40.3242L15.4479 38.8035L23.3439 37.4116L31.137 36.2892L38.8205 35.6057L46.397 35.5398L53.867 36.1603L61.2196 37.3093L68.4454 38.6104L75.5446 39.5451L82.519 39.572L89.3516 38.2481L95.9884 35.3231L102.342 30.8153L108.324 25.0635L113.905 18.733L119.156 12.7372L124.273 8.01271L129.56 5.27436L135.365 4.93635L141.901 7.17013L149.174 11.9931L157.108 19.2678L165.502 28.6647L174.037 39.7102L182.364 51.9349L190.205 64.9397L197.445 78.1365L204.129 90.7424L210.428 101.917L216.561 110.935L222.742 117.297L229.141 120.767L235.879 121.344L243.015 119.219L250.54 114.739L258.381 108.374L266.448 100.641L274.679 92.0791L283.074 83.2222L291.689 74.6232L300.606 66.7558L309.854 59.9161L319.355 54.2042L328.935 49.5282L338.385 45.663L347.535 42.3017L356.296 39.163L364.647 36.1157L372.603 33.2131L380.183 30.6426L387.41 28.598L394.314 27.2057L400.946 26.5908L407.37 26.9139L413.653 28.2787L419.832 30.5396L425.932 33.2641L431.979 35.8704L438.013 37.7914L444.065 38.6099L450.136 38.1335L456.196 36.4366L462.192 33.8375L468.093 30.8479L473.915 28.0872L479.738 26.145L485.695 25.4005L491.943 25.9546L498.592 27.6897L505.643 30.3657L513.024 33.6851L520.633 37.315L528.344 40.9115L536.035 44.1808L543.615 46.9348L551.05 49.0594L558.351 50.4774L565.559 51.1646L572.725 51.1737L579.886 50.6335L587.068 49.7245L594.275 48.6439L601.506 47.5601L608.75 46.5662L616 45.6406" stroke="#7371FC" stroke-opacity="0.1" stroke-width="0.25"/>
<path d="M-100 45.2175L-92.802 45.5278L-85.5839 45.8389L-78.3238 46.1365L-70.997 46.3684L-63.5751 46.4846L-56.0293 46.4553L-48.3405 46.2692L-40.5103 45.9234L-32.5641 45.4149L-24.5425 44.7316L-16.4872 43.8522L-8.43123 42.7661L-0.39869 41.4967L7.58886 40.1069L15.51 38.6842L23.3455 37.3139L31.0846 36.099L38.7306 35.1928L46.2973 34.7924L53.7934 35.0288L61.2088 35.8156L68.5201 36.8263L75.7013 37.5763L82.7207 37.5311L89.5256 36.2281L96.0338 33.3825L102.141 28.9645L107.764 23.2747L112.892 16.9693L117.644 10.9954L122.28 6.32965L127.172 3.68597L132.735 3.44323L139.213 5.74031L146.601 10.5908L154.769 17.8858L163.465 27.3237L172.328 38.4287L180.976 50.6845L189.118 63.6008L196.625 76.5201L203.54 88.6206L210.038 99.0956L216.354 107.308L222.729 112.881L229.355 115.72L236.362 115.933L243.795 113.785L251.608 109.646L259.674 103.937L267.862 97.0605L276.1 89.4048L284.402 81.3549L292.86 73.3313L301.605 65.7795L310.719 59.0437L320.154 53.2882L329.73 48.5036L339.198 44.5441L348.346 41.1823L357.058 38.1872L365.306 35.4197L373.118 32.8768L380.534 30.6623L387.595 28.853L394.35 27.4892L400.862 26.665L407.211 26.5694L413.474 27.407L419.691 29.1512L425.872 31.4678L432.019 33.8242L438.136 35.6606L444.226 36.5355L450.267 36.2196L456.216 34.7236L462.028 32.3077L467.687 29.4482L473.246 26.778L478.824 24.9162L484.595 24.2627L490.745 24.9139L497.397 26.7375L504.542 29.4838L512.071 32.8588L519.854 36.5389L527.742 40.1909L535.594 43.521L543.313 46.33L550.859 48.4932L558.242 49.9284L565.508 50.6177L572.709 50.6245L579.89 50.0873L587.079 49.1928L594.288 48.1362L601.516 47.0807L608.755 46.1153L616 45.2175" stroke="#7371FC" stroke-opacity="0.1" stroke-width="0.25"/>
<path d="M-100 44.7922L-92.7858 45.0994L-85.5506 45.4032L-78.2724 45.6852L-70.9281 45.8917L-63.4909 45.9711L-55.9312 45.8935L-48.227 45.6517L-40.3774 45.2522L-32.4091 44.7041L-24.3693 44.0125L-16.3073 43.1751L-8.26169 42.1889L-0.257535 41.0702L7.68784 39.8586L15.5579 38.599L23.3392 37.3245L31.028 36.0914L38.6348 35.0322L46.1836 34.3565L53.6936 34.2528L61.1567 34.7102L68.5412 35.4737L75.8018 36.0979L82.8764 36.0472L89.679 34.8239L96.0937 32.0835L101.996 27.7404L107.298 22.0524L112.014 15.6833L116.311 9.62948L120.509 4.9204L125.039 2.29029L130.369 2.10192L136.775 4.47634L144.256 9.41068L152.643 16.7955L161.639 26.3359L170.841 37.5116L179.834 49.7211L188.307 62.3769L196.123 74.7491L203.319 86.0102L210.073 95.417L216.637 102.445L223.271 106.878L230.189 108.773L237.527 108.388L245.307 106.087L253.439 102.272L261.743 97.2963L270.042 91.4334L278.246 84.8925L286.383 77.8902L294.586 70.7161L303.036 63.7286L311.876 57.2823L321.103 51.6207L330.55 46.8357L339.949 42.8856L349.044 39.6293L357.683 36.8751L365.827 34.4786L373.505 32.3989L380.772 30.6464L387.684 29.182L394.304 27.9545L400.71 27.0048L406.99 26.5435L413.229 26.8692L419.476 28.094L425.732 29.9994L431.977 32.124L438.189 33.922L444.335 34.917L450.371 34.809L456.238 33.5325L461.893 31.289L467.339 28.5257L472.661 25.8874L478.021 24.0381L483.625 23.4075L489.685 24.0967L496.332 25.9626L503.552 28.7459L511.211 32.1499L519.153 35.862L527.204 39.5532L535.208 42.9247L543.057 45.7645L550.708 47.9366L558.17 49.3596L565.489 50.0264L572.722 50.0149L579.917 49.4757L587.11 48.6002L594.315 47.58L601.535 46.5688L608.765 45.6474L616 44.7922" stroke="#7371FC" stroke-opacity="0.1" stroke-width="0.25"/>
<path d="M-100 44.3681L-92.7625 44.6598L-85.5036 44.9425L-78.2022 45.1929L-70.838 45.3564L-63.387 45.3796L-55.8198 45.2329L-48.1116 44.9149L-40.2572 44.4446L-32.2816 43.8487L-24.2345 43.1526L-16.1707 42.3716L-8.13222 41.5138L-0.146687 40.5893L7.76768 39.6117L15.5964 38.5722L23.3308 37.4423L30.9732 36.2361L38.5442 35.0638L46.0784 34.1492L53.6059 33.7515L61.1255 33.9413L68.5978 34.5258L75.956 35.0953L83.109 35.1219L89.9373 34.0755L96.2951 31.5443L102.035 27.3542L107.065 21.6934L111.422 15.2266L115.32 9.01214L119.142 4.1614L123.366 1.4628L128.494 1.28912L134.831 3.73622L142.377 8.77601L150.937 16.2865L160.184 25.9302L169.685 37.1263L179 49.1751L187.809 61.3927L195.963 72.9913L203.493 83.1388L210.581 91.1584L217.488 96.672L224.485 99.6428L231.796 100.32L239.54 99.1257L247.706 96.5404L256.154 93.0103L264.655 88.8426L273.001 84.1666L281.089 78.9816L288.965 73.271L296.8 67.1297L304.825 60.8239L313.245 54.7339L322.119 49.1945L331.312 44.4234L340.549 40.502L349.546 37.3979L358.115 34.9831L366.193 33.1155L373.797 31.6906L380.977 30.6019L387.795 29.6759L394.318 28.751L400.63 27.8256L406.84 27.1205L413.049 27.0161L419.316 27.7691L425.64 29.2766L431.982 31.1491L438.291 32.8664L444.507 33.9344L450.557 33.9967L456.369 32.9119L461.895 30.8035L467.156 28.0839L472.267 25.414L477.429 23.5002L482.883 22.8197L488.851 23.4892L495.477 25.3588L502.743 28.1574L510.503 31.5841L518.579 35.3251L526.775 39.0468L534.917 42.4381L542.885 45.2724L550.631 47.4115L558.162 48.7824L565.526 49.3931L572.782 49.3405L579.984 48.7892L587.172 47.9349L594.365 46.9632L601.569 46.0152L608.782 45.1589L616 44.3681" stroke="#7371FC" stroke-opacity="0.1" stroke-width="0.25"/>
<path d="M-100 43.9433L-92.7337 44.2116L-85.4459 44.4645L-78.1169 44.6729L-70.7305 44.7809L-63.2661 44.733L-55.6958 44.498L-47.9918 44.0804L-40.1432 43.5137L-32.1696 42.848L-24.1197 42.1364L-16.0506 41.4181L-8.00986 40.7128L-0.0302452 40.0238L7.86669 39.3311L15.6669 38.5683L23.3642 37.6523L30.9667 36.5517L38.5021 35.3537L46.0163 34.2949L53.5532 33.6898L61.1192 33.689L68.6732 34.1751L76.1314 34.7796L83.3756 34.9737L90.2556 34.1812L96.594 31.9012L102.222 27.8722L107.044 22.2278L111.117 15.6274L114.698 9.18708L118.227 4.10457L122.224 1.24363L127.2 0.999562L133.475 3.45868L141.063 8.57812L149.77 16.2L159.249 25.9442L169.038 37.1324L178.67 48.9406L187.811 60.5744L196.303 71.185L204.179 79.9655L211.626 86.3439L218.916 90.0987L226.332 91.3857L234.097 90.6425L242.307 88.4794L250.899 85.5177L259.665 82.2586L268.323 78.9495L276.642 75.5526L284.528 71.8453L292.053 67.5868L299.426 62.6639L306.93 57.2117L314.823 51.5847L323.234 46.2122L332.075 41.4641L341.084 37.5918L349.949 34.6849L358.446 32.6847L366.475 31.4515L374.03 30.8126L381.15 30.5172L387.896 30.2428L394.345 29.738L400.588 28.949L406.742 28.1038L412.925 27.6536L419.209 27.9981L425.595 29.1736L432.034 30.875L438.449 32.5983L444.749 33.8122L450.836 34.0861L456.621 33.1854L462.05 31.1536L467.161 28.3857L472.097 25.5693L477.096 23.4677L482.429 22.6145L488.322 23.1612L494.921 24.9622L502.208 27.7365L510.035 31.1685L518.207 34.9298L526.512 38.6733L534.759 42.0686L542.82 44.8747L550.639 46.9487L558.222 48.2299L565.617 48.7517L572.885 48.6332L580.084 48.055L587.259 47.2173L594.432 46.2992L601.613 45.4265L608.804 44.6516L616 43.9433" stroke="#7371FC" stroke-opacity="0.1" stroke-width="0.25"/>
<path d="M-100 43.519L-92.6998 43.7592L-85.3784 43.9771L-78.0179 44.1382L-70.6073 44.1849L-63.1303 44.0596L-55.5609 43.7286L-47.8693 43.2013L-40.0373 42.5299L-32.0766 41.7921L-24.0315 41.0723L-15.9607 40.4337L-7.91623 39.9069L0.0643242 39.4841L7.95569 39.1038L15.7419 38.646L23.4186 37.9823L30.997 37.0454L38.5128 35.9069L46.0221 34.8134L53.5795 34.1217L61.1983 34.0599L68.8362 34.5775L76.3964 35.3378L83.7396 35.7958L90.689 35.3126L97.0433 33.3049L102.617 29.4225L107.312 23.7462L111.2 16.9303L114.572 10.1364L117.914 4.66838L121.778 1.49725L126.658 1.08042L132.888 3.51902L140.501 8.74087L149.318 16.5331L158.978 26.4158L168.993 37.5914L178.877 49.1036L188.281 60.0374L197.05 69.5059L205.224 76.7431L213.001 81.303L220.669 83.1411L228.521 82.616L236.769 80.3792L245.468 77.2134L254.495 73.8911L263.578 70.9802L272.386 68.6525L280.663 66.6578L288.323 64.5141L295.46 61.7274L302.326 58.0084L309.254 53.3811L316.557 48.1798L324.427 42.9311L332.838 38.1731L341.554 34.332L350.254 31.6458L358.678 30.1277L366.685 29.6337L374.232 29.8949L381.339 30.4894L388.058 30.9546L394.466 30.9526L400.663 30.3944L406.778 29.5212L412.947 28.8524L419.252 28.9196L425.699 29.8798L432.225 31.4978L438.734 33.2854L445.11 34.6592L451.233 35.1027L456.999 34.2991L462.357 32.2393L467.349 29.3012L472.142 26.205L477.007 23.7807L482.242 22.6305L488.079 22.9546L494.654 24.6201L501.949 27.3378L509.814 30.774L518.049 34.574L526.428 38.3574L534.748 41.7654L542.871 44.5385L550.738 46.535L558.351 47.7119L565.76 48.1268L573.026 47.9265L580.213 47.3111L587.366 46.4854L594.512 45.6203L601.666 44.8259L608.83 44.1381L616 43.519" stroke="#7371FC" stroke-opacity="0.1" stroke-width="0.25"/>
<path d="M-100 43.0956L-92.6638 43.3107L-85.3066 43.498L-77.9126 43.6188L-70.4757 43.6139L-62.9847 43.422L-55.4163 43.0068L-47.7393 42.379L-39.9295 41.6037L-31.9891 40.7856L-23.9549 40.0418L-15.8833 39.4648L-7.82905 39.0967L0.164072 38.9154L8.06485 38.8174L15.8535 38.6397L23.5238 38.2212L31.0897 37.4745L38.5919 36.4569L46.0949 35.4199L53.663 34.757L61.3176 34.7578L69.0176 35.4201L76.661 36.428L84.0943 37.2117L91.1227 37.0762L97.5263 35.3569L103.104 31.6174L107.752 25.881L111.545 18.7996L114.802 11.5906L118.04 5.65284L121.837 2.08426L126.682 1.43784L132.899 3.84691L140.552 9.21544L149.477 17.2556L159.3 27.3676L169.511 38.5974L179.611 49.8287L189.251 60.0489L198.277 68.3418L206.734 74.0219L214.831 76.7764L222.86 76.7344L231.121 74.4347L239.809 70.6968L248.933 66.4702L258.305 62.6619L267.612 59.9385L276.496 58.4591L284.691 57.7995L292.106 57.2122L298.854 55.9629L305.218 53.546L311.576 49.8371L318.29 45.1337L325.608 40.0425L333.564 35.28L341.964 31.4643L350.491 28.9947L358.855 27.9543L366.867 28.1695L374.444 29.2443L381.578 30.6245L388.306 31.7505L394.699 32.2195L400.864 31.9161L406.947 31.0999L413.095 30.3437L419.408 30.2634L425.893 31.1119L432.48 32.7131L439.058 34.5838L445.493 36.11L451.652 36.7093L457.42 35.9931L462.741 33.8956L467.662 30.7693L472.367 27.3599L477.148 24.5542L482.324 23.0289L488.133 23.0481L494.691 24.5098L501.977 27.1262L509.855 30.5426L518.119 34.3667L526.535 38.1747L534.89 41.5731L543.04 44.2857L550.922 46.1746L558.539 47.2199L565.94 47.5098L573.189 47.2176L580.352 46.56L587.478 45.745L594.595 44.9337L601.72 44.2196L608.856 43.6219L616 43.0956" stroke="#7371FC" stroke-opacity="0.1" stroke-width="0.25"/>
<path d="M-100 42.6697L-92.6302 42.864L-85.2396 43.0277L-77.8141 43.1203L-70.3521 43.0823L-62.8471 42.8493L-55.2783 42.3794L-47.6142 41.6816L-39.8252 40.8299L-31.9046 39.9513L-23.8808 39.1947L-15.807 38.6784L-7.74156 38.4505L0.265634 38.4672L8.17808 38.5892L15.9725 38.6283L23.6424 38.4046L31.203 37.8166L38.6986 36.9216L46.2012 35.9831L53.7844 35.4186L61.4756 35.5529L69.2329 36.4107L76.9503 37.6774L84.4665 38.7675L91.577 38.9464L98.0514 37.5002L103.676 33.9324L108.337 28.2134L112.111 20.9581L115.324 13.4087L118.523 7.04385L122.314 3.07424L127.202 2.17357L133.494 4.54849L141.265 10.0997L150.347 18.44L160.343 28.8148L170.723 40.1001L180.978 51.0418L190.764 60.5399L199.942 67.6871L208.579 71.8811L216.905 72.9507L225.238 71.2111L233.871 67.3538L242.946 62.3271L252.408 57.2L262.016 52.9957L271.429 50.4427L280.297 49.6643L288.37 50.1211L295.562 50.8845L301.982 51.0088L307.927 49.8039L313.799 47.0009L320 42.8091L326.819 37.87L334.344 33.0519L342.43 29.1861L350.769 26.8362L359.049 26.1637L367.044 26.9586L374.631 28.6908L381.778 30.687L388.509 32.3187L394.896 33.1586L401.049 33.0939L407.118 32.3917L413.26 31.6632L419.582 31.5775L426.095 32.4352L432.729 34.0982L439.364 36.0791L445.859 37.7367L452.07 38.4521L457.872 37.7929L463.201 35.6512L468.101 32.3569L472.757 28.6559L477.476 25.4755L482.595 23.5653L488.371 23.262L494.915 24.5098L502.203 27.0287L510.101 30.4391L518.393 34.3023L526.834 38.1445L535.203 41.5343L543.353 44.1776L551.222 45.9433L558.815 46.8372L566.184 46.9825L573.398 46.5821L580.523 45.8678L587.611 45.0492L594.691 44.2778L601.78 43.6312L608.885 43.1128L616 42.6697" stroke="#7371FC" stroke-opacity="0.1" stroke-width="0.25"/>
<path d="M-100 42.2461L-92.6008 42.4237L-85.1808 42.5711L-77.7277 42.6492L-70.2439 42.6004L-62.7272 42.3583L-55.1591 41.8738L-47.5071 41.1482L-39.7376 40.2533L-31.8358 39.3328L-23.8209 38.5618L-15.7427 38.0796L-7.66165 37.9375L0.365644 38.0693L8.29618 38.3141L16.1038 38.4712L23.781 38.3568L31.3444 37.8738L38.8415 37.0873L46.3471 36.2728L53.9349 35.8563L61.6339 36.1729L69.4057 37.2582L77.149 38.7987L84.7088 40.1977L91.8837 40.6949L98.4429 39.5431L104.167 36.2021L108.931 30.5802L112.797 23.2541L116.086 15.4572L119.35 8.74422L123.218 4.45146L128.216 3.37829L134.658 5.80489L142.611 11.6175L151.879 20.3251L162.038 31.0006L172.544 42.3475L182.892 52.9799L192.747 61.7283L201.994 67.7193L210.729 70.4727L219.206 69.9833L227.757 66.7088L236.653 61.4641L245.993 55.3103L255.659 49.411L265.369 44.8616L274.771 42.4129L283.539 42.1632L291.449 43.5147L298.424 45.4246L304.569 46.7936L310.17 46.7756L315.641 44.9605L321.409 41.4548L327.802 36.8626L334.957 32.1228L342.77 28.2248L350.955 25.9039L359.188 25.41L367.205 26.4968L374.845 28.5541L382.045 30.858L388.81 32.7381L395.205 33.7587L401.345 33.8204L407.392 33.2072L413.51 32.5466L419.811 32.5235L426.312 33.476L432.946 35.2697L439.598 37.4156L446.128 39.2479L452.389 40.1192L458.246 39.5617L463.627 37.4381L468.566 34.0483L473.243 30.125L477.964 26.6253L483.076 24.3615L488.844 23.745L495.391 24.7779L502.694 27.195L510.608 30.5919L518.907 34.4803L527.339 38.3334L535.68 41.6801L543.788 44.2163L551.603 45.8253L559.137 46.5435L566.448 46.5277L573.61 46.0081L580.689 45.229L587.736 44.3978L594.78 43.6557L601.836 43.0654L608.911 42.616L616 42.2461" stroke="#7371FC" stroke-opacity="0.1" stroke-width="0.25"/>
<path d="M-100 41.8228L-92.5729 41.9712L-85.1246 42.0907L-77.6439 42.145L-70.1366 42.0814L-62.6049 41.8366L-55.0333 41.3594L-47.3891 40.6446L-39.6353 39.7625L-31.7512 38.8599L-23.7489 38.1239L-15.6731 37.7047L-7.58417 37.6474L0.458924 37.8734L8.40791 38.2118L16.2302 38.4558L23.9142 38.4221L31.4752 38.0202L38.9606 37.3257L46.4454 36.6209L54.0065 36.3382L61.6781 36.8274L69.4287 38.1341L77.1677 39.9491L84.753 41.6717L91.995 42.5316L98.6712 41.7611L104.562 38.7836L109.528 33.4508L113.617 26.2658L117.132 18.4238L120.611 11.505L124.685 6.9553L129.888 5.71409L136.539 8.14723L144.69 14.1336L154.116 23.0719L164.371 33.8702L174.907 45.078L185.238 55.2173L195.052 63.1003L204.271 67.917L213.027 69.3069L221.608 67.4393L230.346 62.9104L239.465 56.6038L248.995 49.6206L258.767 43.1636L268.476 38.3534L277.788 35.9177L286.417 35.9212L294.172 37.7744L300.983 40.4208L306.933 42.6774L312.286 43.6067L317.449 42.6977L322.866 39.9494L328.9 35.9015L335.722 31.4894L343.27 27.7875L351.281 25.6417L359.425 25.3563L367.418 26.6652L375.071 28.9248L382.294 31.3936L389.079 33.4029L395.482 34.5192L401.616 34.6433L407.64 34.0772L413.723 33.4689L419.984 33.5206L426.444 34.5772L433.046 36.5096L439.685 38.8205L446.228 40.8258L452.539 41.8636L458.485 41.4489L463.98 39.4129L469.043 36.0211L473.832 31.9744L478.641 28.2341L483.813 25.6611L489.619 24.7439L496.19 25.5493L503.502 27.8338L511.407 31.167L519.673 35.0098L528.046 38.7892L536.312 42.0118L544.334 44.3734L552.06 45.7751L559.51 46.2837L566.745 46.0884L573.842 45.442L580.868 44.5958L587.87 43.7524L594.872 43.0397L601.893 42.5045L608.938 42.1218L616 41.8228" stroke="#7371FC" stroke-opacity="0.1" stroke-width="0.25"/>
<path d="M-100 41.3964L-92.5447 41.5042L-85.0669 41.5838L-77.5552 41.6017L-70.0185 41.5114L-62.4631 41.2549L-54.878 40.784L-47.2322 40.0922L-39.4871 39.2476L-31.6165 38.3987L-23.626 37.7402L-15.5545 37.4277L-7.46023 37.5013L0.596692 37.8754L8.56398 38.3742L16.4039 38.7807L24.0993 38.9019L31.6603 38.6435L39.1308 38.0843L46.584 37.5101L54.0962 37.358L61.7053 37.9843L69.3896 39.452L77.0721 41.4716L84.6309 43.4612L91.9023 44.666L98.6885 44.3188L104.785 41.8251L110.046 36.9826L114.491 30.2126L118.386 22.6377L122.235 15.8126L126.645 11.2272L132.14 9.91939L139.031 12.3345L147.35 18.3368L156.856 27.2271L167.099 37.7778L177.555 48.4454L187.768 57.7334L197.469 64.4912L206.613 68.0076L215.365 68.0605L224.029 64.9288L232.919 59.2981L242.205 52.139L251.858 44.5937L261.666 37.8479L271.323 32.9376L280.523 30.4955L289.023 30.5686L296.66 32.6L303.367 35.591L309.204 38.3724L314.407 39.9671L319.36 39.7943L324.509 37.7795L330.231 34.3852L336.74 30.5265L344.015 27.2977L351.826 25.5914L359.851 25.7203L367.788 27.3939L375.43 29.9656L382.662 32.689L389.455 34.8978L395.852 36.1517L401.958 36.3621L407.932 35.8538L413.945 35.282L420.122 35.3534L426.493 36.4228L433.013 38.3761L439.593 40.7304L446.12 42.8182L452.472 43.9825L458.525 43.7295L464.186 41.8596L469.448 38.5793L474.441 34.5373L479.428 30.6695L484.732 27.8573L490.623 26.6491L497.234 27.1739L504.545 29.2202L512.409 32.3486L520.598 35.9886L528.868 39.5401L537.013 42.504L544.912 44.5879L552.523 45.7156L559.872 45.9822L567.025 45.6007L574.058 44.8346L581.034 43.9328L587.992 43.0878L594.957 42.4127L601.944 41.9376L608.962 41.6238L616 41.3964" stroke="#7371FC" stroke-opacity="0.1" stroke-width="0.25"/>
<path d="M-100 40.9735L-92.5182 41.0292L-85.012 41.0573L-77.4696 41.0271L-69.9022 40.9001L-62.3207 40.6289L-54.7182 40.1748L-47.0665 39.5364L-39.3256 38.7795L-31.465 38.0463L-23.4832 37.5243L-15.413 37.3602L-7.30986 37.5871L0.764286 38.1187L8.75192 38.7761L16.609 39.3418L24.3115 39.6199L31.8635 39.5112L39.3035 39.0877L46.6997 38.632L54.1285 38.5825L61.6337 39.2999L69.2045 40.8722L76.7822 43.0443L84.2737 45.2701L91.549 46.8254L98.4448 46.9613L104.776 45.0802L110.396 40.9432L115.297 34.874L119.696 27.8811L124.035 21.4415L128.873 17.0374L134.705 15.754L141.82 18.0761L150.239 23.8504L159.717 32.3198L169.823 42.2158L180.071 51.9995L190.058 60.2243L199.562 65.8166L208.581 68.1655L217.318 67.1557L226.079 63.1238L235.127 56.7666L244.562 49.0589L254.294 41.1421L264.088 34.1475L273.656 29.0317L282.734 26.3576L291.123 26.1666L298.69 27.9917L305.366 30.9408L311.182 33.9173L316.339 35.939L321.188 36.3993L326.158 35.1671L331.647 32.6315L337.897 29.6201L344.92 27.1679L352.522 26.1271L360.401 26.7883L368.26 28.8834L375.868 31.7832L383.089 34.7481L389.873 37.1133L396.249 38.458L402.316 38.7058L408.224 38.1809L414.145 37.5458L420.209 37.52L426.459 38.4858L432.864 40.3558L439.349 42.6731L445.827 44.7878L452.2 46.0561L458.362 45.99L464.216 44.3699L469.729 41.3455L474.992 37.4868L480.229 33.6647L485.73 30.7425L491.747 29.3037L498.412 29.5351L505.711 31.2635L513.504 34.0547L521.574 37.3322L529.696 40.5019L537.686 43.084L545.436 44.8104L552.918 45.6291L560.165 45.6551L567.245 45.1092L574.228 44.248L581.166 43.3091L588.092 42.4706L595.028 41.8306L601.988 41.4051L608.983 41.1457L616 40.9735" stroke="#7371FC" stroke-opacity="0.1" stroke-width="0.25"/>
<path d="M-100 40.5485L-92.4971 40.5449L-84.9673 40.514L-77.3976 40.4289L-69.8007 40.2606L-62.1913 39.9741L-54.5676 39.544L-46.9049 38.9778L-39.1637 38.3418L-31.3092 37.7714L-23.333 37.4391L-15.2605 37.4721L-7.1441 37.8943L0.952092 38.6168L8.96571 39.4602L16.8443 40.2017L24.5555 40.6379L32.0951 40.6607L39.4948 40.3399L46.8194 39.9595L54.1445 39.9619L61.5155 40.7148L68.9348 42.3319L76.3653 44.5988L83.7434 47.0112L90.9786 48.8779L97.9508 49.4798L104.508 48.2351L110.509 44.8886L115.909 39.6856L120.866 33.507L125.755 27.7043L131.065 23.6868L137.244 22.522L144.554 24.6972L153.002 30.0514L162.35 37.8123L172.202 46.733L182.123 55.3595L191.776 62.3664L201.01 66.7865L209.887 68.1204L218.634 66.3008L227.523 61.6665L236.739 54.8949L246.315 46.9182L256.115 38.8015L265.897 31.6092L275.39 26.2241L284.374 23.1911L292.694 22.5903L300.239 24.0457L306.938 26.7749L312.808 29.7544L317.999 32.0318L322.825 33.0025L327.692 32.5181L333.001 30.908L339.023 28.9046L345.817 27.4311L353.227 27.2258L360.974 28.5323L368.761 31.0917L376.345 34.3125L383.562 37.4831L390.343 39.9608L396.698 41.333L402.713 41.5385L408.537 40.9216L414.342 40.1646L420.258 39.9887L426.34 40.7747L432.577 42.4734L438.925 44.6673L445.324 46.747L451.701 48.0773L457.967 48.1697L464.029 46.8028L469.829 44.0933L475.411 40.5279L480.95 36.8931L486.696 34.0015L492.874 32.4318L499.607 32.3964L506.886 33.7511L514.582 36.0907L522.503 38.8671L530.446 41.5233L538.256 43.6264L545.846 44.9439L553.201 45.4463L560.361 45.2545L567.387 44.5781L574.337 43.6556L581.253 42.7042L588.16 41.8847L595.077 41.2803L602.019 40.8967L608.998 40.6794L616 40.5485" stroke="#7371FC" stroke-opacity="0.1" stroke-width="0.25"/>
<path d="M-100 40.1254L-92.4813 40.0653L-84.9332 39.9772L-77.341 39.8359L-69.7183 39.6208L-62.0829 39.3091L-54.4378 38.8889L-46.7623 38.3803L-39.0178 37.8573L-31.1663 37.4537L-23.1933 37.3314L-15.1177 37.6016L-6.98754 38.2665L1.13177 39.2216L9.1716 40.2756L17.072 41.1952L24.7918 41.7734L32.3184 41.9037L39.676 41.6571L46.9234 41.3205L54.1346 41.3422L61.3594 42.0969L68.6072 43.7103L75.8605 46.0102L83.0871 48.5379L90.2413 50.6531L97.2512 51.6769L104.006 51.0603L110.377 48.5548L116.289 44.3604L121.83 39.2163L127.29 34.3033L133.08 30.8864L139.582 29.9389L147.019 31.9107L155.389 36.6447L164.475 43.4153L173.931 51.0871L183.408 58.3721L192.682 64.1141L201.683 67.4649L210.505 67.9641L219.343 65.5377L228.398 60.4884L237.782 53.4657L247.469 45.3765L257.302 37.2434L267.046 30.0409L276.461 24.5551L285.367 21.2653L293.645 20.2518L301.208 21.215L307.983 23.4954L313.965 26.1968L319.267 28.4268L324.153 29.6308L329.002 29.6655L334.208 28.8267L340.066 27.7603L346.674 27.2907L353.924 28.0703L361.567 30.2283L369.305 33.4348L376.877 37.0884L384.096 40.4977L390.868 43.0541L397.184 44.389L403.125 44.487L408.839 43.7266L414.498 42.7951L420.245 42.4104L426.144 42.9621L432.199 44.4319L438.387 46.4464L444.675 48.4302L451.024 49.782L457.37 50.034L463.628 48.9556L469.719 46.627L475.639 43.4595L481.508 40.1386L487.521 37.3926L493.874 35.7627L500.676 35.4691L507.92 36.4052L515.497 38.211L523.242 40.3937L530.987 42.4643L538.61 44.0527L546.052 44.964L553.311 45.1767L560.42 44.7999L567.428 44.0223L574.375 43.06L581.291 42.1103L588.195 41.3165L595.105 40.7488L602.039 40.4036L609.007 40.2223L616 40.1254" stroke="#7371FC" stroke-opacity="0.1" stroke-width="0.25"/>
<path d="M-100 39.7021L-92.4726 39.5867L-84.9134 39.4413L-77.3054 39.2415L-69.6623 38.9745L-62.0043 38.6288L-54.3378 38.2082L-46.6461 37.748L-38.893 37.3312L-31.039 37.0924L-23.0636 37.1872L-14.9796 37.7125L-6.83194 38.6482L1.31263 39.8598L9.37932 41.1354L17.2996 42.2333L25.0236 42.944L32.5317 43.1693L39.8424 42.9905L47.0088 42.6989L54.0984 42.7305L61.162 43.4546L68.22 45.0085L75.2751 47.2562L82.3261 49.7952L89.3699 52.0508L96.3807 53.401L103.291 53.3402L109.991 51.6376L116.383 48.4591L122.481 44.4176L128.485 40.4966L134.718 37.7715L141.49 37.0855L148.983 38.8354L157.186 42.8803L165.919 48.5891L174.912 54.9877L183.932 60.9951L192.857 65.6008L201.679 68.0203L210.495 67.7974L219.46 64.8422L228.711 59.4524L238.287 52.2522L248.108 44.0956L257.995 35.9408L267.728 28.7032L277.099 23.1024L285.958 19.5635L294.21 18.166L301.784 18.6573L308.623 20.4827L314.713 22.8709L320.14 25.0248L325.126 26.4168L330.009 26.9107L335.167 26.7626L340.91 26.5621L347.374 27.0559L354.492 28.8113L362.039 31.8735L369.73 35.835L377.289 40.0307L384.509 43.7497L391.272 46.405L397.556 47.673L403.437 47.5912L409.055 46.5898L414.582 45.3901L420.163 44.7292L425.876 45.0095L431.742 46.2277L437.759 48.0397L443.926 49.9054L450.235 51.2514L456.647 51.6225L463.085 50.7914L469.458 48.825L475.717 46.0789L481.914 43.1313L488.196 40.6136L494.718 39.005L501.575 38.5106L508.769 39.0466L516.214 40.309L523.775 41.885L531.324 43.3694L538.778 44.4593L546.102 44.9845L553.296 44.9238L560.384 44.3724L567.396 43.4978L574.36 42.4951L581.29 41.5437L588.203 40.7712L595.115 40.2346L602.047 39.9218L609.012 39.7707L616 39.7021" stroke="#7371FC" stroke-opacity="0.1" stroke-width="0.25"/>
</svg>
