<svg width="982" height="418" viewBox="0 0 982 418" fill="none" xmlns="http://www.w3.org/2000/svg">
<g filter="url(#filter0_dd_3678_11967)">
<g clip-path="url(#clip0_3678_11967)">
<path fill-rule="evenodd" clip-rule="evenodd" d="M56.4097 57.4823H263.846L257.398 67.3627H56.4097V57.4823ZM318.121 58.1892V67.3627H312.26C314.228 64.3069 316.182 61.2487 318.121 58.1892ZM490.254 58.0834V67.3627H484.262C486.267 64.2709 488.265 61.1783 490.254 58.0834ZM542.688 58.1027H721.841L715.799 67.3627H536.639L542.688 58.1027ZM811.877 56.8682L818.056 67.3627H805.033L811.877 56.8682ZM822.847 75.5127L827.794 83.924L826.823 85.4105H793.254L799.713 75.5127H822.847ZM815.399 102.957H781.805L788.749 92.3161H822.331L815.399 102.957ZM804.025 120.414H770.412L778.109 108.618H811.709L804.025 120.414ZM837.843 120.414L843.842 111.204L849.261 120.414H837.843ZM851.856 124.831L858.563 136.234H827.539L834.962 124.831H851.856ZM860.43 139.406L925.397 249.856H892.4L827.439 139.406H860.43ZM719.7 249.877H685.925L758.017 139.406H791.655L719.7 249.877ZM637.155 250.639H609.179V139.406H637.155V250.639ZM490.254 153.922C490.254 206.96 445.566 249.262 390.007 249.586C334.448 249.909 289.706 206.901 289.537 153.922V139.406H318.121V153.922C318.121 186.87 346.059 221.46 389.953 221.356C433.846 221.252 462.436 188.083 462.436 153.922V139.406H490.254V153.922ZM210.383 139.406L192.154 167.34H85.0118V249.877H56.4097V139.406H210.383ZM56.4097 124.831H85.0118V136.234H56.4097V124.831ZM56.4097 108.618H85.0118V120.414H56.4097V108.618ZM56.4097 92.3161H85.0118V102.957H56.4097V92.3161ZM56.4097 75.5127H252.079L245.62 85.4105H85.0118H56.4097V75.5127ZM306.978 75.5127H318.121V85.4105H300.481C302.659 82.1127 304.826 78.8137 306.978 75.5127ZM478.96 75.5127H490.254V85.4105H472.478C474.645 82.1121 476.806 78.813 478.96 75.5127ZM531.326 75.5127H710.479L704.02 85.4105H524.867L531.326 75.5127ZM637.155 120.414H609.179V108.618H637.155V120.414ZM767.531 124.831H801.15L793.721 136.234H760.089L767.531 124.831ZM637.155 136.234H609.179V124.831H637.155V136.234ZM490.254 136.234H462.436V124.831H490.254V136.234ZM289.537 136.234V124.831H318.121V136.234H289.537ZM609.179 92.3161H637.155V102.957H609.179V92.3161ZM295.903 92.3161H318.121V102.957H289.537V101.841C291.667 98.6666 293.789 95.492 295.903 92.3161ZM467.932 92.3161H490.254V102.957H462.436V100.632C464.271 97.8602 466.103 95.0881 467.932 92.3161ZM490.254 120.414H462.436V108.618H490.254V120.414ZM289.537 120.414V108.618H318.121V120.414H289.537Z" fill="#62EBF1"/>
</g>
<path d="M70.0813 325.715H83.0413V329.075H70.0813V343.763H65.9053V310.691H85.3933L84.9133 314.147H70.0813V325.715ZM113.406 333.059C113.406 335.267 112.943 337.235 112.015 338.963C111.119 340.659 109.839 341.971 108.175 342.899C106.543 343.827 104.623 344.291 102.415 344.291C100.175 344.291 98.2385 343.827 96.6065 342.899C94.9745 341.939 93.7105 340.611 92.8145 338.915C91.9505 337.219 91.5185 335.267 91.5185 333.059V310.691H95.6945V333.203C95.6945 335.699 96.2705 337.571 97.4225 338.819C98.5745 340.067 100.239 340.691 102.415 340.691C104.591 340.691 106.255 340.067 107.407 338.819C108.591 337.571 109.183 335.699 109.183 333.203V310.691H113.406V333.059ZM123.372 310.691H127.5V340.067H142.62L142.092 343.763H123.372V310.691ZM152.153 310.691H156.281V340.067H171.401L170.873 343.763H152.153V310.691ZM190.918 343.763H186.694V331.043L175.51 310.691H180.118L188.902 327.299L197.782 310.691H202.102L190.918 330.995V343.763ZM257.313 333.059C257.313 335.267 256.849 337.235 255.921 338.963C255.025 340.659 253.745 341.971 252.081 342.899C250.449 343.827 248.529 344.291 246.321 344.291C244.081 344.291 242.145 343.827 240.513 342.899C238.881 341.939 237.617 340.611 236.721 338.915C235.857 337.219 235.425 335.267 235.425 333.059V310.691H239.601V333.203C239.601 335.699 240.177 337.571 241.329 338.819C242.481 340.067 244.145 340.691 246.321 340.691C248.497 340.691 250.161 340.067 251.313 338.819C252.497 337.571 253.089 335.699 253.089 333.203V310.691H257.313V333.059ZM268.046 314.723C268.046 314.947 268.142 316.339 268.334 318.899C268.526 321.459 268.622 324.227 268.622 327.203V343.763H264.734V310.691H270.398L282.254 339.875L282.158 338.147C281.838 334.211 281.678 330.579 281.678 327.251V310.691H285.566V343.763H279.71L268.046 314.723ZM313.387 314.051H306.043V340.451H313.387V343.763H294.475V340.451H301.819V314.051H294.475V310.691H313.387V314.051ZM341.737 310.691H345.913L334.873 343.763H330.553L319.513 310.691H323.977L332.809 339.011L341.737 310.691ZM357.27 325.283H369.558V328.691H357.27V340.403H372.342V343.763H353.142V310.691H371.91L371.43 314.147H357.27V325.283ZM401.651 320.003C401.651 322.371 400.915 324.339 399.443 325.907C397.971 327.443 396.019 328.515 393.587 329.123L403.427 343.763H398.435L389.363 329.603H384.899V343.763H380.771V310.691H389.219C393.315 310.691 396.403 311.475 398.483 313.043C400.595 314.611 401.651 316.931 401.651 320.003ZM397.235 320.003C397.235 317.891 396.627 316.371 395.411 315.443C394.195 314.515 392.291 314.051 389.699 314.051H384.899V326.339H389.747C392.211 326.339 394.067 325.843 395.315 324.851C396.595 323.827 397.235 322.211 397.235 320.003ZM430.432 334.595C430.432 336.515 429.952 338.211 428.992 339.683C428.032 341.123 426.64 342.259 424.816 343.091C422.992 343.891 420.832 344.291 418.336 344.291C415.936 344.291 413.744 343.939 411.76 343.235C409.808 342.499 408.128 341.459 406.72 340.115L409.216 337.283C410.432 338.435 411.776 339.315 413.248 339.923C414.752 340.531 416.464 340.835 418.384 340.835C420.56 340.835 422.384 340.307 423.856 339.251C425.328 338.195 426.064 336.675 426.064 334.691C426.064 333.571 425.856 332.643 425.44 331.907C425.024 331.171 424.288 330.515 423.232 329.939C422.208 329.363 420.752 328.803 418.864 328.259C415.28 327.203 412.608 325.971 410.848 324.563C409.088 323.123 408.208 321.171 408.208 318.707C408.208 317.075 408.656 315.603 409.552 314.291C410.448 312.979 411.712 311.971 413.344 311.267C414.976 310.531 416.832 310.163 418.912 310.163C421.088 310.163 423.024 310.483 424.72 311.123C426.448 311.763 428.032 312.707 429.472 313.955L426.976 316.643C424.704 314.659 422.064 313.667 419.056 313.667C417.136 313.667 415.552 314.083 414.304 314.915C413.056 315.747 412.432 316.963 412.432 318.563C412.432 319.523 412.688 320.339 413.2 321.011C413.712 321.683 414.56 322.307 415.744 322.883C416.928 323.459 418.592 324.051 420.736 324.659C423.84 325.555 426.224 326.723 427.888 328.163C429.584 329.603 430.432 331.747 430.432 334.595ZM441.166 335.315L438.526 343.763H434.398L445.198 310.691H450.478L461.23 343.763H456.91L454.27 335.315H441.166ZM453.166 331.859L447.742 314.243L442.27 331.859H453.166ZM468.747 310.691H472.875V340.067H487.995L487.467 343.763H468.747V310.691ZM536.197 343.763H532.021V314.291H521.701V310.691H546.613L546.181 314.291H536.197V343.763ZM572.419 314.051H565.075V340.451H572.419V343.763H553.507V340.451H560.851V314.051H553.507V310.691H572.419V314.051ZM594.528 310.163C596.576 310.163 598.336 310.435 599.808 310.979C601.28 311.491 602.72 312.291 604.128 313.379L601.776 316.115C599.824 314.483 597.504 313.667 594.816 313.667C591.84 313.667 589.408 314.755 587.52 316.931C585.664 319.075 584.736 322.499 584.736 327.203C584.736 331.875 585.648 335.299 587.472 337.475C589.296 339.651 591.728 340.739 594.768 340.739C596.432 340.739 597.856 340.499 599.04 340.019C600.224 339.539 601.36 338.867 602.448 338.003L604.608 340.691C602.144 343.091 598.848 344.291 594.72 344.291C592 344.291 589.552 343.635 587.376 342.323C585.2 340.979 583.488 339.027 582.24 336.467C580.992 333.907 580.368 330.819 580.368 327.203C580.368 323.619 580.992 320.547 582.24 317.987C583.52 315.395 585.232 313.443 587.376 312.131C589.552 310.819 591.936 310.163 594.528 310.163ZM611.165 343.763V310.691H615.341V343.763H611.165ZM628.541 310.691H633.389L620.477 325.859L634.301 343.763H629.069L615.581 326.099L628.541 310.691ZM645.082 325.283H657.37V328.691H645.082V340.403H660.154V343.763H640.954V310.691H659.722L659.242 314.147H645.082V325.283ZM689.464 320.003C689.464 322.371 688.728 324.339 687.256 325.907C685.784 327.443 683.832 328.515 681.4 329.123L691.24 343.763H686.248L677.176 329.603H672.712V343.763H668.584V310.691H677.032C681.128 310.691 684.216 311.475 686.296 313.043C688.408 314.611 689.464 316.931 689.464 320.003ZM685.048 320.003C685.048 317.891 684.44 316.371 683.224 315.443C682.008 314.515 680.104 314.051 677.512 314.051H672.712V326.339H677.56C680.024 326.339 681.88 325.843 683.128 324.851C684.408 323.827 685.048 322.211 685.048 320.003ZM728.978 335.315L726.338 343.763H722.21L733.01 310.691H738.29L749.042 343.763H744.722L742.082 335.315H728.978ZM740.978 331.859L735.554 314.243L730.082 331.859H740.978ZM775.375 333.059C775.375 335.267 774.911 337.235 773.983 338.963C773.087 340.659 771.807 341.971 770.143 342.899C768.511 343.827 766.591 344.291 764.383 344.291C762.143 344.291 760.207 343.827 758.575 342.899C756.943 341.939 755.679 340.611 754.783 338.915C753.919 337.219 753.487 335.267 753.487 333.059V310.691H757.663V333.203C757.663 335.699 758.239 337.571 759.391 338.819C760.543 340.067 762.207 340.691 764.383 340.691C766.559 340.691 768.223 340.067 769.375 338.819C770.559 337.571 771.151 335.699 771.151 333.203V310.691H775.375V333.059ZM795.997 310.163C798.045 310.163 799.805 310.435 801.277 310.979C802.749 311.491 804.189 312.291 805.597 313.379L803.245 316.115C801.293 314.483 798.973 313.667 796.285 313.667C793.309 313.667 790.877 314.755 788.989 316.931C787.133 319.075 786.205 322.499 786.205 327.203C786.205 331.875 787.117 335.299 788.941 337.475C790.765 339.651 793.197 340.739 796.237 340.739C797.901 340.739 799.325 340.499 800.509 340.019C801.693 339.539 802.829 338.867 803.917 338.003L806.077 340.691C803.613 343.091 800.317 344.291 796.189 344.291C793.469 344.291 791.021 343.635 788.845 342.323C786.669 340.979 784.957 339.027 783.709 336.467C782.461 333.907 781.837 330.819 781.837 327.203C781.837 323.619 782.461 320.547 783.709 317.987C784.989 315.395 786.701 313.443 788.845 312.131C791.021 310.819 793.405 310.163 795.997 310.163ZM824.01 343.763H819.834V314.291H809.514V310.691H834.426L833.994 314.291H824.01V343.763ZM860.231 314.051H852.887V340.451H860.231V343.763H841.319V340.451H848.663V314.051H841.319V310.691H860.231V314.051ZM891.7 327.251C891.7 332.403 890.644 336.531 888.532 339.635C886.452 342.739 883.46 344.291 879.556 344.291C875.62 344.291 872.612 342.771 870.532 339.731C868.452 336.691 867.412 332.547 867.412 327.299C867.412 323.939 867.876 320.963 868.804 318.371C869.732 315.779 871.108 313.763 872.932 312.323C874.756 310.883 876.964 310.163 879.556 310.163C883.46 310.163 886.452 311.715 888.532 314.819C890.644 317.891 891.7 322.035 891.7 327.251ZM887.38 327.251C887.38 322.739 886.756 319.347 885.508 317.075C884.26 314.803 882.276 313.667 879.556 313.667C876.836 313.667 874.852 314.819 873.604 317.123C872.356 319.395 871.732 322.787 871.732 327.299C871.732 331.779 872.356 335.155 873.604 337.427C874.884 339.667 876.868 340.787 879.556 340.787C882.276 340.787 884.26 339.667 885.508 337.427C886.756 335.155 887.38 331.763 887.38 327.251ZM901.234 314.723C901.234 314.947 901.33 316.339 901.522 318.899C901.714 321.459 901.81 324.227 901.81 327.203V343.763H897.922V310.691H903.586L915.442 339.875L915.346 338.147C915.026 334.211 914.866 330.579 914.866 327.251V310.691H918.754V343.763H912.898L901.234 314.723Z" fill="#62EBF1"/>
</g>
<defs>
<filter id="filter0_dd_3678_11967" x="-47.6081" y="-47.0407" width="1077.22" height="520.081" filterUnits="userSpaceOnUse" color-interpolation-filters="sRGB">
<feFlood flood-opacity="0" result="BackgroundImageFix"/>
<feColorMatrix in="SourceAlpha" type="matrix" values="0 0 0 0 0 0 0 0 0 0 0 0 0 0 0 0 0 0 127 0" result="hardAlpha"/>
<feOffset/>
<feGaussianBlur stdDeviation="13.9167"/>
<feColorMatrix type="matrix" values="0 0 0 0 0.384314 0 0 0 0 0.921569 0 0 0 0 0.945098 0 0 0 0.75 0"/>
<feBlend mode="normal" in2="BackgroundImageFix" result="effect1_dropShadow_3678_11967"/>
<feColorMatrix in="SourceAlpha" type="matrix" values="0 0 0 0 0 0 0 0 0 0 0 0 0 0 0 0 0 0 127 0" result="hardAlpha"/>
<feOffset/>
<feGaussianBlur stdDeviation="27.8333"/>
<feColorMatrix type="matrix" values="0 0 0 0 0.384314 0 0 0 0 0.921569 0 0 0 0 0.945098 0 0 0 0.75 0"/>
<feBlend mode="normal" in2="effect1_dropShadow_3678_11967" result="effect2_dropShadow_3678_11967"/>
<feBlend mode="normal" in="SourceGraphic" in2="effect2_dropShadow_3678_11967" result="shape"/>
</filter>
<clipPath id="clip0_3678_11967">
<rect width="869.88" height="194.136" fill="white" transform="translate(56.0586 56.626)"/>
</clipPath>
</defs>
</svg>
