<svg width="24" height="24" viewBox="0 0 24 24" fill="none" xmlns="http://www.w3.org/2000/svg">
<path d="M16 22H18C18.5 22 19 21.8 19.4 21.4C19.8 21 20 20.5 20 20V7.5L14.5 2H6C5.5 2 5 2.2 4.6 2.6C4.2 3 4 3.5 4 4V7" stroke="#CDC1FF" stroke-width="2" stroke-linecap="round" stroke-linejoin="round"/>
<path d="M14 2V8H20" stroke="#CDC1FF" stroke-width="2" stroke-linecap="round" stroke-linejoin="round"/>
<path d="M8 22C11.3137 22 14 19.3137 14 16C14 12.6863 11.3137 10 8 10C4.68629 10 2 12.6863 2 16C2 19.3137 4.68629 22 8 22Z" stroke="#CDC1FF" stroke-width="2" stroke-linecap="round" stroke-linejoin="round"/>
<path d="M9.5 17.5L8 16.25V14" stroke="#CDC1FF" stroke-width="2" stroke-linecap="round" stroke-linejoin="round"/>
</svg>
