<svg width="15" height="15" viewBox="0 0 15 15" fill="none" xmlns="http://www.w3.org/2000/svg">
<path d="M2.3252 2.32495V5.19995H5.2002" stroke="#CDC1FF" stroke-linecap="round" stroke-linejoin="round"/>
<path d="M2.35395 8.07494C2.48131 9.22829 2.9926 10.3054 3.8057 11.1332C4.61879 11.961 5.68651 12.4916 6.83739 12.6396C7.98826 12.7877 9.1555 12.5446 10.1516 11.9496C11.1478 11.3545 11.915 10.4419 12.3302 9.35832C12.7453 8.27476 12.7842 7.08313 12.4407 5.97479C12.0971 4.86646 11.3911 3.90574 10.4359 3.24692C9.4807 2.5881 8.33181 2.26943 7.17373 2.34206C6.01565 2.4147 4.91558 2.87444 4.0502 3.64744L2.3252 5.19994" stroke="#CDC1FF" stroke-linecap="round" stroke-linejoin="round"/>
<path d="M7.5 4.625V7.5L9.8 8.65" stroke="#CDC1FF" stroke-linecap="round" stroke-linejoin="round"/>
</svg>
