<svg width="24" height="24" viewBox="0 0 24 24" fill="none" xmlns="http://www.w3.org/2000/svg">
<path d="M7 16.3C9.2 16.3 11 14.47 11 12.25C11 11.09 10.43 9.98999 9.29 9.05999C8.15 8.12999 7.29 6.74999 7 5.29999C6.71 6.74999 5.86 8.13999 4.71 9.05999C3.56 9.97999 3 11.1 3 12.25C3 14.47 4.8 16.3 7 16.3Z" stroke="#CDC1FF" stroke-width="2" stroke-linecap="round" stroke-linejoin="round"/>
<path d="M12.56 6.60002C13.2477 5.50114 13.7353 4.28906 14 3.02002C14.5 5.52002 16 7.92002 18 9.52002C20 11.12 21 13.02 21 15.02C21.0057 16.4023 20.6008 17.7552 19.8368 18.9071C19.0727 20.059 17.9838 20.9582 16.7081 21.4905C15.4324 22.0229 14.0274 22.1644 12.6711 21.8973C11.3149 21.6302 10.0685 20.9664 9.08997 19.99" stroke="#CDC1FF" stroke-width="2" stroke-linecap="round" stroke-linejoin="round"/>
</svg>
