<svg width="8" height="8" viewBox="0 0 11 13" fill="none" xmlns="http://www.w3.org/2000/svg">
<path d="M3.4876 7.93751C3.86885 7.93751 4.23448 7.78606 4.50406 7.51648C4.77365 7.24689 4.9251 6.88126 4.9251 6.50001C4.9251 5.70651 4.6376 5.35001 4.3501 4.77501C3.7337 3.54279 4.2213 2.44396 5.5001 1.32501C5.7876 2.76251 6.6501 4.14251 7.8001 5.06251C8.9501 5.98251 9.5251 7.07501 9.5251 8.22501C9.5251 8.75358 9.42099 9.27698 9.21871 9.76531C9.01644 10.2536 8.71996 10.6974 8.3462 11.0711C7.97245 11.4449 7.52873 11.7414 7.0404 11.9436C6.55206 12.1459 6.02867 12.25 5.5001 12.25C4.97153 12.25 4.44813 12.1459 3.9598 11.9436C3.47146 11.7414 3.02775 11.4449 2.65399 11.0711C2.28024 10.6974 1.98376 10.2536 1.78148 9.76531C1.57921 9.27698 1.4751 8.75358 1.4751 8.22501C1.4751 7.56204 1.72407 6.90596 2.0501 6.50001C2.0501 6.88126 2.20155 7.24689 2.47113 7.51648C2.74072 7.78606 3.10635 7.93751 3.4876 7.93751V7.93751Z" stroke="#CDC1FF" stroke-linecap="round" stroke-linejoin="round"/>
</svg>
