<?xml version="1.0" ?><!DOCTYPE svg  PUBLIC '-//W3C//DTD SVG 1.1//EN'  'http://www.w3.org/Graphics/SVG/1.1/DTD/svg11.dtd'><svg enable-background="new 0 0 30 30" height="30px" id="Capa_1" version="1.1" viewBox="0 0 30 30" width="30px" xml:space="preserve" xmlns="http://www.w3.org/2000/svg" xmlns:xlink="http://www.w3.org/1999/xlink" stroke="#CDC1FF" fill="#CDC1FF"><path d="M27.2,5.8H2.8C1.4,5.8,0.2,7,0.2,8.5v6.2c0,1.5,1.2,2.7,2.7,2.7h2.5c0.4,0,0.8-0.3,0.8-0.8s-0.3-0.8-0.8-0.8  H2.8c-0.6,0-1.2-0.5-1.2-1.2V8.5c0-0.6,0.5-1.2,1.2-1.2h24.3c0.6,0,1.2,0.5,1.2,1.2v6c0,0.6-0.5,1.2-1.2,1.2h-3.2  c-0.4,0-0.8,0.3-0.8,0.8s0.3,0.8,0.8,0.8h3.2c1.5,0,2.7-1.2,2.7-2.7v-6C29.8,7,28.6,5.8,27.2,5.8z M26.5,9.8c0-0.4-0.3-0.8-0.8-0.8  H4.2c-0.4,0-0.8,0.3-0.8,0.8s0.3,0.8,0.8,0.8h21.5C26.2,10.6,26.5,10.2,26.5,9.8z M21.8,11.3c-0.4-0.2-0.8,0-1,0.4  c-0.3,0.8-0.3,2-0.4,3.5c-0.1,2.5-0.2,5.9-1.8,7.5H7.2c1.4-2.2,1.5-5.4,1.6-7.8c0-1,0.1-2.2,0.2-2.5c0.2-0.4,0.1-0.8-0.3-1  c-0.4-0.2-0.8-0.1-1,0.3c-0.3,0.6-0.4,1.5-0.4,3.1c-0.1,2.6-0.2,6.5-2.2,8.1c-0.2,0.2-0.3,0.5-0.2,0.8c0.1,0.3,0.4,0.5,0.7,0.5h13.4  c0.2,0,0.4-0.1,0.5-0.2c2.3-2,2.4-5.9,2.5-8.8c0-1.2,0.1-2.4,0.3-2.9C22.4,11.9,22.2,11.4,21.8,11.3z M14.6,14.5  c1.8,0,3.2-1.1,3.2-2.5h-6.4C11.5,13.4,12.9,14.5,14.6,14.5z" fill="#262324"/></svg>