<svg width="101" height="22" viewBox="0 0 101 22" fill="none" xmlns="http://www.w3.org/2000/svg">
<path d="M21.0948 17.1397C20.1775 17.1397 19.3775 16.9584 18.6948 16.5957C18.0228 16.2331 17.4948 15.7317 17.1108 15.0917C16.7375 14.4411 16.5508 13.6944 16.5508 12.8517C16.5508 12.0091 16.7481 11.2571 17.1428 10.5957C17.5375 9.9344 18.0708 9.41707 18.7428 9.04374C19.4148 8.65974 20.1721 8.46774 21.0148 8.46774C21.5588 8.46774 22.0655 8.55307 22.5348 8.72374C23.0148 8.88374 23.4361 9.11307 23.7988 9.41174C24.1615 9.69974 24.4548 10.0304 24.6788 10.4037C24.9135 10.7664 25.0521 11.1557 25.0948 11.5717L24.9828 11.5397L25.0148 8.57974H25.3188V16.9797H24.9828V14.0997L25.1588 13.9557C25.0735 14.4037 24.9135 14.8251 24.6788 15.2197C24.4441 15.6037 24.1401 15.9397 23.7668 16.2277C23.4041 16.5157 22.9935 16.7397 22.5348 16.8997C22.0868 17.0597 21.6068 17.1397 21.0948 17.1397ZM21.0788 16.7877C21.8148 16.7877 22.4815 16.6224 23.0788 16.2917C23.6761 15.9504 24.1455 15.4811 24.4868 14.8837C24.8281 14.2864 24.9988 13.5984 24.9988 12.8197C24.9988 12.0624 24.8281 11.3851 24.4868 10.7877C24.1455 10.1797 23.6761 9.69974 23.0788 9.34774C22.4815 8.98507 21.8041 8.80374 21.0468 8.80374C20.2361 8.80374 19.5161 8.98507 18.8868 9.34774C18.2681 9.69974 17.7828 10.1797 17.4308 10.7877C17.0895 11.3957 16.9188 12.0837 16.9188 12.8517C16.9188 13.6197 17.0841 14.3024 17.4148 14.8997C17.7561 15.4864 18.2361 15.9504 18.8548 16.2917C19.4841 16.6224 20.2255 16.7877 21.0788 16.7877ZM30.3938 16.9797V7.34774C30.3938 6.80374 30.4738 6.36107 30.6338 6.01974C30.8045 5.66774 31.0445 5.4064 31.3538 5.23574C31.6631 5.06507 32.0311 4.97974 32.4578 4.97974C32.8631 4.97974 33.2098 5.0384 33.4978 5.15574C33.7965 5.27307 34.0418 5.4384 34.2338 5.65174L34.0258 5.92374C33.8231 5.7104 33.5885 5.56107 33.3218 5.47574C33.0551 5.37974 32.7565 5.33174 32.4258 5.33174C32.0631 5.33174 31.7538 5.4064 31.4978 5.55574C31.2525 5.6944 31.0658 5.91307 30.9378 6.21174C30.8098 6.5104 30.7458 6.8944 30.7458 7.36374V16.9797H30.6018C30.5698 16.9797 30.5325 16.9797 30.4898 16.9797C30.4578 16.9797 30.4258 16.9797 30.3938 16.9797ZM28.3778 8.93174V8.57974H33.8178V8.93174H28.3778ZM37.1236 14.2597V13.7797L42.9956 8.57974H43.5236L37.1236 14.2597ZM36.9156 16.9797V5.13974H37.2676V16.9797H36.9156ZM43.5716 16.9797L39.2516 12.1957L39.5396 11.9397L44.0676 16.9797H43.5716ZM51.2512 17.1397C50.7712 17.1397 50.3125 17.0757 49.8752 16.9477C49.4485 16.8091 49.0485 16.6117 48.6752 16.3557C48.3125 16.0997 47.9979 15.7904 47.7312 15.4277C47.4752 15.0544 47.2832 14.6331 47.1552 14.1637L47.2832 14.2117L47.2512 16.9797H46.9312V5.13974H47.2832V11.4437L47.1232 11.4757C47.2939 10.9957 47.5072 10.5691 47.7632 10.1957C48.0192 9.8224 48.3232 9.50774 48.6752 9.25174C49.0379 8.99574 49.4325 8.80374 49.8592 8.67574C50.2859 8.53707 50.7392 8.46774 51.2192 8.46774C52.0725 8.46774 52.8245 8.6544 53.4752 9.02774C54.1365 9.3904 54.6539 9.9024 55.0272 10.5637C55.4005 11.2144 55.5872 11.9557 55.5872 12.7877C55.5872 13.6197 55.3899 14.3664 54.9952 15.0277C54.6112 15.6784 54.0939 16.1957 53.4432 16.5797C52.7925 16.9531 52.0619 17.1397 51.2512 17.1397ZM51.2512 16.7877C52.0192 16.7877 52.7019 16.6171 53.2992 16.2757C53.9072 15.9344 54.3819 15.4651 54.7232 14.8677C55.0752 14.2597 55.2512 13.5664 55.2512 12.7877C55.2512 12.0197 55.0805 11.3371 54.7392 10.7397C54.3979 10.1424 53.9232 9.67307 53.3152 9.33174C52.7072 8.97974 52.0139 8.80374 51.2352 8.80374C50.4672 8.80374 49.7845 8.97974 49.1872 9.33174C48.5899 9.67307 48.1205 10.1424 47.7792 10.7397C47.4485 11.3371 47.2832 12.0197 47.2832 12.7877C47.2939 13.5664 47.4645 14.2597 47.7952 14.8677C48.1365 15.4651 48.6059 15.9344 49.2032 16.2757C49.8005 16.6171 50.4832 16.7877 51.2512 16.7877ZM59.9162 20.6597L61.6602 16.8357L61.7402 17.0757L57.4042 8.57974H57.8042L61.5802 15.9877C61.6869 16.1904 61.7615 16.3397 61.8042 16.4357C61.8575 16.5211 61.8949 16.5904 61.9162 16.6437L61.7562 16.6597C61.8415 16.4891 61.9109 16.3504 61.9642 16.2437C62.0175 16.1371 62.0549 16.0411 62.0762 15.9557L65.5162 8.57974H65.9162L61.9802 17.0757L60.3002 20.6597H59.9162ZM70.5159 16.9797V6.24374H70.8679V16.9797H70.5159ZM67.7799 8.93174V8.57974H73.7159V8.93174H67.7799ZM80.5353 17.1397C79.6073 17.1397 78.786 16.9531 78.0713 16.5797C77.3673 16.2064 76.818 15.6891 76.4233 15.0277C76.0393 14.3664 75.8473 13.6144 75.8473 12.7717C75.8473 12.1211 75.9593 11.5344 76.1833 11.0117C76.4073 10.4891 76.7166 10.0357 77.1113 9.65174C77.5166 9.26774 77.986 8.9744 78.5193 8.77174C79.0633 8.56907 79.65 8.46774 80.2793 8.46774C80.8766 8.46774 81.426 8.5584 81.9273 8.73974C82.4393 8.9104 82.882 9.1664 83.2553 9.50774C83.6286 9.8384 83.9166 10.2437 84.1193 10.7237C84.322 11.1931 84.4126 11.7264 84.3913 12.3237L84.3753 12.8037H76.0393V12.4517H84.1993L84.0233 12.6597L84.0393 12.2597C84.0393 11.5771 83.8686 10.9744 83.5273 10.4517C83.1966 9.92907 82.7486 9.52907 82.1833 9.25174C81.6286 8.96374 81.01 8.81974 80.3273 8.81974C79.538 8.81974 78.834 8.98507 78.2153 9.31574C77.5966 9.63574 77.106 10.0944 76.7433 10.6917C76.3913 11.2891 76.21 11.9824 76.1993 12.7717C76.21 13.5504 76.402 14.2437 76.7753 14.8517C77.1486 15.4491 77.6553 15.9184 78.2953 16.2597C78.946 16.6011 79.6926 16.7717 80.5353 16.7717C81.25 16.7717 81.8686 16.6651 82.3913 16.4517C82.9246 16.2384 83.3993 15.9664 83.8153 15.6357L83.9593 15.9557C83.6393 16.2011 83.3086 16.4144 82.9673 16.5957C82.6366 16.7664 82.274 16.8997 81.8793 16.9957C81.4846 17.0917 81.0366 17.1397 80.5353 17.1397Z" fill="white"/>
</svg>
