<svg width="470" height="100" viewBox="0 0 470 100" fill="none" xmlns="http://www.w3.org/2000/svg">
<rect x="0.901013" y="1.21937" width="468.198" height="97.3187" rx="3.84615" fill="#12121A"/>
<rect x="0.901013" y="1.21937" width="468.198" height="97.3187" rx="3.84615" stroke="#1E1E24" stroke-width="1.0989"/>
<path d="M155.296 65.7989C152.944 65.7989 150.9 65.3229 149.164 64.3709C147.428 63.3909 146.07 62.0469 145.09 60.3389C144.11 58.6309 143.62 56.6709 143.62 54.4589C143.62 52.2469 144.124 50.2869 145.132 48.5789C146.168 46.8429 147.554 45.4849 149.29 44.5049C151.054 43.5249 153.042 43.0349 155.254 43.0349C156.598 43.0349 157.858 43.2309 159.034 43.6229C160.238 43.9869 161.302 44.5049 162.226 45.1769C163.178 45.8489 163.962 46.6049 164.578 47.4449C165.194 48.2569 165.586 49.1249 165.754 50.0489L164.872 49.5869L165.082 43.5389H167.056V65.3789H164.998V59.5829L165.754 58.7009C165.53 59.6529 165.096 60.5629 164.452 61.4309C163.836 62.2709 163.066 63.0269 162.142 63.6989C161.218 64.3429 160.168 64.8609 158.992 65.2529C157.816 65.6169 156.584 65.7989 155.296 65.7989ZM155.548 63.6989C157.368 63.6989 159.006 63.3069 160.462 62.5229C161.918 61.7109 163.066 60.6189 163.906 59.2469C164.746 57.8469 165.166 56.2369 165.166 54.4169C165.166 52.6529 164.746 51.0709 163.906 49.6709C163.094 48.2709 161.96 47.1649 160.504 46.3529C159.048 45.5129 157.396 45.0929 155.548 45.0929C153.644 45.0929 151.964 45.5129 150.508 46.3529C149.052 47.1649 147.904 48.2709 147.064 49.6709C146.252 51.0709 145.846 52.6529 145.846 54.4169C145.846 56.2089 146.238 57.8049 147.022 59.2049C147.834 60.6049 148.968 61.7109 150.424 62.5229C151.88 63.3069 153.588 63.6989 155.548 63.6989ZM180.331 65.3789V40.3049C180.331 39.1849 180.569 38.2049 181.045 37.3649C181.549 36.4969 182.263 35.8109 183.187 35.3069C184.139 34.7749 185.245 34.5089 186.505 34.5089C187.513 34.5089 188.409 34.6629 189.193 34.9709C190.005 35.2789 190.691 35.7129 191.251 36.2729L190.495 38.0789C189.907 37.4909 189.249 37.0709 188.521 36.8189C187.793 36.5669 187.093 36.4409 186.421 36.4409C185.469 36.4409 184.699 36.6089 184.111 36.9449C183.523 37.2809 183.089 37.7429 182.809 38.3309C182.529 38.9189 182.389 39.5909 182.389 40.3469V65.3789H181.633C181.381 65.3789 181.143 65.3789 180.919 65.3789C180.723 65.3789 180.527 65.3789 180.331 65.3789ZM175.417 45.5129V43.5809H190.075V45.5129H175.417ZM200.408 58.5749L200.492 55.9709L214.856 43.5389H217.712L200.408 58.5749ZM198.77 65.3789V34.2989H200.828V65.3789H198.77ZM216.074 65.3789L205.112 53.1569L206.54 51.6029L218.846 65.3789H216.074ZM238.215 65.7989C236.955 65.7989 235.765 65.6449 234.645 65.3369C233.553 65.0009 232.545 64.5389 231.621 63.9509C230.697 63.3349 229.899 62.5929 229.227 61.7249C228.583 60.8569 228.093 59.9329 227.757 58.9529L228.681 59.6669L228.471 65.3789H226.455V34.2989H228.555V49.0409L227.799 49.7969C228.163 48.8169 228.667 47.9069 229.311 47.0669C229.955 46.1989 230.739 45.4709 231.663 44.8829C232.587 44.2949 233.609 43.8469 234.729 43.5389C235.849 43.2029 237.053 43.0349 238.341 43.0349C240.469 43.0349 242.387 43.5249 244.095 44.5049C245.803 45.4849 247.161 46.8429 248.169 48.5789C249.177 50.2869 249.681 52.2469 249.681 54.4589C249.681 56.6149 249.177 58.5469 248.169 60.2549C247.189 61.9629 245.831 63.3209 244.095 64.3289C242.387 65.3089 240.427 65.7989 238.215 65.7989ZM238.005 63.6989C239.881 63.6989 241.519 63.2929 242.919 62.4809C244.347 61.6689 245.467 60.5629 246.279 59.1629C247.091 57.7629 247.497 56.1809 247.497 54.4169C247.497 52.5969 247.077 51.0009 246.237 49.6289C245.425 48.2289 244.305 47.1229 242.877 46.3109C241.449 45.4989 239.839 45.0929 238.047 45.0929C236.115 45.0929 234.421 45.4989 232.965 46.3109C231.509 47.1229 230.375 48.2289 229.563 49.6289C228.751 51.0009 228.345 52.5829 228.345 54.3749C228.345 56.1949 228.765 57.8049 229.605 59.2049C230.445 60.6049 231.593 61.7109 233.049 62.5229C234.505 63.3069 236.157 63.6989 238.005 63.6989ZM260.912 75.0389L265.574 64.6649L266.036 67.1429L253.814 43.5389H256.04L264.776 60.2549C265.252 61.1229 265.658 61.9489 265.994 62.7329C266.33 63.5169 266.638 64.2729 266.918 65.0009L265.7 64.3709C265.98 63.8109 266.232 63.2789 266.456 62.7749C266.68 62.2429 266.904 61.7249 267.128 61.2209L275.318 43.5389H277.544L267.59 65.2109L263.054 75.0389H260.912ZM288.802 65.3789V37.1969H290.902V65.3789H288.802ZM282.418 45.4709V43.5389H298V45.4709H282.418ZM315.64 65.7989C313.232 65.7989 311.09 65.3229 309.214 64.3709C307.366 63.4189 305.924 62.0889 304.888 60.3809C303.852 58.6729 303.334 56.6849 303.334 54.4169C303.334 52.7089 303.628 51.1689 304.216 49.7969C304.832 48.4249 305.672 47.2349 306.736 46.2269C307.8 45.1909 309.06 44.4069 310.516 43.8749C311.972 43.3149 313.54 43.0349 315.22 43.0349C316.9 43.0349 318.426 43.2869 319.798 43.7909C321.17 44.2669 322.332 44.9809 323.284 45.9329C324.264 46.8569 325.006 47.9629 325.51 49.2509C326.014 50.5389 326.238 51.9669 326.182 53.5349L326.14 54.8369H305.014V52.9049H325.006L324.124 53.4929L324.082 52.4849C324.082 51.3649 323.732 50.2449 323.032 49.1249C322.36 47.9769 321.366 47.0249 320.05 46.2689C318.734 45.5129 317.11 45.1349 315.178 45.1349C313.414 45.1349 311.804 45.4709 310.348 46.1429C308.892 46.7869 307.73 47.7949 306.862 49.1669C305.994 50.5109 305.56 52.2189 305.56 54.2909C305.56 56.1949 305.98 57.8469 306.82 59.2469C307.66 60.6469 308.85 61.7389 310.39 62.5229C311.958 63.2789 313.848 63.6569 316.06 63.6569C317.544 63.6569 318.916 63.4749 320.176 63.1109C321.436 62.7189 322.78 62.0049 324.208 60.9689L325.174 62.6069C324.446 63.1669 323.606 63.6989 322.654 64.2029C321.73 64.7069 320.68 65.0989 319.504 65.3789C318.356 65.6589 317.068 65.7989 315.64 65.7989Z" fill="#F0F0F8"/>
</svg>
