<svg width="13" height="16" viewBox="0 0 13 16" fill="none" xmlns="http://www.w3.org/2000/svg">
<path fill-rule="evenodd" clip-rule="evenodd" d="M1.12161 0.644289C1.08762 0.659743 1.03761 0.697638 1.0105 0.728516C0.983386 0.759409 0.953187 0.811401 0.943393 0.844068C0.93087 0.885881 0.927847 1.0424 0.933183 1.37258C0.939707 1.776 0.945383 1.86277 0.973778 1.99223C0.991931 2.07504 1.02811 2.20691 1.0542 2.28528C1.08028 2.36366 1.1354 2.49559 1.1767 2.57848C1.21799 2.66138 1.28424 2.77937 1.32389 2.84067C1.36356 2.902 1.43639 3.0016 1.48576 3.06201C1.53511 3.12243 1.63651 3.229 1.71108 3.29883C1.78563 3.36866 1.91772 3.47336 2.00458 3.5315C2.09145 3.58963 2.21638 3.66325 2.28221 3.69508C2.34803 3.72692 2.48518 3.7815 2.58697 3.81639L2.77205 3.87981L2.77617 4.2829L2.78027 4.68598L2.71448 4.70262C2.67828 4.71176 2.58669 4.74037 2.51095 4.76621C2.43519 4.79203 2.31341 4.8432 2.2403 4.87991C2.16721 4.91663 2.04179 4.9904 1.9616 5.04386C1.87 5.10494 1.74657 5.21008 1.62953 5.32676C1.49979 5.45611 1.40975 5.56293 1.33279 5.67884C1.27204 5.77036 1.19399 5.90458 1.15938 5.97711C1.12476 6.04963 1.07346 6.1795 1.04539 6.2657C1.01732 6.3519 0.981366 6.49184 0.965511 6.57667C0.938828 6.71937 0.936669 6.82556 0.936669 7.99562C0.936669 9.25153 0.936916 9.26143 0.971464 9.41747C0.990604 9.50391 1.02754 9.63578 1.05355 9.71052C1.07955 9.78527 1.13131 9.9098 1.16859 9.98728C1.20585 10.0647 1.27765 10.1897 1.32813 10.2649C1.37861 10.3401 1.46511 10.4517 1.52032 10.5127C1.57555 10.5738 1.66774 10.6664 1.72517 10.7185C1.78261 10.7705 1.88866 10.8543 1.96084 10.9047C2.03304 10.955 2.1626 11.0308 2.24877 11.0731C2.33492 11.1154 2.48791 11.1767 2.58873 11.2094L2.77205 11.2688V11.6966V12.1243L2.59761 12.1772C2.50168 12.2062 2.35786 12.2605 2.27801 12.2978C2.19818 12.3351 2.07194 12.4052 1.99746 12.4536C1.923 12.502 1.80436 12.5905 1.7338 12.6502C1.66325 12.71 1.56028 12.8115 1.50499 12.8758C1.4497 12.9402 1.36749 13.0483 1.32233 13.1162C1.27717 13.1841 1.20841 13.3032 1.16956 13.3809C1.1307 13.4587 1.07742 13.5864 1.05119 13.6647C1.02495 13.743 0.989417 13.8737 0.97222 13.9552C0.945676 14.081 0.939815 14.1799 0.933368 14.6112C0.928016 14.9693 0.930993 15.1366 0.943486 15.1783C0.953218 15.2108 0.983386 15.2627 1.0105 15.2936C1.03761 15.3245 1.08762 15.3623 1.12161 15.3778C1.17448 15.4018 1.22658 15.4059 1.48084 15.4062C1.7154 15.4065 1.79035 15.4015 1.83558 15.3826C1.86712 15.3694 1.91263 15.3399 1.93671 15.3171C1.9608 15.2942 1.99203 15.2546 2.00611 15.2292C2.02784 15.19 2.03315 15.1091 2.04103 14.6971C2.04939 14.2598 2.05368 14.1999 2.08381 14.0983C2.10225 14.0361 2.13784 13.94 2.16292 13.8847C2.188 13.8294 2.2391 13.7414 2.27648 13.6892C2.31389 13.637 2.3921 13.5488 2.45029 13.4932C2.5085 13.4376 2.59868 13.3664 2.65069 13.3351C2.70269 13.3038 2.75208 13.2781 2.76042 13.2781C2.76878 13.2781 2.77898 13.325 2.7831 13.3822C2.78772 13.4467 2.80363 13.5119 2.82482 13.5534C2.84366 13.5903 2.88606 13.6498 2.91905 13.6856C2.95203 13.7214 3.01921 13.7707 3.06834 13.7953C3.14582 13.8341 3.17499 13.84 3.28874 13.84C3.38987 13.84 3.43646 13.8324 3.49259 13.8069C3.53261 13.7887 3.59938 13.742 3.64098 13.7031C3.68752 13.6596 3.73162 13.5984 3.75568 13.5439C3.77718 13.4953 3.79956 13.4191 3.80541 13.3745C3.81125 13.33 3.82125 13.2936 3.82762 13.2936C3.83399 13.2936 3.88272 13.3217 3.93592 13.3561C3.98911 13.3905 4.07086 13.4547 4.11754 13.4987C4.16425 13.5428 4.233 13.6216 4.27034 13.6739C4.3077 13.7262 4.36154 13.8199 4.39 13.8821C4.41846 13.9444 4.45404 14.0404 4.46907 14.0956C4.49141 14.1775 4.49809 14.286 4.50564 14.6894C4.51359 15.113 4.51861 15.1897 4.5411 15.2308C4.55551 15.2571 4.59177 15.3001 4.62166 15.3263C4.65155 15.3526 4.70221 15.3813 4.73426 15.3902C4.7663 15.3991 4.91318 15.4064 5.06064 15.4065C5.22835 15.4065 5.35253 15.3995 5.39224 15.3876C5.42816 15.3769 5.4829 15.3415 5.51833 15.3061C5.55855 15.2659 5.58809 15.218 5.60095 15.1721C5.61616 15.1178 5.61923 14.9863 5.61374 14.6251C5.60832 14.2688 5.59987 14.1128 5.58002 14.003C5.56545 13.9224 5.52607 13.7736 5.49254 13.6722C5.45899 13.5708 5.39405 13.416 5.34819 13.3282C5.30235 13.2404 5.2245 13.1118 5.1752 13.0424C5.1259 12.973 5.01605 12.8467 4.93107 12.7617C4.8461 12.6767 4.7198 12.5669 4.65041 12.5176C4.581 12.4683 4.45271 12.3911 4.36532 12.346C4.27793 12.3009 4.15785 12.246 4.09847 12.2239C4.03909 12.2018 3.95059 12.1727 3.90182 12.1592L3.81313 12.1346V11.7V11.2654L3.97893 11.2143C4.07013 11.1862 4.22802 11.1221 4.32982 11.0718C4.43161 11.0214 4.58035 10.9334 4.66036 10.8761C4.74036 10.8187 4.87223 10.7057 4.9534 10.6248C5.03457 10.5439 5.14752 10.4121 5.2044 10.3318C5.26127 10.2514 5.34224 10.1198 5.38431 10.0392C5.4264 9.95863 5.48572 9.82084 5.51614 9.73304C5.54657 9.64522 5.58706 9.50293 5.60613 9.41686C5.64056 9.26147 5.64081 9.25102 5.64081 7.97249C5.64081 6.69256 5.64059 6.68366 5.60601 6.5275C5.58687 6.44107 5.54993 6.3092 5.52393 6.23445C5.49792 6.1597 5.44646 6.03608 5.40956 5.95973C5.37265 5.88339 5.29885 5.75499 5.24555 5.6744C5.18171 5.57788 5.0826 5.46188 4.95516 5.3345C4.83843 5.21784 4.70582 5.10327 4.6209 5.04576C4.54348 4.99332 4.40826 4.91526 4.32044 4.8723C4.2326 4.82935 4.08243 4.76911 3.98669 4.73841L3.81264 4.68263L3.81674 4.27568L3.82084 3.86872L3.98196 3.81468C4.07056 3.78496 4.22326 3.71905 4.32127 3.66823C4.41927 3.61741 4.56023 3.53045 4.63446 3.47499C4.70871 3.41953 4.82354 3.32057 4.88964 3.2551C4.95574 3.18961 5.05333 3.07889 5.10649 3.00905C5.15966 2.9392 5.23502 2.82843 5.27394 2.76288C5.31289 2.69733 5.36692 2.59512 5.39402 2.53574C5.42111 2.47636 5.4653 2.36145 5.49219 2.28042C5.51908 2.19937 5.55547 2.06403 5.57305 1.97966C5.59964 1.85197 5.60635 1.74999 5.61303 1.37127C5.61864 1.05281 5.61573 0.896554 5.6033 0.85053C5.59352 0.814362 5.56332 0.759486 5.53617 0.728577C5.50904 0.697669 5.45901 0.659743 5.42502 0.644289C5.37215 0.620274 5.32005 0.616156 5.06579 0.615863C4.83123 0.615601 4.75627 0.620583 4.71105 0.639476C4.67951 0.652648 4.634 0.682153 4.60992 0.705026C4.58583 0.727899 4.5546 0.767444 4.54052 0.792893C4.51903 0.831698 4.5134 0.910018 4.50558 1.27873C4.49826 1.62428 4.49054 1.73974 4.46954 1.81855C4.45482 1.87369 4.40914 1.98821 4.36802 2.07304C4.3269 2.15786 4.25808 2.27029 4.2151 2.32285C4.17211 2.37543 4.0978 2.45032 4.04996 2.4893C4.00212 2.52826 3.93242 2.57806 3.89508 2.59994C3.85772 2.62183 3.82405 2.63662 3.82026 2.63283C3.81646 2.62903 3.80658 2.59021 3.7983 2.54656C3.79003 2.50292 3.76628 2.43405 3.74555 2.39352C3.7248 2.35297 3.6812 2.29502 3.64866 2.26472C3.61611 2.23443 3.57045 2.19786 3.54717 2.18345C3.5239 2.16906 3.46211 2.14633 3.40989 2.13294C3.34605 2.11659 3.28801 2.11198 3.23275 2.11889C3.18756 2.12453 3.10899 2.14994 3.05816 2.17534C3.0058 2.20151 2.93904 2.25185 2.90411 2.29152C2.87022 2.33004 2.82838 2.39926 2.81112 2.44536C2.79388 2.49146 2.77977 2.56089 2.77977 2.59967C2.77977 2.66034 2.77602 2.66873 2.75277 2.66002C2.73792 2.65447 2.68761 2.62771 2.64095 2.60058C2.5943 2.57343 2.4895 2.48509 2.40805 2.40422C2.27787 2.27499 2.2503 2.2377 2.17993 2.09572C2.12325 1.98134 2.09114 1.89149 2.06987 1.7877C2.04492 1.6659 2.03981 1.57669 2.03964 1.25896C2.03947 0.948638 2.03494 0.865938 2.01549 0.81939C2.00232 0.787849 1.97281 0.74232 1.94994 0.718213C1.92707 0.694122 1.88259 0.661146 1.85112 0.644952C1.80041 0.618871 1.75915 0.615555 1.48867 0.615863C1.22683 0.616156 1.17465 0.620197 1.12161 0.644289ZM10.129 0.644767C10.0951 0.660468 10.0486 0.693289 10.0257 0.717688C10.0029 0.742088 9.97335 0.787849 9.96017 0.81939C9.947 0.850931 9.93622 0.901458 9.93622 0.931688C9.93622 0.96235 9.92769 0.989171 9.91694 0.992333C9.90635 0.995464 9.82059 1.02233 9.72639 1.05204C9.63218 1.08176 9.49538 1.13457 9.42236 1.16942C9.34935 1.20427 9.21812 1.28058 9.13075 1.339C9.04336 1.39744 8.90899 1.50444 8.83214 1.57679C8.75528 1.64914 8.64963 1.76262 8.59736 1.82899C8.54509 1.89536 8.46983 2.0017 8.43011 2.06532C8.3904 2.12894 8.33216 2.23652 8.30071 2.30439C8.26926 2.37225 8.22236 2.49388 8.19649 2.57467C8.17063 2.65545 8.13679 2.78038 8.12129 2.85229C8.09529 2.97302 8.09313 3.08211 8.09313 4.27858C8.09313 5.46123 8.09552 5.58558 8.12058 5.70525C8.13566 5.77735 8.16987 5.90561 8.1966 5.99027C8.22332 6.07493 8.28422 6.22116 8.33193 6.31524C8.37965 6.40931 8.45972 6.54479 8.5099 6.61631C8.56005 6.68781 8.66933 6.8167 8.75272 6.90273C8.83612 6.98875 8.95957 7.0998 9.02704 7.14951C9.09452 7.1992 9.2139 7.2764 9.29234 7.32105C9.37078 7.3657 9.50437 7.42927 9.5892 7.46233C9.67402 7.49539 9.78333 7.53158 9.83211 7.54276L9.9208 7.56307L9.92068 7.99527L9.92057 8.42748L9.79374 8.46281C9.72398 8.48224 9.60778 8.52224 9.53551 8.55168C9.46325 8.58114 9.34859 8.63719 9.28073 8.67624C9.21286 8.71529 9.10584 8.78565 9.04291 8.8326C8.97999 8.87955 8.87321 8.97072 8.80566 9.03517C8.7381 9.09963 8.63953 9.2079 8.5866 9.27576C8.53368 9.34363 8.4606 9.44773 8.42421 9.50711C8.38781 9.56649 8.33395 9.66692 8.30452 9.73026C8.27511 9.7936 8.23056 9.9045 8.20556 9.97668C8.18055 10.0489 8.14538 10.1705 8.1274 10.2471C8.09579 10.3817 8.09453 10.4273 8.08916 11.6355C8.08531 12.5009 8.0889 12.9227 8.10084 13.0082C8.11032 13.0761 8.13454 13.1975 8.15463 13.2781C8.17475 13.3587 8.21955 13.4941 8.25419 13.5789C8.28885 13.6637 8.34914 13.7886 8.38818 13.8565C8.42723 13.9244 8.49776 14.032 8.54492 14.0956C8.59207 14.1592 8.68323 14.2658 8.74748 14.3325C8.81173 14.3992 8.91982 14.4972 8.98768 14.5503C9.05555 14.6034 9.15965 14.6766 9.21903 14.713C9.27841 14.7494 9.3787 14.8032 9.4419 14.8326C9.50509 14.8619 9.59532 14.8998 9.64241 14.9166C9.68948 14.9335 9.77312 14.9595 9.82826 14.9745L9.92851 15.0017L9.939 15.0948C9.94477 15.1461 9.96004 15.2084 9.97292 15.2333C9.98579 15.2582 10.0208 15.3001 10.0507 15.3263C10.0806 15.3526 10.1313 15.3813 10.1633 15.3902C10.1953 15.3991 10.3153 15.4064 10.4298 15.4064C10.5443 15.4064 10.6647 15.399 10.6974 15.3899C10.7314 15.3805 10.7843 15.3459 10.8211 15.309C10.858 15.272 10.8935 15.2176 10.9043 15.1811C10.9148 15.1462 10.9233 15.0931 10.9233 15.0631C10.9233 15.0101 10.9255 15.0081 11.0043 14.9895C11.0488 14.979 11.1443 14.9499 11.2164 14.9248C11.2885 14.8998 11.4277 14.838 11.5257 14.7875C11.6237 14.7371 11.766 14.6496 11.8419 14.5931C11.9178 14.5366 12.0423 14.4272 12.1186 14.3499C12.195 14.2726 12.3013 14.1474 12.355 14.0717C12.4086 13.9961 12.4829 13.8785 12.5199 13.8105C12.557 13.7425 12.6122 13.6224 12.6426 13.5437C12.673 13.4649 12.7147 13.3296 12.7353 13.2429C12.7558 13.1563 12.7799 13.0179 12.7888 12.9356C12.7985 12.8459 12.805 12.3549 12.805 11.7127C12.805 11.0704 12.7985 10.5794 12.7888 10.4898C12.7799 10.4074 12.7555 10.2675 12.7344 10.1789C12.7134 10.0903 12.6713 9.95492 12.641 9.87811C12.6107 9.8013 12.5578 9.68641 12.5235 9.62279C12.4892 9.55917 12.4338 9.46683 12.4005 9.41758C12.3672 9.36835 12.2892 9.26771 12.2273 9.19394C12.1653 9.12019 12.0583 9.01196 11.9897 8.95344C11.921 8.89493 11.8076 8.80877 11.7377 8.76196C11.6678 8.71515 11.534 8.64024 11.4405 8.59547C11.3469 8.55071 11.2009 8.49367 11.1161 8.46875L10.9619 8.42343V7.99574V7.56805L11.093 7.53034C11.1651 7.5096 11.2829 7.46746 11.3547 7.43668C11.4265 7.40591 11.5391 7.35046 11.6049 7.31347C11.6707 7.27647 11.782 7.20389 11.8522 7.15218C11.9224 7.10046 12.0389 6.99841 12.1112 6.92538C12.1834 6.85235 12.2778 6.74512 12.321 6.68712C12.3642 6.62909 12.4321 6.5277 12.472 6.46178C12.5118 6.39586 12.572 6.27793 12.6057 6.19972C12.6394 6.12151 12.6845 5.99733 12.7058 5.9238C12.7271 5.85024 12.7564 5.72761 12.7709 5.65126C12.7944 5.52769 12.7973 5.37866 12.7973 4.294C12.7973 3.3267 12.7928 3.04853 12.7758 2.94446C12.764 2.87235 12.7349 2.74334 12.711 2.65775C12.6872 2.57217 12.6407 2.4403 12.6077 2.36471C12.5747 2.28912 12.5155 2.17316 12.4762 2.10704C12.4368 2.04092 12.3653 1.93455 12.3172 1.87066C12.2692 1.80678 12.1666 1.69225 12.0894 1.61613C12.0122 1.54 11.8865 1.43295 11.8102 1.37821C11.7338 1.32347 11.5913 1.23835 11.4934 1.18904C11.3955 1.13973 11.2566 1.08089 11.1849 1.0583C11.1131 1.03569 11.0249 1.00984 10.9889 1.00085C10.9319 0.986642 10.9233 0.979007 10.9232 0.94267C10.9232 0.919673 10.9159 0.874637 10.907 0.842603C10.8981 0.810553 10.8687 0.759147 10.8416 0.728361C10.8146 0.697561 10.7647 0.659743 10.7307 0.644289C10.6794 0.620984 10.6281 0.616202 10.4298 0.616202C10.2296 0.616202 10.1807 0.620845 10.129 0.644767ZM9.93952 2.30141C9.94557 2.41692 9.95522 2.46137 9.98894 2.5289C10.012 2.57508 10.0564 2.63948 10.0876 2.67202C10.1189 2.70456 10.1791 2.74903 10.2216 2.77084C10.2755 2.79854 10.3312 2.81253 10.4066 2.81729C10.4917 2.82266 10.5333 2.81704 10.6028 2.79081C10.6567 2.77047 10.7187 2.73067 10.762 2.68857C10.801 2.65067 10.8508 2.58056 10.8727 2.53276C10.9033 2.46592 10.9142 2.41269 10.92 2.30187C10.9258 2.19052 10.9325 2.15786 10.9497 2.15786C10.9618 2.15786 11.0043 2.17656 11.044 2.19938C11.0836 2.22223 11.1543 2.26991 11.2009 2.30537C11.2476 2.34083 11.3173 2.40368 11.3558 2.44508C11.3943 2.48646 11.4488 2.5538 11.4769 2.59473C11.505 2.63567 11.5523 2.72197 11.5821 2.78654C11.612 2.8511 11.6494 2.96682 11.6652 3.04372C11.6918 3.17263 11.6941 3.26884 11.6941 4.27858C11.6941 5.28832 11.6918 5.38453 11.6652 5.51344C11.6494 5.59034 11.6114 5.70722 11.581 5.77319C11.5505 5.83914 11.4948 5.9362 11.4572 5.98885C11.4197 6.04149 11.3434 6.1272 11.2877 6.17927C11.232 6.23135 11.139 6.30218 11.081 6.33663C11.023 6.37111 10.9717 6.3993 10.967 6.3993C10.9623 6.3993 10.9548 6.35895 10.9503 6.30964C10.9457 6.25879 10.9254 6.18704 10.9034 6.14384C10.8821 6.10197 10.838 6.04098 10.8053 6.00832C10.7727 5.97566 10.7112 5.93111 10.6688 5.9093C10.6106 5.87936 10.5615 5.86802 10.4683 5.86306C10.3685 5.85775 10.3282 5.86281 10.2572 5.88959C10.2043 5.90953 10.1388 5.95148 10.0923 5.99519C10.0468 6.03788 9.99935 6.10257 9.97679 6.15252C9.9557 6.19918 9.93369 6.27031 9.92788 6.31061C9.92206 6.35092 9.91002 6.38388 9.90112 6.38388C9.89223 6.38388 9.85311 6.36548 9.81419 6.34299C9.77528 6.32052 9.70148 6.2684 9.6502 6.22719C9.5989 6.18598 9.53174 6.12211 9.50094 6.08526C9.47014 6.04842 9.41747 5.97577 9.38391 5.92383C9.35033 5.8719 9.30527 5.78542 9.28374 5.73165C9.26222 5.67788 9.23366 5.58084 9.22025 5.51599C9.19935 5.41479 9.19593 5.239 9.19616 4.27537C9.19639 3.34614 9.20036 3.1342 9.21916 3.04542C9.23165 2.98644 9.26018 2.89024 9.28258 2.83167C9.30496 2.77309 9.35661 2.6756 9.39738 2.61503C9.43812 2.55445 9.51877 2.45851 9.5766 2.40182C9.63443 2.34512 9.73347 2.26703 9.7967 2.2283C9.85994 2.18956 9.91625 2.15786 9.92185 2.15786C9.92745 2.15786 9.9354 2.22246 9.93952 2.30141ZM2.7833 5.95617C2.78812 6.01626 2.80592 6.08219 2.83031 6.13031C2.85188 6.1729 2.90192 6.23758 2.94148 6.27405C2.98104 6.31052 3.04587 6.35528 3.08552 6.37353C3.14124 6.39918 3.18744 6.40675 3.28874 6.40686C3.40122 6.40699 3.4323 6.40089 3.5076 6.36392C3.55983 6.33827 3.62642 6.28683 3.6721 6.23684C3.71771 6.18693 3.75869 6.1231 3.77314 6.07945C3.7865 6.03905 3.8019 5.97304 3.80738 5.93274C3.81286 5.89244 3.82287 5.85948 3.82964 5.85948C3.83642 5.85948 3.90413 5.90106 3.98011 5.9519C4.0561 6.00272 4.15393 6.08332 4.19751 6.13101C4.2411 6.1787 4.29774 6.2482 4.32337 6.28546C4.349 6.32272 4.39373 6.40349 4.42274 6.46494C4.45177 6.52639 4.48784 6.62178 4.50291 6.67692C4.52808 6.76898 4.53032 6.87545 4.53032 7.9802V9.18322L4.49417 9.29836C4.47429 9.36167 4.43702 9.45537 4.41138 9.50657C4.38573 9.55777 4.33458 9.64219 4.29772 9.69417C4.26086 9.74615 4.18606 9.82943 4.13149 9.87925C4.07692 9.92907 3.99511 9.99204 3.94969 10.0192C3.90427 10.0463 3.85578 10.0728 3.84194 10.078C3.82137 10.0857 3.8138 10.0706 3.80056 9.99545C3.79166 9.94488 3.76717 9.86956 3.74615 9.82807C3.72513 9.78659 3.67586 9.72309 3.63667 9.68697C3.59748 9.65084 3.53267 9.60663 3.49263 9.5887C3.4395 9.56492 3.38652 9.55574 3.29645 9.55476C3.19356 9.55362 3.15866 9.56014 3.08638 9.59402C3.03871 9.61639 2.97234 9.65939 2.9389 9.6896C2.90547 9.7198 2.85875 9.78009 2.83509 9.82357C2.80765 9.87397 2.78907 9.93575 2.78378 9.99405C2.77921 10.0443 2.76838 10.0855 2.7597 10.0855C2.75102 10.0855 2.71207 10.0671 2.67316 10.0447C2.63425 10.0223 2.55656 9.96727 2.50052 9.92247C2.44449 9.87766 2.36375 9.7971 2.32109 9.74346C2.27843 9.68982 2.21919 9.60081 2.18945 9.54567C2.15971 9.49053 2.12095 9.40031 2.10334 9.34517C2.08573 9.29003 2.0642 9.1998 2.0555 9.14466C2.0458 9.08322 2.03967 8.62943 2.03967 7.97249C2.03967 7.29555 2.04566 6.86362 2.05591 6.80031C2.06484 6.74517 2.08949 6.648 2.11067 6.58438C2.13186 6.52076 2.17646 6.42251 2.20981 6.36605C2.24315 6.3096 2.30349 6.22506 2.34388 6.1782C2.38426 6.13136 2.45634 6.06117 2.50404 6.02224C2.55175 5.98331 2.62809 5.93089 2.6737 5.90575C2.71931 5.88061 2.76089 5.85991 2.76608 5.85976C2.77128 5.8596 2.77904 5.90299 2.7833 5.95617ZM11.081 9.65461C11.139 9.68906 11.232 9.75989 11.2877 9.81197C11.3434 9.86404 11.4187 9.94864 11.4551 9.99994C11.4914 10.0512 11.5428 10.1362 11.5691 10.1888C11.5955 10.2414 11.6327 10.3386 11.6519 10.4048C11.6868 10.525 11.6868 10.5252 11.6868 11.7127C11.6868 12.9001 11.6868 12.9003 11.6519 13.0205C11.6327 13.0867 11.5955 13.1839 11.5691 13.2365C11.5428 13.2891 11.4914 13.3741 11.4551 13.4254C11.4187 13.4767 11.3434 13.5613 11.2877 13.6133C11.232 13.6654 11.139 13.7363 11.081 13.7707C11.023 13.8052 10.9645 13.8334 10.9512 13.8334C10.9338 13.8334 10.9239 13.8123 10.9166 13.7601C10.911 13.7198 10.8856 13.6438 10.8602 13.5911C10.8334 13.5355 10.7877 13.4728 10.7513 13.4416C10.7167 13.412 10.6563 13.3723 10.6169 13.3533C10.5624 13.3269 10.5179 13.3187 10.4298 13.3186C10.3426 13.3185 10.2943 13.3273 10.2337 13.354C10.1872 13.3745 10.1235 13.4212 10.0828 13.4647C10.0441 13.5062 9.99893 13.5714 9.98252 13.6097C9.96611 13.6479 9.9481 13.7139 9.94247 13.7563C9.93686 13.7987 9.92933 13.8334 9.92577 13.8334C9.92219 13.8334 9.89706 13.822 9.8699 13.808C9.84276 13.7941 9.78219 13.7567 9.7353 13.7249C9.68842 13.6932 9.60917 13.6265 9.55923 13.5768C9.50927 13.5271 9.43584 13.4367 9.39603 13.3759C9.35624 13.3152 9.30588 13.221 9.28414 13.1667C9.26241 13.1124 9.23366 13.0149 9.22025 12.9501C9.19937 12.849 9.1959 12.6726 9.1959 11.7127C9.1959 10.7527 9.19937 10.5764 9.22025 10.4753C9.23366 10.4104 9.26241 10.3129 9.28414 10.2586C9.30588 10.2043 9.35656 10.1102 9.39677 10.0494C9.43697 9.98866 9.51754 9.89276 9.57579 9.83628C9.63406 9.7798 9.72619 9.70518 9.78052 9.67048C9.83486 9.63576 9.88784 9.60737 9.89828 9.60737C9.90962 9.60737 9.92135 9.64028 9.92748 9.6892C9.93309 9.73422 9.95516 9.80883 9.97651 9.855C9.99853 9.90266 10.0486 9.97032 10.0924 10.0115C10.1389 10.0552 10.2043 10.0971 10.2572 10.1171C10.3282 10.1439 10.3685 10.1489 10.4683 10.1436C10.5615 10.1386 10.6106 10.1273 10.6688 10.0974C10.7112 10.0756 10.7727 10.031 10.8053 9.99835C10.838 9.96568 10.8823 9.9044 10.9038 9.86215C10.9281 9.81441 10.9458 9.74874 10.9506 9.68863C10.9549 9.63545 10.9622 9.59194 10.967 9.59194C10.9717 9.59194 11.023 9.62014 11.081 9.65461Z" fill="white"/>
</svg>
