<svg width="15" height="15" viewBox="0 0 15 15" fill="none" xmlns="http://www.w3.org/2000/svg">
<path fill-rule="evenodd" clip-rule="evenodd" d="M7.31483 0.356271C7.27473 0.360219 7.14154 0.372173 7.01887 0.38283C6.89618 0.393505 6.67544 0.422349 6.52828 0.446952C6.38115 0.471555 6.14452 0.520396 6.00248 0.555528C5.86041 0.590642 5.63408 0.655422 5.49951 0.699493C5.36494 0.743563 5.15033 0.821596 5.02261 0.872904C4.89488 0.924231 4.75713 0.983217 4.7165 1.004L4.64261 1.04178L4.54495 0.95812C4.49125 0.912112 4.38072 0.834354 4.29936 0.785312C4.21798 0.736288 4.08856 0.669918 4.01174 0.637856C3.9349 0.605795 3.79351 0.558837 3.69753 0.533521C3.56389 0.498279 3.46105 0.485392 3.25866 0.478501C3.05925 0.471738 2.95404 0.476948 2.83026 0.499741C2.74002 0.516375 2.60056 0.551361 2.52035 0.5775C2.44014 0.603657 2.30478 0.66012 2.21955 0.703002C2.13433 0.745884 2.00717 0.821906 1.93699 0.871954C1.8668 0.922001 1.75252 1.01941 1.68301 1.08843C1.61352 1.15745 1.51075 1.2759 1.45464 1.35166C1.39853 1.42745 1.31888 1.55494 1.27765 1.63499C1.23641 1.71505 1.18221 1.83814 1.15718 1.90851C1.13217 1.97888 1.09662 2.10638 1.07821 2.19183C1.05409 2.30374 1.04472 2.42392 1.04472 2.62139C1.04472 2.81885 1.05409 2.93904 1.07821 3.05094C1.09662 3.13639 1.13228 3.26389 1.15746 3.33426C1.18263 3.40464 1.22786 3.51157 1.25798 3.57189C1.28807 3.63221 1.34947 3.73874 1.39441 3.8086L1.47612 3.93566L1.2753 4.32955C1.16484 4.54621 1.03732 4.80982 0.991929 4.91538C0.946518 5.02094 0.879869 5.19055 0.843828 5.29228C0.807788 5.394 0.750728 5.57116 0.717057 5.68593C0.683368 5.8007 0.630629 6.00537 0.599838 6.14073C0.569066 6.27608 0.526535 6.49788 0.505334 6.6336C0.484133 6.76932 0.455202 7.02019 0.441055 7.1911C0.42689 7.36201 0.415187 7.63917 0.415041 7.80703C0.414895 7.97486 0.423463 8.21751 0.434055 8.34625C0.444646 8.47497 0.469549 8.679 0.489383 8.79964C0.509217 8.92028 0.549651 9.11448 0.57922 9.23119C0.608789 9.3479 0.661237 9.52475 0.695783 9.62418C0.73031 9.72362 0.788391 9.8749 0.824814 9.96035C0.861256 10.0458 0.937056 10.2018 0.993296 10.307C1.04952 10.4123 1.16741 10.6056 1.2553 10.7366C1.34317 10.8676 1.50463 11.0818 1.61408 11.2125C1.72355 11.3431 1.93415 11.5677 2.08208 11.7114C2.23002 11.8552 2.49796 12.0955 2.67751 12.2456C2.85707 12.3956 3.07563 12.5609 3.16323 12.6129C3.25081 12.665 3.47013 12.7839 3.65061 12.8772C3.83108 12.9704 4.1018 13.1018 4.2522 13.1692C4.40259 13.2365 4.64799 13.3405 4.79753 13.4003C4.94707 13.4601 5.21368 13.5572 5.39 13.616C5.56632 13.6748 5.81724 13.752 5.94759 13.7877C6.07793 13.8233 6.29942 13.8768 6.4398 13.9066C6.58017 13.9364 6.80576 13.9774 6.94112 13.9978C7.07648 14.0182 7.33079 14.0446 7.50625 14.0564C7.68625 14.0685 7.93943 14.0728 8.08724 14.0662C8.23133 14.0597 8.42821 14.0459 8.52476 14.0354C8.62132 14.025 8.79875 14 8.91907 13.9799C9.03939 13.9598 9.27159 13.9102 9.43507 13.8697C9.59856 13.8292 9.86107 13.7529 10.0184 13.7001C10.1758 13.6473 10.403 13.5645 10.5233 13.5161C10.6436 13.4677 10.8878 13.36 11.0659 13.2768C11.244 13.1937 11.5106 13.0581 11.6584 12.9756C11.8061 12.893 12.0255 12.7639 12.1458 12.6885C12.2661 12.6132 12.4179 12.5139 12.483 12.4679C12.5482 12.4219 12.7041 12.2975 12.8294 12.1915C12.9547 12.0855 13.2011 11.8548 13.3768 11.6787C13.5525 11.5027 13.7686 11.2682 13.8571 11.1576C13.9456 11.047 14.0919 10.8455 14.1822 10.7098C14.2725 10.5741 14.4105 10.3314 14.4888 10.1706C14.5671 10.0097 14.6647 9.78076 14.7057 9.66178C14.7467 9.54281 14.8047 9.34848 14.8345 9.22994C14.8644 9.11141 14.9051 8.91262 14.9249 8.78822C14.9448 8.66381 14.9695 8.46331 14.9797 8.34267C14.99 8.22203 14.9985 7.98806 14.9986 7.82276C14.9987 7.65745 14.9901 7.40657 14.9795 7.26526C14.9688 7.12393 14.9438 6.89316 14.9239 6.75241C14.9039 6.61166 14.8673 6.3978 14.8425 6.27716C14.8177 6.15652 14.7722 5.96322 14.7415 5.84761C14.7108 5.73199 14.6485 5.52635 14.6031 5.39063C14.5578 5.25491 14.4755 5.04105 14.4203 4.91538C14.365 4.78972 14.2558 4.55529 14.1774 4.39444C14.0991 4.23358 14.0053 4.04754 13.9689 3.98101L13.9028 3.86004L13.9512 3.78908C13.9778 3.75005 14.0307 3.65643 14.0686 3.58103C14.1065 3.50563 14.1624 3.36579 14.1928 3.27029C14.2232 3.17478 14.2581 3.02782 14.2704 2.9437C14.2845 2.84666 14.2889 2.693 14.2823 2.52328C14.2754 2.34212 14.2603 2.21157 14.2355 2.11872C14.2154 2.04332 14.1832 1.93635 14.1639 1.88102C14.1446 1.82567 14.1019 1.72697 14.069 1.66167C14.0362 1.59636 13.9681 1.48124 13.9177 1.40584C13.8674 1.33044 13.7516 1.19372 13.6605 1.10199C13.569 1.0099 13.4254 0.890196 13.3398 0.83461C13.2546 0.779262 13.1357 0.709455 13.0755 0.679477C13.0153 0.6495 12.9005 0.603638 12.8203 0.577536C12.7401 0.551452 12.6059 0.517399 12.522 0.501862C12.4368 0.486069 12.2694 0.473621 12.1421 0.473621C11.9857 0.473621 11.8581 0.485155 11.7342 0.510471C11.635 0.530724 11.4943 0.568781 11.4214 0.595011C11.3486 0.621259 11.2356 0.669735 11.1705 0.702728C11.1053 0.73574 10.9914 0.80668 10.9174 0.860383C10.8433 0.914068 10.7678 0.969051 10.7495 0.982559C10.7205 1.004 10.68 0.992137 10.4284 0.888386C10.27 0.823094 10.0379 0.736599 9.91261 0.696203C9.78727 0.655806 9.56578 0.593585 9.4204 0.557959C9.27501 0.522334 9.06172 0.476491 8.94642 0.45611C8.83111 0.435729 8.63013 0.4063 8.49978 0.390745C8.36944 0.375171 8.06591 0.359433 7.82527 0.355759C7.58464 0.352085 7.35494 0.352322 7.31483 0.356271ZM8.08049 1.04098C8.25094 1.05123 8.50525 1.07648 8.64562 1.09709C8.78599 1.11771 9.0239 1.16279 9.17429 1.1973C9.32469 1.23179 9.5913 1.30871 9.76677 1.36822C9.94223 1.42772 10.1678 1.51259 10.2681 1.55681C10.3684 1.60102 10.5488 1.68789 10.6692 1.74985C10.8632 1.84976 10.89 1.85907 10.9061 1.83211C10.9162 1.81538 10.9659 1.7517 11.0167 1.69059C11.0674 1.62948 11.1627 1.53425 11.2283 1.47896C11.294 1.42366 11.4093 1.34788 11.4847 1.31056C11.5601 1.27323 11.6822 1.22541 11.7562 1.20426C11.8301 1.18313 11.9729 1.16116 12.0736 1.15546C12.208 1.14784 12.2971 1.15328 12.4086 1.17595C12.4922 1.19293 12.6148 1.22729 12.6811 1.25232C12.7474 1.27732 12.8595 1.33397 12.9302 1.37817C13.001 1.42239 13.1112 1.51043 13.1752 1.57386C13.2391 1.63727 13.3299 1.74806 13.3769 1.82006C13.4238 1.89204 13.4833 2.0036 13.509 2.06796C13.5347 2.13234 13.5687 2.24788 13.5845 2.32474C13.6003 2.40158 13.6133 2.53401 13.6133 2.61901C13.6133 2.70401 13.6012 2.83666 13.5865 2.91381C13.5718 2.99097 13.5326 3.11716 13.4993 3.19426C13.4661 3.27136 13.4066 3.38323 13.3671 3.44288C13.3276 3.5025 13.2407 3.60607 13.1739 3.67304L13.0525 3.79478L13.1876 4.00321C13.262 4.11786 13.4036 4.37204 13.5023 4.56809C13.601 4.76413 13.7274 5.02734 13.7831 5.15301C13.8388 5.27868 13.9212 5.49254 13.9662 5.62826C14.0112 5.76398 14.0814 6.01074 14.1221 6.17663C14.1629 6.34251 14.217 6.61806 14.2422 6.78897C14.2675 6.95987 14.2976 7.2659 14.3091 7.46901C14.3248 7.74579 14.3248 7.9199 14.3094 8.1639C14.298 8.34298 14.2719 8.58806 14.2514 8.70854C14.231 8.82902 14.1897 9.01987 14.1598 9.13266C14.1298 9.24544 14.0686 9.43293 14.0238 9.54933C13.9789 9.66571 13.9002 9.84291 13.8489 9.94313C13.7975 10.0433 13.6914 10.2219 13.6131 10.3399C13.5347 10.4579 13.4147 10.6243 13.3464 10.7098C13.2782 10.7952 13.0949 10.9935 12.9393 11.1504C12.7836 11.3074 12.5291 11.5444 12.3737 11.6772C12.2182 11.8101 11.9926 11.9814 11.8723 12.058C11.752 12.1346 11.5861 12.2364 11.5036 12.2841C11.4212 12.3319 11.253 12.4242 11.1299 12.4893C11.0068 12.5544 10.7831 12.6629 10.6327 12.7303C10.4823 12.7977 10.2316 12.9009 10.0755 12.9596C9.91946 13.0183 9.67746 13.0988 9.53772 13.1384C9.39799 13.178 9.20984 13.2274 9.1196 13.2481C9.02936 13.2689 8.85372 13.3025 8.72928 13.3228C8.60484 13.3431 8.37514 13.3688 8.21884 13.38C8.06254 13.3912 7.83211 13.3952 7.70678 13.3888C7.58145 13.3824 7.39687 13.3689 7.2966 13.3587C7.19634 13.3485 7.01696 13.3238 6.89797 13.3037C6.77898 13.2836 6.578 13.2432 6.45133 13.2137C6.32467 13.1843 6.1349 13.1358 6.02962 13.106C5.92434 13.0762 5.72336 13.0133 5.58299 12.9662C5.44262 12.9191 5.21319 12.8356 5.07315 12.7806C4.9331 12.7256 4.69931 12.6271 4.55359 12.5616C4.40788 12.4962 4.16971 12.3821 4.02432 12.308C3.87894 12.234 3.67775 12.1258 3.57725 12.0676C3.47675 12.0095 3.32958 11.9084 3.25022 11.8431C3.17087 11.7777 3.0152 11.6465 2.90429 11.5515C2.7934 11.4566 2.596 11.2714 2.46566 11.1402C2.33531 11.0089 2.15617 10.8111 2.06757 10.7005C1.97895 10.59 1.85497 10.4214 1.79204 10.3259C1.72911 10.2304 1.63213 10.0659 1.57655 9.96035C1.52094 9.85479 1.43732 9.67087 1.39071 9.55163C1.34411 9.43238 1.2785 9.22675 1.24494 9.09466C1.21138 8.96256 1.17091 8.77634 1.15501 8.68083C1.13912 8.58532 1.11686 8.3838 1.10552 8.233C1.09325 8.06957 1.08968 7.81562 1.09666 7.60435C1.1031 7.40939 1.12475 7.1215 1.14479 6.96459C1.16482 6.80768 1.2058 6.55869 1.23585 6.41131C1.26591 6.26391 1.32253 6.03359 1.36167 5.8995C1.40083 5.76539 1.46117 5.57754 1.49579 5.48203C1.53039 5.38652 1.60125 5.21379 1.65324 5.09817C1.70523 4.98256 1.8116 4.76458 1.88963 4.61378C1.96765 4.46298 2.08591 4.24912 2.15241 4.13853C2.21893 4.02795 2.28699 3.91612 2.30365 3.89001L2.33397 3.84258L2.16282 3.67067C2.04697 3.5543 1.96698 3.45448 1.91522 3.36168C1.87317 3.28628 1.81831 3.1629 1.79336 3.0875C1.76838 3.0121 1.73828 2.87727 1.72647 2.78789C1.71012 2.66398 1.71003 2.5858 1.72614 2.45887C1.73777 2.36729 1.77048 2.22468 1.79881 2.14195C1.82715 2.05922 1.88445 1.93397 1.92612 1.86364C1.9678 1.7933 2.04825 1.68556 2.10489 1.62422C2.16153 1.56288 2.25767 1.47728 2.31854 1.43399C2.37939 1.39073 2.48006 1.32975 2.54224 1.29851C2.60441 1.26727 2.71926 1.22322 2.79746 1.20063C2.9135 1.16708 2.9849 1.15952 3.18574 1.15952C3.38653 1.15952 3.45801 1.16708 3.57388 1.20059C3.65201 1.22316 3.77096 1.26943 3.83823 1.30339C3.9055 1.33735 4.01138 1.40348 4.07354 1.45033C4.13569 1.49716 4.22383 1.57708 4.26941 1.62791C4.31498 1.67875 4.37746 1.75928 4.40823 1.8069L4.46416 1.89347L4.79571 1.72647C4.97804 1.63462 5.2395 1.5168 5.37671 1.46465C5.51391 1.4125 5.73541 1.33691 5.86892 1.29668C6.00242 1.25647 6.2265 1.19951 6.36688 1.17014C6.50725 1.14074 6.71689 1.10325 6.83276 1.08684C6.94863 1.07041 7.15372 1.0503 7.28851 1.04217C7.4233 1.03401 7.58692 1.02623 7.65209 1.02484C7.71726 1.02347 7.91004 1.03072 8.08049 1.04098ZM5.09896 4.80253C5.03328 4.81971 4.93732 4.86095 4.88573 4.89414C4.83412 4.92736 4.76311 4.98647 4.72793 5.02551C4.69274 5.06458 4.64595 5.13186 4.62392 5.17503C4.6019 5.21821 4.57294 5.29467 4.55954 5.34494C4.54616 5.3952 4.53509 5.47368 4.53498 5.51932C4.53485 5.56496 4.54741 5.65133 4.56287 5.71125C4.57835 5.77116 4.61731 5.86429 4.64946 5.91822C4.68164 5.97214 4.74076 6.04513 4.78087 6.08042C4.82097 6.11574 4.90711 6.17032 4.97228 6.20174C5.08188 6.25458 5.10518 6.25888 5.28257 6.25888C5.46303 6.25888 5.48166 6.25528 5.59759 6.19807C5.66535 6.16462 5.75951 6.09834 5.80685 6.05079C5.85418 6.00325 5.91607 5.91824 5.9444 5.86188C5.97271 5.80555 6.00503 5.70585 6.01622 5.64038C6.03141 5.55149 6.03119 5.4923 6.01533 5.40687C6.00366 5.34391 5.97329 5.24976 5.94786 5.19765C5.92243 5.14553 5.86982 5.06686 5.83095 5.02285C5.79207 4.97881 5.71566 4.91595 5.66116 4.88312C5.60617 4.85 5.50585 4.81149 5.4358 4.79661C5.36636 4.78186 5.28903 4.77012 5.26396 4.77052C5.23889 4.77093 5.16464 4.78533 5.09896 4.80253ZM10.188 4.78893C10.144 4.7976 10.0579 4.82852 9.99661 4.85766C9.93537 4.8868 9.84585 4.95068 9.79767 4.99963C9.74948 5.04858 9.68386 5.14202 9.65183 5.20726C9.59701 5.31893 9.59358 5.33772 9.59358 5.52734C9.59358 5.70708 9.59874 5.73963 9.64144 5.82933C9.66776 5.88462 9.71977 5.96494 9.75701 6.0078C9.79426 6.05067 9.85954 6.10974 9.90207 6.1391C9.94462 6.16844 10.0321 6.21037 10.0964 6.23227C10.1922 6.26486 10.2415 6.27051 10.3687 6.26343C10.4889 6.25676 10.5486 6.24316 10.633 6.20324C10.696 6.17344 10.7849 6.10868 10.8436 6.0499C10.9001 5.99318 10.9668 5.90199 10.9941 5.84388C11.0211 5.78652 11.0494 5.69192 11.057 5.63367C11.0646 5.5754 11.0656 5.48031 11.0593 5.42238C11.0526 5.36208 11.0235 5.26791 10.9912 5.20216C10.9602 5.13897 10.8956 5.04727 10.8476 4.99835C10.7995 4.94936 10.7111 4.88628 10.6508 4.85793C10.5906 4.82964 10.4972 4.79807 10.4433 4.78782C10.3893 4.77754 10.3278 4.77005 10.3066 4.77116C10.2854 4.77226 10.2321 4.78025 10.188 4.78893ZM7.48802 7.1168C7.42285 7.13062 7.32355 7.15932 7.26734 7.18055C7.21114 7.2018 7.12699 7.24451 7.08036 7.27548C7.03373 7.30646 6.96591 7.36594 6.92965 7.40767C6.89339 7.44942 6.84414 7.52719 6.82018 7.58053C6.79621 7.63387 6.76899 7.73155 6.75966 7.79758C6.74961 7.86874 6.74918 7.97463 6.75862 8.05754C6.76737 8.13449 6.79278 8.24658 6.81508 8.30662C6.83737 8.36665 6.88767 8.46684 6.92685 8.52922C6.96602 8.59163 7.04326 8.68408 7.09848 8.73468C7.1537 8.78529 7.24957 8.85508 7.31155 8.88977C7.37352 8.92447 7.46317 8.96327 7.51081 8.97601C7.55844 8.98874 7.5974 9.00493 7.5974 9.012C7.5974 9.01906 7.56577 9.06496 7.5271 9.114C7.48846 9.16304 7.41667 9.23899 7.36759 9.28279C7.31852 9.32657 7.22272 9.39882 7.15468 9.44333C7.08665 9.48784 6.9759 9.54699 6.90858 9.57479C6.84126 9.60258 6.72464 9.64105 6.64944 9.6603C6.54529 9.68697 6.44973 9.69523 6.24838 9.69503C6.03219 9.69481 5.95914 9.68756 5.84732 9.6552C5.77212 9.63345 5.65317 9.58898 5.58299 9.55639C5.5128 9.5238 5.42666 9.48632 5.39157 9.47311C5.35648 9.45989 5.30139 9.44896 5.26916 9.44882C5.22943 9.44863 5.18995 9.46667 5.14667 9.50477C5.1066 9.54004 5.0784 9.58446 5.07103 9.62389C5.06421 9.66025 5.06883 9.70993 5.08192 9.74164C5.09439 9.7718 5.13429 9.81995 5.17061 9.84861C5.2069 9.87729 5.27951 9.92244 5.33196 9.94894C5.38439 9.97546 5.46896 10.0136 5.51986 10.0337C5.57077 10.0538 5.67552 10.0866 5.75265 10.1066C5.82978 10.1266 5.97697 10.15 6.07975 10.1586C6.18443 10.1674 6.34879 10.1673 6.45347 10.1585C6.55623 10.1497 6.71826 10.1218 6.81351 10.0964C6.90876 10.071 7.06873 10.0105 7.16899 9.96192C7.26926 9.91337 7.40872 9.83262 7.4789 9.78246C7.54909 9.7323 7.64873 9.6531 7.70034 9.60647C7.75195 9.55982 7.80179 9.52166 7.81111 9.52166C7.82041 9.52166 7.84792 9.54302 7.87223 9.56916C7.89653 9.59528 7.96756 9.65758 8.03007 9.70759C8.09258 9.7576 8.21157 9.83768 8.29451 9.88552C8.37744 9.93337 8.51089 9.99762 8.59104 10.0283C8.6712 10.059 8.7901 10.0971 8.85527 10.1131C8.92044 10.129 9.05784 10.1499 9.16062 10.1595C9.27886 10.1705 9.41609 10.1705 9.53433 10.1595C9.6371 10.1499 9.79522 10.1225 9.8857 10.0984C9.97619 10.0744 10.1252 10.0204 10.2168 9.97832C10.3084 9.93624 10.3881 9.88826 10.394 9.87168C10.3999 9.8551 10.426 9.81275 10.4519 9.77756C10.4898 9.72623 10.4973 9.69947 10.4898 9.64217C10.4838 9.59625 10.4615 9.55174 10.4273 9.51743C10.3919 9.48194 10.3486 9.46068 10.2979 9.45386C10.2347 9.44538 10.2069 9.45278 10.1355 9.49711C10.0881 9.52654 10.0042 9.5686 9.94907 9.5906C9.89392 9.61259 9.79958 9.64403 9.73942 9.66048C9.67926 9.67692 9.5306 9.6945 9.40906 9.69953C9.24347 9.7064 9.14977 9.70094 9.03534 9.6777C8.95134 9.66065 8.82285 9.62345 8.74983 9.59503C8.6768 9.56662 8.55785 9.50839 8.48549 9.46563C8.4071 9.41929 8.2858 9.31991 8.18532 9.21973C8.09258 9.12724 8.01669 9.04407 8.01669 9.03491C8.01669 9.02573 8.07918 8.99879 8.15558 8.97501C8.23864 8.94916 8.34893 8.89526 8.43 8.84088C8.50454 8.79089 8.60537 8.702 8.65406 8.64334C8.70274 8.58468 8.7678 8.48481 8.79861 8.4214C8.82944 8.35799 8.86808 8.2527 8.88449 8.18741C8.90609 8.10152 8.91207 8.01775 8.90617 7.88425C8.89913 7.72589 8.8899 7.68251 8.8409 7.57752C8.80577 7.50224 8.74846 7.42068 8.69185 7.36539C8.64127 7.31598 8.54864 7.25056 8.48602 7.22002C8.4234 7.18948 8.32295 7.1512 8.26279 7.13497C8.19332 7.11621 8.05366 7.10292 7.87996 7.09856C7.69309 7.09384 7.569 7.09962 7.48802 7.1168Z" fill="white"/>
</svg>
