<svg width="100" height="22" viewBox="0 0 100 22" fill="none" xmlns="http://www.w3.org/2000/svg">
<path d="M2.804 16.9797V5.77974H7.268C8.036 5.77974 8.756 5.9184 9.428 6.19574C10.1107 6.47307 10.708 6.8624 11.22 7.36374C11.7427 7.86507 12.148 8.45707 12.436 9.13974C12.7347 9.8224 12.884 10.5691 12.884 11.3797C12.884 12.1904 12.7347 12.9371 12.436 13.6197C12.148 14.3024 11.7427 14.8944 11.22 15.3957C10.708 15.8971 10.1107 16.2864 9.428 16.5637C8.756 16.8411 8.036 16.9797 7.268 16.9797H2.804ZM3.156 16.7717L2.996 16.6277H7.188C7.91333 16.6277 8.596 16.4944 9.236 16.2277C9.88667 15.9611 10.452 15.5931 10.932 15.1237C11.4227 14.6544 11.8067 14.1051 12.084 13.4757C12.372 12.8357 12.516 12.1371 12.516 11.3797C12.516 10.6224 12.372 9.92374 12.084 9.28374C11.8067 8.64374 11.4227 8.08907 10.932 7.61974C10.452 7.1504 9.88667 6.78774 9.236 6.53174C8.596 6.26507 7.91333 6.13174 7.188 6.13174H2.98L3.156 5.95574V16.7717ZM20.2973 17.1397C19.3479 17.1397 18.5106 16.9531 17.7853 16.5797C17.0706 16.2064 16.5106 15.6891 16.1053 15.0277C15.6999 14.3664 15.4973 13.6144 15.4973 12.7717C15.4973 11.9397 15.6999 11.1984 16.1053 10.5477C16.5106 9.89707 17.0706 9.3904 17.7853 9.02774C18.5106 8.6544 19.3479 8.46774 20.2973 8.46774C21.2359 8.46774 22.0626 8.6544 22.7773 9.02774C23.5026 9.3904 24.0679 9.89707 24.4733 10.5477C24.8786 11.1984 25.0813 11.9397 25.0813 12.7717C25.0813 13.6144 24.8786 14.3664 24.4733 15.0277C24.0679 15.6784 23.5026 16.1957 22.7773 16.5797C22.0626 16.9531 21.2359 17.1397 20.2973 17.1397ZM20.2973 16.7877C21.1399 16.7877 21.8919 16.6171 22.5533 16.2757C23.2253 15.9344 23.7533 15.4597 24.1373 14.8517C24.5319 14.2437 24.7293 13.5504 24.7293 12.7717C24.7293 12.0144 24.5319 11.3371 24.1373 10.7397C23.7533 10.1424 23.2253 9.67307 22.5533 9.33174C21.8919 8.9904 21.1399 8.81974 20.2973 8.81974C19.4439 8.81974 18.6813 8.9904 18.0093 9.33174C17.3373 9.67307 16.8093 10.1424 16.4253 10.7397C16.0413 11.3264 15.8493 12.0037 15.8493 12.7717C15.8493 13.5504 16.0413 14.2437 16.4253 14.8517C16.8093 15.4597 17.3373 15.9344 18.0093 16.2757C18.6919 16.6171 19.4546 16.7877 20.2973 16.7877ZM32.1209 20.8197C31.4595 20.8197 30.8462 20.7131 30.2809 20.4997C29.7262 20.2864 29.2675 19.9984 28.9049 19.6357L29.0649 19.2997C29.3102 19.5344 29.5822 19.7371 29.8809 19.9077C30.1902 20.0784 30.5315 20.2117 30.9049 20.3077C31.2782 20.4144 31.6782 20.4677 32.1049 20.4677C32.7449 20.4677 33.3475 20.3131 33.9129 20.0037C34.4782 19.6944 34.9369 19.2304 35.2889 18.6117C35.6515 18.0037 35.8329 17.2571 35.8329 16.3717V14.1637L35.9929 14.1317C35.7689 14.7611 35.4595 15.2997 35.0649 15.7477C34.6702 16.1851 34.2009 16.5211 33.6569 16.7557C33.1235 16.9904 32.5369 17.1077 31.8969 17.1077C31.0542 17.1077 30.3022 16.9264 29.6409 16.5637C28.9795 16.1904 28.4569 15.6837 28.0729 15.0437C27.6995 14.3931 27.5129 13.6517 27.5129 12.8197C27.5129 11.9877 27.7049 11.2464 28.0889 10.5957C28.4835 9.9344 29.0062 9.41707 29.6569 9.04374C30.3075 8.65974 31.0382 8.46774 31.8489 8.46774C32.2329 8.46774 32.6062 8.51574 32.9689 8.61174C33.3315 8.69707 33.6675 8.81974 33.9769 8.97974C34.2969 9.13974 34.5849 9.3424 34.8409 9.58774C35.0969 9.83307 35.3209 10.1104 35.5129 10.4197C35.7049 10.7291 35.8542 11.0704 35.9609 11.4437L35.8329 11.3957L35.8649 8.57974H36.1849V16.3877C36.1849 17.1344 36.0729 17.7851 35.8489 18.3397C35.6249 18.8944 35.3209 19.3531 34.9369 19.7157C34.5635 20.0784 34.1315 20.3504 33.6409 20.5317C33.1502 20.7237 32.6435 20.8197 32.1209 20.8197ZM31.8809 16.7557C32.6489 16.7557 33.3315 16.5904 33.9289 16.2597C34.5262 15.9184 34.9902 15.4544 35.3209 14.8677C35.6622 14.2704 35.8329 13.5877 35.8329 12.8197C35.8222 12.0304 35.6462 11.3371 35.3049 10.7397C34.9635 10.1317 34.4942 9.6624 33.8969 9.33174C33.2995 8.9904 32.6222 8.81974 31.8649 8.81974C31.0969 8.81974 30.4089 8.9904 29.8009 9.33174C29.2035 9.67307 28.7289 10.1477 28.3769 10.7557C28.0355 11.3531 27.8649 12.0411 27.8649 12.8197C27.8649 13.5877 28.0355 14.2704 28.3769 14.8677C28.7289 15.4544 29.2035 15.9184 29.8009 16.2597C30.4089 16.5904 31.1022 16.7557 31.8809 16.7557ZM43.9806 17.1397C43.0526 17.1397 42.2313 16.9531 41.5166 16.5797C40.8126 16.2064 40.2633 15.6891 39.8686 15.0277C39.4846 14.3664 39.2926 13.6144 39.2926 12.7717C39.2926 12.1211 39.4046 11.5344 39.6286 11.0117C39.8526 10.4891 40.162 10.0357 40.5566 9.65174C40.962 9.26774 41.4313 8.9744 41.9646 8.77174C42.5086 8.56907 43.0953 8.46774 43.7246 8.46774C44.322 8.46774 44.8713 8.5584 45.3726 8.73974C45.8846 8.9104 46.3273 9.1664 46.7006 9.50774C47.074 9.8384 47.362 10.2437 47.5646 10.7237C47.7673 11.1931 47.858 11.7264 47.8366 12.3237L47.8206 12.8037H39.4846V12.4517H47.6446L47.4686 12.6597L47.4846 12.2597C47.4846 11.5771 47.314 10.9744 46.9726 10.4517C46.642 9.92907 46.194 9.52907 45.6286 9.25174C45.074 8.96374 44.4553 8.81974 43.7726 8.81974C42.9833 8.81974 42.2793 8.98507 41.6606 9.31574C41.042 9.63574 40.5513 10.0944 40.1886 10.6917C39.8366 11.2891 39.6553 11.9824 39.6446 12.7717C39.6553 13.5504 39.8473 14.2437 40.2206 14.8517C40.594 15.4491 41.1006 15.9184 41.7406 16.2597C42.3913 16.6011 43.138 16.7717 43.9806 16.7717C44.6953 16.7717 45.314 16.6651 45.8366 16.4517C46.37 16.2384 46.8446 15.9664 47.2606 15.6357L47.4046 15.9557C47.0846 16.2011 46.754 16.4144 46.4126 16.5957C46.082 16.7664 45.7193 16.8997 45.3246 16.9957C44.93 17.0917 44.482 17.1397 43.9806 17.1397ZM52.7425 16.9797V6.24374H53.0945V16.9797H52.7425ZM50.0065 8.93174V8.57974H55.9425V8.93174H50.0065ZM62.9379 17.1397C61.9885 17.1397 61.1512 16.9531 60.4259 16.5797C59.7112 16.2064 59.1512 15.6891 58.7459 15.0277C58.3405 14.3664 58.1379 13.6144 58.1379 12.7717C58.1379 11.9397 58.3405 11.1984 58.7459 10.5477C59.1512 9.89707 59.7112 9.3904 60.4259 9.02774C61.1512 8.6544 61.9885 8.46774 62.9379 8.46774C63.8765 8.46774 64.7032 8.6544 65.4179 9.02774C66.1432 9.3904 66.7085 9.89707 67.1139 10.5477C67.5192 11.1984 67.7219 11.9397 67.7219 12.7717C67.7219 13.6144 67.5192 14.3664 67.1139 15.0277C66.7085 15.6784 66.1432 16.1957 65.4179 16.5797C64.7032 16.9531 63.8765 17.1397 62.9379 17.1397ZM62.9379 16.7877C63.7805 16.7877 64.5325 16.6171 65.1939 16.2757C65.8659 15.9344 66.3939 15.4597 66.7779 14.8517C67.1725 14.2437 67.3699 13.5504 67.3699 12.7717C67.3699 12.0144 67.1725 11.3371 66.7779 10.7397C66.3939 10.1424 65.8659 9.67307 65.1939 9.33174C64.5325 8.9904 63.7805 8.81974 62.9379 8.81974C62.0845 8.81974 61.3219 8.9904 60.6499 9.33174C59.9779 9.67307 59.4499 10.1424 59.0659 10.7397C58.6819 11.3264 58.4899 12.0037 58.4899 12.7717C58.4899 13.5504 58.6819 14.2437 59.0659 14.8517C59.4499 15.4597 59.9779 15.9344 60.6499 16.2757C61.3325 16.6171 62.0952 16.7877 62.9379 16.7877ZM73.9935 17.1397C73.1615 17.1397 72.4095 17.0064 71.7375 16.7397C71.0762 16.4624 70.5535 16.0891 70.1695 15.6197L70.4415 15.3477C70.8042 15.7957 71.2895 16.1477 71.8975 16.4037C72.5055 16.6597 73.1935 16.7877 73.9615 16.7877C74.4628 16.7877 74.9002 16.7397 75.2735 16.6437C75.6468 16.5371 75.9508 16.3984 76.1855 16.2277C76.4308 16.0571 76.6122 15.8491 76.7295 15.6037C76.8575 15.3584 76.9215 15.0971 76.9215 14.8197C76.9215 14.3077 76.6708 13.9077 76.1695 13.6197C75.9242 13.4704 75.5988 13.3371 75.1935 13.2197C74.7988 13.0917 74.3188 12.9797 73.7535 12.8837C73.1668 12.7771 72.6548 12.6544 72.2175 12.5157C71.7908 12.3771 71.4548 12.2171 71.2095 12.0357C70.9642 11.8651 70.7828 11.6677 70.6655 11.4437C70.5482 11.2197 70.4895 10.9691 70.4895 10.6917C70.4895 10.3611 70.5642 10.0624 70.7135 9.79574C70.8735 9.5184 71.0975 9.28374 71.3855 9.09174C71.6735 8.88907 72.0148 8.7344 72.4095 8.62774C72.8148 8.52107 73.2628 8.46774 73.7535 8.46774C74.1695 8.46774 74.5908 8.5264 75.0175 8.64374C75.4442 8.7504 75.8442 8.9104 76.2175 9.12374C76.6015 9.3264 76.9375 9.57174 77.2255 9.85974L76.9855 10.1477C76.7082 9.88107 76.3935 9.6464 76.0415 9.44374C75.7002 9.24107 75.3322 9.0864 74.9375 8.97974C74.5428 8.87307 74.1482 8.81974 73.7535 8.81974C73.3162 8.81974 72.9162 8.86774 72.5535 8.96374C72.1908 9.04907 71.8815 9.17707 71.6255 9.34774C71.3802 9.50774 71.1882 9.69974 71.0495 9.92374C70.9108 10.1477 70.8415 10.3984 70.8415 10.6757C70.8308 10.8997 70.8735 11.1024 70.9695 11.2837C71.0762 11.4544 71.2308 11.6037 71.4335 11.7317C71.6788 11.9024 71.9988 12.0517 72.3935 12.1797C72.7882 12.3077 73.2628 12.4197 73.8175 12.5157C74.4362 12.6224 74.9642 12.7451 75.4015 12.8837C75.8388 13.0224 76.1962 13.1824 76.4735 13.3637C76.7402 13.5344 76.9375 13.7424 77.0655 13.9877C77.2042 14.2224 77.2735 14.4997 77.2735 14.8197C77.2735 15.2891 77.1455 15.6997 76.8895 16.0517C76.6335 16.4037 76.2602 16.6757 75.7695 16.8677C75.2788 17.0491 74.6868 17.1397 73.9935 17.1397ZM80.7046 16.9797V5.13974H81.0566V10.7717L80.8806 10.8197C80.998 10.4251 81.2326 10.0517 81.5846 9.69974C81.9366 9.33707 82.3633 9.04374 82.8646 8.81974C83.3766 8.58507 83.926 8.46774 84.5126 8.46774C85.238 8.46774 85.8513 8.60107 86.3526 8.86774C86.8646 9.12374 87.254 9.49707 87.5206 9.98774C87.7873 10.4784 87.9206 11.0811 87.9206 11.7957V16.9797H87.5686V11.8437C87.5686 11.1717 87.4406 10.6117 87.1846 10.1637C86.9393 9.71574 86.5873 9.37974 86.1286 9.15574C85.6806 8.92107 85.1473 8.80907 84.5286 8.81974C84.0273 8.81974 83.5633 8.90507 83.1366 9.07574C82.7206 9.2464 82.3526 9.46507 82.0326 9.73174C81.7233 9.98774 81.4833 10.2491 81.3126 10.5157C81.142 10.7824 81.0566 11.0011 81.0566 11.1717V16.9797H80.8806C80.806 16.9797 80.7526 16.9797 80.7206 16.9797C80.6993 16.9797 80.694 16.9797 80.7046 16.9797ZM92.1924 16.9797V8.57974H92.5444V16.9797H92.1924ZM92.3684 6.37174C92.219 6.37174 92.107 6.32907 92.0324 6.24374C91.9577 6.1584 91.9204 6.0464 91.9204 5.90774C91.9204 5.77974 91.9577 5.67307 92.0324 5.58774C92.107 5.49174 92.219 5.44374 92.3684 5.44374C92.507 5.44374 92.6137 5.4864 92.6884 5.57174C92.7737 5.65707 92.8164 5.76907 92.8164 5.90774C92.8164 6.0464 92.779 6.1584 92.7044 6.24374C92.6297 6.32907 92.5177 6.37174 92.3684 6.37174Z" fill="white"/>
</svg>
