<svg width="470" height="100" viewBox="0 0 470 100" fill="none" xmlns="http://www.w3.org/2000/svg">
<rect x="0.604382" y="1.21937" width="468.198" height="97.3187" rx="3.84615" fill="#12121A"/>
<rect x="0.604382" y="1.21937" width="468.198" height="97.3187" rx="3.84615" stroke="#1E1E24" stroke-width="1.0989"/>
<path d="M115.667 65.3789V35.9789H127.721C129.849 35.9789 131.809 36.3569 133.601 37.1129C135.393 37.8409 136.947 38.8629 138.263 40.1789C139.607 41.4669 140.643 43.0069 141.371 44.7989C142.127 46.5909 142.505 48.5509 142.505 50.6789C142.505 52.8069 142.127 54.7809 141.371 56.6009C140.643 58.3929 139.607 59.9329 138.263 61.2209C136.947 62.5089 135.393 63.5309 133.601 64.2869C131.809 65.0149 129.849 65.3789 127.721 65.3789H115.667ZM117.767 63.9929L117.179 63.2789H127.511C129.331 63.2789 131.011 62.9709 132.551 62.3549C134.119 61.7109 135.463 60.8289 136.583 59.7089C137.731 58.5609 138.627 57.2449 139.271 55.7609C139.915 54.2489 140.237 52.5549 140.237 50.6789C140.237 48.8309 139.915 47.1509 139.271 45.6389C138.627 44.1269 137.731 42.8109 136.583 41.6909C135.463 40.5429 134.119 39.6609 132.551 39.0449C131.011 38.4009 129.331 38.0789 127.511 38.0789H117.053L117.767 37.4489V63.9929ZM161.417 65.7989C158.953 65.7989 156.769 65.3089 154.865 64.3289C152.989 63.3489 151.505 61.9909 150.413 60.2549C149.349 58.5189 148.817 56.5449 148.817 54.3329C148.817 52.1489 149.349 50.2029 150.413 48.4949C151.505 46.7869 152.989 45.4569 154.865 44.5049C156.769 43.5249 158.953 43.0349 161.417 43.0349C163.853 43.0349 166.009 43.5249 167.885 44.5049C169.789 45.4569 171.273 46.7869 172.337 48.4949C173.429 50.2029 173.975 52.1489 173.975 54.3329C173.975 56.5449 173.429 58.5189 172.337 60.2549C171.273 61.9629 169.789 63.3209 167.885 64.3289C166.009 65.3089 163.853 65.7989 161.417 65.7989ZM161.417 63.6989C163.377 63.6989 165.141 63.2929 166.709 62.4809C168.277 61.6689 169.509 60.5629 170.405 59.1629C171.301 57.7629 171.749 56.1529 171.749 54.3329C171.749 52.5689 171.301 50.9869 170.405 49.5869C169.509 48.1869 168.277 47.0949 166.709 46.3109C165.141 45.5269 163.377 45.1349 161.417 45.1349C159.401 45.1349 157.609 45.5269 156.041 46.3109C154.473 47.0949 153.241 48.1869 152.345 49.5869C151.477 50.9589 151.043 52.5409 151.043 54.3329C151.043 56.1529 151.477 57.7629 152.345 59.1629C153.241 60.5629 154.473 61.6689 156.041 62.4809C157.637 63.2929 159.429 63.6989 161.417 63.6989ZM192.008 75.0389C190.048 75.0389 188.326 74.7589 186.842 74.1989C185.386 73.6669 184.14 73.0649 183.104 72.3929L184.028 70.3769C184.644 70.8249 185.344 71.2309 186.128 71.5949C186.94 71.9869 187.85 72.3089 188.858 72.5609C189.866 72.8129 190.958 72.9389 192.134 72.9389C193.898 72.9389 195.438 72.5889 196.754 71.8889C198.07 71.2169 199.092 70.1669 199.82 68.7389C200.576 67.3109 200.954 65.5049 200.954 63.3209V59.5409L201.584 59.0369C201.052 60.3809 200.282 61.5569 199.274 62.5649C198.266 63.5729 197.048 64.3569 195.62 64.9169C194.192 65.4769 192.624 65.7569 190.916 65.7569C188.76 65.7569 186.842 65.2669 185.162 64.2869C183.482 63.3069 182.152 61.9629 181.172 60.2549C180.192 58.5469 179.702 56.6009 179.702 54.4169C179.702 52.2049 180.206 50.2449 181.214 48.5369C182.222 46.8289 183.58 45.4849 185.288 44.5049C186.996 43.5249 188.928 43.0349 191.084 43.0349C192.008 43.0349 192.932 43.1469 193.856 43.3709C194.78 43.5669 195.634 43.8469 196.418 44.2109C197.23 44.5749 197.972 45.0369 198.644 45.5969C199.316 46.1569 199.904 46.8009 200.408 47.5289C200.912 48.2289 201.318 49.0129 201.626 49.8809L200.744 49.3349L200.954 43.5389H203.054V63.3629C203.054 65.3509 202.76 67.0729 202.172 68.5289C201.612 69.9849 200.828 71.1889 199.82 72.1409C198.812 73.0929 197.622 73.8069 196.25 74.2829C194.906 74.7869 193.492 75.0389 192.008 75.0389ZM191.378 63.6569C193.254 63.6569 194.906 63.2649 196.334 62.4809C197.79 61.6689 198.924 60.5769 199.736 59.2049C200.576 57.8049 200.996 56.2089 200.996 54.4169C200.996 52.5969 200.576 50.9869 199.736 49.5869C198.924 48.1869 197.79 47.0949 196.334 46.3109C194.906 45.5269 193.268 45.1349 191.42 45.1349C189.6 45.1349 187.976 45.5409 186.548 46.3529C185.12 47.1369 183.986 48.2289 183.146 49.6289C182.334 51.0009 181.928 52.5829 181.928 54.3749C181.928 56.1389 182.334 57.7209 183.146 59.1209C183.958 60.5209 185.064 61.6269 186.464 62.4389C187.892 63.2509 189.53 63.6569 191.378 63.6569ZM223.258 65.7989C220.85 65.7989 218.708 65.3229 216.832 64.3709C214.984 63.4189 213.542 62.0889 212.506 60.3809C211.47 58.6729 210.952 56.6849 210.952 54.4169C210.952 52.7089 211.246 51.1689 211.834 49.7969C212.45 48.4249 213.29 47.2349 214.354 46.2269C215.418 45.1909 216.678 44.4069 218.134 43.8749C219.59 43.3149 221.158 43.0349 222.838 43.0349C224.518 43.0349 226.044 43.2869 227.416 43.7909C228.788 44.2669 229.95 44.9809 230.902 45.9329C231.882 46.8569 232.624 47.9629 233.128 49.2509C233.632 50.5389 233.856 51.9669 233.8 53.5349L233.758 54.8369H212.632V52.9049H232.624L231.742 53.4929L231.7 52.4849C231.7 51.3649 231.35 50.2449 230.65 49.1249C229.978 47.9769 228.984 47.0249 227.668 46.2689C226.352 45.5129 224.728 45.1349 222.796 45.1349C221.032 45.1349 219.422 45.4709 217.966 46.1429C216.51 46.7869 215.348 47.7949 214.48 49.1669C213.612 50.5109 213.178 52.2189 213.178 54.2909C213.178 56.1949 213.598 57.8469 214.438 59.2469C215.278 60.6469 216.468 61.7389 218.008 62.5229C219.576 63.2789 221.466 63.6569 223.678 63.6569C225.162 63.6569 226.534 63.4749 227.794 63.1109C229.054 62.7189 230.398 62.0049 231.826 60.9689L232.792 62.6069C232.064 63.1669 231.224 63.6989 230.272 64.2029C229.348 64.7069 228.298 65.0989 227.122 65.3789C225.974 65.6589 224.686 65.7989 223.258 65.7989ZM245.885 65.3789V37.1969H247.985V65.3789H245.885ZM239.501 45.4709V43.5389H255.083V45.4709H239.501ZM273.185 65.7989C270.721 65.7989 268.537 65.3089 266.633 64.3289C264.757 63.3489 263.273 61.9909 262.181 60.2549C261.117 58.5189 260.585 56.5449 260.585 54.3329C260.585 52.1489 261.117 50.2029 262.181 48.4949C263.273 46.7869 264.757 45.4569 266.633 44.5049C268.537 43.5249 270.721 43.0349 273.185 43.0349C275.621 43.0349 277.777 43.5249 279.653 44.5049C281.557 45.4569 283.041 46.7869 284.105 48.4949C285.197 50.2029 285.743 52.1489 285.743 54.3329C285.743 56.5449 285.197 58.5189 284.105 60.2549C283.041 61.9629 281.557 63.3209 279.653 64.3289C277.777 65.3089 275.621 65.7989 273.185 65.7989ZM273.185 63.6989C275.145 63.6989 276.909 63.2929 278.477 62.4809C280.045 61.6689 281.277 60.5629 282.173 59.1629C283.069 57.7629 283.517 56.1529 283.517 54.3329C283.517 52.5689 283.069 50.9869 282.173 49.5869C281.277 48.1869 280.045 47.0949 278.477 46.3109C276.909 45.5269 275.145 45.1349 273.185 45.1349C271.169 45.1349 269.377 45.5269 267.809 46.3109C266.241 47.0949 265.009 48.1869 264.113 49.5869C263.245 50.9589 262.811 52.5409 262.811 54.3329C262.811 56.1529 263.245 57.7629 264.113 59.1629C265.009 60.5629 266.241 61.6689 267.809 62.4809C269.405 63.2929 271.197 63.6989 273.185 63.6989ZM301.634 65.7989C299.422 65.7989 297.448 65.4209 295.712 64.6649C293.976 63.9089 292.618 62.9569 291.638 61.8089L293.234 60.3389C294.13 61.4589 295.306 62.3129 296.762 62.9009C298.218 63.4609 299.814 63.7409 301.55 63.7409C302.53 63.7409 303.44 63.6569 304.28 63.4889C305.148 63.3209 305.89 63.0829 306.506 62.7749C307.15 62.4669 307.654 62.0609 308.018 61.5569C308.382 61.0249 308.564 60.4229 308.564 59.7509C308.564 58.6309 307.934 57.7069 306.674 56.9789C306.058 56.6709 305.288 56.3769 304.364 56.0969C303.468 55.7889 302.404 55.5089 301.172 55.2569C299.492 54.8369 298.05 54.4589 296.846 54.1229C295.642 53.7589 294.69 53.2969 293.99 52.7369C293.458 52.2889 293.052 51.7709 292.772 51.1829C292.52 50.5949 292.394 49.9369 292.394 49.2089C292.394 48.3129 292.604 47.4869 293.024 46.7309C293.444 45.9749 294.046 45.3169 294.83 44.7569C295.642 44.1969 296.566 43.7769 297.602 43.4969C298.638 43.1889 299.8 43.0349 301.088 43.0349C302.236 43.0349 303.398 43.1889 304.574 43.4969C305.778 43.7769 306.898 44.1829 307.934 44.7149C308.998 45.2469 309.908 45.8769 310.664 46.6049L309.278 48.2009C308.606 47.5849 307.85 47.0389 307.01 46.5629C306.198 46.0589 305.288 45.6669 304.28 45.3869C303.3 45.1069 302.264 44.9669 301.172 44.9669C300.304 44.9669 299.464 45.0649 298.652 45.2609C297.868 45.4289 297.182 45.7089 296.594 46.1009C296.006 46.4649 295.53 46.8989 295.166 47.4029C294.802 47.9069 294.62 48.4669 294.62 49.0829C294.592 49.6149 294.69 50.0629 294.914 50.4269C295.138 50.7629 295.46 51.0709 295.88 51.3509C296.468 51.7429 297.238 52.0789 298.19 52.3589C299.142 52.6109 300.318 52.8909 301.718 53.1989C303.034 53.4789 304.21 53.7589 305.246 54.0389C306.282 54.3189 307.164 54.6549 307.892 55.0469C308.844 55.5789 309.558 56.2089 310.034 56.9369C310.538 57.6649 310.79 58.5189 310.79 59.4989C310.79 60.7589 310.398 61.8649 309.614 62.8169C308.858 63.7409 307.794 64.4689 306.422 65.0009C305.05 65.5329 303.454 65.7989 301.634 65.7989ZM319.628 65.3789V34.2989H321.728V49.2509L321.056 50.0069C321.364 48.6629 321.994 47.4729 322.946 46.4369C323.898 45.3729 325.032 44.5469 326.348 43.9589C327.692 43.3429 329.05 43.0349 330.422 43.0349C332.354 43.0349 333.95 43.3989 335.21 44.1269C336.498 44.8549 337.45 45.9189 338.066 47.3189C338.682 48.6909 338.99 50.3569 338.99 52.3169V65.3789H336.89V52.5269C336.89 50.9029 336.624 49.5449 336.092 48.4529C335.56 47.3609 334.776 46.5209 333.74 45.9329C332.732 45.3169 331.5 45.0229 330.044 45.0509C328.868 45.0509 327.776 45.2609 326.768 45.6809C325.76 46.1009 324.878 46.6749 324.122 47.4029C323.366 48.1309 322.778 48.9429 322.358 49.8389C321.938 50.7349 321.728 51.6589 321.728 52.6109V65.3789H320.678C320.51 65.3789 320.342 65.3789 320.174 65.3789C320.034 65.3789 319.852 65.3789 319.628 65.3789ZM350.733 65.3789V43.5389H352.833V65.3789H350.733ZM351.783 38.9189C351.167 38.9189 350.691 38.7509 350.355 38.4149C350.019 38.0789 349.851 37.6169 349.851 37.0289C349.851 36.4689 350.019 36.0209 350.355 35.6849C350.691 35.3209 351.167 35.1389 351.783 35.1389C352.399 35.1389 352.875 35.3069 353.211 35.6429C353.547 35.9789 353.715 36.4409 353.715 37.0289C353.715 37.5889 353.547 38.0509 353.211 38.4149C352.875 38.7509 352.399 38.9189 351.783 38.9189Z" fill="#F0F0F8"/>
</svg>
