<svg width="67" height="12" viewBox="0 0 67 12" fill="none" xmlns="http://www.w3.org/2000/svg">
<path d="M0.310705 11.0007V0.630362H4.44404C5.15515 0.630362 5.82182 0.758757 6.44404 1.01555C7.07614 1.27234 7.62922 1.63283 8.1033 2.09703C8.58725 2.56123 8.96256 3.10937 9.22922 3.74147C9.50577 4.37357 9.64404 5.06493 9.64404 5.81555C9.64404 6.56616 9.50577 7.25752 9.22922 7.88962C8.96256 8.52172 8.58725 9.06987 8.1033 9.53407C7.62922 9.99826 7.07614 10.3588 6.44404 10.6155C5.82182 10.8723 5.15515 11.0007 4.44404 11.0007H0.310705ZM0.636631 10.8081L0.488483 10.6748H4.36996C5.04157 10.6748 5.67367 10.5513 6.26626 10.3044C6.86873 10.0575 7.39219 9.71678 7.83663 9.28221C8.29095 8.84765 8.64651 8.339 8.9033 7.75629C9.16997 7.1637 9.3033 6.51678 9.3033 5.81555C9.3033 5.11431 9.16997 4.4674 8.9033 3.87481C8.64651 3.28221 8.29095 2.76863 7.83663 2.33407C7.39219 1.8995 6.86873 1.5637 6.26626 1.32666C5.67367 1.07974 5.04157 0.956288 4.36996 0.956288H0.473668L0.636631 0.793325V10.8081ZM16.5082 11.1489C15.6291 11.1489 14.8538 10.976 14.1822 10.6304C13.5205 10.2847 13.002 9.80567 12.6267 9.19332C12.2514 8.58098 12.0637 7.88468 12.0637 7.10444C12.0637 6.33407 12.2514 5.64765 12.6267 5.04518C13.002 4.44271 13.5205 3.97357 14.1822 3.63777C14.8538 3.29209 15.6291 3.11925 16.5082 3.11925C17.3773 3.11925 18.1427 3.29209 18.8045 3.63777C19.4761 3.97357 19.9995 4.44271 20.3748 5.04518C20.7501 5.64765 20.9378 6.33407 20.9378 7.10444C20.9378 7.88468 20.7501 8.58098 20.3748 9.19332C19.9995 9.79579 19.4761 10.2748 18.8045 10.6304C18.1427 10.976 17.3773 11.1489 16.5082 11.1489ZM16.5082 10.823C17.2884 10.823 17.9847 10.6649 18.597 10.3489C19.2193 10.0328 19.7082 9.59332 20.0637 9.03036C20.4291 8.4674 20.6119 7.82542 20.6119 7.10444C20.6119 6.4032 20.4291 5.77604 20.0637 5.22295C19.7082 4.66987 19.2193 4.2353 18.597 3.91925C17.9847 3.6032 17.2884 3.44518 16.5082 3.44518C15.718 3.44518 15.0119 3.6032 14.3896 3.91925C13.7674 4.2353 13.2785 4.66987 12.923 5.22295C12.5674 5.76616 12.3896 6.39332 12.3896 7.10444C12.3896 7.82542 12.5674 8.4674 12.923 9.03036C13.2785 9.59332 13.7674 10.0328 14.3896 10.3489C15.0217 10.6649 15.7279 10.823 16.5082 10.823ZM23.9745 11.0007V3.22295H24.2708L24.3004 5.25258L24.1374 5.29703C24.2461 4.94147 24.4584 4.59579 24.7745 4.25999C25.1004 3.92419 25.5004 3.65258 25.9745 3.44518C26.4486 3.22789 26.9572 3.11925 27.5004 3.11925C28.172 3.11925 28.7399 3.24271 29.2041 3.48962C29.6782 3.72666 30.0387 4.07234 30.2856 4.52666C30.5325 4.98098 30.656 5.539 30.656 6.20073V11.0007H30.33V6.24518C30.33 5.62295 30.2115 5.10444 29.9745 4.68962C29.7473 4.27481 29.4214 3.9637 28.9967 3.75629C28.5819 3.54888 28.0881 3.44518 27.5152 3.44518C27.051 3.44518 26.6214 3.52913 26.2263 3.69703C25.8411 3.85505 25.5004 4.05258 25.2041 4.28962C24.9177 4.52666 24.6955 4.76863 24.5374 5.01555C24.3794 5.26246 24.3004 5.46493 24.3004 5.62295V11.0007H24.1374C24.1276 11.0007 24.1078 11.0007 24.0782 11.0007C24.0486 11.0007 24.014 11.0007 23.9745 11.0007ZM43.3417 11.1489C42.6997 11.1489 42.1121 11.0797 41.5788 10.9415C41.0454 10.7933 40.5664 10.581 40.1417 10.3044C39.717 10.0279 39.3467 9.69209 39.0306 9.29703L39.2676 9.03036C39.7022 9.62295 40.2652 10.0723 40.9565 10.3785C41.6479 10.6748 42.443 10.823 43.3417 10.823C44.0133 10.823 44.6109 10.7242 45.1343 10.5267C45.6676 10.3193 46.0825 10.0328 46.3788 9.6674C46.6751 9.29209 46.8183 8.86246 46.8084 8.37851C46.8084 8.06246 46.7343 7.79086 46.5862 7.5637C46.438 7.33653 46.2355 7.14394 45.9788 6.98592C45.7318 6.81802 45.4405 6.67481 45.1047 6.55629C44.7788 6.43777 44.4281 6.33407 44.0528 6.24518C43.6874 6.14641 43.3121 6.05258 42.9269 5.9637C42.4528 5.86493 41.9985 5.74641 41.5639 5.60814C41.1294 5.46987 40.7442 5.30197 40.4084 5.10444C40.0825 4.89703 39.8257 4.65011 39.638 4.3637C39.4504 4.0674 39.3565 3.69703 39.3565 3.25258C39.3565 2.84765 39.4504 2.47728 39.638 2.14147C39.8355 1.79579 40.1022 1.50444 40.438 1.2674C40.7837 1.02049 41.1837 0.827892 41.638 0.689621C42.1022 0.551349 42.601 0.482214 43.1343 0.482214C43.717 0.482214 44.2355 0.541473 44.6899 0.659992C45.1442 0.768633 45.5442 0.931596 45.8899 1.14888C46.2355 1.36616 46.5368 1.63283 46.7936 1.94888L46.5714 2.20073C46.3146 1.89456 46.0183 1.63777 45.6825 1.43036C45.3565 1.22295 44.9812 1.06987 44.5565 0.971102C44.1318 0.862461 43.6578 0.80814 43.1343 0.80814C42.5022 0.80814 41.9244 0.911843 41.401 1.11925C40.8775 1.32666 40.4627 1.61308 40.1565 1.97851C39.8504 2.33407 39.6973 2.74888 39.6973 3.22295C39.6973 3.61802 39.7862 3.94888 39.9639 4.21555C40.1516 4.48221 40.3985 4.70937 40.7047 4.89703C41.0109 5.07481 41.3664 5.22295 41.7714 5.34147C42.1763 5.45999 42.5911 5.55876 43.0158 5.63777C43.5788 5.75629 44.1072 5.88468 44.601 6.02295C45.1047 6.16123 45.5442 6.32913 45.9195 6.52666C46.3047 6.72419 46.6059 6.97604 46.8232 7.28221C47.0405 7.58839 47.1491 7.9637 47.1491 8.40814C47.1491 8.9316 46.9911 9.40073 46.6751 9.81555C46.359 10.2304 45.9146 10.5563 45.3417 10.7933C44.7689 11.0304 44.1022 11.1489 43.3417 11.1489ZM53.1848 11.1489C52.5033 11.1489 51.9255 11.0304 51.4514 10.7933C50.9872 10.5464 50.6317 10.1909 50.3848 9.72666C50.1379 9.26246 50.0144 8.69456 50.0144 8.02295V3.22295H50.3403V7.97851C50.3403 8.61061 50.4539 9.139 50.6811 9.5637C50.9082 9.97851 51.2342 10.2946 51.6588 10.5118C52.0934 10.7193 52.5971 10.823 53.17 10.823C53.5947 10.823 53.9947 10.739 54.37 10.5711C54.7453 10.4032 55.0712 10.2007 55.3477 9.9637C55.6243 9.71678 55.8416 9.46987 55.9996 9.22295C56.1576 8.97604 56.2366 8.76863 56.2366 8.60073V3.22295H56.5626V11.0007H56.2663L56.2366 8.9711L56.3996 8.92666C56.2909 9.30197 56.0786 9.66246 55.7626 10.0081C55.4564 10.3439 55.0811 10.6205 54.6366 10.8378C54.2021 11.0452 53.7181 11.1489 53.1848 11.1489ZM60.2303 11.0007V3.22295H60.5266L60.5562 5.25258L60.3932 5.29703C60.5019 4.94147 60.7142 4.59579 61.0303 4.25999C61.3562 3.92419 61.7562 3.65258 62.2303 3.44518C62.7043 3.22789 63.213 3.11925 63.7562 3.11925C64.4278 3.11925 64.9957 3.24271 65.4599 3.48962C65.934 3.72666 66.2945 4.07234 66.5414 4.52666C66.7883 4.98098 66.9117 5.539 66.9117 6.20073V11.0007H66.5858V6.24518C66.5858 5.62295 66.4673 5.10444 66.2303 4.68962C66.0031 4.27481 65.6772 3.9637 65.2525 3.75629C64.8377 3.54888 64.3438 3.44518 63.771 3.44518C63.3068 3.44518 62.8772 3.52913 62.4821 3.69703C62.0969 3.85505 61.7562 4.05258 61.4599 4.28962C61.1735 4.52666 60.9513 4.76863 60.7932 5.01555C60.6352 5.26246 60.5562 5.46493 60.5562 5.62295V11.0007H60.3932C60.3834 11.0007 60.3636 11.0007 60.334 11.0007C60.3043 11.0007 60.2698 11.0007 60.2303 11.0007Z" fill="white"/>
</svg>
