<svg width="470" height="99" viewBox="0 0 470 99" fill="none" xmlns="http://www.w3.org/2000/svg">
<rect x="0.901013" y="0.80238" width="468.198" height="97.3187" rx="3.84615" fill="#12121A"/>
<rect x="0.901013" y="0.80238" width="468.198" height="97.3187" rx="3.84615" stroke="#1E1E24" stroke-width="1.0989"/>
<path d="M139.389 64.9619V35.5619H151.443C153.571 35.5619 155.531 35.9399 157.323 36.6959C159.115 37.4239 160.669 38.4459 161.985 39.7619C163.329 41.0499 164.365 42.5899 165.093 44.3819C165.849 46.1739 166.227 48.1339 166.227 50.2619C166.227 52.3899 165.849 54.3639 165.093 56.1839C164.365 57.9759 163.329 59.5159 161.985 60.8039C160.669 62.0919 159.115 63.1139 157.323 63.8699C155.531 64.5979 153.571 64.9619 151.443 64.9619H139.389ZM141.489 63.5759L140.901 62.8619H151.233C153.053 62.8619 154.733 62.5539 156.273 61.9379C157.841 61.2939 159.185 60.4119 160.305 59.2919C161.453 58.1439 162.349 56.8279 162.993 55.3439C163.637 53.8319 163.959 52.1379 163.959 50.2619C163.959 48.4139 163.637 46.7339 162.993 45.2219C162.349 43.7099 161.453 42.3939 160.305 41.2739C159.185 40.1259 157.841 39.2439 156.273 38.6279C154.733 37.9839 153.053 37.6619 151.233 37.6619H140.775L141.489 37.0319V63.5759ZM185.139 65.3819C182.675 65.3819 180.491 64.8919 178.587 63.9119C176.711 62.9319 175.227 61.5739 174.135 59.8379C173.071 58.1019 172.539 56.1279 172.539 53.9159C172.539 51.7319 173.071 49.7859 174.135 48.0779C175.227 46.3699 176.711 45.0399 178.587 44.0879C180.491 43.1079 182.675 42.6179 185.139 42.6179C187.575 42.6179 189.731 43.1079 191.607 44.0879C193.511 45.0399 194.995 46.3699 196.059 48.0779C197.151 49.7859 197.697 51.7319 197.697 53.9159C197.697 56.1279 197.151 58.1019 196.059 59.8379C194.995 61.5459 193.511 62.9039 191.607 63.9119C189.731 64.8919 187.575 65.3819 185.139 65.3819ZM185.139 63.2819C187.099 63.2819 188.863 62.8759 190.431 62.0639C191.999 61.2519 193.231 60.1459 194.127 58.7459C195.023 57.3459 195.471 55.7359 195.471 53.9159C195.471 52.1519 195.023 50.5699 194.127 49.1699C193.231 47.7699 191.999 46.6779 190.431 45.8939C188.863 45.1099 187.099 44.7179 185.139 44.7179C183.123 44.7179 181.331 45.1099 179.763 45.8939C178.195 46.6779 176.963 47.7699 176.067 49.1699C175.199 50.5419 174.765 52.1239 174.765 53.9159C174.765 55.7359 175.199 57.3459 176.067 58.7459C176.963 60.1459 178.195 61.2519 179.763 62.0639C181.359 62.8759 183.151 63.2819 185.139 63.2819ZM206.111 64.9619V43.1219H208.127L208.337 48.4139L207.917 48.3719C208.281 47.3919 208.897 46.4679 209.765 45.5999C210.661 44.7039 211.739 43.9899 212.999 43.4579C214.287 42.8979 215.659 42.6179 217.115 42.6179C218.907 42.6179 220.433 42.9819 221.693 43.7099C222.953 44.4379 223.891 45.5019 224.507 46.9019C225.151 48.2739 225.473 49.9399 225.473 51.8999V64.9619H223.373V52.1099C223.373 50.4859 223.093 49.1279 222.533 48.0359C222.001 46.9439 221.231 46.1039 220.223 45.5159C219.215 44.9279 218.011 44.6339 216.611 44.6339C215.379 44.6339 214.259 44.8579 213.251 45.3059C212.243 45.7259 211.347 46.2999 210.563 47.0279C209.807 47.7559 209.219 48.5679 208.799 49.4639C208.407 50.3319 208.211 51.2419 208.211 52.1939V64.9619H207.161C207.105 64.9619 206.993 64.9619 206.825 64.9619C206.657 64.9619 206.419 64.9619 206.111 64.9619ZM261.547 65.3819C259.979 65.3819 258.481 65.1719 257.053 64.7519C255.625 64.3319 254.295 63.7159 253.063 62.9039C251.859 62.0639 250.781 61.0419 249.829 59.8379L251.257 58.1999C252.657 59.9919 254.239 61.2939 256.003 62.1059C257.767 62.8899 259.629 63.2819 261.589 63.2819C263.353 63.2819 264.921 63.0299 266.293 62.5259C267.693 61.9939 268.785 61.2519 269.569 60.2999C270.353 59.3479 270.745 58.2559 270.745 57.0239C270.745 56.1559 270.549 55.4279 270.157 54.8399C269.793 54.2519 269.289 53.7619 268.645 53.3699C268.029 52.9779 267.315 52.6419 266.503 52.3619C265.691 52.0819 264.851 51.8439 263.983 51.6479C263.115 51.4519 262.247 51.2559 261.379 51.0599C259.951 50.7239 258.621 50.3739 257.389 50.0099C256.157 49.6459 255.065 49.1839 254.113 48.6239C253.189 48.0639 252.475 47.3779 251.971 46.5659C251.467 45.7259 251.215 44.6339 251.215 43.2899C251.215 42.0859 251.467 41.0079 251.971 40.0559C252.503 39.0759 253.245 38.2359 254.197 37.5359C255.149 36.8359 256.241 36.3039 257.473 35.9399C258.733 35.5479 260.091 35.3519 261.547 35.3519C263.227 35.3519 264.697 35.5759 265.957 36.0239C267.245 36.4439 268.379 37.0459 269.359 37.8299C270.367 38.5859 271.263 39.5099 272.047 40.6019L270.577 42.1979C269.849 41.1899 269.037 40.3359 268.141 39.6359C267.245 38.9079 266.251 38.3619 265.159 37.9979C264.067 37.6339 262.863 37.4519 261.547 37.4519C260.007 37.4519 258.621 37.7039 257.389 38.2079C256.185 38.6839 255.219 39.3559 254.491 40.2239C253.763 41.0919 253.399 42.0999 253.399 43.2479C253.399 44.1719 253.609 44.9419 254.029 45.5579C254.477 46.1739 255.093 46.6919 255.877 47.1119C256.689 47.5319 257.669 47.8959 258.817 48.2039C259.965 48.4839 261.225 48.7639 262.597 49.0439C263.941 49.2959 265.229 49.6039 266.461 49.9679C267.693 50.3319 268.799 50.7939 269.779 51.3539C270.759 51.9139 271.529 52.6559 272.089 53.5799C272.649 54.4759 272.929 55.6239 272.929 57.0239C272.929 58.6199 272.453 60.0619 271.501 61.3499C270.549 62.6099 269.219 63.6039 267.511 64.3319C265.803 65.0319 263.815 65.3819 261.547 65.3819ZM290.392 65.3819C288.404 65.3819 286.752 65.0179 285.436 64.2899C284.148 63.5619 283.168 62.4979 282.496 61.0979C281.852 59.6979 281.53 57.9619 281.53 55.8899V43.1219H283.63V55.6799C283.63 57.3599 283.882 58.7739 284.386 59.9219C284.89 61.0419 285.646 61.8819 286.654 62.4419C287.662 63.0019 288.894 63.2819 290.35 63.2819C291.554 63.2819 292.674 63.0719 293.71 62.6519C294.774 62.2319 295.684 61.6719 296.44 60.9719C297.196 60.2719 297.798 59.4739 298.246 58.5779C298.694 57.6819 298.918 56.7299 298.918 55.7219V43.1219H301.018V64.9619H299.002L298.792 59.8799H299.086C298.806 60.8039 298.218 61.6859 297.322 62.5259C296.454 63.3659 295.404 64.0519 294.172 64.5839C292.968 65.1159 291.708 65.3819 290.392 65.3819ZM311.645 64.9619V43.1219H313.661L313.871 48.4139L313.451 48.3719C313.815 47.3919 314.431 46.4679 315.299 45.5999C316.195 44.7039 317.273 43.9899 318.533 43.4579C319.821 42.8979 321.193 42.6179 322.649 42.6179C324.441 42.6179 325.967 42.9819 327.227 43.7099C328.487 44.4379 329.425 45.5019 330.041 46.9019C330.685 48.2739 331.007 49.9399 331.007 51.8999V64.9619H328.907V52.1099C328.907 50.4859 328.627 49.1279 328.067 48.0359C327.535 46.9439 326.765 46.1039 325.757 45.5159C324.749 44.9279 323.545 44.6339 322.145 44.6339C320.913 44.6339 319.793 44.8579 318.785 45.3059C317.777 45.7259 316.881 46.2999 316.097 47.0279C315.341 47.7559 314.753 48.5679 314.333 49.4639C313.941 50.3319 313.745 51.2419 313.745 52.1939V64.9619H312.695C312.639 64.9619 312.527 64.9619 312.359 64.9619C312.191 64.9619 311.953 64.9619 311.645 64.9619Z" fill="#F0F0F8"/>
</svg>
