<svg width="13" height="15" viewBox="0 0 13 15" fill="none" xmlns="http://www.w3.org/2000/svg">
<path fill-rule="evenodd" clip-rule="evenodd" d="M8.34771 0.319471C8.29105 0.330606 8.11722 0.365354 7.96142 0.396647C7.80562 0.427888 7.57385 0.487279 7.44638 0.528573C7.31891 0.569816 7.01761 0.692102 6.77683 0.800211C6.53604 0.908319 6.2059 1.02143 6.0432 1.05164C5.8805 1.0818 5.59794 1.17789 5.41531 1.26512C5.2061 1.36509 4.93344 1.56476 4.67864 1.80474C4.41726 2.05086 4.09335 2.44452 3.76341 2.91707C3.48256 3.31929 3.19393 3.69321 3.12198 3.74796C3.05008 3.80271 2.88707 3.9233 2.75965 4.01599C2.63228 4.10868 2.44058 4.3099 2.3336 4.46312C2.22663 4.61639 2.09148 4.89364 2.03328 5.07929C1.97184 5.27525 1.91554 5.63308 1.89917 5.93235C1.87594 6.35561 1.8387 6.53094 1.69099 6.91188C1.59205 7.16707 1.46859 7.58465 1.41657 7.83985C1.35981 8.11855 1.30125 8.74647 1.26989 9.41224C1.22822 10.2971 1.19119 10.6298 1.08607 11.062C1.01365 11.3597 0.940053 11.8047 0.92249 12.0508C0.902713 12.3277 0.91461 12.6227 0.95365 12.8241C0.988364 13.0033 1.08576 13.2912 1.17012 13.4639C1.25444 13.6366 1.45128 13.9069 1.60755 14.0646C1.7804 14.239 2.03627 14.4236 2.26119 14.5363C2.46443 14.6381 2.76979 14.7567 2.93976 14.7999C3.10972 14.8431 3.49528 14.9002 3.79648 14.9267C4.17931 14.9604 4.81513 14.9528 5.90815 14.9015C6.93005 14.8535 7.68634 14.7916 8.09018 14.7228C8.43011 14.6648 8.88186 14.57 9.09405 14.512C9.30625 14.454 9.6539 14.3367 9.86662 14.2515C10.0793 14.1663 10.4248 14.0018 10.6343 13.8861C10.8438 13.7704 11.1451 13.5727 11.3038 13.4468C11.4626 13.3209 11.6927 13.1098 11.8152 12.9777C11.9378 12.8456 12.1406 12.5826 12.2659 12.3933C12.3913 12.204 12.5632 11.8758 12.648 11.664C12.7327 11.4521 12.8351 11.1199 12.8756 10.9255C12.9161 10.7312 12.9648 10.3866 12.9838 10.1598C13.003 9.93062 12.992 9.50679 12.959 9.20603C12.9263 8.9083 12.8544 8.48577 12.7991 8.26707C12.7438 8.04838 12.5254 7.38236 12.3137 6.78701C12.1021 6.19167 11.9015 5.53822 11.8679 5.33489C11.816 5.01974 11.8207 4.8824 11.9003 4.40512C11.969 3.99233 11.9856 3.7061 11.9633 3.31635C11.9466 3.02548 11.889 2.64837 11.8352 2.47824C11.7815 2.30811 11.6845 2.06534 11.6197 1.93873C11.5548 1.81211 11.4106 1.58749 11.299 1.43963C11.1874 1.29173 10.9756 1.07762 10.8282 0.96374C10.6807 0.849909 10.4079 0.685452 10.2219 0.598377C10.036 0.511251 9.72359 0.40603 9.52777 0.364477C9.332 0.322976 9.00954 0.291271 8.81124 0.294054C8.61295 0.29689 8.40436 0.308283 8.34771 0.319471ZM9.15586 1.86305C9.2771 1.90589 9.44248 2.00384 9.52329 2.08071C9.60415 2.15757 9.70294 2.28311 9.7429 2.35967C9.78287 2.43627 9.81558 2.6048 9.81558 2.7342C9.81558 2.88242 9.75042 3.13122 9.63948 3.40662C9.5426 3.64707 9.44851 3.91159 9.43033 3.99444C9.41214 4.07734 9.42399 4.24453 9.4567 4.36609C9.49929 4.52452 9.61461 4.6899 9.86389 4.9504C10.0552 5.15023 10.2266 5.35557 10.2449 5.40671C10.2631 5.4579 10.3025 5.65509 10.3324 5.84492C10.3622 6.03479 10.4784 6.47331 10.5904 6.81944C10.7343 7.26373 10.7937 7.53661 10.7926 7.74741C10.7914 7.95445 10.7547 8.11726 10.6729 8.27805C10.6079 8.40565 10.4421 8.691 10.3044 8.91222L10.054 9.31434L10.0143 9.96907C9.99244 10.3291 9.96118 10.7392 9.94485 10.8803C9.92853 11.0214 9.87934 11.1915 9.83561 11.2584C9.79183 11.3252 9.67739 11.4128 9.58118 11.4531C9.48502 11.4933 9.16817 11.563 8.87701 11.608C8.58591 11.653 8.23182 11.7439 8.09018 11.8101C7.94855 11.8762 7.62963 12.1153 7.38149 12.3414C7.13329 12.5674 6.82663 12.8012 6.69993 12.8608C6.57323 12.9204 6.26637 13.003 6.01801 13.0444C5.76966 13.0858 5.17623 13.157 4.69925 13.2025C4.04329 13.2652 3.76996 13.272 3.57733 13.2307C3.43724 13.2006 3.23292 13.1302 3.12332 13.0742C3.01367 13.0183 2.85452 12.8881 2.76964 12.7851C2.68476 12.6819 2.58402 12.4899 2.54575 12.3582C2.50614 12.2219 2.479 11.9079 2.48271 11.6291C2.48626 11.3597 2.54812 10.7565 2.62017 10.2887C2.69228 9.82081 2.76387 9.22922 2.77932 8.97403C2.79725 8.67811 2.85436 8.37235 2.93708 8.12994C3.00836 7.92089 3.11688 7.5729 3.17817 7.35663C3.26743 7.042 3.28782 6.84352 3.28041 6.36334C3.27392 5.94354 3.29431 5.69572 3.34829 5.53848C3.40489 5.37351 3.52701 5.22137 3.80735 4.96659C4.01743 4.77569 4.42107 4.34578 4.70429 4.01119C4.98757 3.67661 5.41057 3.22268 5.6444 3.00254C5.97969 2.68677 6.17958 2.54876 6.59053 2.34899C6.87716 2.20975 7.35496 2.02683 7.6524 1.94254C7.94984 1.85825 8.25114 1.77819 8.32195 1.76463C8.39277 1.75107 8.55975 1.75014 8.69304 1.76257C8.82633 1.77499 9.03457 1.82026 9.15586 1.86305Z" fill="white"/>
</svg>
