<svg width="470" height="100" viewBox="0 0 470 100" fill="none" xmlns="http://www.w3.org/2000/svg">
<rect x="1.19789" y="1.38441" width="468.198" height="97.3187" rx="3.84615" fill="#12121A"/>
<rect x="1.19789" y="1.38441" width="468.198" height="97.3187" rx="3.84615" stroke="#1E1E24" stroke-width="1.0989"/>
<path fill-rule="evenodd" clip-rule="evenodd" d="M29.2258 38.1296L41.8032 50.3216L37.3841 54.6108C34.9536 56.9699 29.3332 62.3381 24.8944 66.5396L16.8245 74.1792H30.7086H44.5927L57.6976 62.1987C70.6972 50.0442 57.6976 62.1987 70.6972 50.0442C70.3872 49.7579 63.9041 43.9418 56.8471 37.5429L44.0168 25.9092L30.3326 25.9235L16.6484 25.9384L29.2258 38.1296ZM42.823 37.4668C42.823 43.421 42.823 44.9452 42.823 46.9848C32.7298 38.0923 42.823 46.969 32.7298 38.0923C23.1071 28.6286 24.4668 29.9883 23.1071 28.6286C27.1862 28.6286 27.7131 28.6286 33.2486 28.6286H42.823V37.4668ZM55.3426 39.4173C65.2583 49.0244 55.3426 39.4173 65.2583 49.0244C62.199 49.0244 60.1424 49.0244 54.7205 49.0244H44.8626V39.7899C44.8626 34.4924 44.8626 31.688 44.8626 29.9883C55.3426 39.4173 50.2627 34.7922 55.3426 39.4173ZM65.2583 51.7438C55.1652 61.1816 65.2583 51.7438 55.1652 61.1816C44.8626 70.1 55.1652 61.1816 44.8626 70.1C44.8626 67.0406 44.8626 65.443 44.8626 60.582V51.7438H54.777C60.2301 51.7438 61.1792 51.7438 65.2583 51.7438ZM42.823 62.9615V72.1396H33.305C28.1632 72.2436 33.135 72.1396 23.1071 72.1396C32.7692 62.472 23.1071 72.1396 32.7692 62.472C42.823 53.1035 32.7692 62.472 42.823 53.1035C42.823 61.9417 42.927 58.0067 42.823 62.9615Z" fill="#27A5CA"/>
<path d="M113.947 62.9092V37.1652H115.786V62.9092H113.947ZM94.308 62.9092V37.1652H96.1469V62.9092H94.308ZM95.3746 51.0669V49.2281H114.609V51.0669H95.3746ZM129.033 71.3679L133.115 62.284L133.519 64.4538L122.817 43.7851H124.766L132.416 58.4224C132.833 59.1824 133.188 59.9057 133.483 60.5922C133.777 61.2787 134.046 61.9407 134.292 62.5782L133.225 62.0265C133.47 61.5362 133.691 61.0703 133.887 60.629C134.083 60.1632 134.279 59.7096 134.476 59.2682L141.647 43.7851H143.596L134.88 62.7621L130.908 71.3679H129.033ZM150.291 71.0001V43.7851H152.056L152.24 48.7868L151.725 49.2281C152.167 48.0267 152.817 46.9969 153.675 46.1388C154.557 45.2562 155.612 44.5697 156.837 44.0793C158.088 43.5889 159.436 43.3437 160.883 43.3437C162.771 43.3437 164.463 43.7728 165.958 44.6309C167.454 45.4891 168.643 46.6782 169.526 48.1983C170.408 49.6939 170.85 51.4102 170.85 53.3471C170.85 55.235 170.421 56.9268 169.562 58.4224C168.729 59.918 167.552 61.0948 166.032 61.953C164.512 62.8111 162.783 63.2402 160.846 63.2402C159.375 63.2402 158.027 62.995 156.801 62.5046C155.599 61.9898 154.57 61.3032 153.711 60.4451C152.853 59.5625 152.191 58.5327 151.725 57.3558L152.13 57.7972V71.0001H150.291ZM160.589 61.4013C162.207 61.4013 163.641 61.0581 164.892 60.3716C166.142 59.6605 167.123 58.7043 167.834 57.5029C168.569 56.277 168.925 54.8918 168.9 53.3471C168.9 51.7535 168.533 50.3437 167.797 49.1178C167.086 47.8919 166.105 46.9356 164.855 46.2491C163.604 45.5381 162.182 45.1826 160.589 45.1826C158.922 45.1826 157.438 45.5381 156.139 46.2491C154.839 46.9356 153.822 47.8919 153.086 49.1178C152.375 50.3191 152.007 51.7167 151.983 53.3103C151.983 54.8795 152.351 56.277 153.086 57.5029C153.822 58.7043 154.827 59.6605 156.102 60.3716C157.401 61.0581 158.897 61.4013 160.589 61.4013ZM186.877 63.277C184.719 63.277 182.807 62.8479 181.139 61.9898C179.497 61.1316 178.197 59.9425 177.241 58.4224C176.309 56.9022 175.844 55.1737 175.844 53.2368C175.844 51.3244 176.309 49.6204 177.241 48.1248C178.197 46.6292 179.497 45.4646 181.139 44.6309C182.807 43.7728 184.719 43.3437 186.877 43.3437C189.01 43.3437 190.898 43.7728 192.54 44.6309C194.208 45.4646 195.507 46.6292 196.439 48.1248C197.395 49.6204 197.873 51.3244 197.873 53.2368C197.873 55.1737 197.395 56.9022 196.439 58.4224C195.507 59.918 194.208 61.1071 192.54 61.9898C190.898 62.8479 189.01 63.277 186.877 63.277ZM186.877 61.4381C188.593 61.4381 190.138 61.0826 191.511 60.3716C192.884 59.6605 193.962 58.6921 194.747 57.4662C195.532 56.2403 195.924 54.8305 195.924 53.2368C195.924 51.6922 195.532 50.3069 194.747 49.081C193.962 47.8551 192.884 46.8989 191.511 46.2124C190.138 45.5259 188.593 45.1826 186.877 45.1826C185.111 45.1826 183.542 45.5259 182.169 46.2124C180.796 46.8989 179.717 47.8551 178.933 49.081C178.173 50.2824 177.793 51.6676 177.793 53.2368C177.793 54.8305 178.173 56.2403 178.933 57.4662C179.717 58.6921 180.796 59.6605 182.169 60.3716C183.567 61.0826 185.136 61.4381 186.877 61.4381ZM208.404 62.9092V38.2317H210.243V62.9092H208.404ZM202.814 45.4768V43.7851H216.458V45.4768H202.814ZM231.905 63.277C229.796 63.277 227.921 62.8601 226.278 62.0265C224.66 61.1929 223.397 60.0283 222.49 58.5327C221.583 57.0371 221.129 55.2963 221.129 53.3103C221.129 51.8147 221.387 50.4663 221.901 49.2649C222.441 48.0635 223.176 47.0215 224.108 46.1388C225.04 45.2316 226.143 44.5451 227.418 44.0793C228.693 43.5889 230.066 43.3437 231.537 43.3437C233.008 43.3437 234.344 43.5644 235.546 44.0057C236.747 44.4225 237.765 45.0478 238.598 45.8814C239.456 46.6905 240.106 47.6589 240.547 48.7868C240.989 49.9146 241.185 51.165 241.136 52.538L241.099 53.6781H222.6V51.9864H240.106L239.334 52.5013L239.297 51.6186C239.297 50.6379 238.991 49.6572 238.378 48.6764C237.789 47.6712 236.919 46.8376 235.766 46.1756C234.614 45.5136 233.192 45.1826 231.5 45.1826C229.956 45.1826 228.546 45.4768 227.271 46.0653C225.996 46.6292 224.978 47.5118 224.218 48.7132C223.458 49.8901 223.078 51.3857 223.078 53.2C223.078 54.8672 223.446 56.3138 224.182 57.5397C224.917 58.7656 225.959 59.7218 227.308 60.4083C228.681 61.0703 230.336 61.4013 232.273 61.4013C233.572 61.4013 234.773 61.2419 235.877 60.9232C236.98 60.58 238.157 59.9548 239.407 59.0476L240.253 60.4819C239.616 60.9723 238.88 61.4381 238.047 61.8794C237.237 62.3207 236.318 62.664 235.288 62.9092C234.283 63.1544 233.155 63.277 231.905 63.277ZM248.555 62.9092V43.7851H250.32L250.504 48.419L250.136 48.3822C250.455 47.5241 250.995 46.715 251.755 45.9549C252.539 45.1703 253.483 44.5451 254.586 44.0793C255.714 43.5889 256.916 43.3437 258.191 43.3437C259.76 43.3437 261.096 43.6625 262.199 44.3C263.303 44.9374 264.124 45.8691 264.663 47.095C265.227 48.2964 265.509 49.7552 265.509 51.4715V62.9092H263.67V51.6554C263.67 50.2333 263.425 49.0442 262.935 48.088C262.469 47.1318 261.795 46.3962 260.912 45.8814C260.03 45.3665 258.975 45.109 257.749 45.109C256.671 45.109 255.69 45.3052 254.807 45.6975C253.925 46.0653 253.14 46.5679 252.453 47.2053C251.791 47.8428 251.277 48.5538 250.909 49.3384C250.566 50.0985 250.394 50.8953 250.394 51.7289V62.9092H249.474C249.425 62.9092 249.327 62.9092 249.18 62.9092C249.033 62.9092 248.825 62.9092 248.555 62.9092ZM282.669 63.277C280.928 63.277 279.482 62.9582 278.329 62.3207C277.201 61.6833 276.343 60.7516 275.755 59.5257C275.191 58.2998 274.909 56.7797 274.909 54.9653V43.7851H276.748V54.7814C276.748 56.2525 276.969 57.4907 277.41 58.4959C277.851 59.4766 278.513 60.2122 279.396 60.7026C280.278 61.1929 281.357 61.4381 282.632 61.4381C283.686 61.4381 284.667 61.2542 285.574 60.8864C286.506 60.5187 287.303 60.0283 287.965 59.4154C288.627 58.8024 289.154 58.1036 289.546 57.3191C289.939 56.5345 290.135 55.7009 290.135 54.8182V43.7851H291.974V62.9092H290.208L290.024 58.4591H290.282C290.037 59.2682 289.522 60.0406 288.737 60.7761C287.977 61.5116 287.058 62.1123 285.979 62.5782C284.925 63.044 283.821 63.277 282.669 63.277ZM307.825 63.277C305.888 63.277 304.159 62.946 302.639 62.284C301.119 61.622 299.93 60.7884 299.072 59.7831L300.469 58.4959C301.254 59.4766 302.284 60.2244 303.559 60.7393C304.834 61.2297 306.231 61.4749 307.751 61.4749C308.609 61.4749 309.406 61.4013 310.142 61.2542C310.902 61.1071 311.552 60.8987 312.091 60.629C312.655 60.3593 313.096 60.0038 313.415 59.5625C313.734 59.0966 313.893 58.5695 313.893 57.981C313.893 57.0003 313.341 56.1912 312.238 55.5538C311.699 55.2841 311.024 55.0266 310.215 54.7814C309.431 54.5117 308.499 54.2666 307.42 54.0459C305.949 53.6781 304.687 53.3471 303.632 53.0529C302.578 52.7342 301.744 52.3296 301.131 51.8393C300.666 51.447 300.31 50.9934 300.065 50.4785C299.844 49.9636 299.734 49.3875 299.734 48.75C299.734 47.9654 299.918 47.2421 300.286 46.5801C300.653 45.9181 301.18 45.342 301.867 44.8516C302.578 44.3612 303.387 43.9935 304.294 43.7483C305.201 43.4786 306.219 43.3437 307.347 43.3437C308.352 43.3437 309.369 43.4786 310.399 43.7483C311.454 43.9935 312.434 44.349 313.341 44.8148C314.273 45.2807 315.07 45.8323 315.732 46.4698L314.518 47.8673C313.93 47.3279 313.268 46.8498 312.532 46.433C311.821 45.9917 311.024 45.6484 310.142 45.4033C309.284 45.1581 308.376 45.0355 307.42 45.0355C306.66 45.0355 305.925 45.1213 305.214 45.2929C304.527 45.44 303.926 45.6852 303.412 46.0285C302.897 46.3472 302.48 46.7272 302.161 47.1686C301.842 47.6099 301.683 48.1003 301.683 48.6397C301.659 49.1055 301.744 49.4978 301.94 49.8165C302.137 50.1107 302.419 50.3804 302.786 50.6256C303.301 50.9689 303.975 51.2631 304.809 51.5083C305.643 51.7289 306.672 51.9741 307.898 52.2438C309.051 52.489 310.08 52.7342 310.988 52.9794C311.895 53.2245 312.667 53.5188 313.305 53.862C314.138 54.3278 314.763 54.8795 315.18 55.517C315.622 56.1544 315.842 56.9022 315.842 57.7604C315.842 58.8637 315.499 59.8322 314.812 60.6658C314.15 61.4749 313.219 62.1123 312.017 62.5782C310.816 63.044 309.419 63.277 307.825 63.277ZM331.857 63.277C329.748 63.277 327.872 62.8601 326.23 62.0265C324.612 61.1929 323.349 60.0283 322.442 58.5327C321.535 57.0371 321.081 55.2963 321.081 53.3103C321.081 51.8147 321.338 50.4663 321.853 49.2649C322.393 48.0635 323.128 47.0215 324.06 46.1388C324.992 45.2316 326.095 44.5451 327.37 44.0793C328.645 43.5889 330.018 43.3437 331.489 43.3437C332.96 43.3437 334.296 43.5644 335.498 44.0057C336.699 44.4225 337.716 45.0478 338.55 45.8814C339.408 46.6905 340.058 47.6589 340.499 48.7868C340.941 49.9146 341.137 51.165 341.088 52.538L341.051 53.6781H322.552V51.9864H340.058L339.286 52.5013L339.249 51.6186C339.249 50.6379 338.942 49.6572 338.329 48.6764C337.741 47.6712 336.871 46.8376 335.718 46.1756C334.566 45.5136 333.144 45.1826 331.452 45.1826C329.907 45.1826 328.498 45.4768 327.223 46.0653C325.948 46.6292 324.93 47.5118 324.17 48.7132C323.41 49.8901 323.03 51.3857 323.03 53.2C323.03 54.8672 323.398 56.3138 324.133 57.5397C324.869 58.7656 325.911 59.7218 327.26 60.4083C328.633 61.0703 330.288 61.4013 332.224 61.4013C333.524 61.4013 334.725 61.2419 335.829 60.9232C336.932 60.58 338.109 59.9548 339.359 59.0476L340.205 60.4819C339.568 60.9723 338.832 61.4381 337.998 61.8794C337.189 62.3207 336.27 62.664 335.24 62.9092C334.235 63.1544 333.107 63.277 331.857 63.277ZM362.199 62.9092V37.1652H364.038V61.0703H378.712V62.9092H362.199ZM392.864 63.277C390.805 63.277 389.015 62.8601 387.495 62.0265C385.975 61.1684 384.786 59.9915 383.928 58.4959C383.069 57.0003 382.64 55.2841 382.64 53.3471C382.64 51.4102 383.082 49.6939 383.964 48.1983C384.872 46.6782 386.085 45.4891 387.605 44.6309C389.15 43.7728 390.891 43.3437 392.828 43.3437C394.005 43.3437 395.108 43.5154 396.138 43.8586C397.192 44.1774 398.124 44.6309 398.933 45.2194C399.766 45.8078 400.453 46.4698 400.992 47.2053C401.532 47.9164 401.875 48.6764 402.022 49.4855L401.25 49.081L401.434 43.7851H403.162V62.9092H401.36V57.8339L402.022 57.0616C401.826 57.8952 401.446 58.6921 400.882 59.4521C400.342 60.1877 399.668 60.8497 398.859 61.4381C398.05 62.002 397.131 62.4556 396.101 62.7988C395.071 63.1176 393.992 63.277 392.864 63.277ZM393.085 61.4381C394.679 61.4381 396.113 61.0948 397.388 60.4083C398.663 59.6973 399.668 58.7411 400.404 57.5397C401.139 56.3138 401.507 54.904 401.507 53.3103C401.507 51.7657 401.139 50.3804 400.404 49.1545C399.693 47.9286 398.7 46.9602 397.425 46.2491C396.15 45.5136 394.703 45.1458 393.085 45.1458C391.418 45.1458 389.947 45.5136 388.672 46.2491C387.397 46.9602 386.392 47.9286 385.656 49.1545C384.945 50.3804 384.59 51.7657 384.59 53.3103C384.59 54.8795 384.933 56.277 385.619 57.5029C386.33 58.7288 387.323 59.6973 388.598 60.4083C389.873 61.0948 391.369 61.4381 393.085 61.4381ZM422.877 63.277C421.774 63.277 420.732 63.1421 419.751 62.8724C418.795 62.5782 417.912 62.1736 417.103 61.6588C416.294 61.1194 415.595 60.4696 415.007 59.7096C414.443 58.9495 414.014 58.1404 413.72 57.2823L414.529 57.9075L414.345 62.9092H412.58V35.6941H414.418V48.6029L413.756 49.2649C414.075 48.4067 414.517 47.6099 415.08 46.8744C415.644 46.1143 416.331 45.4768 417.14 44.9619C417.949 44.4471 418.844 44.0548 419.825 43.7851C420.805 43.4909 421.86 43.3437 422.988 43.3437C424.851 43.3437 426.53 43.7728 428.026 44.6309C429.522 45.4891 430.711 46.6782 431.593 48.1983C432.476 49.6939 432.917 51.4102 432.917 53.3471C432.917 55.235 432.476 56.9268 431.593 58.4224C430.735 59.918 429.546 61.1071 428.026 61.9898C426.53 62.8479 424.814 63.277 422.877 63.277ZM422.693 61.4381C424.336 61.4381 425.77 61.0826 426.996 60.3716C428.247 59.6605 429.227 58.6921 429.938 57.4662C430.649 56.2403 431.005 54.855 431.005 53.3103C431.005 51.7167 430.637 50.3191 429.902 49.1178C429.191 47.8919 428.21 46.9234 426.959 46.2124C425.709 45.5013 424.299 45.1458 422.73 45.1458C421.038 45.1458 419.555 45.5013 418.28 46.2124C417.005 46.9234 416.012 47.8919 415.301 49.1178C414.59 50.3191 414.235 51.7044 414.235 53.2736C414.235 54.8672 414.602 56.277 415.338 57.5029C416.073 58.7288 417.079 59.6973 418.354 60.4083C419.629 61.0948 421.075 61.4381 422.693 61.4381ZM446.816 63.277C444.88 63.277 443.151 62.946 441.631 62.284C440.111 61.622 438.922 60.7884 438.064 59.7831L439.461 58.4959C440.246 59.4766 441.275 60.2244 442.55 60.7393C443.825 61.2297 445.223 61.4749 446.743 61.4749C447.601 61.4749 448.398 61.4013 449.133 61.2542C449.894 61.1071 450.543 60.8987 451.083 60.629C451.647 60.3593 452.088 60.0038 452.407 59.5625C452.725 59.0966 452.885 58.5695 452.885 57.981C452.885 57.0003 452.333 56.1912 451.23 55.5538C450.69 55.2841 450.016 55.0266 449.207 54.7814C448.422 54.5117 447.491 54.2666 446.412 54.0459C444.941 53.6781 443.678 53.3471 442.624 53.0529C441.57 52.7342 440.736 52.3296 440.123 51.8393C439.657 51.447 439.302 50.9934 439.057 50.4785C438.836 49.9636 438.726 49.3875 438.726 48.75C438.726 47.9654 438.909 47.2421 439.277 46.5801C439.645 45.9181 440.172 45.342 440.859 44.8516C441.57 44.3612 442.379 43.9935 443.286 43.7483C444.193 43.4786 445.211 43.3437 446.338 43.3437C447.344 43.3437 448.361 43.4786 449.391 43.7483C450.445 43.9935 451.426 44.349 452.333 44.8148C453.265 45.2807 454.062 45.8323 454.724 46.4698L453.51 47.8673C452.922 47.3279 452.26 46.8498 451.524 46.433C450.813 45.9917 450.016 45.6484 449.133 45.4033C448.275 45.1581 447.368 45.0355 446.412 45.0355C445.652 45.0355 444.916 45.1213 444.205 45.2929C443.519 45.44 442.918 45.6852 442.403 46.0285C441.888 46.3472 441.472 46.7272 441.153 47.1686C440.834 47.6099 440.675 48.1003 440.675 48.6397C440.65 49.1055 440.736 49.4978 440.932 49.8165C441.128 50.1107 441.41 50.3804 441.778 50.6256C442.293 50.9689 442.967 51.2631 443.801 51.5083C444.634 51.7289 445.664 51.9741 446.89 52.2438C448.042 52.489 449.072 52.7342 449.979 52.9794C450.887 53.2245 451.659 53.5188 452.296 53.862C453.13 54.3278 453.755 54.8795 454.172 55.517C454.613 56.1544 454.834 56.9022 454.834 57.7604C454.834 58.8637 454.491 59.8322 453.804 60.6658C453.142 61.4749 452.21 62.1123 451.009 62.5782C449.808 63.044 448.41 63.277 446.816 63.277Z" fill="white"/>
</svg>
