<svg width="101" height="12" viewBox="0 0 101 12" fill="none" xmlns="http://www.w3.org/2000/svg">
<path fill-rule="evenodd" clip-rule="evenodd" d="M3.76547 3.29989L6.53582 5.98533L5.56245 6.93009C5.0271 7.44972 3.78913 8.63214 2.81142 9.55758L1.0339 11.2403H4.09207H7.15024L10.0368 8.60144C12.9001 5.92423 10.0368 8.60144 12.9001 5.92423C12.8318 5.86119 11.4038 4.58009 9.84945 3.17065L7.0234 0.608154L4.00926 0.611299L0.995117 0.614593L3.76547 3.29989ZM6.76044 3.15388C6.76044 4.46538 6.76044 4.80112 6.76044 5.25036C4.53727 3.29165 6.76044 5.24689 4.53727 3.29165C2.41773 1.20715 2.71723 1.50665 2.41773 1.20715C3.31622 1.20715 3.43228 1.20715 4.65153 1.20715H6.76044V3.15388ZM9.51806 3.58351C11.7021 5.69961 9.51806 3.58351 11.7021 5.69961C11.0283 5.69961 10.5753 5.69961 9.38104 5.69961H7.20968V3.66557C7.20968 2.49873 7.20968 1.88102 7.20968 1.50665C9.51806 3.58351 8.39914 2.56477 9.51806 3.58351ZM11.7021 6.2986C9.47898 8.37741 11.7021 6.2986 9.47898 8.37741C7.20968 10.3418 9.47898 8.37741 7.20968 10.3418C7.20968 9.66795 7.20968 9.31604 7.20968 8.24533V6.2986H9.39347C10.5946 6.2986 10.8037 6.2986 11.7021 6.2986ZM6.76044 8.76945V10.7911H4.66396C3.53141 10.814 4.62652 10.7911 2.41773 10.7911C4.54596 8.66164 2.41773 10.7911 4.54596 8.66164C6.76044 6.5981 4.54596 8.66164 6.76044 6.5981C6.76044 8.54483 6.78335 7.67809 6.76044 8.76945Z" fill="#27A5CA"/>
<path d="M22.5317 8.60815V2.93767H22.7099V8.60815H22.5317ZM18.1168 8.60815V2.93767H18.295V8.60815H18.1168ZM18.2059 5.88632V5.70811H22.6208V5.88632H18.2059ZM25.6138 10.4713L26.4967 8.53525L26.5372 8.65676L24.3419 4.35529H24.5445L26.4562 8.10591C26.5102 8.20852 26.548 8.28413 26.5696 8.33273C26.5966 8.37593 26.6155 8.41104 26.6263 8.43804L26.5453 8.44614C26.5885 8.35973 26.6236 8.28953 26.6506 8.23552C26.6776 8.18152 26.6965 8.13291 26.7073 8.08971L28.449 4.35529H28.6515L26.6587 8.65676L25.8082 10.4713H25.6138ZM30.1622 10.4713V4.35529H30.3242L30.3404 5.80532L30.2594 5.82962C30.362 5.50019 30.5132 5.22207 30.713 4.99525C30.9182 4.76843 31.1585 4.59561 31.434 4.4768C31.7094 4.35799 32.0091 4.29859 32.3331 4.29859C32.7598 4.29859 33.1378 4.3931 33.4672 4.58211C33.8021 4.77113 34.064 5.03035 34.253 5.35978C34.4474 5.68921 34.5446 6.06454 34.5446 6.48577C34.5446 6.90701 34.4474 7.28234 34.253 7.61177C34.064 7.9412 33.8021 8.20042 33.4672 8.38944C33.1378 8.57845 32.7652 8.67296 32.3493 8.67296C32.0307 8.67296 31.731 8.61355 31.4502 8.49474C31.1693 8.37593 30.9263 8.20582 30.7211 7.9844C30.5213 7.76298 30.3728 7.49836 30.2756 7.19053L30.3404 7.20674V10.4713H30.1622ZM32.3493 8.49474C32.7382 8.49474 33.0838 8.41104 33.3862 8.24362C33.6941 8.07081 33.9344 7.83319 34.1072 7.53076C34.2854 7.22834 34.3718 6.88001 34.3664 6.48577C34.3664 6.09154 34.28 5.74591 34.1072 5.44889C33.9344 5.14646 33.6941 4.90884 33.3862 4.73603C33.0838 4.56321 32.7355 4.4768 32.3412 4.4768C31.9578 4.4768 31.6149 4.56321 31.3125 4.73603C31.01 4.90344 30.7724 5.13836 30.5996 5.44079C30.4322 5.74321 30.3458 6.09694 30.3404 6.50198C30.3404 6.88541 30.4241 7.22834 30.5915 7.53076C30.7643 7.82779 31.0019 8.06271 31.3044 8.23552C31.6068 8.40834 31.9551 8.49474 32.3493 8.49474ZM38.2069 8.68916C37.7263 8.68916 37.3023 8.59465 36.9351 8.40564C36.5733 8.21662 36.2897 7.9547 36.0845 7.61987C35.8793 7.28504 35.7767 6.90431 35.7767 6.47767C35.7767 6.05644 35.8793 5.68111 36.0845 5.35168C36.2897 5.02225 36.5733 4.76573 36.9351 4.58211C37.3023 4.3931 37.7263 4.29859 38.2069 4.29859C38.6821 4.29859 39.1007 4.3931 39.4625 4.58211C39.8297 4.76573 40.116 5.02225 40.3212 5.35168C40.5264 5.68111 40.629 6.05644 40.629 6.47767C40.629 6.90431 40.5264 7.28504 40.3212 7.61987C40.116 7.9493 39.8297 8.21122 39.4625 8.40564C39.1007 8.59465 38.6821 8.68916 38.2069 8.68916ZM38.2069 8.51095C38.6335 8.51095 39.0143 8.42454 39.3491 8.25172C39.6893 8.07891 39.9567 7.83859 40.1511 7.53076C40.3509 7.22294 40.4508 6.87191 40.4508 6.47767C40.4508 6.09424 40.3509 5.75131 40.1511 5.44889C39.9567 5.14646 39.6893 4.90884 39.3491 4.73603C39.0143 4.56321 38.6335 4.4768 38.2069 4.4768C37.7749 4.4768 37.3887 4.56321 37.0485 4.73603C36.7083 4.90884 36.441 5.14646 36.2465 5.44889C36.0521 5.74591 35.9549 6.08884 35.9549 6.47767C35.9549 6.87191 36.0521 7.22294 36.2465 7.53076C36.441 7.83859 36.7083 8.07891 37.0485 8.25172C37.3941 8.42454 37.7803 8.51095 38.2069 8.51095ZM43.1076 8.60815V3.17259H43.2858V8.60815H43.1076ZM41.7224 4.53351V4.35529H44.7278V4.53351H41.7224ZM48.1804 8.68916C47.7105 8.68916 47.2947 8.59465 46.9329 8.40564C46.5764 8.21662 46.2983 7.9547 46.0985 7.61987C45.9041 7.28504 45.8069 6.90431 45.8069 6.47767C45.8069 6.14825 45.8636 5.85122 45.977 5.5866C46.0904 5.32198 46.247 5.09246 46.4468 4.89804C46.652 4.70362 46.8897 4.55511 47.1597 4.4525C47.4351 4.34989 47.7321 4.29859 48.0508 4.29859C48.3532 4.29859 48.6313 4.34449 48.8851 4.4363C49.1444 4.52271 49.3685 4.65232 49.5575 4.82513C49.7465 4.99255 49.8923 5.19776 49.9949 5.44079C50.0975 5.67841 50.1434 5.94843 50.1326 6.25085L50.1245 6.49387H45.9041V6.31566H50.0354L49.9463 6.42097L49.9544 6.21845C49.9544 5.87282 49.868 5.5677 49.6952 5.30307C49.5278 5.03845 49.301 4.83593 49.0147 4.69552C48.7339 4.54971 48.4207 4.4768 48.0751 4.4768C47.6754 4.4768 47.319 4.56051 47.0058 4.72792C46.6925 4.88994 46.4441 5.12216 46.2605 5.42458C46.0823 5.72701 45.9905 6.07804 45.9851 6.47767C45.9905 6.87191 46.0877 7.22294 46.2767 7.53076C46.4657 7.83319 46.7222 8.07081 47.0463 8.24362C47.3757 8.41644 47.7537 8.50285 48.1804 8.50285C48.5422 8.50285 48.8554 8.44884 49.12 8.34083C49.3901 8.23282 49.6304 8.09511 49.841 7.9277L49.9139 8.08971C49.7519 8.21392 49.5845 8.32193 49.4117 8.41374C49.2443 8.50015 49.0606 8.56765 48.8608 8.61625C48.661 8.66486 48.4342 8.68916 48.1804 8.68916ZM51.7983 8.60815V4.35529H51.9603L51.9765 5.46509L51.8874 5.48939C51.9468 5.29497 52.0629 5.10596 52.2357 4.92234C52.4139 4.73873 52.6326 4.59021 52.8919 4.4768C53.1511 4.35799 53.4292 4.29859 53.7262 4.29859C54.0935 4.29859 54.404 4.36609 54.6578 4.50111C54.917 4.63072 55.1142 4.81973 55.2492 5.06815C55.3842 5.31657 55.4517 5.6217 55.4517 5.98353V8.60815H55.2735V6.00783C55.2735 5.6676 55.2087 5.38408 55.0791 5.15726C54.9548 4.93044 54.7766 4.76033 54.5444 4.64692C54.3176 4.53351 54.0476 4.4768 53.7343 4.4768C53.4805 4.4768 53.2456 4.52271 53.0296 4.61451C52.819 4.70092 52.6326 4.80893 52.4706 4.93854C52.314 5.06815 52.1925 5.20046 52.1061 5.33548C52.0197 5.47049 51.9765 5.5812 51.9765 5.6676V8.60815H51.8874C51.882 8.60815 51.8712 8.60815 51.855 8.60815C51.8388 8.60815 51.8199 8.60815 51.7983 8.60815ZM59.2346 8.68916C58.8619 8.68916 58.546 8.62436 58.2868 8.49474C58.033 8.35973 57.8386 8.16532 57.7036 7.9115C57.5685 7.65767 57.501 7.34715 57.501 6.97992V4.35529H57.6792V6.95561C57.6792 7.30124 57.7414 7.59017 57.8656 7.82239C57.9898 8.04921 58.168 8.22202 58.4002 8.34083C58.6378 8.45424 58.9133 8.51095 59.2265 8.51095C59.4587 8.51095 59.6774 8.46504 59.8826 8.37323C60.0879 8.28143 60.2661 8.17072 60.4173 8.04111C60.5685 7.90609 60.6873 7.77108 60.7737 7.63607C60.8601 7.50106 60.9033 7.38765 60.9033 7.29584V4.35529H61.0815V8.60815H60.9195L60.9033 7.49836L60.9924 7.47406C60.933 7.67928 60.8169 7.87639 60.6441 8.06541C60.4767 8.24902 60.2715 8.40024 60.0284 8.51905C59.7908 8.63246 59.5262 8.68916 59.2346 8.68916ZM64.6019 8.68916C64.1806 8.68916 63.7999 8.62166 63.4597 8.48664C63.1248 8.34623 62.8602 8.15722 62.6658 7.9196L62.8035 7.78188C62.9871 8.0087 63.2328 8.18692 63.5407 8.31653C63.8485 8.44614 64.1968 8.51095 64.5857 8.51095C64.8395 8.51095 65.0609 8.48664 65.2499 8.43804C65.4389 8.38404 65.5928 8.31383 65.7116 8.22742C65.8359 8.14101 65.9277 8.03571 65.9871 7.9115C66.0519 7.78728 66.0843 7.65497 66.0843 7.51456C66.0843 7.25534 65.9574 7.05282 65.7035 6.90701C65.5793 6.8314 65.4146 6.7639 65.2094 6.70449C65.0096 6.63969 64.7666 6.58298 64.4803 6.53438C64.1833 6.48037 63.9241 6.41827 63.7027 6.34806C63.4867 6.27786 63.3165 6.19685 63.1923 6.10504C63.0681 6.01863 62.9763 5.91873 62.9169 5.80532C62.8575 5.69191 62.8278 5.565 62.8278 5.42458C62.8278 5.25717 62.8656 5.10596 62.9412 4.97095C63.0222 4.83053 63.1356 4.71172 63.2814 4.61451C63.4273 4.51191 63.6001 4.4336 63.7999 4.3796C64.0051 4.32559 64.2319 4.29859 64.4803 4.29859C64.691 4.29859 64.9043 4.32829 65.1203 4.3877C65.3363 4.4417 65.5388 4.52271 65.7279 4.63072C65.9223 4.73332 66.0924 4.85754 66.2382 5.00335L66.1167 5.14916C65.9763 5.01415 65.817 4.89534 65.6387 4.79273C65.4659 4.69012 65.2796 4.61181 65.0798 4.55781C64.88 4.50381 64.6802 4.4768 64.4803 4.4768C64.2589 4.4768 64.0564 4.50111 63.8728 4.54971C63.6892 4.59291 63.5326 4.65772 63.403 4.74413C63.2787 4.82513 63.1815 4.92234 63.1113 5.03575C63.0411 5.14916 63.006 5.27607 63.006 5.41648C63.0006 5.52989 63.0222 5.6325 63.0708 5.72431C63.1248 5.81072 63.2031 5.88632 63.3057 5.95113C63.43 6.03754 63.592 6.11314 63.7918 6.17795C63.9916 6.24275 64.2319 6.29946 64.5127 6.34806C64.826 6.40207 65.0933 6.46417 65.3147 6.53438C65.5361 6.60458 65.7171 6.68559 65.8575 6.7774C65.9925 6.86381 66.0924 6.96912 66.1572 7.09333C66.2274 7.21214 66.2625 7.35255 66.2625 7.51456C66.2625 7.75218 66.1977 7.9601 66.0681 8.13831C65.9385 8.31653 65.7495 8.45424 65.501 8.55145C65.2526 8.64326 64.9529 8.68916 64.6019 8.68916ZM69.9114 8.68916C69.4416 8.68916 69.0257 8.59465 68.6639 8.40564C68.3075 8.21662 68.0294 7.9547 67.8295 7.61987C67.6351 7.28504 67.5379 6.90431 67.5379 6.47767C67.5379 6.14825 67.5946 5.85122 67.708 5.5866C67.8214 5.32198 67.978 5.09246 68.1779 4.89804C68.3831 4.70362 68.6207 4.55511 68.8907 4.4525C69.1662 4.34989 69.4632 4.29859 69.7818 4.29859C70.0842 4.29859 70.3624 4.34449 70.6162 4.4363C70.8754 4.52271 71.0995 4.65232 71.2885 4.82513C71.4775 4.99255 71.6234 5.19776 71.726 5.44079C71.8286 5.67841 71.8745 5.94843 71.8637 6.25085L71.8556 6.49387H67.6351V6.31566H71.7665L71.6774 6.42097L71.6855 6.21845C71.6855 5.87282 71.5991 5.5677 71.4262 5.30307C71.2588 5.03845 71.032 4.83593 70.7458 4.69552C70.465 4.54971 70.1517 4.4768 69.8061 4.4768C69.4065 4.4768 69.05 4.56051 68.7368 4.72792C68.4236 4.88994 68.1752 5.12216 67.9916 5.42458C67.8133 5.72701 67.7215 6.07804 67.7161 6.47767C67.7215 6.87191 67.8187 7.22294 68.0078 7.53076C68.1968 7.83319 68.4533 8.07081 68.7773 8.24362C69.1067 8.41644 69.4848 8.50285 69.9114 8.50285C70.2732 8.50285 70.5865 8.44884 70.8511 8.34083C71.1211 8.23282 71.3614 8.09511 71.5721 7.9277L71.645 8.08971C71.4829 8.21392 71.3155 8.32193 71.1427 8.41374C70.9753 8.50015 70.7917 8.56765 70.5919 8.61625C70.3921 8.66486 70.1652 8.68916 69.9114 8.68916ZM76.5857 8.60815V2.93767H76.764V8.42994H80.0609V8.60815H76.5857ZM83.3741 8.68916C82.9097 8.68916 82.5046 8.59735 82.159 8.41374C81.8188 8.23012 81.5515 7.9763 81.3571 7.65227C81.168 7.32285 81.0735 6.94481 81.0735 6.51818C81.0735 6.09154 81.1734 5.71081 81.3733 5.37598C81.5731 5.04115 81.8431 4.77923 82.1833 4.59021C82.5236 4.3958 82.907 4.29859 83.3336 4.29859C83.609 4.29859 83.8656 4.34179 84.1032 4.4282C84.3462 4.50921 84.5595 4.62532 84.7431 4.77653C84.9268 4.92234 85.0753 5.08976 85.1887 5.27877C85.3075 5.46239 85.3777 5.6595 85.3993 5.87012L85.3426 5.85392L85.3588 4.35529H85.5127V8.60815H85.3426V7.15003L85.4317 7.07712C85.3885 7.30394 85.3075 7.51726 85.1887 7.71708C85.0699 7.9115 84.916 8.08161 84.7269 8.22742C84.5433 8.37323 84.3354 8.48664 84.1032 8.56765C83.8764 8.64866 83.6333 8.68916 83.3741 8.68916ZM83.366 8.51095C83.7387 8.51095 84.0762 8.42724 84.3786 8.25982C84.681 8.08701 84.9187 7.84939 85.0915 7.54696C85.2643 7.24454 85.3507 6.89621 85.3507 6.50198C85.3507 6.11854 85.2643 5.77561 85.0915 5.47319C84.9187 5.16536 84.681 4.92234 84.3786 4.74413C84.0762 4.56051 83.7333 4.4687 83.3498 4.4687C82.9394 4.4687 82.5749 4.56051 82.2562 4.74413C81.943 4.92234 81.6973 5.16536 81.5191 5.47319C81.3463 5.78101 81.2598 6.12934 81.2598 6.51818C81.2598 6.90701 81.3436 7.25264 81.511 7.55506C81.6838 7.85209 81.9268 8.08701 82.24 8.25982C82.5587 8.42724 82.934 8.51095 83.366 8.51095ZM89.7266 8.68916C89.4836 8.68916 89.2513 8.65676 89.0299 8.59195C88.8139 8.52175 88.6114 8.42184 88.4224 8.29223C88.2388 8.16262 88.0794 8.006 87.9444 7.82239C87.8148 7.63337 87.7176 7.42005 87.6528 7.18243L87.7176 7.20674L87.7014 8.60815H87.5394V2.61365H87.7176V5.80532L87.6366 5.82152C87.723 5.5785 87.831 5.36248 87.9606 5.17346C88.0902 4.98445 88.2442 4.82513 88.4224 4.69552C88.606 4.56591 88.8058 4.4687 89.0218 4.4039C89.2378 4.33369 89.4674 4.29859 89.7104 4.29859C90.1424 4.29859 90.5232 4.3931 90.8526 4.58211C91.1874 4.76573 91.4493 5.02495 91.6383 5.35978C91.8274 5.68921 91.9219 6.06454 91.9219 6.48577C91.9219 6.90701 91.822 7.28504 91.6221 7.61987C91.4277 7.9493 91.1658 8.21122 90.8364 8.40564C90.5069 8.59465 90.137 8.68916 89.7266 8.68916ZM89.7266 8.51095C90.1154 8.51095 90.461 8.42454 90.7635 8.25172C91.0713 8.07891 91.3116 7.84129 91.4844 7.53886C91.6626 7.23104 91.7518 6.88001 91.7518 6.48577C91.7518 6.09694 91.6653 5.75131 91.4925 5.44889C91.3197 5.14646 91.0794 4.90884 90.7716 4.73603C90.4637 4.55781 90.1127 4.4687 89.7185 4.4687C89.3296 4.4687 88.984 4.55781 88.6816 4.73603C88.3792 4.90884 88.1415 5.14646 87.9687 5.44889C87.8013 5.75131 87.7176 6.09694 87.7176 6.48577C87.723 6.88001 87.8094 7.23104 87.9768 7.53886C88.1496 7.84129 88.3873 8.07891 88.6897 8.25172C88.9921 8.42454 89.3377 8.51095 89.7266 8.51095ZM95.0981 8.68916C94.6769 8.68916 94.2961 8.62166 93.9559 8.48664C93.6211 8.34623 93.3564 8.15722 93.162 7.9196L93.2997 7.78188C93.4834 8.0087 93.7291 8.18692 94.0369 8.31653C94.3447 8.44614 94.6931 8.51095 95.0819 8.51095C95.3357 8.51095 95.5571 8.48664 95.7461 8.43804C95.9352 8.38404 96.0891 8.31383 96.2079 8.22742C96.3321 8.14101 96.4239 8.03571 96.4833 7.9115C96.5481 7.78728 96.5805 7.65497 96.5805 7.51456C96.5805 7.25534 96.4536 7.05282 96.1998 6.90701C96.0756 6.8314 95.9109 6.7639 95.7056 6.70449C95.5058 6.63969 95.2628 6.58298 94.9766 6.53438C94.6796 6.48037 94.4203 6.41827 94.1989 6.34806C93.9829 6.27786 93.8128 6.19685 93.6886 6.10504C93.5644 6.01863 93.4726 5.91873 93.4132 5.80532C93.3537 5.69191 93.324 5.565 93.324 5.42458C93.324 5.25717 93.3618 5.10596 93.4375 4.97095C93.5185 4.83053 93.6319 4.71172 93.7777 4.61451C93.9235 4.51191 94.0963 4.4336 94.2961 4.3796C94.5013 4.32559 94.7282 4.29859 94.9766 4.29859C95.1872 4.29859 95.4005 4.32829 95.6165 4.3877C95.8326 4.4417 96.0351 4.52271 96.2241 4.63072C96.4185 4.73332 96.5886 4.85754 96.7344 5.00335L96.6129 5.14916C96.4725 5.01415 96.3132 4.89534 96.135 4.79273C95.9622 4.69012 95.7759 4.61181 95.576 4.55781C95.3762 4.50381 95.1764 4.4768 94.9766 4.4768C94.7552 4.4768 94.5526 4.50111 94.369 4.54971C94.1854 4.59291 94.0288 4.65772 93.8992 4.74413C93.775 4.82513 93.6778 4.92234 93.6076 5.03575C93.5374 5.14916 93.5023 5.27607 93.5023 5.41648C93.4969 5.52989 93.5185 5.6325 93.5671 5.72431C93.6211 5.81072 93.6994 5.88632 93.802 5.95113C93.9262 6.03754 94.0882 6.11314 94.288 6.17795C94.4878 6.24275 94.7282 6.29946 95.009 6.34806C95.3222 6.40207 95.5895 6.46417 95.811 6.53438C96.0324 6.60458 96.2133 6.68559 96.3537 6.7774C96.4887 6.86381 96.5886 6.96912 96.6534 7.09333C96.7236 7.21214 96.7587 7.35255 96.7587 7.51456C96.7587 7.75218 96.6939 7.9601 96.5643 8.13831C96.4347 8.31653 96.2457 8.45424 95.9973 8.55145C95.7488 8.64326 95.4491 8.68916 95.0981 8.68916Z" fill="white"/>
</svg>
