<svg width="13" height="12" viewBox="0 0 13 12" fill="none" xmlns="http://www.w3.org/2000/svg">
<path fill-rule="evenodd" clip-rule="evenodd" d="M3.76547 3.29989L6.53582 5.98533L5.56245 6.93009C5.0271 7.44972 3.78913 8.63214 2.81142 9.55758L1.0339 11.2403H4.09207H7.15024L10.0368 8.60144C12.9001 5.92423 10.0368 8.60144 12.9001 5.92423C12.8318 5.86119 11.4038 4.58009 9.84945 3.17065L7.0234 0.608154L4.00926 0.611299L0.995117 0.614593L3.76547 3.29989ZM6.76044 3.15388C6.76044 4.46538 6.76044 4.80112 6.76044 5.25036C4.53727 3.29165 6.76044 5.24689 4.53727 3.29165C2.41773 1.20715 2.71723 1.50665 2.41773 1.20715C3.31622 1.20715 3.43228 1.20715 4.65153 1.20715H6.76044V3.15388ZM9.51806 3.58351C11.7021 5.69961 9.51806 3.58351 11.7021 5.69961C11.0283 5.69961 10.5753 5.69961 9.38104 5.69961H7.20968V3.66557C7.20968 2.49873 7.20968 1.88102 7.20968 1.50665C9.51806 3.58351 8.39914 2.56477 9.51806 3.58351ZM11.7021 6.2986C9.47898 8.37741 11.7021 6.2986 9.47898 8.37741C7.20968 10.3418 9.47898 8.37741 7.20968 10.3418C7.20968 9.66795 7.20968 9.31604 7.20968 8.24533V6.2986H9.39347C10.5946 6.2986 10.8037 6.2986 11.7021 6.2986ZM6.76044 8.76945V10.7911H4.66396C3.53141 10.814 4.62652 10.7911 2.41773 10.7911C4.54596 8.66164 2.41773 10.7911 4.54596 8.66164C6.76044 6.5981 4.54596 8.66164 6.76044 6.5981C6.76044 8.54483 6.78335 7.67809 6.76044 8.76945Z" fill="#27A5CA"/>
</svg>
