<svg width="88" height="12" viewBox="0 0 88 12" fill="none" xmlns="http://www.w3.org/2000/svg">
<path d="M3.89537 11.1489C3.52006 11.1489 3.16451 11.0995 2.8287 11.0007C2.50278 10.8921 2.20154 10.7439 1.925 10.5563C1.65833 10.3588 1.4213 10.1316 1.21389 9.87481C1.01636 9.61802 0.858334 9.34147 0.739816 9.04518L1.00648 8.80814C1.13488 9.12419 1.29784 9.41061 1.49537 9.6674C1.6929 9.91431 1.91512 10.1217 2.16204 10.2896C2.40895 10.4575 2.68056 10.5909 2.97685 10.6896C3.28303 10.7785 3.59907 10.823 3.925 10.823C4.50772 10.823 5.0213 10.6995 5.46574 10.4526C5.91019 10.2057 6.25093 9.84024 6.48796 9.35629C6.73488 8.86246 6.85833 8.24024 6.85833 7.48962V0.956288H4.68056V0.630362H8.90278V0.956288H7.18426V7.48962C7.18426 8.09209 7.10525 8.62542 6.94722 9.08962C6.79908 9.54394 6.58179 9.92419 6.29537 10.2304C6.00895 10.5365 5.65833 10.7686 5.24352 10.9267C4.83858 11.0748 4.3892 11.1489 3.89537 11.1489ZM14.1986 11.1489C13.3492 11.1489 12.6085 10.981 11.9764 10.6452C11.3542 10.3094 10.8653 9.84518 10.5097 9.25258C10.164 8.65012 9.9912 7.95876 9.9912 7.17851C9.9912 6.39826 10.1739 5.70197 10.5394 5.08962C10.9048 4.47728 11.3986 3.99826 12.0208 3.65258C12.6431 3.29703 13.3443 3.11925 14.1245 3.11925C14.6282 3.11925 15.0974 3.19826 15.5319 3.35629C15.9764 3.50444 16.3665 3.71678 16.7023 3.99332C17.0381 4.25999 17.3097 4.56616 17.5171 4.91184C17.7344 5.24765 17.8628 5.60814 17.9023 5.99332L17.7986 5.9637L17.8282 3.22295H18.1097V11.0007H17.7986V8.33407L17.9616 8.20073C17.8826 8.61555 17.7344 9.00567 17.5171 9.3711C17.2998 9.72666 17.0184 10.0378 16.6727 10.3044C16.3369 10.5711 15.9566 10.7785 15.5319 10.9267C15.1171 11.0748 14.6727 11.1489 14.1986 11.1489ZM14.1838 10.823C14.8653 10.823 15.4826 10.6699 16.0356 10.3637C16.5887 10.0476 17.0233 9.61308 17.3394 9.05999C17.6554 8.50691 17.8134 7.86987 17.8134 7.14888C17.8134 6.44765 17.6554 5.82049 17.3394 5.2674C17.0233 4.70444 16.5887 4.25999 16.0356 3.93407C15.4826 3.59826 14.8554 3.43036 14.1542 3.43036C13.4035 3.43036 12.7369 3.59826 12.1542 3.93407C11.5813 4.25999 11.1319 4.70444 10.806 5.2674C10.49 5.83036 10.3319 6.4674 10.3319 7.17851C10.3319 7.88962 10.485 8.52172 10.7912 9.07481C11.1073 9.61802 11.5517 10.0476 12.1245 10.3637C12.7073 10.6699 13.3937 10.823 14.1838 10.823ZM21.9495 11.0007V3.22295H22.2755V11.0007H21.9495ZM22.1125 1.17851C21.9742 1.17851 21.8705 1.139 21.8014 1.05999C21.7323 0.980979 21.6977 0.877275 21.6977 0.74888C21.6977 0.630362 21.7323 0.531596 21.8014 0.452584C21.8705 0.363695 21.9742 0.319251 22.1125 0.319251C22.2409 0.319251 22.3397 0.358757 22.4088 0.437769C22.4878 0.516781 22.5273 0.620485 22.5273 0.74888C22.5273 0.877275 22.4927 0.980979 22.4236 1.05999C22.3545 1.139 22.2508 1.17851 22.1125 1.17851ZM31.8475 11.0007V0.630362H36.203C36.8055 0.630362 37.324 0.753818 37.7586 1.00073C38.203 1.23777 38.5437 1.57357 38.7808 2.00814C39.0277 2.43283 39.1512 2.92666 39.1512 3.48962C39.1512 4.1316 39.0277 4.6995 38.7808 5.19332C38.5437 5.67728 38.203 6.05752 37.7586 6.33407C37.324 6.61061 36.8055 6.74888 36.203 6.74888H32.1734V11.0007H31.8475ZM32.1734 6.42295H36.2178C36.761 6.42295 37.2252 6.30444 37.6104 6.0674C37.9956 5.82049 38.2919 5.47481 38.4993 5.03036C38.7067 4.58592 38.8104 4.07234 38.8104 3.48962C38.8104 2.97604 38.7067 2.5316 38.4993 2.15629C38.2919 1.78098 37.9956 1.48962 37.6104 1.28221C37.2252 1.06493 36.761 0.956288 36.2178 0.956288H32.1734V6.42295ZM42.4036 11.0007V3.22295H42.6999L42.7147 5.25258L42.5962 5.31184C42.6949 4.91678 42.8678 4.55629 43.1147 4.23036C43.3715 3.89456 43.6974 3.62789 44.0925 3.43036C44.4875 3.22295 44.9468 3.11925 45.4703 3.11925C45.7172 3.11925 45.9542 3.139 46.1814 3.17851C46.4085 3.21802 46.6011 3.27728 46.7591 3.35629L46.6406 3.68221C46.453 3.58345 46.2456 3.51925 46.0184 3.48962C45.8011 3.45011 45.6085 3.43036 45.4406 3.43036C44.9962 3.43036 44.6011 3.51431 44.2554 3.68221C43.9196 3.85011 43.6382 4.07234 43.411 4.34888C43.1838 4.61555 43.011 4.90197 42.8925 5.20814C42.7838 5.50444 42.7295 5.79086 42.7295 6.0674V11.0007H42.4036ZM52.2918 11.1489C51.4424 11.1489 50.7017 10.981 50.0696 10.6452C49.4473 10.3094 48.9584 9.84518 48.6029 9.25258C48.2572 8.65012 48.0844 7.95876 48.0844 7.17851C48.0844 6.39826 48.2671 5.70197 48.6325 5.08962C48.998 4.47728 49.4918 3.99826 50.114 3.65258C50.7362 3.29703 51.4375 3.11925 52.2177 3.11925C52.7214 3.11925 53.1905 3.19826 53.6251 3.35629C54.0696 3.50444 54.4597 3.71678 54.7955 3.99332C55.1313 4.25999 55.4029 4.56616 55.6103 4.91184C55.8276 5.24765 55.956 5.60814 55.9955 5.99332L55.8918 5.9637L55.9214 3.22295H56.2029V11.0007H55.8918V8.33407L56.0547 8.20073C55.9757 8.61555 55.8276 9.00567 55.6103 9.3711C55.393 9.72666 55.1115 10.0378 54.7659 10.3044C54.4301 10.5711 54.0498 10.7785 53.6251 10.9267C53.2103 11.0748 52.7659 11.1489 52.2918 11.1489ZM52.277 10.823C52.9584 10.823 53.5757 10.6699 54.1288 10.3637C54.6819 10.0476 55.1165 9.61308 55.4325 9.05999C55.7486 8.50691 55.9066 7.86987 55.9066 7.14888C55.9066 6.44765 55.7486 5.82049 55.4325 5.2674C55.1165 4.70444 54.6819 4.25999 54.1288 3.93407C53.5757 3.59826 52.9486 3.43036 52.2473 3.43036C51.4967 3.43036 50.8301 3.59826 50.2473 3.93407C49.6745 4.25999 49.2251 4.70444 48.8992 5.2674C48.5831 5.83036 48.4251 6.4674 48.4251 7.17851C48.4251 7.88962 48.5782 8.52172 48.8844 9.07481C49.2004 9.61802 49.6449 10.0476 50.2177 10.3637C50.8004 10.6699 51.4868 10.823 52.277 10.823ZM62.6797 11.1489C61.9094 11.1489 61.2131 11.0254 60.5909 10.7785C59.9785 10.5217 59.4946 10.176 59.139 9.74147L59.3909 9.48962C59.7267 9.90444 60.176 10.2304 60.739 10.4674C61.302 10.7044 61.939 10.823 62.6501 10.823C63.1143 10.823 63.5193 10.7785 63.8649 10.6896C64.2106 10.5909 64.4921 10.4625 64.7094 10.3044C64.9365 10.1464 65.1044 9.95382 65.2131 9.72666C65.3316 9.4995 65.3909 9.25752 65.3909 9.00073C65.3909 8.52666 65.1588 8.15629 64.6946 7.88962C64.4674 7.75135 64.1662 7.62789 63.7909 7.51925C63.4254 7.40073 62.981 7.29703 62.4575 7.20814C61.9143 7.10937 61.4402 6.99579 61.0353 6.8674C60.6402 6.739 60.3291 6.59086 60.102 6.42295C59.8748 6.26493 59.7069 6.08221 59.5983 5.87481C59.4896 5.6674 59.4353 5.4353 59.4353 5.17851C59.4353 4.87234 59.5044 4.59579 59.6427 4.34888C59.7909 4.09209 59.9983 3.87481 60.2649 3.69703C60.5316 3.50937 60.8476 3.36616 61.2131 3.2674C61.5884 3.16863 62.0032 3.11925 62.4575 3.11925C62.8427 3.11925 63.2328 3.17357 63.6279 3.28221C64.023 3.38098 64.3933 3.52913 64.739 3.72666C65.0946 3.91431 65.4057 4.14147 65.6723 4.40814L65.4501 4.67481C65.1933 4.42789 64.902 4.21061 64.576 4.02295C64.26 3.8353 63.9193 3.69209 63.5538 3.59333C63.1884 3.49456 62.823 3.44518 62.4575 3.44518C62.0526 3.44518 61.6822 3.48962 61.3464 3.57851C61.0106 3.65752 60.7242 3.77604 60.4872 3.93407C60.26 4.08221 60.0822 4.25999 59.9538 4.4674C59.8254 4.67481 59.7612 4.90691 59.7612 5.1637C59.7514 5.3711 59.7909 5.55876 59.8797 5.72666C59.9785 5.88468 60.1217 6.02295 60.3094 6.14147C60.5365 6.2995 60.8328 6.43777 61.1983 6.55629C61.5637 6.67481 62.0032 6.77851 62.5168 6.8674C63.0896 6.96616 63.5785 7.07974 63.9834 7.20814C64.3884 7.33653 64.7193 7.48468 64.976 7.65258C65.223 7.81061 65.4057 8.0032 65.5242 8.23036C65.6526 8.44765 65.7168 8.70444 65.7168 9.00073C65.7168 9.4353 65.5983 9.81555 65.3612 10.1415C65.1242 10.4674 64.7785 10.7193 64.3242 10.897C63.8699 11.0649 63.3217 11.1489 62.6797 11.1489ZM72.2715 11.1489C71.4221 11.1489 70.6814 10.981 70.0493 10.6452C69.4271 10.3094 68.9382 9.84518 68.5826 9.25258C68.237 8.65012 68.0641 7.95876 68.0641 7.17851C68.0641 6.39826 68.2468 5.70197 68.6123 5.08962C68.9777 4.47728 69.4715 3.99826 70.0937 3.65258C70.716 3.29703 71.4172 3.11925 72.1975 3.11925C72.7012 3.11925 73.1703 3.19826 73.6049 3.35629C74.0493 3.50444 74.4394 3.71678 74.7752 3.99332C75.111 4.25999 75.3826 4.56616 75.59 4.91184C75.8073 5.24765 75.9357 5.60814 75.9752 5.99332L75.8715 5.9637L75.9012 3.22295H76.1826V11.0007H75.8715V8.33407L76.0345 8.20073C75.9555 8.61555 75.8073 9.00567 75.59 9.3711C75.3728 9.72666 75.0913 10.0378 74.7456 10.3044C74.4098 10.5711 74.0295 10.7785 73.6049 10.9267C73.19 11.0748 72.7456 11.1489 72.2715 11.1489ZM72.2567 10.823C72.9382 10.823 73.5555 10.6699 74.1086 10.3637C74.6616 10.0476 75.0962 9.61308 75.4123 9.05999C75.7283 8.50691 75.8863 7.86987 75.8863 7.14888C75.8863 6.44765 75.7283 5.82049 75.4123 5.2674C75.0962 4.70444 74.6616 4.25999 74.1086 3.93407C73.5555 3.59826 72.9283 3.43036 72.2271 3.43036C71.4765 3.43036 70.8098 3.59826 70.2271 3.93407C69.6542 4.25999 69.2049 4.70444 68.8789 5.2674C68.5629 5.83036 68.4049 6.4674 68.4049 7.17851C68.4049 7.88962 68.5579 8.52172 68.8641 9.07481C69.1802 9.61802 69.6246 10.0476 70.1975 10.3637C70.7802 10.6699 71.4666 10.823 72.2567 10.823ZM83.1484 11.1489C82.378 11.1489 81.6867 10.976 81.0743 10.6304C80.4718 10.2748 79.9928 9.80073 79.6373 9.20814C79.2817 8.60567 79.1039 7.91925 79.1039 7.14888C79.1039 6.36863 79.2768 5.67728 79.6225 5.07481C79.978 4.46246 80.457 3.98345 81.0595 3.63777C81.6718 3.29209 82.3583 3.11925 83.1188 3.11925C83.5632 3.11925 83.983 3.18345 84.378 3.31184C84.783 3.43036 85.1533 3.60814 85.4891 3.84518C85.8249 4.08221 86.1163 4.37357 86.3632 4.71925C86.6101 5.05505 86.7978 5.4353 86.9262 5.85999L86.7928 5.83036V0.0377695H87.1188V11.0007H86.8076L86.7928 8.39332L86.941 8.34888C86.8027 8.79332 86.6101 9.18839 86.3632 9.53407C86.1262 9.87974 85.8397 10.176 85.5039 10.423C85.178 10.66 84.8175 10.8427 84.4225 10.9711C84.0274 11.0896 83.6027 11.1489 83.1484 11.1489ZM83.1484 10.823C83.8397 10.823 84.462 10.6699 85.015 10.3637C85.5681 10.0476 86.0027 9.61308 86.3188 9.05999C86.6348 8.49703 86.7928 7.85011 86.7928 7.11925C86.7928 6.41802 86.6348 5.79086 86.3188 5.23777C86.0126 4.67481 85.583 4.2353 85.0299 3.91925C84.4768 3.6032 83.8397 3.44518 83.1188 3.44518C82.4076 3.44518 81.7706 3.6032 81.2076 3.91925C80.6546 4.2353 80.22 4.67481 79.9039 5.23777C79.5879 5.79086 79.4299 6.42789 79.4299 7.14888C79.4299 7.85999 79.5879 8.49209 79.9039 9.04518C80.2299 9.59826 80.6694 10.0328 81.2225 10.3489C81.7854 10.6649 82.4274 10.823 83.1484 10.823Z" fill="white"/>
</svg>
