<svg width="470" height="100" viewBox="0 0 470 100" fill="none" xmlns="http://www.w3.org/2000/svg">
<rect x="1.19789" y="1.21937" width="468.198" height="97.3187" rx="3.84615" fill="#12121A"/>
<rect x="1.19789" y="1.21937" width="468.198" height="97.3187" rx="3.84615" stroke="#1E1E24" stroke-width="1.0989"/>
<path d="M119.114 65.7989C117.994 65.7989 116.958 65.6449 116.006 65.3369C115.054 65.0289 114.172 64.6089 113.36 64.0769C112.548 63.5449 111.82 62.9289 111.176 62.2289C110.56 61.5009 110.042 60.7449 109.622 59.9609L111.218 58.3229C111.61 59.1629 112.1 59.9189 112.688 60.5909C113.276 61.2629 113.906 61.8369 114.578 62.3129C115.278 62.7609 116.006 63.1109 116.762 63.3629C117.546 63.6149 118.344 63.7409 119.156 63.7409C120.696 63.7409 122.054 63.3769 123.23 62.6489C124.406 61.8929 125.316 60.8709 125.96 59.5829C126.604 58.2949 126.926 56.8669 126.926 55.2989V38.1209H120.836V35.9789H133.73V38.1209H129.194V55.4249C129.194 56.8529 128.956 58.1969 128.48 59.4569C128.032 60.7169 127.36 61.8229 126.464 62.7749C125.596 63.7269 124.532 64.4689 123.272 65.0009C122.04 65.5329 120.654 65.7989 119.114 65.7989ZM147.882 65.7989C145.53 65.7989 143.486 65.3229 141.75 64.3709C140.014 63.3909 138.656 62.0469 137.676 60.3389C136.696 58.6309 136.206 56.6709 136.206 54.4589C136.206 52.2469 136.71 50.2869 137.718 48.5789C138.754 46.8429 140.14 45.4849 141.876 44.5049C143.64 43.5249 145.628 43.0349 147.84 43.0349C149.184 43.0349 150.444 43.2309 151.62 43.6229C152.824 43.9869 153.888 44.5049 154.812 45.1769C155.764 45.8489 156.548 46.6049 157.164 47.4449C157.78 48.2569 158.172 49.1249 158.34 50.0489L157.458 49.5869L157.668 43.5389H159.642V65.3789H157.584V59.5829L158.34 58.7009C158.116 59.6529 157.682 60.5629 157.038 61.4309C156.422 62.2709 155.652 63.0269 154.728 63.6989C153.804 64.3429 152.754 64.8609 151.578 65.2529C150.402 65.6169 149.17 65.7989 147.882 65.7989ZM148.134 63.6989C149.954 63.6989 151.592 63.3069 153.048 62.5229C154.504 61.7109 155.652 60.6189 156.492 59.2469C157.332 57.8469 157.752 56.2369 157.752 54.4169C157.752 52.6529 157.332 51.0709 156.492 49.6709C155.68 48.2709 154.546 47.1649 153.09 46.3529C151.634 45.5129 149.982 45.0929 148.134 45.0929C146.23 45.0929 144.55 45.5129 143.094 46.3529C141.638 47.1649 140.49 48.2709 139.65 49.6709C138.838 51.0709 138.432 52.6529 138.432 54.4169C138.432 56.2089 138.824 57.8049 139.608 59.2049C140.42 60.6049 141.554 61.7109 143.01 62.5229C144.466 63.3069 146.174 63.6989 148.134 63.6989ZM171.027 65.3789V43.5389H173.127V65.3789H171.027ZM172.077 38.9189C171.461 38.9189 170.985 38.7509 170.649 38.4149C170.313 38.0789 170.145 37.6169 170.145 37.0289C170.145 36.4689 170.313 36.0209 170.649 35.6849C170.985 35.3209 171.461 35.1389 172.077 35.1389C172.693 35.1389 173.169 35.3069 173.505 35.6429C173.841 35.9789 174.009 36.4409 174.009 37.0289C174.009 37.5889 173.841 38.0509 173.505 38.4149C173.169 38.7509 172.693 38.9189 172.077 38.9189ZM200.553 65.3789V35.9789H213.741C215.365 35.9789 216.793 36.3429 218.025 37.0709C219.257 37.7989 220.223 38.8069 220.923 40.0949C221.651 41.3549 222.015 42.8109 222.015 44.4629C222.015 46.2549 221.651 47.8509 220.923 49.2509C220.195 50.6229 219.201 51.7009 217.941 52.4849C216.709 53.2689 215.267 53.6609 213.615 53.6609H202.653V65.3789H200.553ZM202.653 51.5609H213.825C215.001 51.5609 216.037 51.2669 216.933 50.6789C217.829 50.0629 218.515 49.2229 218.991 48.1589C219.495 47.0669 219.747 45.8069 219.747 44.3789C219.747 43.1469 219.495 42.0549 218.991 41.1029C218.515 40.1509 217.829 39.4089 216.933 38.8769C216.037 38.3449 215.001 38.0789 213.825 38.0789H202.653V51.5609ZM231.182 65.3789V43.5389H233.198L233.408 48.8309L232.946 49.0829C233.338 47.9629 233.912 46.9549 234.668 46.0589C235.424 45.1349 236.32 44.4069 237.356 43.8749C238.42 43.3149 239.624 43.0349 240.968 43.0349C241.668 43.0349 242.34 43.1049 242.984 43.2449C243.628 43.3569 244.174 43.5109 244.622 43.7069L243.95 46.0589C243.474 45.7789 242.942 45.5969 242.354 45.5129C241.794 45.4009 241.29 45.3449 240.842 45.3449C239.554 45.3449 238.434 45.5549 237.482 45.9749C236.558 46.3949 235.774 46.9829 235.13 47.7389C234.514 48.4669 234.052 49.2929 233.744 50.2169C233.436 51.1129 233.282 52.0369 233.282 52.9889V65.3789H231.182ZM259.936 65.7989C257.584 65.7989 255.54 65.3229 253.804 64.3709C252.068 63.3909 250.71 62.0469 249.73 60.3389C248.75 58.6309 248.26 56.6709 248.26 54.4589C248.26 52.2469 248.764 50.2869 249.772 48.5789C250.808 46.8429 252.194 45.4849 253.93 44.5049C255.694 43.5249 257.682 43.0349 259.894 43.0349C261.238 43.0349 262.498 43.2309 263.674 43.6229C264.878 43.9869 265.942 44.5049 266.866 45.1769C267.818 45.8489 268.602 46.6049 269.218 47.4449C269.834 48.2569 270.226 49.1249 270.394 50.0489L269.512 49.5869L269.722 43.5389H271.696V65.3789H269.638V59.5829L270.394 58.7009C270.17 59.6529 269.736 60.5629 269.092 61.4309C268.476 62.2709 267.706 63.0269 266.782 63.6989C265.858 64.3429 264.808 64.8609 263.632 65.2529C262.456 65.6169 261.224 65.7989 259.936 65.7989ZM260.188 63.6989C262.008 63.6989 263.646 63.3069 265.102 62.5229C266.558 61.7109 267.706 60.6189 268.546 59.2469C269.386 57.8469 269.806 56.2369 269.806 54.4169C269.806 52.6529 269.386 51.0709 268.546 49.6709C267.734 48.2709 266.6 47.1649 265.144 46.3529C263.688 45.5129 262.036 45.0929 260.188 45.0929C258.284 45.0929 256.604 45.5129 255.148 46.3529C253.692 47.1649 252.544 48.2709 251.704 49.6709C250.892 51.0709 250.486 52.6529 250.486 54.4169C250.486 56.2089 250.878 57.8049 251.662 59.2049C252.474 60.6049 253.608 61.7109 255.064 62.5229C256.52 63.3069 258.228 63.6989 260.188 63.6989ZM289.927 65.7989C287.715 65.7989 285.741 65.4209 284.005 64.6649C282.269 63.9089 280.911 62.9569 279.931 61.8089L281.527 60.3389C282.423 61.4589 283.599 62.3129 285.055 62.9009C286.511 63.4609 288.107 63.7409 289.843 63.7409C290.823 63.7409 291.733 63.6569 292.573 63.4889C293.441 63.3209 294.183 63.0829 294.799 62.7749C295.443 62.4669 295.947 62.0609 296.311 61.5569C296.675 61.0249 296.857 60.4229 296.857 59.7509C296.857 58.6309 296.227 57.7069 294.967 56.9789C294.351 56.6709 293.581 56.3769 292.657 56.0969C291.761 55.7889 290.697 55.5089 289.465 55.2569C287.785 54.8369 286.343 54.4589 285.139 54.1229C283.935 53.7589 282.983 53.2969 282.283 52.7369C281.751 52.2889 281.345 51.7709 281.065 51.1829C280.813 50.5949 280.687 49.9369 280.687 49.2089C280.687 48.3129 280.897 47.4869 281.317 46.7309C281.737 45.9749 282.339 45.3169 283.123 44.7569C283.935 44.1969 284.859 43.7769 285.895 43.4969C286.931 43.1889 288.093 43.0349 289.381 43.0349C290.529 43.0349 291.691 43.1889 292.867 43.4969C294.071 43.7769 295.191 44.1829 296.227 44.7149C297.291 45.2469 298.201 45.8769 298.957 46.6049L297.571 48.2009C296.899 47.5849 296.143 47.0389 295.303 46.5629C294.491 46.0589 293.581 45.6669 292.573 45.3869C291.593 45.1069 290.557 44.9669 289.465 44.9669C288.597 44.9669 287.757 45.0649 286.945 45.2609C286.161 45.4289 285.475 45.7089 284.887 46.1009C284.299 46.4649 283.823 46.8989 283.459 47.4029C283.095 47.9069 282.913 48.4669 282.913 49.0829C282.885 49.6149 282.983 50.0629 283.207 50.4269C283.431 50.7629 283.753 51.0709 284.173 51.3509C284.761 51.7429 285.531 52.0789 286.483 52.3589C287.435 52.6109 288.611 52.8909 290.011 53.1989C291.327 53.4789 292.503 53.7589 293.539 54.0389C294.575 54.3189 295.457 54.6549 296.185 55.0469C297.137 55.5789 297.851 56.2089 298.327 56.9369C298.831 57.6649 299.083 58.5189 299.083 59.4989C299.083 60.7589 298.691 61.8649 297.907 62.8169C297.151 63.7409 296.087 64.4689 294.715 65.0009C293.343 65.5329 291.747 65.7989 289.927 65.7989ZM316.784 65.7989C314.432 65.7989 312.388 65.3229 310.652 64.3709C308.916 63.3909 307.558 62.0469 306.578 60.3389C305.598 58.6309 305.108 56.6709 305.108 54.4589C305.108 52.2469 305.612 50.2869 306.62 48.5789C307.656 46.8429 309.042 45.4849 310.778 44.5049C312.542 43.5249 314.53 43.0349 316.742 43.0349C318.086 43.0349 319.346 43.2309 320.522 43.6229C321.726 43.9869 322.79 44.5049 323.714 45.1769C324.666 45.8489 325.45 46.6049 326.066 47.4449C326.682 48.2569 327.074 49.1249 327.242 50.0489L326.36 49.5869L326.57 43.5389H328.544V65.3789H326.486V59.5829L327.242 58.7009C327.018 59.6529 326.584 60.5629 325.94 61.4309C325.324 62.2709 324.554 63.0269 323.63 63.6989C322.706 64.3429 321.656 64.8609 320.48 65.2529C319.304 65.6169 318.072 65.7989 316.784 65.7989ZM317.036 63.6989C318.856 63.6989 320.494 63.3069 321.95 62.5229C323.406 61.7109 324.554 60.6189 325.394 59.2469C326.234 57.8469 326.654 56.2369 326.654 54.4169C326.654 52.6529 326.234 51.0709 325.394 49.6709C324.582 48.2709 323.448 47.1649 321.992 46.3529C320.536 45.5129 318.884 45.0929 317.036 45.0929C315.132 45.0929 313.452 45.5129 311.996 46.3529C310.54 47.1649 309.392 48.2709 308.552 49.6709C307.74 51.0709 307.334 52.6529 307.334 54.4169C307.334 56.2089 307.726 57.8049 308.51 59.2049C309.322 60.6049 310.456 61.7109 311.912 62.5229C313.368 63.3069 315.076 63.6989 317.036 63.6989ZM347.825 65.7989C345.669 65.7989 343.737 65.3089 342.029 64.3289C340.349 63.3209 339.019 61.9629 338.039 60.2549C337.059 58.5469 336.569 56.6009 336.569 54.4169C336.569 52.2049 337.059 50.2449 338.039 48.5369C339.047 46.8289 340.405 45.4849 342.113 44.5049C343.849 43.5249 345.795 43.0349 347.951 43.0349C349.239 43.0349 350.429 43.2029 351.521 43.5389C352.641 43.8469 353.649 44.2949 354.545 44.8829C355.469 45.4709 356.267 46.1989 356.939 47.0669C357.611 47.9069 358.129 48.8309 358.493 49.8389L357.695 49.1669V34.2989H359.795V65.3789H357.821L357.611 59.4989L358.451 58.9529C358.115 59.9609 357.611 60.8849 356.939 61.7249C356.267 62.5649 355.469 63.2929 354.545 63.9089C353.621 64.5249 352.585 65.0009 351.437 65.3369C350.317 65.6449 349.113 65.7989 347.825 65.7989ZM348.203 63.6569C350.051 63.6569 351.703 63.2649 353.159 62.4809C354.615 61.6689 355.763 60.5769 356.603 59.2049C357.443 57.8049 357.863 56.1949 357.863 54.3749C357.863 52.6109 357.457 51.0289 356.645 49.6289C355.833 48.2289 354.699 47.1369 353.243 46.3529C351.787 45.5689 350.107 45.1769 348.203 45.1769C346.383 45.1769 344.759 45.5689 343.331 46.3529C341.931 47.1369 340.825 48.2289 340.013 49.6289C339.201 51.0009 338.795 52.5829 338.795 54.3749C338.795 56.1389 339.201 57.7209 340.013 59.1209C340.825 60.5209 341.931 61.6269 343.331 62.4389C344.759 63.2509 346.383 63.6569 348.203 63.6569Z" fill="#F0F0F8"/>
</svg>
