<svg width="470" height="99" viewBox="0 0 470 99" fill="none" xmlns="http://www.w3.org/2000/svg">
<rect x="0.604382" y="0.80238" width="468.198" height="97.3187" rx="3.84615" fill="#12121A"/>
<rect x="0.604382" y="0.80238" width="468.198" height="97.3187" rx="3.84615" stroke="#1E1E24" stroke-width="1.0989"/>
<path d="M120.437 65.3819C119.317 65.3819 118.281 65.2279 117.329 64.9199C116.377 64.6119 115.495 64.1919 114.683 63.6599C113.871 63.1279 113.143 62.5119 112.499 61.8119C111.883 61.0839 111.365 60.3279 110.945 59.5439L112.541 57.9059C112.933 58.7459 113.423 59.5019 114.011 60.1739C114.599 60.8459 115.229 61.4199 115.901 61.8959C116.601 62.3439 117.329 62.6939 118.085 62.9459C118.869 63.1979 119.667 63.3239 120.479 63.3239C122.019 63.3239 123.377 62.9599 124.553 62.2319C125.729 61.4759 126.639 60.4539 127.283 59.1659C127.927 57.8779 128.249 56.4499 128.249 54.8819V37.7039H122.159V35.5619H135.053V37.7039H130.517V55.0079C130.517 56.4359 130.279 57.7799 129.803 59.0399C129.355 60.2999 128.683 61.4059 127.787 62.3579C126.919 63.3099 125.855 64.0519 124.595 64.5839C123.363 65.1159 121.977 65.3819 120.437 65.3819ZM148.827 65.3819C146.839 65.3819 145.187 65.0179 143.871 64.2899C142.583 63.5619 141.603 62.4979 140.931 61.0979C140.287 59.6979 139.965 57.9619 139.965 55.8899V43.1219H142.065V55.6799C142.065 57.3599 142.317 58.7739 142.821 59.9219C143.325 61.0419 144.081 61.8819 145.089 62.4419C146.097 63.0019 147.329 63.2819 148.785 63.2819C149.989 63.2819 151.109 63.0719 152.145 62.6519C153.209 62.2319 154.119 61.6719 154.875 60.9719C155.631 60.2719 156.233 59.4739 156.681 58.5779C157.129 57.6819 157.353 56.7299 157.353 55.7219V43.1219H159.453V64.9619H157.437L157.227 59.8799H157.521C157.241 60.8039 156.653 61.6859 155.757 62.5259C154.889 63.3659 153.839 64.0519 152.607 64.5839C151.403 65.1159 150.143 65.3819 148.827 65.3819ZM169.743 64.9619V33.8819H171.843V64.9619H169.743ZM183.219 64.9619V43.1219H185.319V64.9619H183.219ZM184.269 38.5019C183.653 38.5019 183.177 38.3339 182.841 37.9979C182.505 37.6619 182.337 37.1999 182.337 36.6119C182.337 36.0519 182.505 35.6039 182.841 35.2679C183.177 34.9039 183.653 34.7219 184.269 34.7219C184.885 34.7219 185.361 34.8899 185.697 35.2259C186.033 35.5619 186.201 36.0239 186.201 36.6119C186.201 37.1719 186.033 37.6339 185.697 37.9979C185.361 38.3339 184.885 38.5019 184.269 38.5019ZM205.971 65.3819C203.619 65.3819 201.575 64.9059 199.839 63.9539C198.103 62.9739 196.745 61.6299 195.765 59.9219C194.785 58.2139 194.295 56.2539 194.295 54.0419C194.295 51.8299 194.799 49.8699 195.807 48.1619C196.843 46.4259 198.229 45.0679 199.965 44.0879C201.729 43.1079 203.717 42.6179 205.929 42.6179C207.273 42.6179 208.533 42.8139 209.709 43.2059C210.913 43.5699 211.977 44.0879 212.901 44.7599C213.853 45.4319 214.637 46.1879 215.253 47.0279C215.869 47.8399 216.261 48.7079 216.429 49.6319L215.547 49.1699L215.757 43.1219H217.731V64.9619H215.673V59.1659L216.429 58.2839C216.205 59.2359 215.771 60.1459 215.127 61.0139C214.511 61.8539 213.741 62.6099 212.817 63.2819C211.893 63.9259 210.843 64.4439 209.667 64.8359C208.491 65.1999 207.259 65.3819 205.971 65.3819ZM206.223 63.2819C208.043 63.2819 209.681 62.8899 211.137 62.1059C212.593 61.2939 213.741 60.2019 214.581 58.8299C215.421 57.4299 215.841 55.8199 215.841 53.9999C215.841 52.2359 215.421 50.6539 214.581 49.2539C213.769 47.8539 212.635 46.7479 211.179 45.9359C209.723 45.0959 208.071 44.6759 206.223 44.6759C204.319 44.6759 202.639 45.0959 201.183 45.9359C199.727 46.7479 198.579 47.8539 197.739 49.2539C196.927 50.6539 196.521 52.2359 196.521 53.9999C196.521 55.7919 196.913 57.3879 197.697 58.7879C198.509 60.1879 199.643 61.2939 201.099 62.1059C202.555 62.8899 204.263 63.2819 206.223 63.2819ZM228.486 64.9619V43.1219H230.502L230.712 48.4139L230.292 48.3719C230.656 47.3919 231.272 46.4679 232.14 45.5999C233.036 44.7039 234.114 43.9899 235.374 43.4579C236.662 42.8979 238.034 42.6179 239.49 42.6179C241.282 42.6179 242.808 42.9819 244.068 43.7099C245.328 44.4379 246.266 45.5019 246.882 46.9019C247.526 48.2739 247.848 49.9399 247.848 51.8999V64.9619H245.748V52.1099C245.748 50.4859 245.468 49.1279 244.908 48.0359C244.376 46.9439 243.606 46.1039 242.598 45.5159C241.59 44.9279 240.386 44.6339 238.986 44.6339C237.754 44.6339 236.634 44.8579 235.626 45.3059C234.618 45.7259 233.722 46.2999 232.938 47.0279C232.182 47.7559 231.594 48.5679 231.174 49.4639C230.782 50.3319 230.586 51.2419 230.586 52.1939V64.9619H229.536C229.48 64.9619 229.368 64.9619 229.2 64.9619C229.032 64.9619 228.794 64.9619 228.486 64.9619ZM275.731 56.3519L275.815 53.5379L295.975 35.5619H299.083L275.731 56.3519ZM274.597 64.9619V35.5619H276.697V64.9619H274.597ZM296.731 64.9619L283.711 48.3719L285.181 46.8599L299.461 64.9619H296.731ZM315.999 65.3819C313.535 65.3819 311.351 64.8919 309.447 63.9119C307.571 62.9319 306.087 61.5739 304.995 59.8379C303.931 58.1019 303.399 56.1279 303.399 53.9159C303.399 51.7319 303.931 49.7859 304.995 48.0779C306.087 46.3699 307.571 45.0399 309.447 44.0879C311.351 43.1079 313.535 42.6179 315.999 42.6179C318.435 42.6179 320.591 43.1079 322.467 44.0879C324.371 45.0399 325.855 46.3699 326.919 48.0779C328.011 49.7859 328.557 51.7319 328.557 53.9159C328.557 56.1279 328.011 58.1019 326.919 59.8379C325.855 61.5459 324.371 62.9039 322.467 63.9119C320.591 64.8919 318.435 65.3819 315.999 65.3819ZM315.999 63.2819C317.959 63.2819 319.723 62.8759 321.291 62.0639C322.859 61.2519 324.091 60.1459 324.987 58.7459C325.883 57.3459 326.331 55.7359 326.331 53.9159C326.331 52.1519 325.883 50.5699 324.987 49.1699C324.091 47.7699 322.859 46.6779 321.291 45.8939C319.723 45.1099 317.959 44.7179 315.999 44.7179C313.983 44.7179 312.191 45.1099 310.623 45.8939C309.055 46.6779 307.823 47.7699 306.927 49.1699C306.059 50.5419 305.625 52.1239 305.625 53.9159C305.625 55.7359 306.059 57.3459 306.927 58.7459C307.823 60.1459 309.055 61.2519 310.623 62.0639C312.219 62.8759 314.011 63.2819 315.999 63.2819ZM336.972 64.9619V33.8819H339.072V48.8339L338.4 49.5899C338.708 48.2459 339.338 47.0559 340.29 46.0199C341.242 44.9559 342.376 44.1299 343.692 43.5419C345.036 42.9259 346.394 42.6179 347.766 42.6179C349.698 42.6179 351.294 42.9819 352.554 43.7099C353.842 44.4379 354.794 45.5019 355.41 46.9019C356.026 48.2739 356.334 49.9399 356.334 51.8999V64.9619H354.234V52.1099C354.234 50.4859 353.968 49.1279 353.436 48.0359C352.904 46.9439 352.12 46.1039 351.084 45.5159C350.076 44.8999 348.844 44.6059 347.388 44.6339C346.212 44.6339 345.12 44.8439 344.112 45.2639C343.104 45.6839 342.222 46.2579 341.466 46.9859C340.71 47.7139 340.122 48.5259 339.702 49.4219C339.282 50.3179 339.072 51.2419 339.072 52.1939V64.9619H338.022C337.854 64.9619 337.686 64.9619 337.518 64.9619C337.378 64.9619 337.196 64.9619 336.972 64.9619Z" fill="#F0F0F8"/>
</svg>
