<svg width="101" height="22" viewBox="0 0 101 22" fill="none" xmlns="http://www.w3.org/2000/svg">
<path d="M4.772 17.1397C4.36667 17.1397 3.98267 17.0864 3.62 16.9797C3.268 16.8624 2.94267 16.7024 2.644 16.4997C2.356 16.2864 2.1 16.0411 1.876 15.7637C1.66267 15.4864 1.492 15.1877 1.364 14.8677L1.652 14.6117C1.79067 14.9531 1.96667 15.2624 2.18 15.5397C2.39333 15.8064 2.63333 16.0304 2.9 16.2117C3.16667 16.3931 3.46 16.5371 3.78 16.6437C4.11067 16.7397 4.452 16.7877 4.804 16.7877C5.43333 16.7877 5.988 16.6544 6.468 16.3877C6.948 16.1211 7.316 15.7264 7.572 15.2037C7.83867 14.6704 7.972 13.9984 7.972 13.1877V6.13174H5.62V5.77974H10.18V6.13174H8.324V13.1877C8.324 13.8384 8.23867 14.4144 8.068 14.9157C7.908 15.4064 7.67333 15.8171 7.364 16.1477C7.05467 16.4784 6.676 16.7291 6.228 16.8997C5.79067 17.0597 5.30533 17.1397 4.772 17.1397ZM15.5955 17.1397C14.8595 17.1397 14.2355 17.0117 13.7235 16.7557C13.2222 16.4891 12.8382 16.1051 12.5715 15.6037C12.3048 15.1024 12.1715 14.4891 12.1715 13.7637V8.57974H12.5235V13.7157C12.5235 14.3984 12.6462 14.9691 12.8915 15.4277C13.1368 15.8757 13.4888 16.2171 13.9475 16.4517C14.4168 16.6757 14.9608 16.7877 15.5795 16.7877C16.0382 16.7877 16.4702 16.6971 16.8755 16.5157C17.2808 16.3344 17.6328 16.1157 17.9315 15.8597C18.2302 15.5931 18.4648 15.3264 18.6355 15.0597C18.8062 14.7931 18.8915 14.5691 18.8915 14.3877V8.57974H19.2435V16.9797H18.9235L18.8915 14.7877L19.0675 14.7397C18.9502 15.1451 18.7208 15.5344 18.3795 15.9077C18.0488 16.2704 17.6435 16.5691 17.1635 16.8037C16.6942 17.0277 16.1715 17.1397 15.5955 17.1397ZM23.3486 16.9797V5.13974H23.7006V16.9797H23.3486ZM28.1299 16.9797V8.57974H28.4819V16.9797H28.1299ZM28.3059 6.37174C28.1565 6.37174 28.0445 6.32907 27.9699 6.24374C27.8952 6.1584 27.8579 6.0464 27.8579 5.90774C27.8579 5.77974 27.8952 5.67307 27.9699 5.58774C28.0445 5.49174 28.1565 5.44374 28.3059 5.44374C28.4445 5.44374 28.5512 5.4864 28.6259 5.57174C28.7112 5.65707 28.7539 5.76907 28.7539 5.90774C28.7539 6.0464 28.7165 6.1584 28.6419 6.24374C28.5672 6.32907 28.4552 6.37174 28.3059 6.37174ZM36.4308 17.1397C35.5134 17.1397 34.7134 16.9584 34.0308 16.5957C33.3588 16.2331 32.8308 15.7317 32.4468 15.0917C32.0734 14.4411 31.8868 13.6944 31.8868 12.8517C31.8868 12.0091 32.0841 11.2571 32.4788 10.5957C32.8734 9.9344 33.4068 9.41707 34.0788 9.04374C34.7508 8.65974 35.5081 8.46774 36.3508 8.46774C36.8948 8.46774 37.4014 8.55307 37.8708 8.72374C38.3508 8.88374 38.7721 9.11307 39.1348 9.41174C39.4974 9.69974 39.7908 10.0304 40.0148 10.4037C40.2494 10.7664 40.3881 11.1557 40.4308 11.5717L40.3188 11.5397L40.3508 8.57974H40.6548V16.9797H40.3188V14.0997L40.4948 13.9557C40.4094 14.4037 40.2494 14.8251 40.0148 15.2197C39.7801 15.6037 39.4761 15.9397 39.1028 16.2277C38.7401 16.5157 38.3294 16.7397 37.8708 16.8997C37.4228 17.0597 36.9428 17.1397 36.4308 17.1397ZM36.4148 16.7877C37.1508 16.7877 37.8174 16.6224 38.4148 16.2917C39.0121 15.9504 39.4814 15.4811 39.8228 14.8837C40.1641 14.2864 40.3348 13.5984 40.3348 12.8197C40.3348 12.0624 40.1641 11.3851 39.8228 10.7877C39.4814 10.1797 39.0121 9.69974 38.4148 9.34774C37.8174 8.98507 37.1401 8.80374 36.3828 8.80374C35.5721 8.80374 34.8521 8.98507 34.2228 9.34774C33.6041 9.69974 33.1188 10.1797 32.7668 10.7877C32.4254 11.3957 32.2548 12.0837 32.2548 12.8517C32.2548 13.6197 32.4201 14.3024 32.7508 14.8997C33.0921 15.4864 33.5721 15.9504 34.1908 16.2917C34.8201 16.6224 35.5614 16.7877 36.4148 16.7877ZM44.6578 16.9797V8.57974H44.9778L45.0098 10.7717L44.8338 10.8197C44.9511 10.4357 45.1804 10.0624 45.5218 9.69974C45.8738 9.33707 46.3058 9.04374 46.8177 8.81974C47.3298 8.58507 47.8791 8.46774 48.4658 8.46774C49.1911 8.46774 49.8044 8.60107 50.3058 8.86774C50.8178 9.12374 51.2071 9.49707 51.4738 9.98774C51.7404 10.4784 51.8738 11.0811 51.8738 11.7957V16.9797H51.5218V11.8437C51.5218 11.1717 51.3938 10.6117 51.1378 10.1637C50.8924 9.71574 50.5404 9.37974 50.0818 9.15574C49.6338 8.93174 49.1004 8.81974 48.4818 8.81974C47.9804 8.81974 47.5164 8.9104 47.0898 9.09174C46.6738 9.2624 46.3058 9.47574 45.9858 9.73174C45.6764 9.98774 45.4364 10.2491 45.2658 10.5157C45.0951 10.7824 45.0098 11.0011 45.0098 11.1717V16.9797H44.8338C44.8231 16.9797 44.8018 16.9797 44.7698 16.9797C44.7378 16.9797 44.7004 16.9797 44.6578 16.9797ZM62.1984 13.3957L62.2144 12.9157L70.2304 5.77974H70.7744L62.1984 13.3957ZM62.0384 16.9797V5.77974H62.3904V16.9797H62.0384ZM70.5504 16.9797L65.3824 10.4197L65.6704 10.1637L71.0304 16.9797H70.5504ZM77.391 17.1397C76.4417 17.1397 75.6043 16.9531 74.879 16.5797C74.1643 16.2064 73.6043 15.6891 73.199 15.0277C72.7937 14.3664 72.591 13.6144 72.591 12.7717C72.591 11.9397 72.7937 11.1984 73.199 10.5477C73.6043 9.89707 74.1643 9.3904 74.879 9.02774C75.6043 8.6544 76.4417 8.46774 77.391 8.46774C78.3297 8.46774 79.1563 8.6544 79.871 9.02774C80.5963 9.3904 81.1617 9.89707 81.567 10.5477C81.9723 11.1984 82.175 11.9397 82.175 12.7717C82.175 13.6144 81.9723 14.3664 81.567 15.0277C81.1617 15.6784 80.5963 16.1957 79.871 16.5797C79.1563 16.9531 78.3297 17.1397 77.391 17.1397ZM77.391 16.7877C78.2337 16.7877 78.9857 16.6171 79.647 16.2757C80.319 15.9344 80.847 15.4597 81.231 14.8517C81.6257 14.2437 81.823 13.5504 81.823 12.7717C81.823 12.0144 81.6257 11.3371 81.231 10.7397C80.847 10.1424 80.319 9.67307 79.647 9.33174C78.9857 8.9904 78.2337 8.81974 77.391 8.81974C76.5377 8.81974 75.775 8.9904 75.103 9.33174C74.431 9.67307 73.903 10.1424 73.519 10.7397C73.135 11.3264 72.943 12.0037 72.943 12.7717C72.943 13.5504 73.135 14.2437 73.519 14.8517C73.903 15.4597 74.431 15.9344 75.103 16.2757C75.7857 16.6171 76.5483 16.7877 77.391 16.7877ZM85.4546 16.9797V5.13974H85.8066V10.7717L85.6306 10.8197C85.748 10.4251 85.9826 10.0517 86.3346 9.69974C86.6866 9.33707 87.1133 9.04374 87.6146 8.81974C88.1266 8.58507 88.676 8.46774 89.2626 8.46774C89.988 8.46774 90.6013 8.60107 91.1026 8.86774C91.6146 9.12374 92.004 9.49707 92.2706 9.98774C92.5373 10.4784 92.6706 11.0811 92.6706 11.7957V16.9797H92.3186V11.8437C92.3186 11.1717 92.1906 10.6117 91.9346 10.1637C91.6893 9.71574 91.3373 9.37974 90.8786 9.15574C90.4306 8.92107 89.8973 8.80907 89.2786 8.81974C88.7773 8.81974 88.3133 8.90507 87.8866 9.07574C87.4706 9.2464 87.1026 9.46507 86.7826 9.73174C86.4733 9.98774 86.2333 10.2491 86.0626 10.5157C85.892 10.7824 85.8066 11.0011 85.8066 11.1717V16.9797H85.6306C85.556 16.9797 85.5026 16.9797 85.4706 16.9797C85.4493 16.9797 85.444 16.9797 85.4546 16.9797Z" fill="white"/>
</svg>
