<svg width="101" height="22" viewBox="0 0 101 22" fill="none" xmlns="http://www.w3.org/2000/svg">
<path d="M20.4766 16.9797V5.13974H20.8286V16.9797H20.4766ZM25.2578 16.9797V5.13974H25.6098V16.9797H25.2578ZM30.0391 16.9797V5.13974H30.3911V16.9797H30.0391ZM34.8203 16.9797V5.13974H35.1723V16.9797H34.8203ZM41.5313 16.9797L37.6273 8.57974H38.0273L41.7553 16.6597H41.5953L45.3073 8.57974H45.7073L41.8353 16.9797H41.5313ZM51.6876 16.9797L47.7836 8.57974H48.1836L51.9116 16.6597H51.7516L55.4636 8.57974H55.8636L51.9916 16.9797H51.6876ZM61.9109 17.1397C61.1749 17.1397 60.5509 17.0117 60.0389 16.7557C59.5376 16.4891 59.1536 16.1051 58.8869 15.6037C58.6203 15.1024 58.4869 14.4891 58.4869 13.7637V8.57974H58.8389V13.7157C58.8389 14.3984 58.9616 14.9691 59.2069 15.4277C59.4523 15.8757 59.8043 16.2171 60.2629 16.4517C60.7323 16.6757 61.2763 16.7877 61.8949 16.7877C62.3536 16.7877 62.7856 16.6971 63.1909 16.5157C63.5963 16.3344 63.9483 16.1157 64.2469 15.8597C64.5456 15.5931 64.7803 15.3264 64.9509 15.0597C65.1216 14.7931 65.2069 14.5691 65.2069 14.3877V8.57974H65.5589V16.9797H65.2389L65.2069 14.7877L65.3829 14.7397C65.2656 15.1451 65.0363 15.5344 64.6949 15.9077C64.3643 16.2704 63.9589 16.5691 63.4789 16.8037C63.0096 17.0277 62.4869 17.1397 61.9109 17.1397ZM72.8641 17.1397C72.1281 17.1397 71.5041 17.0117 70.9921 16.7557C70.4907 16.4891 70.1067 16.1051 69.8401 15.6037C69.5734 15.1024 69.4401 14.4891 69.4401 13.7637V8.57974H69.7921V13.7157C69.7921 14.3984 69.9147 14.9691 70.1601 15.4277C70.4054 15.8757 70.7574 16.2171 71.2161 16.4517C71.6854 16.6757 72.2294 16.7877 72.8481 16.7877C73.3067 16.7877 73.7387 16.6971 74.1441 16.5157C74.5494 16.3344 74.9014 16.1157 75.2001 15.8597C75.4987 15.5931 75.7334 15.3264 75.9041 15.0597C76.0747 14.7931 76.1601 14.5691 76.1601 14.3877V8.57974H76.5121V16.9797H76.1921L76.1601 14.7877L76.3361 14.7397C76.2187 15.1451 75.9894 15.5344 75.6481 15.9077C75.3174 16.2704 74.9121 16.5691 74.4321 16.8037C73.9627 17.0277 73.4401 17.1397 72.8641 17.1397Z" fill="white"/>
</svg>
