<svg width="470" height="99" viewBox="0 0 470 99" fill="none" xmlns="http://www.w3.org/2000/svg">
<rect x="1.19789" y="0.80238" width="468.198" height="97.3187" rx="3.84615" fill="#12121A"/>
<rect x="1.19789" y="0.80238" width="468.198" height="97.3187" rx="3.84615" stroke="#1E1E24" stroke-width="1.0989"/>
<path d="M159.005 64.9619V33.8819H161.105V64.9619H159.005ZM171.515 64.9619V33.8819H173.615V64.9619H171.515ZM184.024 64.9619V33.8819H186.124V64.9619H184.024ZM196.534 64.9619V33.8819H198.634V64.9619H196.534ZM214.698 64.9619L204.156 43.1219H206.634L215.832 62.8199L214.992 63.4079L225.156 43.1219H227.55L216.378 64.9619H214.698ZM242.957 64.9619L232.415 43.1219H234.893L244.091 62.8199L243.251 63.4079L253.415 43.1219H255.809L244.637 64.9619H242.957ZM271.225 65.3819C269.237 65.3819 267.585 65.0179 266.269 64.2899C264.981 63.5619 264.001 62.4979 263.329 61.0979C262.685 59.6979 262.363 57.9619 262.363 55.8899V43.1219H264.463V55.6799C264.463 57.3599 264.715 58.7739 265.219 59.9219C265.723 61.0419 266.479 61.8819 267.487 62.4419C268.495 63.0019 269.727 63.2819 271.183 63.2819C272.387 63.2819 273.507 63.0719 274.543 62.6519C275.607 62.2319 276.517 61.6719 277.273 60.9719C278.029 60.2719 278.631 59.4739 279.079 58.5779C279.527 57.6819 279.751 56.7299 279.751 55.7219V43.1219H281.851V64.9619H279.835L279.625 59.8799H279.919C279.639 60.8039 279.051 61.6859 278.155 62.5259C277.287 63.3659 276.237 64.0519 275.005 64.5839C273.801 65.1159 272.541 65.3819 271.225 65.3819ZM300.962 65.3819C298.974 65.3819 297.322 65.0179 296.006 64.2899C294.718 63.5619 293.738 62.4979 293.066 61.0979C292.422 59.6979 292.1 57.9619 292.1 55.8899V43.1219H294.2V55.6799C294.2 57.3599 294.452 58.7739 294.956 59.9219C295.46 61.0419 296.216 61.8819 297.224 62.4419C298.232 63.0019 299.464 63.2819 300.92 63.2819C302.124 63.2819 303.244 63.0719 304.28 62.6519C305.344 62.2319 306.254 61.6719 307.01 60.9719C307.766 60.2719 308.368 59.4739 308.816 58.5779C309.264 57.6819 309.488 56.7299 309.488 55.7219V43.1219H311.588V64.9619H309.572L309.362 59.8799H309.656C309.376 60.8039 308.788 61.6859 307.892 62.5259C307.024 63.3659 305.974 64.0519 304.742 64.5839C303.538 65.1159 302.278 65.3819 300.962 65.3819Z" fill="#F0F0F8"/>
</svg>
