<svg width="138" height="31" viewBox="0 0 138 31" fill="none" xmlns="http://www.w3.org/2000/svg">
<g clip-path="url(#clip0_4866_4705)">
<path d="M20.1139 30.929C13.6748 21.5456 7.34702 12.3368 0.907959 2.95337C7.42652 2.95337 13.7225 2.95337 20.2093 2.95337C22.1649 5.81126 24.1999 8.76445 26.2827 11.7811C25.6626 12.6861 25.0902 13.5117 24.4066 14.4961C22.3874 11.5588 20.4796 8.79619 18.5399 5.98594C17.2521 5.98594 15.9802 5.98594 14.4539 5.98594C17.0931 9.84409 19.621 13.5435 22.2284 17.3381C21.6402 18.2114 21.0678 19.0529 20.3842 20.069C17.0772 15.2741 13.8974 10.6379 10.7017 6.0018C9.44568 6.0018 8.23735 6.0018 6.77466 6.0018C11.2582 12.5432 15.6304 18.91 20.1457 25.4673C25.3446 17.8621 30.4641 10.4157 35.5994 2.95337C36.776 2.95337 37.9525 2.95337 39.3516 2.95337C32.8966 12.3209 26.5689 21.5456 20.1139 30.929Z" fill="white"/>
<path d="M52.9232 19.8696C52.176 19.8696 51.5401 19.8696 50.7608 19.8696C50.7608 17.0593 50.7608 14.3443 50.7608 11.6293C50.6815 11.6134 50.6018 11.5817 50.5224 11.5657C49.3299 13.3123 48.1374 15.0746 46.8498 16.964C45.5618 15.0746 44.3854 13.3281 43.0181 11.3117C43.0181 14.3284 43.0181 17.0434 43.0181 19.8696C42.2231 19.8696 41.5556 19.8696 40.7764 19.8696C40.7764 15.7732 40.7764 11.7246 40.7764 7.58057C41.5394 7.58057 42.2551 7.58057 43.1452 7.58057C44.3061 9.35882 45.5302 11.2482 46.8656 13.2964C48.1852 11.2641 49.3935 9.42233 50.6018 7.54883C51.3652 7.54883 52.0962 7.54883 52.9232 7.54883C52.9232 11.6293 52.9232 15.6938 52.9232 19.8696Z" fill="white"/>
<path d="M69.2985 13.7407C69.2827 17.3448 66.4525 20.1709 62.8596 20.1868C59.0756 20.2027 56.2454 17.4083 56.2615 13.693C56.2773 10.0413 59.1072 7.26276 62.8276 7.27863C66.548 7.27863 69.3143 10.0413 69.2985 13.7407ZM66.9613 13.7089C66.9455 11.2479 65.0693 9.3268 62.7163 9.34267C60.3952 9.35854 58.5984 11.2956 58.6146 13.7248C58.6461 16.2016 60.5223 18.1545 62.8434 18.1069C65.149 18.0752 66.9613 16.1222 66.9613 13.7089Z" fill="white"/>
<path d="M136.233 12.5978C136.233 13.3758 136.233 13.9315 136.233 14.6301C134.198 14.6301 132.211 14.6301 130.144 14.6301C130.144 15.7573 130.144 16.7417 130.144 17.869C132.434 17.869 134.707 17.869 137.076 17.869C137.076 18.5835 137.076 19.1551 137.076 19.8537C134.055 19.8537 131.034 19.8537 127.902 19.8537C127.902 15.7732 127.902 11.6928 127.902 7.54883C130.955 7.54883 133.944 7.54883 137.012 7.54883C137.012 8.19979 137.012 8.77137 137.012 9.48584C134.739 9.48584 132.497 9.48584 130.144 9.48584C130.144 10.5655 130.144 11.5023 130.144 12.5978C132.163 12.5978 134.151 12.5978 136.233 12.5978Z" fill="white"/>
<path d="M112.147 19.8694C111.733 18.9168 111.336 18.0118 110.891 17.0274C108.983 17.0274 107.075 17.0274 105.071 17.0274C104.658 17.9324 104.229 18.8691 103.784 19.8853C103.1 19.8853 102.416 19.8853 101.51 19.8853C103.355 15.6619 105.151 11.5497 106.963 7.42163C107.663 7.42163 108.283 7.42163 109.062 7.42163C110.843 11.4862 112.64 15.5984 114.516 19.8694C113.609 19.8694 112.894 19.8694 112.147 19.8694ZM107.965 10.1525C107.234 11.8514 106.63 13.2804 105.962 14.8363C107.393 14.8363 108.585 14.8363 109.984 14.8363C109.317 13.2486 108.697 11.8196 107.965 10.1525Z" fill="white"/>
<path d="M89.3005 7.54887C90.2226 7.54887 90.9541 7.54887 91.7807 7.54887C92.9732 10.5655 94.1815 13.614 95.4853 16.9005C96.7887 13.6298 97.9812 10.5814 99.2053 7.51709C99.9845 7.51709 100.684 7.51709 101.622 7.51709C99.8732 11.7563 98.1719 15.8685 96.4709 19.9966C95.803 19.9966 95.2149 19.9966 94.4676 19.9966C92.7663 15.9161 91.0654 11.8039 89.3005 7.54887Z" fill="white"/>
<path d="M121.018 19.9013C120.176 19.9013 119.556 19.9013 118.761 19.9013C118.761 16.4719 118.761 13.09 118.761 9.597C117.377 9.597 116.169 9.597 114.849 9.597C114.849 8.88253 114.849 8.27917 114.849 7.5647C118.141 7.5647 121.432 7.5647 124.818 7.5647C124.818 8.16805 124.818 8.80314 124.818 9.56522C123.578 9.56522 122.37 9.56522 121.003 9.56522C121.018 13.0423 121.018 16.3924 121.018 19.9013Z" fill="white"/>
<path d="M71.0641 9.597C71.0641 8.83488 71.0641 8.23156 71.0641 7.54883C74.4186 7.54883 77.6937 7.54883 81.0643 7.54883C81.0643 8.21566 81.0643 8.81901 81.0643 9.56522C79.8241 9.56522 78.6158 9.56522 77.2326 9.56522C77.2326 13.0741 77.2326 16.4559 77.2326 19.9013C76.4061 19.9013 75.754 19.9013 74.9751 19.9013C74.9751 16.4718 74.9751 13.1217 74.9751 9.61287C73.592 9.597 72.3675 9.597 71.0641 9.597Z" fill="white"/>
<path d="M84.2283 19.8537C84.2283 15.7097 84.2283 11.6769 84.2283 7.5647C84.9277 7.5647 85.5799 7.5647 86.3271 7.5647C86.3271 11.6293 86.3271 15.678 86.3271 19.8537C85.675 19.8537 85.0075 19.8537 84.2283 19.8537Z" fill="white"/>
<path d="M45.0372 22.8704L43.3358 27.3001H42.6364L40.9351 22.8704H41.8414L42.9861 26.0775H43.0181L44.1628 22.8704H45.0372Z" fill="white"/>
<path d="M50.7609 25.4107H49.4097V26.4745H51.7943V27.3001H48.5985V22.8704H51.6672V23.7118H49.4097V24.5692H50.7609V25.4107Z" fill="white"/>
<path d="M58.9166 22.8704V27.3001H58.2171L56.3567 24.5692V27.3001H55.5459V22.8704H56.2454L58.1216 25.6171V22.8704H58.9166Z" fill="white"/>
<path d="M62.8916 22.8704H66.3573V23.7118H65.0219V27.3001H64.2112V23.7118H62.8754V22.8704H62.8916Z" fill="white"/>
<path d="M73.3054 22.8704V25.6965C73.3054 26.8079 72.5898 27.4271 71.6199 27.4271C70.6662 27.4271 69.9506 26.8079 69.9506 25.6965V22.8704H70.7614V25.6965C70.7614 26.2839 71.1431 26.5856 71.6199 26.5856C72.1287 26.5856 72.4946 26.2681 72.4946 25.6965V22.8704H73.3054Z" fill="white"/>
<path d="M77.312 27.3001V22.8704H79.3469C79.8715 22.8704 80.2212 23.0609 80.4438 23.3467C80.6349 23.5848 80.7462 23.9024 80.7462 24.2675C80.7462 24.8391 80.46 25.2837 79.9986 25.5218L80.8571 27.3001H79.935L79.1878 25.6806H78.0908V27.3001H77.312ZM78.1228 23.696V24.855H79.4424C79.7286 24.855 79.9512 24.6168 79.9512 24.2675C79.9512 24.1246 79.9035 23.9817 79.8237 23.8865C79.6966 23.7118 79.5375 23.696 79.3789 23.696H78.1228Z" fill="white"/>
<path d="M86.8038 25.4107H85.4523V26.4745H87.8373V27.3001H84.6415V22.8704H87.7102V23.7118H85.4523V24.5692H86.8038V25.4107Z" fill="white"/>
<path d="M97.3133 26.5222C96.8838 26.9985 96.2479 27.4272 95.4371 27.4272C94.2126 27.4272 93.4019 26.3793 93.4019 25.0774C93.4019 23.8072 94.213 22.7275 95.4051 22.7275C96.0888 22.7275 96.7409 23.0451 97.1858 23.5055L96.677 24.1406C96.3434 23.7913 95.8662 23.569 95.4687 23.569C94.7215 23.569 94.2446 24.2518 94.2446 25.0774C94.2446 25.903 94.7376 26.5857 95.5007 26.5857C96.0095 26.5857 96.4705 26.2682 96.7883 25.8871L97.3133 26.5222Z" fill="white"/>
<path d="M102.321 22.8704H103.021L104.722 27.3001H103.832L103.498 26.3633H101.796L101.462 27.3001H100.62L102.321 22.8704ZM102.083 25.6012H103.227L102.671 24.0294H102.639L102.083 25.6012Z" fill="white"/>
<path d="M108.3 27.3001V22.8704H110.335C110.859 22.8704 111.209 23.045 111.447 23.3625C111.638 23.6166 111.75 23.9341 111.75 24.2675C111.75 24.6486 111.606 24.9979 111.4 25.2361C111.162 25.506 110.843 25.6647 110.335 25.6647H109.094V27.2842H108.3V27.3001ZM109.11 23.696V24.855H110.367C110.509 24.855 110.668 24.8232 110.796 24.6803C110.891 24.5692 110.939 24.4263 110.939 24.2675C110.939 24.1088 110.891 23.9817 110.796 23.8706C110.668 23.7118 110.509 23.6801 110.367 23.6801H109.11V23.696Z" fill="white"/>
<path d="M115.422 27.3001V22.8704H116.233V27.3001H115.422Z" fill="white"/>
<path d="M119.873 22.8704H123.339V23.7118H122.019V27.3001H121.209V23.7118H119.873V22.8704Z" fill="white"/>
<path d="M127.982 22.8704H128.682L130.383 27.3001H129.492L129.159 26.3633H127.457L127.124 27.3001H126.281L127.982 22.8704ZM127.744 25.6012H128.888L128.332 24.0294H128.3L127.744 25.6012Z" fill="white"/>
<path d="M134.93 22.8708V26.4591H137.093V27.2847H134.119V22.855H134.93V22.8708Z" fill="white"/>
</g>
<defs>
<clipPath id="clip0_4866_4705">
<rect width="136.184" height="30" fill="white" transform="translate(0.907959 0.979736)"/>
</clipPath>
</defs>
</svg>
