<svg width="470" height="99" viewBox="0 0 470 99" fill="none" xmlns="http://www.w3.org/2000/svg">
<rect x="0.549451" y="0.637341" width="468.198" height="97.3187" rx="3.84615" fill="#12121A"/>
<rect x="0.549451" y="0.637341" width="468.198" height="97.3187" rx="3.84615" stroke="#1E1E24" stroke-width="1.0989"/>
<path d="M97.9155 88.3641C79.8861 62.0905 62.1683 36.3059 44.1389 10.0322C62.3909 10.0322 80.0196 10.0322 98.1826 10.0322C103.658 18.0343 109.356 26.3032 115.188 34.7499C113.452 37.2839 111.849 39.5956 109.935 42.3519C104.281 34.1275 98.9394 26.3921 93.5084 18.5234C89.9024 18.5234 86.3411 18.5234 82.0675 18.5234C89.4572 29.3263 96.5355 39.6846 103.836 50.3096C102.189 52.7546 100.586 55.1108 98.6723 57.956C89.4127 44.5303 80.5094 31.549 71.5614 18.5678C68.0445 18.5678 64.6612 18.5678 60.5657 18.5678C73.1195 36.8838 85.3617 54.7107 98.0046 73.0711C112.562 51.7766 126.896 30.9267 141.275 10.0322C144.569 10.0322 147.864 10.0322 151.781 10.0322C133.707 36.2613 115.989 62.0905 97.9155 88.3641Z" fill="white"/>
<path d="M189.782 57.3984C187.689 57.3984 185.909 57.3984 183.727 57.3984C183.727 49.5296 183.727 41.9276 183.727 34.3256C183.505 34.2812 183.282 34.1923 183.059 34.1478C179.72 39.038 176.381 43.9727 172.776 49.2629C169.17 43.9727 165.876 39.0824 162.047 33.4365C162.047 41.8832 162.047 49.4852 162.047 57.3984C159.821 57.3984 157.952 57.3984 155.771 57.3984C155.771 45.9287 155.771 34.5924 155.771 22.9893C157.907 22.9893 159.911 22.9893 162.403 22.9893C165.654 27.9684 169.081 33.2587 172.82 38.9936C176.515 33.3031 179.898 28.1462 183.282 22.9004C185.419 22.9004 187.466 22.9004 189.782 22.9004C189.782 34.3256 189.782 45.7064 189.782 57.3984Z" fill="white"/>
<path d="M235.632 40.2365C235.588 50.328 227.663 58.2412 217.603 58.2856C207.008 58.3301 199.083 50.5058 199.129 40.1031C199.173 29.8782 207.096 22.0983 217.514 22.1428C227.931 22.1428 235.676 29.8782 235.632 40.2365ZM229.088 40.1475C229.044 33.2569 223.79 27.8776 217.202 27.9221C210.703 27.9665 205.672 33.3901 205.717 40.192C205.806 47.1271 211.059 52.5953 217.558 52.4619C224.014 52.373 229.088 46.9049 229.088 40.1475Z" fill="white"/>
<path d="M423.05 37.0375C423.05 39.2158 423.05 40.7718 423.05 42.7278C417.352 42.7278 411.787 42.7278 406 42.7278C406 45.8842 406 48.6405 406 51.7969C412.411 51.7969 418.776 51.7969 425.41 51.7969C425.41 53.7975 425.41 55.3979 425.41 57.354C416.951 57.354 408.493 57.354 399.723 57.354C399.723 45.9287 399.723 34.5034 399.723 22.9004C408.27 22.9004 416.639 22.9004 425.232 22.9004C425.232 24.7231 425.232 26.3235 425.232 28.324C418.865 28.324 412.589 28.324 406 28.324C406 31.347 406 33.97 406 37.0375C411.654 37.0375 417.219 37.0375 423.05 37.0375Z" fill="white"/>
<path d="M355.608 57.3957C354.451 54.7284 353.338 52.1943 352.091 49.438C346.749 49.438 341.406 49.438 335.797 49.438C334.64 51.9721 333.438 54.595 332.192 57.4401C330.277 57.4401 328.363 57.4401 325.825 57.4401C330.99 45.6148 336.02 34.1006 341.095 22.542C343.054 22.542 344.791 22.542 346.971 22.542C351.957 33.9228 356.988 45.437 362.241 57.3957C359.703 57.3957 357.7 57.3957 355.608 57.3957ZM343.9 30.1885C341.852 34.9454 340.161 38.9464 338.291 43.303C342.297 43.303 345.636 43.303 349.553 43.303C347.684 38.8574 345.948 34.8564 343.9 30.1885Z" fill="white"/>
<path d="M291.638 22.8985C294.22 22.8985 296.268 22.8985 298.583 22.8985C301.922 31.3452 305.305 39.8808 308.955 49.0832C312.605 39.9252 315.944 31.3896 319.371 22.8096C321.553 22.8096 323.512 22.8096 326.139 22.8096C321.242 34.6794 316.478 46.1936 311.715 57.7522C309.845 57.7522 308.198 57.7522 306.106 57.7522C301.342 46.3269 296.58 34.8127 291.638 22.8985Z" fill="white"/>
<path d="M380.449 57.4859C378.089 57.4859 376.352 57.4859 374.128 57.4859C374.128 47.8834 374.128 38.4142 374.128 28.6338C370.254 28.6338 366.87 28.6338 363.176 28.6338C363.176 26.6333 363.176 24.9439 363.176 22.9434C372.391 22.9434 381.606 22.9434 391.088 22.9434C391.088 24.6328 391.088 26.411 391.088 28.5448C387.616 28.5448 384.233 28.5448 380.404 28.5448C380.449 38.2808 380.449 47.661 380.449 57.4859Z" fill="white"/>
<path d="M240.576 28.6353C240.576 26.5013 240.576 24.8121 240.576 22.9004C249.969 22.9004 259.139 22.9004 268.577 22.9004C268.577 24.7675 268.577 26.4569 268.577 28.5463C265.104 28.5463 261.721 28.5463 257.848 28.5463C257.848 38.3711 257.848 47.8403 257.848 57.4873C255.534 57.4873 253.708 57.4873 251.527 57.4873C251.527 47.8848 251.527 38.5045 251.527 28.6797C247.654 28.6353 244.226 28.6353 240.576 28.6353Z" fill="white"/>
<path d="M277.436 57.3525C277.436 45.7495 277.436 34.4575 277.436 22.9434C279.394 22.9434 281.22 22.9434 283.312 22.9434C283.312 34.3241 283.312 45.6605 283.312 57.3525C281.487 57.3525 279.618 57.3525 277.436 57.3525Z" fill="white"/>
<path d="M167.701 65.7998L162.937 78.2031H160.979L156.215 65.7998H158.753L161.958 74.7798H162.048L165.253 65.7998H167.701Z" fill="white"/>
<path d="M183.727 72.9127H179.943V75.8913H186.62V78.2031H177.672V65.7998H186.264V68.1559H179.943V70.5565H183.727V72.9127Z" fill="white"/>
<path d="M206.563 65.7998V78.2031H204.605L199.395 70.5565V78.2031H197.125V65.7998H199.084L204.337 73.4907V65.7998H206.563Z" fill="white"/>
<path d="M217.693 65.7998H227.397V68.1559H223.658V78.2031H221.387V68.1559H217.647V65.7998H217.693Z" fill="white"/>
<path d="M246.852 65.7998V73.7129C246.852 76.8249 244.849 78.5586 242.133 78.5586C239.463 78.5586 237.459 76.8249 237.459 73.7129V65.7998H239.729V73.7129C239.729 75.3578 240.798 76.2025 242.133 76.2025C243.558 76.2025 244.582 75.3134 244.582 73.7129V65.7998H246.852Z" fill="white"/>
<path d="M258.07 78.2031V65.7998H263.768C265.237 65.7998 266.216 66.3332 266.839 67.1334C267.374 67.8003 267.686 68.6894 267.686 69.7119C267.686 71.3123 266.885 72.557 265.593 73.224L267.997 78.2031H265.415L263.323 73.6685H260.251V78.2031H258.07ZM260.341 68.1115V71.3567H264.035C264.837 71.3567 265.46 70.6899 265.46 69.7119C265.46 69.3118 265.326 68.9117 265.103 68.645C264.747 68.1559 264.302 68.1115 263.857 68.1115H260.341Z" fill="white"/>
<path d="M284.648 72.9127H280.863V75.8913H287.541V78.2031H278.593V65.7998H287.185V68.1559H280.863V70.5565H284.648V72.9127Z" fill="white"/>
<path d="M314.074 76.0255C312.871 77.3591 311.091 78.5594 308.82 78.5594C305.392 78.5594 303.122 75.6254 303.122 71.9799C303.122 68.4234 305.393 65.4004 308.731 65.4004C310.645 65.4004 312.471 66.2896 313.717 67.5788L312.292 69.357C311.358 68.379 310.022 67.7566 308.909 67.7566C306.816 67.7566 305.481 69.6683 305.481 71.9799C305.481 74.2917 306.862 76.2032 308.998 76.2032C310.423 76.2032 311.714 75.3142 312.604 74.2472L314.074 76.0255Z" fill="white"/>
<path d="M328.096 65.7998H330.054L334.818 78.2031H332.325L331.39 75.5802H326.627L325.692 78.2031H323.333L328.096 65.7998ZM327.428 73.4462H330.633L329.075 69.0451H328.986L327.428 73.4462Z" fill="white"/>
<path d="M344.835 78.2031V65.7998H350.533C352.002 65.7998 352.981 66.2888 353.649 67.1778C354.184 67.8892 354.495 68.7783 354.495 69.7119C354.495 70.7788 354.094 71.7568 353.516 72.4238C352.849 73.1795 351.958 73.6241 350.533 73.6241H347.06V78.1585H344.835V78.2031ZM347.106 68.1115V71.3567H350.623C351.023 71.3567 351.468 71.2679 351.824 70.8678C352.091 70.5565 352.225 70.1564 352.225 69.7119C352.225 69.2673 352.091 68.9117 351.824 68.6005C351.468 68.1559 351.023 68.067 350.623 68.067H347.106V68.1115Z" fill="white"/>
<path d="M364.778 78.2031V65.7998H367.048V78.2031H364.778Z" fill="white"/>
<path d="M377.242 65.7998H386.946V68.1559H383.251V78.2031H380.981V68.1559H377.242V65.7998Z" fill="white"/>
<path d="M399.947 65.7998H401.905L406.669 78.2031H404.175L403.241 75.5802H398.478L397.543 78.2031H395.183L399.947 65.7998ZM399.279 73.4462H402.484L400.926 69.0451H400.837L399.279 73.4462Z" fill="white"/>
<path d="M419.401 65.8003V75.8474H425.456V78.1591H417.131V65.7559H419.401V65.8003Z" fill="white"/>
</svg>
