<svg width="301" height="43" viewBox="0 0 301 43" fill="none" xmlns="http://www.w3.org/2000/svg">
<path d="M15.2625 42.2939V38.9637M15.2625 36.2996V30.9714M13.2644 32.6364H17.2606M15.2625 27.9742V1M0.609863 18.3168L7.9362 17.6508L15.2625 17.3177L22.5889 17.6508L29.9152 18.3168" stroke="#555555" stroke-width="1.03235" stroke-linecap="round"/>
<path d="M4.27344 4.33032V28.6404L6.93756 31.3046M26.5855 4.33032V28.6404L23.5883 31.5127M6.93756 39.6299V31.3046M6.93756 31.3046L11.9328 36.2998H18.5931L23.5883 31.5127M23.5883 39.6299V31.5127M11.2668 28.3074H19.2591M13.2648 25.3103C13.5313 25.3103 16.04 25.3103 17.261 25.3103" stroke="white" stroke-width="1.03235" stroke-linecap="round"/>
<path d="M42.6337 32V10.3207H43.408L59.9462 31.1948L59.8223 31.2257C59.781 30.9573 59.7603 30.6683 59.7603 30.3586C59.7603 30.0489 59.75 29.7082 59.7294 29.3365C59.7294 28.9443 59.7294 28.5107 59.7294 28.0358C59.7294 27.5609 59.7294 27.0447 59.7294 26.4873C59.7294 25.9092 59.7294 25.2588 59.7294 24.5361V10.3207H60.4107V32H59.6674L42.9124 10.7543H43.2531C43.2325 10.9814 43.2221 11.2705 43.2221 11.6215C43.2428 11.9725 43.2634 12.3751 43.2841 12.8293C43.3047 13.2835 43.315 13.7687 43.315 14.2849C43.315 14.7804 43.315 15.2966 43.315 15.8334C43.315 16.3703 43.315 16.9071 43.315 17.4439V32H42.6337ZM75.9363 32.3097C74.1607 32.3097 72.6122 31.9587 71.2908 31.2567C69.99 30.5547 68.968 29.5843 68.2247 28.3455C67.502 27.086 67.1407 25.6407 67.1407 24.0096C67.1407 22.3785 67.5227 20.9229 68.2866 19.6428C69.0506 18.3627 70.0829 17.3613 71.3837 16.6387C72.6844 15.8954 74.1504 15.5237 75.7815 15.5237C76.8345 15.5237 77.8152 15.6889 78.7237 16.0193C79.6528 16.329 80.4683 16.7729 81.1703 17.351C81.8723 17.9085 82.4401 18.5485 82.8737 19.2712C83.3279 19.9732 83.5963 20.7268 83.6789 21.532L83.4621 21.4701L83.5241 15.7405H84.1125V32H83.4621V26.4253L83.8028 26.1466C83.6376 27.0138 83.3279 27.8293 82.8737 28.5933C82.4195 29.3365 81.831 29.9869 81.1084 30.5444C80.4064 31.1019 79.6115 31.5354 78.7237 31.8451C77.8565 32.1549 76.9274 32.3097 75.9363 32.3097ZM75.9054 31.6284C77.33 31.6284 78.6204 31.3083 79.7767 30.6683C80.9329 30.0076 81.8413 29.0991 82.502 27.9429C83.1628 26.7866 83.4931 25.4549 83.4931 23.9477C83.4931 22.4818 83.1628 21.1707 82.502 20.0144C81.8413 18.8376 80.9329 17.9085 79.7767 17.2271C78.6204 16.5251 77.3093 16.1741 75.8434 16.1741C74.2742 16.1741 72.8806 16.5251 71.6624 17.2271C70.4649 17.9085 69.5254 18.8376 68.8441 20.0144C68.1834 21.1913 67.853 22.5231 67.853 24.0096C67.853 25.4962 68.1731 26.8176 68.8131 27.9738C69.4738 29.1094 70.4029 30.0076 71.6005 30.6683C72.8186 31.3083 74.2536 31.6284 75.9054 31.6284ZM96.2984 32L88.7416 15.7405H89.5159L96.732 31.3806H96.4223L103.607 15.7405H104.382L96.8868 32H96.2984ZM116.222 32.3097C114.446 32.3097 112.898 31.9587 111.576 31.2567C110.276 30.5547 109.254 29.5843 108.51 28.3455C107.788 27.086 107.426 25.6407 107.426 24.0096C107.426 22.3785 107.808 20.9229 108.572 19.6428C109.336 18.3627 110.369 17.3613 111.669 16.6387C112.97 15.8954 114.436 15.5237 116.067 15.5237C117.12 15.5237 118.101 15.6889 119.009 16.0193C119.939 16.329 120.754 16.7729 121.456 17.351C122.158 17.9085 122.726 18.5485 123.159 19.2712C123.614 19.9732 123.882 20.7268 123.965 21.532L123.748 21.4701L123.81 15.7405H124.398V32H123.748V26.4253L124.089 26.1466C123.923 27.0138 123.614 27.8293 123.159 28.5933C122.705 29.3365 122.117 29.9869 121.394 30.5444C120.692 31.1019 119.897 31.5354 119.009 31.8451C118.142 32.1549 117.213 32.3097 116.222 32.3097ZM116.191 31.6284C117.616 31.6284 118.906 31.3083 120.062 30.6683C121.219 30.0076 122.127 29.0991 122.788 27.9429C123.448 26.7866 123.779 25.4549 123.779 23.9477C123.779 22.4818 123.448 21.1707 122.788 20.0144C122.127 18.8376 121.219 17.9085 120.062 17.2271C118.906 16.5251 117.595 16.1741 116.129 16.1741C114.56 16.1741 113.166 16.5251 111.948 17.2271C110.751 17.9085 109.811 18.8376 109.13 20.0144C108.469 21.1913 108.139 22.5231 108.139 24.0096C108.139 25.4962 108.459 26.8176 109.099 27.9738C109.76 29.1094 110.689 30.0076 111.886 30.6683C113.104 31.3083 114.539 31.6284 116.191 31.6284ZM132.425 32V9.08189H133.107V32H132.425ZM153.087 32V10.3207H162.223C163.379 10.3207 164.391 10.5685 165.258 11.064C166.125 11.5595 166.796 12.2512 167.271 13.139C167.746 14.0268 167.984 15.0489 167.984 16.2051C167.984 17.5678 167.725 18.7653 167.209 19.7977C166.714 20.8094 166.001 21.6043 165.072 22.1824C164.164 22.7605 163.101 23.0496 161.882 23.0496H153.768V32H153.087ZM168.045 32L161.882 22.7708L162.657 22.616L168.913 32H168.045ZM153.768 22.3682H161.913C163.028 22.3682 163.978 22.1101 164.763 21.5939C165.568 21.0778 166.187 20.3654 166.621 19.457C167.054 18.5279 167.271 17.4439 167.271 16.2051C167.271 15.214 167.054 14.3262 166.621 13.5416C166.208 12.757 165.63 12.1376 164.886 11.6834C164.164 11.2292 163.286 11.0021 162.254 11.0021H153.768V22.3682ZM181.853 32.3097C180.077 32.3097 178.529 31.9587 177.207 31.2567C175.906 30.5547 174.884 29.5843 174.141 28.3455C173.418 27.086 173.057 25.6407 173.057 24.0096C173.057 22.3785 173.439 20.9229 174.203 19.6428C174.967 18.3627 175.999 17.3613 177.3 16.6387C178.601 15.8954 180.067 15.5237 181.698 15.5237C182.751 15.5237 183.732 15.6889 184.64 16.0193C185.569 16.329 186.385 16.7729 187.087 17.351C187.789 17.9085 188.357 18.5485 188.79 19.2712C189.244 19.9732 189.513 20.7268 189.595 21.532L189.379 21.4701L189.44 15.7405H190.029V32H189.379V26.4253L189.719 26.1466C189.554 27.0138 189.244 27.8293 188.79 28.5933C188.336 29.3365 187.747 29.9869 187.025 30.5444C186.323 31.1019 185.528 31.5354 184.64 31.8451C183.773 32.1549 182.844 32.3097 181.853 32.3097ZM181.822 31.6284C183.246 31.6284 184.537 31.3083 185.693 30.6683C186.849 30.0076 187.758 29.0991 188.418 27.9429C189.079 26.7866 189.409 25.4549 189.409 23.9477C189.409 22.4818 189.079 21.1707 188.418 20.0144C187.758 18.8376 186.849 17.9085 185.693 17.2271C184.537 16.5251 183.226 16.1741 181.76 16.1741C180.191 16.1741 178.797 16.5251 177.579 17.2271C176.381 17.9085 175.442 18.8376 174.76 20.0144C174.1 21.1913 173.769 22.5231 173.769 24.0096C173.769 25.4962 174.089 26.8176 174.73 27.9738C175.39 29.1094 176.319 30.0076 177.517 30.6683C178.735 31.3083 180.17 31.6284 181.822 31.6284ZM202.215 32L194.658 15.7405H195.432L202.648 31.3806H202.339L209.524 15.7405H210.298L202.803 32H202.215ZM215.81 32V15.7405H216.491V32H215.81ZM216.15 11.4666C215.861 11.4666 215.644 11.384 215.5 11.2189C215.355 11.0537 215.283 10.8369 215.283 10.5685C215.283 10.3207 215.355 10.1142 215.5 9.94907C215.644 9.76324 215.861 9.67033 216.15 9.67033C216.419 9.67033 216.625 9.75292 216.77 9.91809C216.935 10.0833 217.017 10.3001 217.017 10.5685C217.017 10.8369 216.945 11.0537 216.801 11.2189C216.656 11.384 216.439 11.4666 216.15 11.4666ZM225.219 26.735V25.8059L236.585 15.7405H237.607L225.219 26.735ZM224.816 32V9.08189H225.497V32H224.816ZM237.7 32L229.338 22.7398L229.895 22.2443L238.66 32H237.7ZM250.72 32.3097C248.944 32.3097 247.395 31.9587 246.074 31.2567C244.773 30.5547 243.751 29.5843 243.008 28.3455C242.285 27.086 241.924 25.6407 241.924 24.0096C241.924 22.3785 242.306 20.9229 243.07 19.6428C243.834 18.3627 244.866 17.3613 246.167 16.6387C247.468 15.8954 248.934 15.5237 250.565 15.5237C251.618 15.5237 252.598 15.6889 253.507 16.0193C254.436 16.329 255.252 16.7729 255.954 17.351C256.656 17.9085 257.223 18.5485 257.657 19.2712C258.111 19.9732 258.38 20.7268 258.462 21.532L258.245 21.4701L258.307 15.7405H258.896V32H258.245V26.4253L258.586 26.1466C258.421 27.0138 258.111 27.8293 257.657 28.5933C257.203 29.3365 256.614 29.9869 255.892 30.5444C255.19 31.1019 254.395 31.5354 253.507 31.8451C252.64 32.1549 251.711 32.3097 250.72 32.3097ZM250.689 31.6284C252.113 31.6284 253.404 31.3083 254.56 30.6683C255.716 30.0076 256.625 29.0991 257.285 27.9429C257.946 26.7866 258.276 25.4549 258.276 23.9477C258.276 22.4818 257.946 21.1707 257.285 20.0144C256.625 18.8376 255.716 17.9085 254.56 17.2271C253.404 16.5251 252.093 16.1741 250.627 16.1741C249.057 16.1741 247.664 16.5251 246.446 17.2271C245.248 17.9085 244.309 18.8376 243.627 20.0144C242.967 21.1913 242.636 22.5231 242.636 24.0096C242.636 25.4962 242.956 26.8176 243.596 27.9738C244.257 29.1094 245.186 30.0076 246.384 30.6683C247.602 31.3083 249.037 31.6284 250.689 31.6284ZM266.644 32V15.7405H267.264L267.325 19.9835L266.985 20.0764C267.212 19.3331 267.656 18.6105 268.317 17.9085C268.998 17.2065 269.834 16.6387 270.825 16.2051C271.816 15.7509 272.88 15.5237 274.015 15.5237C275.419 15.5237 276.606 15.7818 277.577 16.298C278.568 16.7935 279.321 17.5162 279.838 18.4659C280.354 19.4157 280.612 20.5822 280.612 21.9656V32H279.93V22.0585C279.93 20.7577 279.683 19.6738 279.187 18.8066C278.712 17.9394 278.031 17.2891 277.143 16.8555C276.276 16.4219 275.244 16.2051 274.046 16.2051C273.076 16.2051 272.178 16.3806 271.352 16.7316C270.546 17.0619 269.834 17.4749 269.215 17.9704C268.616 18.4659 268.151 18.9718 267.821 19.488C267.491 20.0041 267.325 20.4274 267.325 20.7577V32H266.985C266.964 32 266.923 32 266.861 32C266.799 32 266.727 32 266.644 32ZM291.73 32V11.2189H292.411V32H291.73ZM286.434 16.4219V15.7405H297.924V16.4219H286.434Z" fill="white"/>
</svg>
