<svg width="470" height="99" viewBox="0 0 470 99" fill="none" xmlns="http://www.w3.org/2000/svg">
<rect x="0.901013" y="0.967419" width="468.198" height="97.3187" rx="3.84615" fill="#12121A"/>
<rect x="0.901013" y="0.967419" width="468.198" height="97.3187" rx="3.84615" stroke="#1E1E24" stroke-width="1.0989"/>
<path d="M37.9546 80.0677V75.158M37.9546 71.2301V63.3745M35.0087 65.8294H40.9004M37.9546 58.9557V19.1865M16.3516 44.7174L27.1531 43.7354L37.9546 43.2444L48.7561 43.7354L59.5576 44.7174" stroke="#555555" stroke-width="1.52203" stroke-linecap="round"/>
<path d="M21.7527 24.0967V59.938L25.6805 63.8659M54.6482 24.0967V59.938L50.2294 64.1727M25.6805 76.1403V63.8659M25.6805 63.8659L33.0452 71.2305H42.8647L50.2294 64.1727M50.2294 76.1403V64.1727M32.0632 59.4471H43.8467M35.0091 55.0283C35.4019 55.0283 39.1006 55.0283 40.9008 55.0283" stroke="white" stroke-width="1.52203" stroke-linecap="round"/>
<path d="M77.9819 66.127V35.327H80.1379L104.162 63.487L103.678 64.675C103.619 64.3523 103.59 63.6336 103.59 62.519C103.59 61.4043 103.575 60.1136 103.546 58.647C103.517 57.151 103.502 55.655 103.502 54.159C103.502 52.663 103.487 51.343 103.458 50.199C103.458 49.0256 103.458 48.219 103.458 47.779V35.327H105.658V66.127H103.37L79.3899 37.923L79.8299 36.691C79.8299 37.131 79.8299 37.835 79.8299 38.803C79.8592 39.771 79.8886 40.871 79.9179 42.103C79.9766 43.3056 80.0206 44.523 80.0499 45.755C80.1086 46.9576 80.1379 48.043 80.1379 49.011C80.1672 49.9496 80.1819 50.6096 80.1819 50.991V66.127H77.9819ZM126.959 66.567C124.495 66.567 122.353 66.0683 120.535 65.071C118.716 64.0443 117.293 62.6363 116.267 60.847C115.24 59.0576 114.727 57.0043 114.727 54.687C114.727 52.3696 115.255 50.3163 116.311 48.527C117.396 46.7083 118.848 45.2856 120.667 44.259C122.515 43.2323 124.597 42.719 126.915 42.719C128.323 42.719 129.643 42.9243 130.875 43.335C132.136 43.7163 133.251 44.259 134.219 44.963C135.216 45.667 136.037 46.459 136.683 47.339C137.328 48.1896 137.739 49.099 137.915 50.067L136.991 49.583L137.211 43.247H139.279V66.127H137.123V60.055L137.915 59.131C137.68 60.1283 137.225 61.0816 136.551 61.991C135.905 62.871 135.099 63.663 134.131 64.367C133.163 65.0416 132.063 65.5843 130.831 65.995C129.599 66.3763 128.308 66.567 126.959 66.567ZM127.223 64.367C129.129 64.367 130.845 63.9563 132.371 63.135C133.896 62.2843 135.099 61.1403 135.979 59.703C136.859 58.2363 137.299 56.5496 137.299 54.643C137.299 52.795 136.859 51.1376 135.979 49.671C135.128 48.2043 133.94 47.0456 132.415 46.195C130.889 45.315 129.159 44.875 127.223 44.875C125.228 44.875 123.468 45.315 121.943 46.195C120.417 47.0456 119.215 48.2043 118.335 49.671C117.484 51.1376 117.059 52.795 117.059 54.643C117.059 56.5203 117.469 58.1923 118.291 59.659C119.141 61.1256 120.329 62.2843 121.855 63.135C123.38 63.9563 125.169 64.367 127.223 64.367ZM156.718 66.127L145.674 43.247H148.27L157.906 63.883L157.026 64.499L167.674 43.247H170.182L158.478 66.127H156.718ZM186.084 66.567C183.62 66.567 181.478 66.0683 179.66 65.071C177.841 64.0443 176.418 62.6363 175.392 60.847C174.365 59.0576 173.852 57.0043 173.852 54.687C173.852 52.3696 174.38 50.3163 175.436 48.527C176.521 46.7083 177.973 45.2856 179.792 44.259C181.64 43.2323 183.722 42.719 186.04 42.719C187.448 42.719 188.768 42.9243 190 43.335C191.261 43.7163 192.376 44.259 193.344 44.963C194.341 45.667 195.162 46.459 195.808 47.339C196.453 48.1896 196.864 49.099 197.04 50.067L196.116 49.583L196.336 43.247H198.404V66.127H196.248V60.055L197.04 59.131C196.805 60.1283 196.35 61.0816 195.676 61.991C195.03 62.871 194.224 63.663 193.256 64.367C192.288 65.0416 191.188 65.5843 189.956 65.995C188.724 66.3763 187.433 66.567 186.084 66.567ZM186.348 64.367C188.254 64.367 189.97 63.9563 191.496 63.135C193.021 62.2843 194.224 61.1403 195.104 59.703C195.984 58.2363 196.424 56.5496 196.424 54.643C196.424 52.795 195.984 51.1376 195.104 49.671C194.253 48.2043 193.065 47.0456 191.54 46.195C190.014 45.315 188.284 44.875 186.348 44.875C184.353 44.875 182.593 45.315 181.068 46.195C179.542 47.0456 178.34 48.2043 177.46 49.671C176.609 51.1376 176.184 52.795 176.184 54.643C176.184 56.5203 176.594 58.1923 177.416 59.659C178.266 61.1256 179.454 62.2843 180.98 63.135C182.505 63.9563 184.294 64.367 186.348 64.367ZM209.319 66.127V33.567H211.519V66.127H209.319ZM239.158 66.127V35.327H252.182C254.03 35.327 255.672 35.7376 257.11 36.559C258.547 37.351 259.676 38.4363 260.498 39.815C261.319 41.1936 261.73 42.7483 261.73 44.479C261.73 46.2976 261.319 47.8816 260.498 49.231C259.676 50.5803 258.532 51.6363 257.066 52.399C255.628 53.1616 254 53.543 252.182 53.543H241.358V66.127H239.158ZM260.542 66.127L251.83 52.883L253.766 51.783L263.182 66.127H260.542ZM241.358 51.343H252.182C253.619 51.343 254.88 51.0643 255.966 50.507C257.051 49.9203 257.887 49.1136 258.474 48.087C259.06 47.0603 259.354 45.887 259.354 44.567C259.354 43.247 259.031 42.059 258.386 41.003C257.74 39.9176 256.846 39.067 255.702 38.451C254.587 37.835 253.296 37.527 251.83 37.527H241.358V51.343ZM280.271 66.567C277.807 66.567 275.666 66.0683 273.847 65.071C272.029 64.0443 270.606 62.6363 269.579 60.847C268.553 59.0576 268.039 57.0043 268.039 54.687C268.039 52.3696 268.567 50.3163 269.623 48.527C270.709 46.7083 272.161 45.2856 273.979 44.259C275.827 43.2323 277.91 42.719 280.227 42.719C281.635 42.719 282.955 42.9243 284.187 43.335C285.449 43.7163 286.563 44.259 287.531 44.963C288.529 45.667 289.35 46.459 289.995 47.339C290.641 48.1896 291.051 49.099 291.227 50.067L290.303 49.583L290.523 43.247H292.591V66.127H290.435V60.055L291.227 59.131C290.993 60.1283 290.538 61.0816 289.863 61.991C289.218 62.871 288.411 63.663 287.443 64.367C286.475 65.0416 285.375 65.5843 284.143 65.995C282.911 66.3763 281.621 66.567 280.271 66.567ZM280.535 64.367C282.442 64.367 284.158 63.9563 285.683 63.135C287.209 62.2843 288.411 61.1403 289.291 59.703C290.171 58.2363 290.611 56.5496 290.611 54.643C290.611 52.795 290.171 51.1376 289.291 49.671C288.441 48.2043 287.253 47.0456 285.727 46.195C284.202 45.315 282.471 44.875 280.535 44.875C278.541 44.875 276.781 45.315 275.255 46.195C273.73 47.0456 272.527 48.2043 271.647 49.671C270.797 51.1376 270.371 52.795 270.371 54.643C270.371 56.5203 270.782 58.1923 271.603 59.659C272.454 61.1256 273.642 62.2843 275.167 63.135C276.693 63.9563 278.482 64.367 280.535 64.367ZM310.031 66.127L298.987 43.247H301.583L311.219 63.883L310.339 64.499L320.987 43.247H323.495L311.791 66.127H310.031ZM331.417 66.127V43.247H333.617V66.127H331.417ZM332.517 38.407C331.871 38.407 331.373 38.231 331.021 37.879C330.669 37.527 330.493 37.043 330.493 36.427C330.493 35.8403 330.669 35.371 331.021 35.019C331.373 34.6376 331.871 34.447 332.517 34.447C333.162 34.447 333.661 34.623 334.013 34.975C334.365 35.327 334.541 35.811 334.541 36.427C334.541 37.0136 334.365 37.4976 334.013 37.879C333.661 38.231 333.162 38.407 332.517 38.407ZM347.684 58.999L347.772 56.271L362.82 43.247H365.812L347.684 58.999ZM345.968 66.127V33.567H348.124V66.127H345.968ZM364.096 66.127L352.612 53.323L354.108 51.695L367 66.127H364.096ZM383.482 66.567C381.018 66.567 378.877 66.0683 377.058 65.071C375.239 64.0443 373.817 62.6363 372.79 60.847C371.763 59.0576 371.25 57.0043 371.25 54.687C371.25 52.3696 371.778 50.3163 372.834 48.527C373.919 46.7083 375.371 45.2856 377.19 44.259C379.038 43.2323 381.121 42.719 383.438 42.719C384.846 42.719 386.166 42.9243 387.398 43.335C388.659 43.7163 389.774 44.259 390.742 44.963C391.739 45.667 392.561 46.459 393.206 47.339C393.851 48.1896 394.262 49.099 394.438 50.067L393.514 49.583L393.734 43.247H395.802V66.127H393.646V60.055L394.438 59.131C394.203 60.1283 393.749 61.0816 393.074 61.991C392.429 62.871 391.622 63.663 390.654 64.367C389.686 65.0416 388.586 65.5843 387.354 65.995C386.122 66.3763 384.831 66.567 383.482 66.567ZM383.746 64.367C385.653 64.367 387.369 63.9563 388.894 63.135C390.419 62.2843 391.622 61.1403 392.502 59.703C393.382 58.2363 393.822 56.5496 393.822 54.643C393.822 52.795 393.382 51.1376 392.502 49.671C391.651 48.2043 390.463 47.0456 388.938 46.195C387.413 45.315 385.682 44.875 383.746 44.875C381.751 44.875 379.991 45.315 378.466 46.195C376.941 47.0456 375.738 48.2043 374.858 49.671C374.007 51.1376 373.582 52.795 373.582 54.643C373.582 56.5203 373.993 58.1923 374.814 59.659C375.665 61.1256 376.853 62.2843 378.378 63.135C379.903 63.9563 381.693 64.367 383.746 64.367ZM407.069 66.127V43.247H409.181L409.401 48.791L408.961 48.747C409.343 47.7203 409.988 46.7523 410.897 45.843C411.836 44.9043 412.965 44.1563 414.285 43.599C415.635 43.0123 417.072 42.719 418.597 42.719C420.475 42.719 422.073 43.1003 423.393 43.863C424.713 44.6256 425.696 45.7403 426.341 47.207C427.016 48.6443 427.353 50.3896 427.353 52.443V66.127H425.153V52.663C425.153 50.9616 424.86 49.539 424.273 48.395C423.716 47.251 422.909 46.371 421.853 45.755C420.797 45.139 419.536 44.831 418.069 44.831C416.779 44.831 415.605 45.0656 414.549 45.535C413.493 45.975 412.555 46.5763 411.733 47.339C410.941 48.1016 410.325 48.9523 409.885 49.891C409.475 50.8003 409.269 51.7536 409.269 52.751V66.127H408.169C408.111 66.127 407.993 66.127 407.817 66.127C407.641 66.127 407.392 66.127 407.069 66.127ZM442.779 66.127V36.603H444.979V66.127H442.779ZM436.091 45.271V43.247H452.415V45.271H436.091Z" fill="white"/>
</svg>
