<svg width="470" height="99" viewBox="0 0 470 99" fill="none" xmlns="http://www.w3.org/2000/svg">
<rect x="1.25282" y="0.637341" width="468.198" height="97.3187" rx="3.84615" fill="#12121A"/>
<rect x="1.25282" y="0.637341" width="468.198" height="97.3187" rx="3.84615" stroke="#1E1E24" stroke-width="1.0989"/>
<g clip-path="url(#clip0_9585_130719)">
<path d="M127.131 33.8496C129.739 33.8496 132.003 34.2825 133.923 35.148C135.872 36.0137 137.143 37.2544 138.175 38.8703C139.207 40.486 139.504 42.4049 139.504 44.6266C139.285 46.8196 139.207 48.7384 138.175 50.383C137.143 52.0277 135.871 53.05 133.923 54.1051C132.003 54.9708 129.739 55.4036 127.131 55.4036H120.558V64.3665H114.751V33.8496H127.131ZM126.873 50.4226C129.309 50.4226 130.721 50.1233 131.981 49.0846C133.242 48.0458 133.873 46.5598 133.873 44.6266C133.873 42.6935 133.242 41.2074 131.981 40.1687C130.721 39.1299 129.309 38.6105 126.873 38.6105H120.558V50.4226H126.873Z" fill="white"/>
<path d="M162.402 64.5803C159.336 64.5803 156.57 63.9166 154.105 62.5893C151.641 61.2333 149.707 59.3721 148.303 57.0061C146.899 54.6113 146.197 51.9422 146.197 48.9991C146.197 46.056 146.899 43.4014 148.303 41.0353C149.707 38.6405 151.641 36.7794 154.105 35.4521C156.57 34.096 159.336 33.418 162.402 33.418C165.469 33.418 168.234 34.096 170.698 35.4521C173.163 36.7794 175.098 38.6261 176.502 40.9922C177.906 43.3581 178.607 46.0271 178.607 48.9991C178.607 51.971 177.906 54.64 176.502 57.0061C175.098 59.3721 173.163 61.2333 170.698 62.5893C168.234 63.9166 165.469 64.5803 162.402 64.5803ZM162.402 59.6462C164.408 59.6462 166.213 59.1989 167.818 58.3045C169.424 57.3812 170.684 56.1117 171.6 54.4958C172.518 52.8511 172.977 51.0189 172.977 48.9991C172.977 46.9793 172.518 45.1614 171.6 43.5457C170.684 41.901 169.424 40.6314 167.818 39.7369C166.213 38.8136 164.408 38.352 162.402 38.352C160.395 38.352 158.59 38.8136 156.986 39.7369C155.381 40.6314 154.12 41.901 153.203 43.5457C152.286 45.1614 151.828 46.9793 151.828 48.9991C151.828 51.0189 152.286 52.8511 153.203 54.4958C154.12 56.1117 155.381 57.3812 156.986 58.3045C158.59 59.1989 160.395 59.6462 162.402 59.6462Z" fill="white"/>
<path d="M198.449 64.5803C196.128 64.5803 193.878 64.2485 191.701 63.5848C189.552 62.9212 187.846 62.0411 186.585 60.9446L188.519 56.5732C189.752 57.5543 191.256 58.3623 193.033 58.997C194.838 59.6029 196.643 59.906 198.449 59.906C200.684 59.906 202.346 59.5452 203.436 58.8238C204.553 58.1025 205.112 57.1503 205.112 55.9673C205.112 55.1017 204.797 54.3948 204.167 53.8466C203.564 53.2695 202.791 52.8222 201.845 52.5049C200.9 52.1874 199.609 51.8267 197.976 51.4228C195.683 50.8746 193.821 50.3263 192.388 49.7781C190.984 49.2299 189.766 48.3787 188.735 47.2246C187.731 46.0416 187.23 44.4545 187.23 42.4637C187.23 40.7902 187.674 39.2753 188.563 37.9192C189.479 36.5341 190.841 35.4377 192.646 34.6298C194.48 33.8218 196.716 33.418 199.351 33.418C201.185 33.418 202.992 33.6487 204.769 34.1104C206.545 34.572 208.078 35.2357 209.368 36.1013L207.605 40.4727C206.287 39.6936 204.911 39.1022 203.478 38.6982C202.046 38.2943 200.655 38.0923 199.309 38.0923C197.102 38.0923 195.455 38.4674 194.365 39.2176C193.306 39.9678 192.774 40.9633 192.774 42.2039C192.774 43.0696 193.076 43.7765 193.678 44.3247C194.308 44.873 195.096 45.3058 196.042 45.6232C196.987 45.9405 198.278 46.3012 199.911 46.7051C202.145 47.2246 203.979 47.7728 205.413 48.3499C206.846 48.8981 208.064 49.7493 209.066 50.9034C210.099 52.0576 210.614 53.6158 210.614 55.5777C210.614 57.2514 210.156 58.7662 209.238 60.1223C208.351 61.4784 206.989 62.5604 205.155 63.3684C203.321 64.1763 201.086 64.5803 198.449 64.5803Z" fill="white"/>
<path d="M219.871 33.8496H225.459V64.1464H219.871V33.8496Z" fill="white"/>
<path d="M243.637 38.6105H233.664V33.8496H259.197V38.6105H249.225V64.1464H243.637V38.6105Z" fill="white"/>
<path d="M267.544 33.8496H273.132V64.1464H267.544V33.8496Z" fill="white"/>
<path d="M312.507 33.8496L299.396 64.1464H293.893L280.74 33.8496H286.802L296.817 57.2214L306.919 33.8496H312.507Z" fill="white"/>
<path d="M342.622 59.4287V64.1464H320.053V33.8496H342.02V38.5672H325.642V46.4445H340.17V51.0755H325.642V59.4287H342.622Z" fill="white"/>
<path d="M362.101 64.4059C359.866 64.4059 357.716 64.0453 355.653 63.3239C353.618 62.6025 352.042 61.6503 350.925 60.4674L352.172 58.0004C353.26 59.0968 354.708 59.9912 356.513 60.6838C358.318 61.3474 360.181 61.6792 362.101 61.6792C364.794 61.6792 366.815 61.1887 368.162 60.2076C369.508 59.1977 370.183 57.8993 370.183 56.3124C370.183 55.1005 369.81 54.1339 369.064 53.4125C368.349 52.6912 367.46 52.143 366.4 51.7679C365.339 51.3639 363.863 50.9311 361.971 50.4695C359.708 49.8924 357.903 49.3442 356.555 48.8247C355.209 48.2765 354.048 47.4542 353.074 46.3577C352.128 45.2613 351.655 43.7753 351.655 41.8998C351.655 40.3705 352.057 38.9856 352.859 37.7448C353.662 36.4753 354.893 35.4653 356.555 34.7151C358.217 33.9649 360.281 33.5898 362.746 33.5898C364.465 33.5898 366.142 33.8351 367.775 34.3256C369.437 34.7873 370.87 35.4365 372.074 36.2733L370.999 38.8268C369.738 37.9901 368.391 37.3697 366.959 36.9657C365.526 36.533 364.121 36.3166 362.746 36.3166C360.109 36.3166 358.118 36.8359 356.771 37.8746C355.452 38.8846 354.794 40.1974 354.794 41.8133C354.794 43.0251 355.151 44.0062 355.868 44.7564C356.613 45.4777 357.53 46.0403 358.619 46.4443C359.737 46.8194 361.227 47.2378 363.09 47.6994C365.297 48.2476 367.073 48.796 368.42 49.3442C369.795 49.8635 370.956 50.6715 371.902 51.7679C372.847 52.8354 373.32 54.2925 373.32 56.1393C373.32 57.6686 372.905 59.0679 372.074 60.3374C371.271 61.5782 370.024 62.5737 368.334 63.3239C366.643 64.0453 364.566 64.4059 362.101 64.4059Z" fill="#E3E3EF"/>
<path d="M396.744 64.406C392.847 64.406 389.809 63.2807 387.631 61.0301C385.453 58.7795 384.365 55.5045 384.365 51.2053V33.8496H387.545V51.0753C387.545 54.5956 388.333 57.2213 389.911 58.9526C391.486 60.6838 393.764 61.5494 396.744 61.5494C399.754 61.5494 402.047 60.6838 403.623 58.9526C405.199 57.2213 405.987 54.5956 405.987 51.0753V33.8496H409.081V51.2053C409.081 55.5045 407.993 58.7795 405.815 61.0301C403.665 63.2807 400.642 64.406 396.744 64.406Z" fill="#E3E3EF"/>
<path d="M453.852 33.8496V64.3664H450.801V38.3683L439.047 61.0845H437.408L425.435 38.4982V64.3664H422.602V33.8496H426.317L438.292 56.5324L450.137 33.8496H453.852Z" fill="#E3E3EF"/>
<path d="M25.1577 29.2807C27.6928 29.2807 29.7479 27.2114 29.7479 24.6589C29.7479 22.1063 27.6928 20.0371 25.1577 20.0371C22.6225 20.0371 20.5674 22.1063 20.5674 24.6589C20.5674 27.2114 22.6225 29.2807 25.1577 29.2807Z" fill="#330277"/>
<path d="M25.1577 78.3598C27.6928 78.3598 29.7479 76.2905 29.7479 73.738C29.7479 71.1855 27.6928 69.1162 25.1577 69.1162C22.6225 69.1162 20.5674 71.1855 20.5674 73.738C20.5674 76.2905 22.6225 78.3598 25.1577 78.3598Z" fill="#330277"/>
<path d="M73.684 78.141C76.2192 78.141 78.2743 76.0718 78.2743 73.5192C78.2743 70.9667 76.2192 68.8975 73.684 68.8975C71.1489 68.8975 69.0938 70.9667 69.0938 73.5192C69.0938 76.0718 71.1489 78.141 73.684 78.141Z" fill="#330277"/>
<path d="M73.684 29.2807C76.2192 29.2807 78.2743 27.2114 78.2743 24.6589C78.2743 22.1063 76.2192 20.0371 73.684 20.0371C71.1489 20.0371 69.0938 22.1063 69.0938 24.6589C69.0938 27.2114 71.1489 29.2807 73.684 29.2807Z" fill="#330277"/>
<path d="M49.4204 33.0233C54.0078 33.0233 57.7267 29.279 57.7267 24.6601C57.7267 20.0412 54.0078 16.2969 49.4204 16.2969C44.8331 16.2969 41.1143 20.0412 41.1143 24.6601C41.1143 29.279 44.8331 33.0233 49.4204 33.0233Z" fill="#781DF9"/>
<path d="M25.158 57.454C29.7454 57.454 33.4642 53.7097 33.4642 49.0908C33.4642 44.4719 29.7454 40.7275 25.158 40.7275C20.5706 40.7275 16.8518 44.4719 16.8518 49.0908C16.8518 53.7097 20.5706 57.454 25.158 57.454Z" fill="#781DF9"/>
<path d="M49.4204 57.454C54.0078 57.454 57.7267 53.7097 57.7267 49.0908C57.7267 44.4719 54.0078 40.7275 49.4204 40.7275C44.8331 40.7275 41.1143 44.4719 41.1143 49.0908C41.1143 53.7097 44.8331 57.454 49.4204 57.454Z" fill="#781DF9"/>
<path d="M73.6831 57.454C78.2705 57.454 81.9894 53.7097 81.9894 49.0908C81.9894 44.4719 78.2705 40.7275 73.6831 40.7275C69.0958 40.7275 65.377 44.4719 65.377 49.0908C65.377 53.7097 69.0958 57.454 73.6831 57.454Z" fill="#781DF9"/>
<path d="M49.4204 81.8837C54.0078 81.8837 57.7267 78.1393 57.7267 73.5204C57.7267 68.9015 54.0078 65.1572 49.4204 65.1572C44.8331 65.1572 41.1143 68.9015 41.1143 73.5204C41.1143 78.1393 44.8331 81.8837 49.4204 81.8837Z" fill="#781DF9"/>
</g>
<defs>
<clipPath id="clip0_9585_130719">
<rect width="437" height="66" fill="white" transform="translate(16.8518 16.2969)"/>
</clipPath>
</defs>
</svg>
