<svg width="201" height="31" viewBox="0 0 201 31" fill="none" xmlns="http://www.w3.org/2000/svg">
<g clip-path="url(#clip0_4866_4684)">
<path d="M51.3791 8.95874C52.5726 8.95874 53.6087 9.15549 54.4874 9.54893C55.3793 9.94243 55.9613 10.5064 56.4334 11.2409C56.9056 11.9753 57.0416 12.8475 57.0416 13.8574C56.9416 14.8542 56.9056 15.7264 56.4334 16.4739C55.9613 17.2215 55.3791 17.6862 54.4874 18.1658C53.6087 18.5593 52.5726 18.756 51.3791 18.756H48.3708V22.8301H45.7133V8.95874H51.3791ZM51.2611 16.4919C52.3759 16.4919 53.0218 16.3559 53.5988 15.8837C54.1759 15.4116 54.4644 14.7361 54.4644 13.8574C54.4644 12.9787 54.1759 12.3032 53.5988 11.8311C53.0218 11.3589 52.3759 11.1228 51.2611 11.1228H48.3708V16.4919H51.2611Z" fill="white"/>
<path d="M67.521 22.9267C66.1179 22.9267 64.8522 22.625 63.7241 22.0216C62.5964 21.4053 61.7111 20.5593 61.0684 19.4838C60.4258 18.3953 60.1045 17.1821 60.1045 15.8443C60.1045 14.5065 60.4258 13.2999 61.0684 12.2244C61.7111 11.1358 62.5964 10.2899 63.7241 9.68659C64.8522 9.07015 66.1179 8.76196 67.521 8.76196C68.9247 8.76196 70.1904 9.07015 71.3179 9.68659C72.446 10.2899 73.3316 11.1293 73.9741 12.2048C74.6166 13.2802 74.9379 14.4934 74.9379 15.8443C74.9379 17.1952 74.6166 18.4083 73.9741 19.4838C73.3316 20.5593 72.446 21.4053 71.3179 22.0216C70.1904 22.625 68.9247 22.9267 67.521 22.9267ZM67.521 20.6839C68.4391 20.6839 69.2654 20.4806 69.9997 20.074C70.7347 19.6543 71.3116 19.0773 71.731 18.3428C72.151 17.5952 72.361 16.7624 72.361 15.8443C72.361 14.9262 72.151 14.0999 71.731 13.3655C71.3116 12.6179 70.7347 12.0408 69.9997 11.6342C69.2654 11.2145 68.4391 11.0047 67.521 11.0047C66.6029 11.0047 65.7766 11.2145 65.0422 11.6342C64.3079 12.0408 63.731 12.6179 63.3112 13.3655C62.8915 14.0999 62.6817 14.9262 62.6817 15.8443C62.6817 16.7624 62.8915 17.5952 63.3112 18.3428C63.731 19.0773 64.3079 19.6543 65.0422 20.074C65.7766 20.4806 66.6029 20.6839 67.521 20.6839Z" fill="white"/>
<path d="M84.0185 22.9267C82.9566 22.9267 81.9266 22.7758 80.9304 22.4742C79.9466 22.1725 79.166 21.7725 78.5891 21.2741L79.4741 19.2871C80.0385 19.733 80.7266 20.1003 81.5397 20.3888C82.366 20.6642 83.1922 20.802 84.0185 20.802C85.0416 20.802 85.8022 20.638 86.301 20.3101C86.8122 19.9822 87.0679 19.5494 87.0679 19.0117C87.0679 18.6182 86.9241 18.2969 86.6354 18.0477C86.3597 17.7854 86.006 17.5821 85.5729 17.4378C85.1404 17.2935 84.5497 17.1296 83.8022 16.946C82.7529 16.6968 81.9004 16.4476 81.2447 16.1984C80.6022 15.9492 80.0447 15.5623 79.5729 15.0377C79.1135 14.5 78.8841 13.7786 78.8841 12.8736C78.8841 12.113 79.0872 11.4244 79.4941 10.808C79.9135 10.1784 80.5366 9.68003 81.3629 9.31278C82.2022 8.94553 83.2254 8.76196 84.4316 8.76196C85.271 8.76196 86.0979 8.86684 86.911 9.07671C87.7241 9.28653 88.4254 9.58821 89.016 9.98165L88.2091 11.9686C87.606 11.6145 86.976 11.3457 86.3204 11.1621C85.6647 10.9785 85.0285 10.8867 84.4122 10.8867C83.4022 10.8867 82.6485 11.0571 82.1497 11.3981C81.6647 11.7392 81.4216 12.1916 81.4216 12.7556C81.4216 13.1491 81.5597 13.4704 81.8354 13.7196C82.1235 13.9688 82.4841 14.1655 82.9172 14.3098C83.3497 14.454 83.9404 14.618 84.6879 14.8016C85.7104 15.0377 86.5497 15.2869 87.206 15.5492C87.8616 15.7984 88.4191 16.1853 88.8779 16.7099C89.3504 17.2345 89.586 17.9428 89.586 18.8346C89.586 19.5953 89.3766 20.2839 88.9566 20.9003C88.5504 21.5167 87.9272 22.0085 87.0879 22.3758C86.2485 22.743 85.2254 22.9267 84.0185 22.9267Z" fill="white"/>
<path d="M93.8229 8.95874H96.3804V22.73H93.8229V8.95874Z" fill="white"/>
<path d="M104.7 11.1228H100.135V8.95874H111.821V11.1228H107.257V22.73H104.7V11.1228Z" fill="white"/>
<path d="M115.641 8.95874H118.198V22.73H115.641V8.95874Z" fill="white"/>
<path d="M136.219 8.95874L130.219 22.73H127.7L121.68 8.95874H124.455L129.039 19.5823L133.662 8.95874H136.219Z" fill="white"/>
<path d="M150.002 20.5856V22.73H139.673V8.95874H149.726V11.1031H142.23V14.6837H148.88V16.7887H142.23V20.5856H150.002Z" fill="white"/>
<path d="M158.917 22.8474C157.894 22.8474 156.91 22.6835 155.965 22.3556C155.034 22.0276 154.313 21.5948 153.802 21.0571L154.372 19.9358C154.87 20.4342 155.533 20.8407 156.359 21.1555C157.185 21.4572 158.038 21.608 158.917 21.608C160.149 21.608 161.074 21.385 161.69 20.9391C162.307 20.48 162.615 19.8898 162.615 19.1685C162.615 18.6177 162.445 18.1783 162.104 17.8504C161.776 17.5225 161.369 17.2733 160.884 17.1028C160.399 16.9192 159.723 16.7225 158.857 16.5127C157.822 16.2503 156.995 16.0012 156.379 15.765C155.762 15.5158 155.231 15.1421 154.785 14.6437C154.352 14.1453 154.136 13.4698 154.136 12.6173C154.136 11.9222 154.32 11.2927 154.687 10.7287C155.054 10.1517 155.618 9.69259 156.379 9.35159C157.139 9.01059 158.084 8.84009 159.212 8.84009C159.999 8.84009 160.766 8.95159 161.514 9.17453C162.274 9.3844 162.93 9.67946 163.481 10.0598L162.989 11.2205C162.412 10.8402 161.795 10.5582 161.14 10.3746C160.484 10.1779 159.841 10.0795 159.212 10.0795C158.005 10.0795 157.094 10.3156 156.477 10.7877C155.874 11.2468 155.572 11.8435 155.572 12.578C155.572 13.1288 155.736 13.5748 156.064 13.9158C156.405 14.2437 156.825 14.4994 157.323 14.683C157.835 14.8535 158.517 15.0437 159.369 15.2535C160.379 15.5027 161.192 15.752 161.809 16.0012C162.438 16.2372 162.969 16.6045 163.402 17.1028C163.835 17.5881 164.051 18.2504 164.051 19.0898C164.051 19.785 163.861 20.421 163.481 20.9981C163.114 21.5621 162.543 22.0146 161.769 22.3556C160.995 22.6835 160.045 22.8474 158.917 22.8474Z" fill="#E3E3EF"/>
<path d="M174.772 22.8473C172.988 22.8473 171.598 22.3358 170.601 21.3128C169.604 20.2898 169.106 18.8011 169.106 16.8469V8.95801H170.562V16.7879C170.562 18.388 170.922 19.5815 171.644 20.3684C172.365 21.1554 173.408 21.5488 174.772 21.5488C176.149 21.5488 177.199 21.1554 177.92 20.3684C178.641 19.5815 179.002 18.388 179.002 16.7879V8.95801H180.418V16.8469C180.418 18.8011 179.92 20.2898 178.923 21.3128C177.939 22.3358 176.555 22.8473 174.772 22.8473Z" fill="#E3E3EF"/>
<path d="M200.908 8.95801V22.8293H199.512V11.0119L194.132 21.3375H193.382L187.902 11.071V22.8293H186.606V8.95801H188.306L193.787 19.2684L199.208 8.95801H200.908Z" fill="#E3E3EF"/>
<path d="M4.70915 6.88203C5.86939 6.88203 6.80996 5.94147 6.80996 4.78123C6.80996 3.62098 5.86939 2.68042 4.70915 2.68042C3.5489 2.68042 2.60834 3.62098 2.60834 4.78123C2.60834 5.94147 3.5489 6.88203 4.70915 6.88203Z" fill="#330277"/>
<path d="M4.70915 29.1906C5.86939 29.1906 6.80996 28.2501 6.80996 27.0898C6.80996 25.9296 5.86939 24.989 4.70915 24.989C3.5489 24.989 2.60834 25.9296 2.60834 27.0898C2.60834 28.2501 3.5489 29.1906 4.70915 29.1906Z" fill="#330277"/>
<path d="M26.918 29.0905C28.0783 29.0905 29.0188 28.15 29.0188 26.9897C29.0188 25.8295 28.0783 24.8889 26.918 24.8889C25.7578 24.8889 24.8172 25.8295 24.8172 26.9897C24.8172 28.15 25.7578 29.0905 26.918 29.0905Z" fill="#330277"/>
<path d="M26.918 6.88203C28.0783 6.88203 29.0188 5.94147 29.0188 4.78123C29.0188 3.62098 28.0783 2.68042 26.918 2.68042C25.7578 2.68042 24.8172 3.62098 24.8172 4.78123C24.8172 5.94147 25.7578 6.88203 26.918 6.88203Z" fill="#330277"/>
<path d="M15.8135 8.58267C17.913 8.58267 19.615 6.88069 19.615 4.7812C19.615 2.68171 17.913 0.979736 15.8135 0.979736C13.714 0.979736 12.012 2.68171 12.012 4.7812C12.012 6.88069 13.714 8.58267 15.8135 8.58267Z" fill="#781DF9"/>
<path d="M4.70936 19.6869C6.80885 19.6869 8.51084 17.985 8.51084 15.8855C8.51084 13.786 6.80885 12.084 4.70936 12.084C2.60987 12.084 0.907898 13.786 0.907898 15.8855C0.907898 17.985 2.60987 19.6869 4.70936 19.6869Z" fill="#781DF9"/>
<path d="M15.8135 19.6869C17.913 19.6869 19.615 17.985 19.615 15.8855C19.615 13.786 17.913 12.084 15.8135 12.084C13.714 12.084 12.012 13.786 12.012 15.8855C12.012 17.985 13.714 19.6869 15.8135 19.6869Z" fill="#781DF9"/>
<path d="M26.9176 19.6869C29.0171 19.6869 30.7191 17.985 30.7191 15.8855C30.7191 13.786 29.0171 12.084 26.9176 12.084C24.8182 12.084 23.1161 13.786 23.1161 15.8855C23.1161 17.985 24.8182 19.6869 26.9176 19.6869Z" fill="#781DF9"/>
<path d="M15.8135 30.7912C17.913 30.7912 19.615 29.0892 19.615 26.9897C19.615 24.8902 17.913 23.1882 15.8135 23.1882C13.714 23.1882 12.012 24.8902 12.012 26.9897C12.012 29.0892 13.714 30.7912 15.8135 30.7912Z" fill="#781DF9"/>
</g>
<defs>
<clipPath id="clip0_4866_4684">
<rect width="200" height="30" fill="white" transform="translate(0.907898 0.979736)"/>
</clipPath>
</defs>
</svg>
