<svg width="70" height="15" viewBox="0 0 70 15" fill="none" xmlns="http://www.w3.org/2000/svg">
<path d="M0.859268 13.9797V1.37974H5.70127C6.33727 1.37974 6.90127 1.53574 7.39327 1.84774C7.89727 2.15974 8.29327 2.59174 8.58127 3.14374C8.86927 3.68374 9.01327 4.30774 9.01327 5.01574C9.01327 5.77174 8.86927 6.44374 8.58127 7.03174C8.29327 7.60774 7.89727 8.06374 7.39327 8.39974C6.90127 8.72374 6.33727 8.88574 5.70127 8.88574H1.75927V13.9797H0.859268ZM1.75927 7.98574H5.86327C6.28327 7.98574 6.65527 7.85974 6.97927 7.60774C7.31527 7.34374 7.57927 6.98974 7.77127 6.54574C7.96327 6.08974 8.05927 5.56774 8.05927 4.97974C8.05927 4.46374 7.96327 4.00174 7.77127 3.59374C7.57927 3.18574 7.31527 2.86774 6.97927 2.63974C6.65527 2.39974 6.28327 2.27974 5.86327 2.27974H1.75927V7.98574ZM10.8732 13.9797V4.61974H11.7372L11.8272 6.70774H11.7012C11.8332 6.31174 12.0372 5.93974 12.3132 5.59174C12.5892 5.24374 12.9252 4.96174 13.3212 4.74574C13.7292 4.52974 14.1972 4.42174 14.7252 4.42174C14.9292 4.42174 15.1152 4.43974 15.2832 4.47574C15.4632 4.49974 15.6252 4.52974 15.7692 4.56574L15.4992 5.60974C15.3312 5.53774 15.1692 5.48974 15.0132 5.46574C14.8572 5.44174 14.7192 5.42974 14.5992 5.42974C14.1192 5.42974 13.6992 5.51374 13.3392 5.68174C12.9912 5.84974 12.6972 6.08374 12.4572 6.38374C12.2292 6.67174 12.0552 7.00174 11.9352 7.37374C11.8272 7.74574 11.7732 8.13574 11.7732 8.54374V13.9797H10.8732ZM20.22 14.1597C19.32 14.1597 18.516 13.9557 17.808 13.5477C17.112 13.1397 16.566 12.5697 16.17 11.8377C15.774 11.1057 15.576 10.2537 15.576 9.28174C15.576 8.57374 15.684 7.92574 15.9 7.33774C16.128 6.74974 16.44 6.23974 16.836 5.80774C17.232 5.36374 17.706 5.02174 18.258 4.78174C18.822 4.54174 19.434 4.42174 20.094 4.42174C20.742 4.42174 21.324 4.52974 21.84 4.74574C22.368 4.96174 22.812 5.27374 23.172 5.68174C23.532 6.07774 23.802 6.55174 23.982 7.10374C24.162 7.64374 24.24 8.24374 24.216 8.90374L24.198 9.38974H16.242V8.56174H23.712L23.316 8.88574V8.45374C23.316 7.97374 23.196 7.49374 22.956 7.01374C22.728 6.53374 22.374 6.13174 21.894 5.80774C21.414 5.48374 20.808 5.32174 20.076 5.32174C19.392 5.32174 18.78 5.47174 18.24 5.77174C17.712 6.07174 17.292 6.50974 16.98 7.08574C16.68 7.66174 16.53 8.37574 16.53 9.22774C16.53 10.0437 16.68 10.7577 16.98 11.3697C17.28 11.9697 17.712 12.4377 18.276 12.7737C18.852 13.0977 19.554 13.2597 20.382 13.2597C20.826 13.2597 21.282 13.1877 21.75 13.0437C22.218 12.8997 22.746 12.5877 23.334 12.1077L23.802 12.7737C23.538 13.0257 23.226 13.2597 22.866 13.4757C22.506 13.6797 22.104 13.8477 21.66 13.9797C21.216 14.0997 20.736 14.1597 20.22 14.1597ZM25.4047 9.55174V8.63374H30.4087V9.55174H25.4047ZM36.5026 14.1597C35.9026 14.1597 35.3266 14.0697 34.7746 13.8897C34.2346 13.7097 33.7306 13.4457 33.2626 13.0977C32.8066 12.7377 32.4046 12.2997 32.0566 11.7837L32.7046 11.1177C33.2326 11.8857 33.8206 12.4377 34.4686 12.7737C35.1166 13.0977 35.8066 13.2597 36.5386 13.2597C37.1746 13.2597 37.7446 13.1517 38.2486 12.9357C38.7526 12.7077 39.1486 12.4017 39.4366 12.0177C39.7366 11.6217 39.8866 11.1777 39.8866 10.6857C39.8866 10.3497 39.8266 10.0617 39.7066 9.82174C39.5986 9.58174 39.4366 9.37174 39.2206 9.19174C39.0166 9.01174 38.7646 8.85574 38.4646 8.72374C38.1766 8.57974 37.8466 8.45374 37.4746 8.34574C37.1146 8.22574 36.7246 8.10574 36.3046 7.98574C35.7286 7.81774 35.2126 7.64374 34.7566 7.46374C34.3126 7.28374 33.9286 7.06774 33.6046 6.81574C33.2926 6.56374 33.0526 6.26374 32.8846 5.91574C32.7286 5.56774 32.6506 5.14174 32.6506 4.63774C32.6506 4.14574 32.7466 3.69574 32.9386 3.28774C33.1426 2.87974 33.4246 2.52574 33.7846 2.22574C34.1446 1.92574 34.5586 1.69774 35.0266 1.54174C35.5066 1.37374 36.0226 1.28974 36.5746 1.28974C37.2226 1.28974 37.7866 1.38574 38.2666 1.57774C38.7586 1.75774 39.1906 2.01574 39.5626 2.35174C39.9346 2.68774 40.2706 3.08374 40.5706 3.53974L39.9046 4.18774C39.6406 3.77974 39.3466 3.42574 39.0226 3.12574C38.6986 2.82574 38.3326 2.59774 37.9246 2.44174C37.5286 2.27374 37.0786 2.18974 36.5746 2.18974C35.9986 2.18974 35.4826 2.29774 35.0266 2.51374C34.5826 2.71774 34.2286 3.00574 33.9646 3.37774C33.7006 3.74974 33.5686 4.17574 33.5686 4.65574C33.5686 4.99174 33.6286 5.28574 33.7486 5.53774C33.8806 5.78974 34.0786 6.01174 34.3426 6.20374C34.6186 6.38374 34.9606 6.55174 35.3686 6.70774C35.7886 6.85174 36.2866 6.99574 36.8626 7.13974C37.4506 7.28374 37.9846 7.45174 38.4646 7.64374C38.9446 7.83574 39.3586 8.06374 39.7066 8.32774C40.0666 8.59174 40.3366 8.90974 40.5166 9.28174C40.7086 9.65374 40.8046 10.1037 40.8046 10.6317C40.8046 11.3037 40.6186 11.9097 40.2466 12.4497C39.8746 12.9777 39.3646 13.3977 38.7166 13.7097C38.0686 14.0097 37.3306 14.1597 36.5026 14.1597ZM46.6146 14.1597C45.7146 14.1597 44.9106 13.9557 44.2026 13.5477C43.5066 13.1397 42.9606 12.5697 42.5646 11.8377C42.1686 11.1057 41.9706 10.2537 41.9706 9.28174C41.9706 8.57374 42.0786 7.92574 42.2946 7.33774C42.5226 6.74974 42.8346 6.23974 43.2306 5.80774C43.6266 5.36374 44.1006 5.02174 44.6526 4.78174C45.2166 4.54174 45.8286 4.42174 46.4886 4.42174C47.1366 4.42174 47.7186 4.52974 48.2346 4.74574C48.7626 4.96174 49.2066 5.27374 49.5666 5.68174C49.9266 6.07774 50.1966 6.55174 50.3766 7.10374C50.5566 7.64374 50.6346 8.24374 50.6106 8.90374L50.5926 9.38974H42.6366V8.56174H50.1066L49.7106 8.88574V8.45374C49.7106 7.97374 49.5906 7.49374 49.3506 7.01374C49.1226 6.53374 48.7686 6.13174 48.2886 5.80774C47.8086 5.48374 47.2026 5.32174 46.4706 5.32174C45.7866 5.32174 45.1746 5.47174 44.6346 5.77174C44.1066 6.07174 43.6866 6.50974 43.3746 7.08574C43.0746 7.66174 42.9246 8.37574 42.9246 9.22774C42.9246 10.0437 43.0746 10.7577 43.3746 11.3697C43.6746 11.9697 44.1066 12.4377 44.6706 12.7737C45.2466 13.0977 45.9486 13.2597 46.7766 13.2597C47.2206 13.2597 47.6766 13.1877 48.1446 13.0437C48.6126 12.8997 49.1406 12.5877 49.7286 12.1077L50.1966 12.7737C49.9326 13.0257 49.6206 13.2597 49.2606 13.4757C48.9006 13.6797 48.4986 13.8477 48.0546 13.9797C47.6106 14.0997 47.1306 14.1597 46.6146 14.1597ZM55.9753 14.1597C55.0753 14.1597 54.2713 13.9557 53.5633 13.5477C52.8673 13.1397 52.3213 12.5697 51.9253 11.8377C51.5293 11.1057 51.3313 10.2537 51.3313 9.28174C51.3313 8.57374 51.4393 7.92574 51.6553 7.33774C51.8833 6.74974 52.1953 6.23974 52.5913 5.80774C52.9873 5.36374 53.4613 5.02174 54.0133 4.78174C54.5773 4.54174 55.1893 4.42174 55.8493 4.42174C56.4973 4.42174 57.0793 4.52974 57.5953 4.74574C58.1233 4.96174 58.5673 5.27374 58.9273 5.68174C59.2873 6.07774 59.5573 6.55174 59.7373 7.10374C59.9173 7.64374 59.9953 8.24374 59.9713 8.90374L59.9533 9.38974H51.9973V8.56174H59.4673L59.0713 8.88574V8.45374C59.0713 7.97374 58.9513 7.49374 58.7113 7.01374C58.4833 6.53374 58.1293 6.13174 57.6493 5.80774C57.1693 5.48374 56.5633 5.32174 55.8313 5.32174C55.1473 5.32174 54.5353 5.47174 53.9953 5.77174C53.4673 6.07174 53.0473 6.50974 52.7353 7.08574C52.4353 7.66174 52.2853 8.37574 52.2853 9.22774C52.2853 10.0437 52.4353 10.7577 52.7353 11.3697C53.0353 11.9697 53.4673 12.4377 54.0313 12.7737C54.6073 13.0977 55.3093 13.2597 56.1373 13.2597C56.5813 13.2597 57.0373 13.1877 57.5053 13.0437C57.9733 12.8997 58.5013 12.5877 59.0893 12.1077L59.5573 12.7737C59.2933 13.0257 58.9813 13.2597 58.6213 13.4757C58.2613 13.6797 57.8593 13.8477 57.4153 13.9797C56.9713 14.0997 56.4913 14.1597 55.9753 14.1597ZM65.156 14.1597C64.304 14.1597 63.542 13.9497 62.87 13.5297C62.198 13.1097 61.664 12.5337 61.268 11.8017C60.884 11.0697 60.692 10.2357 60.692 9.29974C60.692 8.35174 60.89 7.51174 61.286 6.77974C61.694 6.04774 62.234 5.47174 62.906 5.05174C63.578 4.63174 64.328 4.42174 65.156 4.42174C65.636 4.42174 66.092 4.49374 66.524 4.63774C66.956 4.78174 67.346 4.98574 67.694 5.24974C68.042 5.50174 68.342 5.80174 68.594 6.14974C68.846 6.49774 69.026 6.87574 69.134 7.28374L68.828 6.97774V0.659736H69.728V13.9797H68.864L68.792 11.5497L69.134 11.2977C69.026 11.6937 68.846 12.0657 68.594 12.4137C68.342 12.7617 68.042 13.0677 67.694 13.3317C67.346 13.5957 66.956 13.7997 66.524 13.9437C66.092 14.0877 65.636 14.1597 65.156 14.1597ZM65.282 13.2597C65.966 13.2597 66.578 13.0917 67.118 12.7557C67.67 12.4077 68.102 11.9397 68.414 11.3517C68.738 10.7517 68.9 10.0617 68.9 9.28174C68.9 8.51374 68.744 7.83574 68.432 7.24774C68.12 6.64774 67.688 6.17974 67.136 5.84374C66.596 5.49574 65.978 5.32174 65.282 5.32174C64.574 5.32174 63.944 5.49574 63.392 5.84374C62.852 6.17974 62.426 6.64774 62.114 7.24774C61.802 7.83574 61.646 8.51374 61.646 9.28174C61.646 10.0377 61.796 10.7157 62.096 11.3157C62.408 11.9157 62.834 12.3897 63.374 12.7377C63.926 13.0857 64.562 13.2597 65.282 13.2597Z" fill="#EBEBFF" fill-opacity="0.87"/>
</svg>
