<svg width="470" height="100" viewBox="0 0 470 100" fill="none" xmlns="http://www.w3.org/2000/svg">
<rect x="0.901013" y="1.38441" width="468.198" height="97.3187" rx="3.84615" fill="#12121A"/>
<rect x="0.901013" y="1.38441" width="468.198" height="97.3187" rx="3.84615" stroke="#1E1E24" stroke-width="1.0989"/>
<g clip-path="url(#clip0_9585_130711)">
<path d="M90.5919 50.0767C90.5919 43.6061 88.736 37.2371 85.1929 31.8167L98.2519 18.6383L88.4661 8.74609L75.407 21.9245C64.4064 14.6747 50.1664 14.6747 39.1657 21.9245L26.073 8.74609L16.2534 18.6383L29.3124 31.8167C22.1249 42.9285 22.1249 57.2588 29.3124 68.3706L16.2534 81.5151L26.073 91.4073L39.132 78.229C50.1326 85.4788 64.3727 85.4788 75.3733 78.229L88.4323 91.4073L98.2519 81.5151L85.1929 68.3367C88.736 62.9163 90.6257 56.5812 90.5919 50.0767ZM37.816 50.0767C37.816 42.0816 42.6077 34.8657 49.9639 31.8845C57.3201 28.9032 65.7562 30.6987 71.2565 36.4579C76.7568 42.2171 78.2416 50.7881 74.9684 58.0718L62.1456 45.1306L52.3597 55.0228L65.1825 67.9641C59.1761 70.6743 52.191 70.1661 46.657 66.5412C41.1567 62.9163 37.816 56.7167 37.816 50.0767Z" fill="#4BBCFC"/>
<path d="M161.219 50.4815C161.219 58.5782 157.169 65.8619 149.914 69.2158L153.761 74.2635L145.831 78.295L140.534 71.2145H140.365C127.272 71.2145 119.545 61.6272 119.545 50.4476C119.545 39.268 127.272 29.6807 140.365 29.6807C153.458 29.6807 161.219 39.3019 161.219 50.4815ZM140.399 63.0839C147.789 63.0839 151.804 57.2909 151.804 50.4476C151.804 43.6043 147.789 37.8113 140.399 37.8113C132.941 37.8113 128.926 43.6043 128.993 50.4476C128.926 57.3247 132.941 63.0839 140.399 63.0839ZM175.796 70.8419C169.351 70.8419 165.875 66.8105 165.875 59.7978V43.0623H174.514V57.8668C174.514 61.5594 175.729 63.5921 178.968 63.5921C182.579 63.5921 184.131 61.2207 184.131 57.5958V43.0623H192.601V70.0966H184.131V66.2345C182.646 69.1141 179.879 70.8419 175.796 70.8419ZM210.384 70.8419C202.353 70.8419 197.73 64.7101 197.73 56.5794C197.73 48.4827 202.69 42.317 210.485 42.317C214.4 42.317 217.437 44.1803 218.888 46.9243V43.0623H227.357V70.0966H218.888V66.2684C217.47 68.9786 214.13 70.8419 210.384 70.8419ZM212.847 63.7276C217.065 63.7276 219.259 60.5431 219.259 56.6133C219.259 52.7513 217.099 49.5329 212.847 49.5329C208.899 49.5329 206.436 52.5141 206.436 56.6133C206.436 60.6786 208.899 63.7276 212.847 63.7276ZM234.444 43.0623H242.981V46.9921C244.533 43.977 247.604 42.3509 251.653 42.3509C258.166 42.3509 261.439 46.0435 261.439 53.3949V70.1305H252.868V56.2068C252.868 51.6672 251.586 49.6007 248.144 49.6007C244.736 49.6007 242.981 51.8366 242.981 56.0035V70.1305H234.444V43.0623ZM282.327 63.4227C283.373 63.4227 284.486 63.355 285.263 63.2533V70.0966C284.048 70.3337 282.023 70.537 279.594 70.537C275.578 70.537 270.078 69.6223 270.078 60.6109V49.8378H265.86V43.0623H270.078V35.0333H278.615V43.0623H284.689V49.8378H278.615V58.8154C278.615 62.8129 280.235 63.4227 282.327 63.4227ZM300.954 70.9435C293.091 70.9435 288.266 67.0815 288.266 61.966H296.736C296.736 63.8292 298.524 65.1505 301.122 65.1505C302.945 65.1505 304.227 64.2019 304.227 62.6096C304.227 61.5594 303.721 60.6447 302.27 60.306L295.69 58.6121C291.235 57.4941 288.941 54.6823 288.941 50.8203C288.941 45.7725 293.327 42.2492 300.414 42.2492C308.276 42.2492 312.393 45.5692 312.393 50.6509H303.991C303.991 48.7537 302.607 47.6696 300.312 47.6696C298.49 47.6696 297.242 48.5843 297.242 49.9056C297.242 51.1252 298.085 51.9382 299.536 52.3109L305.88 54.0386C309.997 55.1566 312.663 57.6974 312.663 61.5594C312.697 67.1831 308.276 70.9435 300.954 70.9435ZM332.066 63.4227C333.112 63.4227 334.225 63.355 335.002 63.2533V70.0966C333.787 70.3337 331.762 70.537 329.333 70.537C325.317 70.537 319.817 69.6223 319.817 60.6109V49.8378H315.599V43.0623H319.817V35.0333H328.354V43.0623H334.428V49.8378H328.354V58.8154C328.354 62.8129 329.94 63.4227 332.066 63.4227ZM350.625 70.8419C342.594 70.8419 337.971 64.7101 337.971 56.5794C337.971 48.4827 342.931 42.317 350.726 42.317C354.641 42.317 357.678 44.1803 359.129 46.9243V43.0623H367.598V70.0966H359.129V66.2684C357.678 68.9786 354.337 70.8419 350.625 70.8419ZM353.055 63.7276C357.273 63.7276 359.466 60.5431 359.466 56.6133C359.466 52.7513 357.306 49.5329 353.055 49.5329C349.107 49.5329 346.643 52.5141 346.643 56.6133C346.643 60.6786 349.107 63.7276 353.055 63.7276ZM374.685 43.0623H383.222V46.9921C384.403 44.2819 387.17 42.3509 390.916 42.3509C395.707 42.3509 398.171 44.4852 399.318 47.3309C400.769 44.4174 403.941 42.3509 407.889 42.3509C415.583 42.3509 417.405 47.6696 417.405 53.3611V70.1305H408.834V54.9194C408.834 51.159 407.45 49.6007 404.818 49.6007C402.153 49.6007 400.297 51.1252 400.297 56.2068V70.1305H391.726V54.8517C391.726 51.0913 390.376 49.5668 387.778 49.5668C385.044 49.5668 383.222 51.0913 383.222 56.1729V70.0966H374.685V43.0623ZM424.12 43.0623H432.657V46.9243C434.041 44.3496 437.382 42.317 441.397 42.317C448.753 42.317 453.747 48.0423 453.747 56.5794C453.747 65.0488 448.585 70.8419 441.161 70.8419C437.213 70.8419 433.973 68.8092 432.657 66.3023V81.3439H424.12V43.0623ZM438.698 63.7276C442.443 63.7276 445.041 60.8141 445.041 56.6133C445.041 52.4464 442.409 49.5329 438.698 49.5329C434.851 49.5329 432.252 52.3786 432.252 56.6133C432.252 60.848 434.918 63.7276 438.698 63.7276Z" fill="white"/>
</g>
<defs>
<clipPath id="clip0_9585_130711">
<rect width="438" height="83" fill="white" transform="translate(16 8.54395)"/>
</clipPath>
</defs>
</svg>
