<svg width="100" height="20" viewBox="0 0 100 20" fill="none" xmlns="http://www.w3.org/2000/svg">
<path d="M17.0251 9.64444C17.0251 8.17294 16.6014 6.72456 15.7925 5.49189L18.774 2.49498L16.5398 0.245361L13.5582 3.24228C11.0467 1.59359 7.79554 1.59359 5.28398 3.24228L2.29477 0.245361L0.0528564 2.49498L3.03437 5.49189C1.39338 8.01886 1.39338 11.2777 3.03437 13.8047L0.0528564 16.7939L2.29477 19.0435L5.27628 16.0466C7.78783 17.6953 11.039 17.6953 13.5505 16.0466L16.5321 19.0435L18.774 16.7939L15.7925 13.797C16.6014 12.5643 17.0328 11.1236 17.0251 9.64444ZM4.97581 9.64444C4.97581 7.82626 6.06981 6.18527 7.74931 5.5073C9.42882 4.82934 11.3549 5.23766 12.6106 6.54736C13.8664 7.85707 14.2054 9.80622 13.4581 11.4626L10.5305 8.51963L8.29631 10.7692L11.2239 13.7122C9.85255 14.3286 8.25779 14.213 6.9943 13.3887C5.73853 12.5643 4.97581 11.1545 4.97581 9.64444Z" fill="#4BBCFC"/>
<path d="M33.1499 9.73695C33.1499 11.5782 32.2254 13.2346 30.569 13.9973L31.4473 15.1453L29.6368 16.0621L28.4272 14.4519H28.3887C25.3995 14.4519 23.6353 12.2716 23.6353 9.72924C23.6353 7.18687 25.3995 5.00659 28.3887 5.00659C31.3779 5.00659 33.1499 7.19457 33.1499 9.73695ZM28.3964 12.6029C30.0836 12.6029 31.0004 11.2855 31.0004 9.72924C31.0004 8.173 30.0836 6.85559 28.3964 6.85559C26.6938 6.85559 25.777 8.173 25.7924 9.72924C25.777 11.2932 26.6938 12.6029 28.3964 12.6029ZM36.4781 14.3671C35.0066 14.3671 34.2131 13.4504 34.2131 11.8556V8.04974H36.1853V11.4165C36.1853 12.2562 36.4627 12.7185 37.2023 12.7185C38.0266 12.7185 38.381 12.1792 38.381 11.3548V8.04974H40.3148V14.1977H38.381V13.3194C38.042 13.9742 37.4103 14.3671 36.4781 14.3671ZM44.3748 14.3671C42.5413 14.3671 41.4858 12.9727 41.4858 11.1237C41.4858 9.2824 42.6183 7.88024 44.398 7.88024C45.2916 7.88024 45.985 8.30397 46.3163 8.92801V8.04974H48.25V14.1977H46.3163V13.3271C45.9927 13.9434 45.23 14.3671 44.3748 14.3671ZM44.9373 12.7493C45.9003 12.7493 46.401 12.0251 46.401 11.1314C46.401 10.2531 45.908 9.52123 44.9373 9.52123C44.0359 9.52123 43.4735 10.1992 43.4735 11.1314C43.4735 12.0559 44.0359 12.7493 44.9373 12.7493ZM49.8679 8.04974H51.8171V8.94342C52.1715 8.25775 52.8725 7.88795 53.797 7.88795C55.2839 7.88795 56.0312 8.7277 56.0312 10.3995V14.2054H54.0744V11.0389C54.0744 10.0066 53.7816 9.53664 52.9958 9.53664C52.2177 9.53664 51.8171 10.0451 51.8171 10.9927V14.2054H49.8679V8.04974ZM60.8001 12.6799C61.0389 12.6799 61.2932 12.6645 61.4704 12.6414V14.1977C61.193 14.2516 60.7308 14.2978 60.1761 14.2978C59.2593 14.2978 58.0035 14.0898 58.0035 12.0405V9.59057H57.0405V8.04974H58.0035V6.22385H59.9527V8.04974H61.3394V9.59057H59.9527V11.6322C59.9527 12.5413 60.3225 12.6799 60.8001 12.6799ZM65.0528 14.3903C63.2577 14.3903 62.156 13.512 62.156 12.3487H64.0898C64.0898 12.7724 64.4981 13.0728 65.0913 13.0728C65.5074 13.0728 65.8001 12.8571 65.8001 12.495C65.8001 12.2562 65.6846 12.0482 65.3533 11.9712L63.851 11.5859C62.834 11.3317 62.3101 10.6923 62.3101 9.81399C62.3101 8.66607 63.3117 7.86484 64.9296 7.86484C66.7246 7.86484 67.6645 8.61984 67.6645 9.77547H65.7462C65.7462 9.34403 65.4303 9.0975 64.9064 9.0975C64.4904 9.0975 64.2054 9.30551 64.2054 9.60598C64.2054 9.88333 64.398 10.0682 64.7292 10.153L66.1776 10.5459C67.1175 10.8001 67.7262 11.3779 67.7262 12.2562C67.7339 13.5351 66.7246 14.3903 65.0528 14.3903ZM72.1561 12.6799C72.3949 12.6799 72.6491 12.6645 72.8263 12.6414V14.1977C72.549 14.2516 72.0867 14.2978 71.532 14.2978C70.6152 14.2978 69.3594 14.0898 69.3594 12.0405V9.59057H68.3964V8.04974H69.3594V6.22385H71.3086V8.04974H72.6953V9.59057H71.3086V11.6322C71.3086 12.5413 71.6707 12.6799 72.1561 12.6799ZM76.3933 14.3671C74.5598 14.3671 73.5043 12.9727 73.5043 11.1237C73.5043 9.2824 74.6368 7.88024 76.4165 7.88024C77.3101 7.88024 78.0035 8.30397 78.3348 8.92801V8.04974H80.2685V14.1977H78.3348V13.3271C78.0035 13.9434 77.2408 14.3671 76.3933 14.3671ZM76.948 12.7493C77.9111 12.7493 78.4118 12.0251 78.4118 11.1314C78.4118 10.2531 77.9188 9.52123 76.948 9.52123C76.0466 9.52123 75.4842 10.1992 75.4842 11.1314C75.4842 12.0559 76.0466 12.7493 76.948 12.7493ZM81.8864 8.04974H83.8356V8.94342C84.1052 8.32708 84.7369 7.88795 85.5921 7.88795C86.6861 7.88795 87.2485 8.37331 87.5104 9.02046C87.8417 8.3579 88.5659 7.88795 89.4673 7.88795C91.2238 7.88795 91.6399 9.0975 91.6399 10.3918V14.2054H89.683V10.7462C89.683 9.89103 89.3671 9.53664 88.7662 9.53664C88.1576 9.53664 87.7339 9.88333 87.7339 11.0389V14.2054H85.777V10.7308C85.777 9.87562 85.4688 9.52893 84.8756 9.52893C84.2516 9.52893 83.8356 9.87562 83.8356 11.0312V14.1977H81.8864V8.04974ZM93.173 8.04974H95.1222V8.92801C95.438 8.34249 96.2007 7.88024 97.1175 7.88024C98.797 7.88024 99.9373 9.18225 99.9373 11.1237C99.9373 13.0497 98.7585 14.3671 97.0636 14.3671C96.1622 14.3671 95.4226 13.9049 95.1222 13.3348V16.7554H93.173V8.04974ZM96.5012 12.7493C97.3564 12.7493 97.9496 12.0867 97.9496 11.1314C97.9496 10.1838 97.3487 9.52123 96.5012 9.52123C95.6229 9.52123 95.0297 10.1684 95.0297 11.1314C95.0297 12.0944 95.6383 12.7493 96.5012 12.7493Z" fill="white"/>
</svg>
