<svg width="19" height="25" viewBox="0 0 19 25" fill="none" xmlns="http://www.w3.org/2000/svg">
<g clip-path="url(#clip0_4866_4566)">
<path d="M11.5662 0.394968C11.1519 0.556652 10.5708 1.02149 9.71189 1.89055C8.83274 2.77476 8.32747 3.16381 7.92326 3.26992C7.7161 3.32044 7.66052 3.31034 7.35231 3.19413C6.41252 2.83539 5.52326 3.05265 4.826 3.80044C4.24495 4.43202 3.85084 5.45771 3.85084 6.36718C3.85084 7.08465 3.53758 8.45392 3.14852 9.43413C2.93126 9.98486 2.32495 11.1419 1.81968 11.9705C1.178 13.0215 1.00116 14.0623 1.29421 15.0577C1.40031 15.4215 1.74389 15.9318 2.02179 16.144L2.2441 16.3108H3.47189H4.69968L4.83105 16.1592C4.90179 16.0733 5.02305 15.7954 5.10895 15.5377C5.36158 14.7444 5.43737 14.2796 5.43737 13.5065C5.43737 12.4556 5.36663 12.1625 4.63905 10.187C4.54305 9.91918 4.44705 9.58065 4.43189 9.42907C4.40158 9.18149 4.40663 9.16634 4.47737 9.25728C4.52284 9.31286 4.55821 9.37349 4.55821 9.39876C4.55821 9.41897 4.76031 9.88886 5.00789 10.4345C5.81631 12.2333 5.8921 12.5364 5.89716 13.936C5.89716 14.4767 5.87695 15.1689 5.85168 15.4771C5.81126 16.0076 5.81631 16.0379 5.92242 16.1693L6.02852 16.3108H8.378C10.9649 16.3108 10.8993 16.3209 11.1468 15.9924C11.5308 15.4922 11.7481 14.6484 11.7481 13.6834C11.7481 12.3748 11.3742 11.3289 10.6214 10.5255C9.49463 9.32802 8.79231 8.09013 8.51947 6.83202C8.40831 6.30655 8.40831 5.46781 8.51442 5.05349C8.59526 4.74528 8.84284 4.21476 8.77716 4.4876C8.70642 4.79581 8.69126 5.56886 8.75189 6.0337C8.93379 7.51413 9.50474 8.74697 10.4698 9.75749L10.9498 10.2577L11.2428 9.97476C11.6319 9.60086 11.8492 9.45939 12.5363 9.11581C13.1426 8.81265 13.3397 8.69644 13.5671 8.48928C13.7439 8.32255 13.7439 8.40844 13.5569 8.66613C13.3751 8.9137 13.1527 9.09055 12.5414 9.46949C11.9401 9.83834 11.6218 10.1314 11.4854 10.4447L11.3793 10.6922L11.6319 11.1065C12.1119 11.9099 12.3292 12.6274 12.3746 13.5823C12.4049 14.2948 12.3241 14.9011 12.1119 15.5377C11.9603 15.9874 11.9553 16.0783 12.0866 16.2097C12.1826 16.3057 12.2534 16.3108 14.0016 16.3108H15.8155L15.9721 16.1339C16.1843 15.8914 16.3561 15.5377 16.4925 15.0628C16.5936 14.7192 16.6087 14.5524 16.6087 13.8097C16.6087 12.8598 16.5431 12.5162 16.2247 11.7634C15.6487 10.384 15.4972 9.34823 15.7043 8.12549C15.8256 7.39286 15.8205 6.88255 15.6841 6.62992C15.4769 6.22571 14.9313 5.80128 14.6281 5.80128C14.4159 5.80128 14.3047 5.96297 14.2694 6.3116C14.2441 6.5996 14.2037 6.62992 13.7439 6.68549C13.0214 6.77644 12.3443 6.38739 12.1826 5.79118C12.0513 5.29602 12.4807 4.74023 12.9911 4.74023C13.1376 4.74023 13.4155 4.93223 13.3245 4.97265C13.0668 5.08381 12.9456 5.20507 12.9456 5.34655C12.9456 5.50823 13.0972 5.70023 13.2235 5.70023C13.3094 5.70023 13.37 5.63455 13.5064 5.40718C13.6378 5.18486 13.7995 5.20002 13.8803 5.4476C13.9561 5.66992 14.1178 5.71034 14.234 5.53349C14.33 5.38697 14.2694 5.17981 14.1077 5.09391C13.9915 5.03328 13.9713 4.94234 14.0824 4.94234C14.1228 4.94234 14.2492 4.85139 14.3603 4.74528C14.7342 4.38655 14.618 4.25518 13.7641 4.06823C13.0618 3.91665 12.2988 3.9217 11.9704 4.07834C11.6976 4.21476 11.5662 4.37139 11.4854 4.67455C11.4045 4.9676 11.2125 5.0737 11.0559 4.91202C10.8588 4.72002 11.0003 4.18949 11.3287 3.87118C11.8441 3.37097 12.8092 3.30023 14.3502 3.64886L14.8757 3.76507L15.0222 3.64381C15.3355 3.37602 15.194 3.08802 14.1481 1.83497C13.1022 0.57181 12.7283 0.293915 12.1271 0.293915C11.9401 0.298967 11.7077 0.339389 11.5662 0.394968ZM13.0921 7.01897C13.2689 7.04928 13.5923 7.06444 13.8096 7.05434C14.2037 7.02907 14.2087 7.02907 14.138 7.13518C13.8652 7.54949 12.9506 7.54444 12.5767 7.12507C12.4605 6.99876 12.5111 6.89265 12.6626 6.93307C12.7182 6.94823 12.9153 6.98865 13.0921 7.01897Z" fill="white"/>
<path d="M1.35988 18.1501C1.01125 18.2764 0.788934 18.4633 0.64746 18.7412C0.495881 19.0444 0.480723 19.3122 0.591881 19.585C0.763671 19.9892 1.05167 20.161 1.95609 20.3985C2.60283 20.5703 2.75441 20.6612 2.75441 20.8886C2.75441 21.1766 2.30978 21.3686 1.82978 21.2878C1.5923 21.2473 1.28914 21.0099 1.24367 20.828C1.21335 20.7118 1.19314 20.7067 0.814197 20.7067C0.430197 20.7067 0.415039 20.7118 0.415039 20.828C0.415039 21.0099 0.546407 21.3433 0.697986 21.5404C0.773776 21.6465 0.965776 21.7829 1.16283 21.8789C1.47609 22.0355 1.53167 22.0457 2.03188 22.0457C2.47651 22.0457 2.60283 22.0254 2.81504 21.9294C3.31525 21.697 3.56283 21.3383 3.56283 20.833C3.56283 20.4995 3.48704 20.3177 3.26978 20.0852C3.07272 19.8781 2.79988 19.7619 2.12283 19.5901C1.30935 19.388 1.16788 19.2566 1.45588 18.9838C1.57209 18.8777 1.63272 18.8625 1.98135 18.8625C2.40578 18.8625 2.54725 18.9332 2.64325 19.1758C2.68367 19.2819 2.71904 19.292 3.09293 19.292H3.5022L3.46683 19.1C3.39104 18.6604 3.00704 18.2612 2.53714 18.1299C2.28451 18.0591 1.58725 18.0743 1.35988 18.1501Z" fill="white"/>
<path d="M11.2024 18.1601C10.9245 18.2561 10.6416 18.5037 10.5153 18.7513C10.4294 18.913 10.4142 19.0241 10.4294 19.2869C10.4597 19.8831 10.7224 20.1003 11.7127 20.358C12.4353 20.545 12.5818 20.6157 12.6222 20.7925C12.6626 20.9441 12.6121 21.0401 12.4201 21.1816C12.314 21.2624 12.2028 21.2877 11.9452 21.2877C11.5359 21.2877 11.3035 21.1715 11.1519 20.8936L11.0508 20.7066H10.6618C10.2222 20.7066 10.2273 20.7016 10.3384 21.0805C10.5405 21.7525 11.2125 22.1264 12.1018 22.0557C12.5262 22.0254 12.8698 21.8839 13.1073 21.6464C13.5671 21.1917 13.557 20.4237 13.0921 20.0296C12.8647 19.8376 12.6879 19.7669 11.9957 19.59C11.2782 19.4031 11.2277 19.3778 11.2277 19.1909C11.2277 18.7462 12.3393 18.7007 12.506 19.1403C12.5616 19.2919 12.5666 19.2919 12.9557 19.2919H13.3498V19.1504C13.3447 18.7664 12.9254 18.2915 12.4706 18.1551C12.1574 18.0591 11.4702 18.0641 11.2024 18.1601Z" fill="white"/>
<path d="M5.36658 19.3779C5.36658 20.065 5.39184 20.7673 5.42216 20.9442C5.503 21.404 5.71521 21.7021 6.09921 21.8941C6.38216 22.0355 6.44279 22.0457 6.95816 22.0457C7.43816 22.0457 7.54426 22.0305 7.75142 21.9294C8.03437 21.788 8.30216 21.5 8.39816 21.2271C8.44868 21.0857 8.47395 20.6309 8.48405 19.58L8.50426 18.1299H8.10005H7.69079L7.68573 19.3779C7.68068 20.7623 7.64531 21.0149 7.42805 21.1766C7.2411 21.313 6.81163 21.3484 6.56405 21.2423C6.23563 21.1059 6.21037 20.9795 6.1851 19.4537L6.16489 18.1299H5.76574H5.36658V19.3779Z" fill="white"/>
<path d="M15.6234 19.782C15.2748 20.6915 14.9413 21.5656 14.8807 21.7273L14.7695 22.0203H15.2142H15.6537L15.7447 21.7424L15.8306 21.4645H16.6592H17.4878L17.5838 21.7273L17.6849 21.9951L18.1447 22.0102L18.6095 22.0254L18.5388 21.8587C18.5034 21.7677 18.1447 20.8885 17.7455 19.9083L17.018 18.1298H16.634H16.255L15.6234 19.782ZM17.1544 20.6662C17.1443 20.6915 16.922 20.7067 16.6592 20.7067C16.3965 20.7067 16.1742 20.6915 16.1641 20.6662C16.1438 20.641 16.3257 20.1054 16.6137 19.3424C16.6289 19.297 16.7552 19.5597 16.9068 19.9488C17.0533 20.3227 17.1645 20.646 17.1544 20.6662Z" fill="white"/>
<path d="M0.44531 22.8388C0.46552 22.9045 0.576678 23.2279 0.692888 23.5614C0.900046 24.1424 0.915204 24.1677 1.05668 24.1828C1.16784 24.1929 1.21836 24.1727 1.24363 24.1071C1.26384 24.0565 1.36994 23.7635 1.47605 23.4603C1.58215 23.1521 1.6832 22.8641 1.70341 22.8136C1.73373 22.7428 1.71352 22.7277 1.56699 22.7277H1.3952L1.24868 23.1824C1.16784 23.43 1.08699 23.6372 1.07184 23.6372C1.05163 23.6372 0.970783 23.4401 0.884888 23.1925C0.738362 22.7732 0.728257 22.7529 0.571625 22.7378C0.420046 22.7226 0.409941 22.7277 0.44531 22.8388Z" fill="white"/>
<path d="M2.94141 23.4602V24.1929H3.47193H4.00246V24.0666C4.00246 23.9453 3.99235 23.9402 3.62351 23.9402H3.24456V23.7634V23.5866H3.59825C3.94183 23.5866 3.95193 23.5815 3.95193 23.4602C3.95193 23.339 3.94183 23.3339 3.59825 23.3339H3.24456V23.1823V23.0308H3.62351H4.00246V22.8792V22.7276H3.47193H2.94141V23.4602Z" fill="white"/>
<path d="M5.31604 23.4552V24.1929H5.46762H5.6192V23.7482V23.3087L5.90215 23.7482C6.14972 24.1423 6.20025 24.1929 6.33162 24.1929H6.47815V23.4602V22.7276H6.32657H6.18004L6.16488 23.1571L6.14972 23.5866L5.89709 23.1672C5.66972 22.7983 5.62425 22.7529 5.47772 22.7377L5.31604 22.7226V23.4552Z" fill="white"/>
<path d="M7.70095 22.864C7.71611 22.9903 7.73632 23.0055 7.93337 23.0207L8.14558 23.0358V23.6169V24.1929H8.29716H8.44874V23.6118V23.0308H8.67611C8.89337 23.0308 8.90348 23.0257 8.90348 22.8792V22.7276H8.29211H7.68579L7.70095 22.864Z" fill="white"/>
<path d="M10.1161 23.3542V23.9808L10.2727 24.1121C10.5456 24.3445 11.0811 24.2637 11.2176 23.9656C11.2529 23.8898 11.2782 23.6018 11.2782 23.2835V22.7277H11.1266H10.975V23.2835C10.975 23.814 10.97 23.8393 10.8487 23.9201C10.7578 23.9808 10.6921 23.9909 10.586 23.9555L10.4445 23.905L10.4294 23.3189L10.4142 22.7277H10.2677H10.1161V23.3542Z" fill="white"/>
<path d="M12.5919 23.4602V24.1929H12.7435C12.8951 24.1929 12.8951 24.1929 12.8951 23.9099V23.632L13.1326 23.6472L13.3751 23.6623L13.4155 23.9251C13.4559 24.1878 13.461 24.1929 13.6328 24.1929C13.8096 24.1929 13.8096 24.1929 13.7793 24.0009C13.7591 23.8998 13.7237 23.7381 13.6984 23.6421C13.6732 23.5411 13.6782 23.435 13.7035 23.3794C13.7944 23.2177 13.7591 22.9802 13.6277 22.8539C13.5166 22.7377 13.466 22.7276 13.0467 22.7276H12.5919V23.4602ZM13.4256 23.1823C13.4256 23.2986 13.4054 23.3087 13.1629 23.3238L12.8951 23.339V23.1823V23.0257L13.1629 23.0409C13.4054 23.056 13.4256 23.0661 13.4256 23.1823Z" fill="white"/>
<path d="M15.0676 23.4602V24.1929H15.6234H16.1792V24.0666C16.1792 23.9453 16.1691 23.9402 15.8003 23.9402H15.4213V23.7634V23.5866H15.775C16.1186 23.5866 16.1287 23.5815 16.1287 23.4602C16.1287 23.339 16.1186 23.3339 15.775 23.3339H15.4213V23.1823V23.0358L15.7902 23.0207C16.1438 23.0055 16.1539 23.0005 16.1691 22.864L16.1843 22.7276H15.6285H15.0676V23.4602Z" fill="white"/>
<path d="M17.599 22.8591C17.2958 23.1117 17.4272 23.4351 17.887 23.5665C18.2407 23.6675 18.3468 23.7484 18.2508 23.8595C18.1598 23.9757 17.882 23.9606 17.7708 23.8393C17.6647 23.7181 17.3918 23.7029 17.3918 23.8141C17.3918 23.8545 17.4575 23.9606 17.5384 24.0515C17.6798 24.2082 17.7051 24.2183 18.0234 24.2183C18.3316 24.2183 18.3721 24.2031 18.4832 24.0768C18.6348 23.8999 18.6449 23.6271 18.5085 23.4907C18.4529 23.4351 18.3114 23.3644 18.1902 23.3341C17.7203 23.2077 17.6293 23.1218 17.8718 23.0309C18.0083 22.9804 18.2508 23.041 18.2508 23.1319C18.2508 23.1572 18.3316 23.1825 18.4226 23.1825C18.5944 23.1825 18.5994 23.1825 18.5438 23.0309C18.4681 22.8136 18.3215 22.7277 18.0184 22.7277C17.8062 22.7277 17.7203 22.753 17.599 22.8591Z" fill="white"/>
</g>
<defs>
<clipPath id="clip0_4866_4566">
<rect width="18.24" height="24" fill="white" transform="translate(0.415039 0.293945)"/>
</clipPath>
</defs>
</svg>
