<svg width="470" height="100" viewBox="0 0 470 100" fill="none" xmlns="http://www.w3.org/2000/svg">
<rect x="0.604382" y="1.38441" width="468.198" height="97.3187" rx="3.84615" fill="#12121A"/>
<rect x="0.604382" y="1.38441" width="468.198" height="97.3187" rx="3.84615" stroke="#1E1E24" stroke-width="1.0989"/>
<path d="M241.997 9.67817C240.588 10.2283 238.61 11.81 235.688 14.767C232.696 17.7756 230.977 19.0994 229.602 19.4604C228.897 19.6323 228.708 19.5979 227.659 19.2025C224.461 17.9819 221.436 18.7211 219.063 21.2656C217.086 23.4146 215.745 26.9045 215.745 29.9991C215.745 32.4403 214.679 37.0994 213.355 40.4346C212.616 42.3085 210.553 46.2455 208.834 49.065C206.651 52.6409 206.049 56.1825 207.046 59.5693C207.407 60.8071 208.576 62.5435 209.522 63.2656L210.278 63.8329H214.456H218.633L219.08 63.3171C219.321 63.0249 219.734 62.0793 220.026 61.2025C220.886 58.5034 221.143 56.9217 221.143 54.2913C221.143 50.7154 220.903 49.7183 218.427 42.9962C218.1 42.085 217.774 40.9332 217.722 40.4174C217.619 39.575 217.636 39.5234 217.877 39.8329C218.032 40.022 218.152 40.2283 218.152 40.3143C218.152 40.383 218.84 41.9819 219.682 43.8386C222.433 49.959 222.691 50.9905 222.708 55.7527C222.708 57.5922 222.639 59.9475 222.553 60.9962C222.416 62.8014 222.433 62.9045 222.794 63.3515L223.155 63.8329H231.149C239.951 63.8329 239.728 63.8673 240.57 62.7498C241.877 61.0478 242.616 58.1767 242.616 54.8931C242.616 50.4403 241.344 46.8816 238.782 44.1481C234.949 40.0736 232.559 35.8615 231.631 31.5807C231.252 29.7928 231.252 26.9389 231.613 25.5292C231.888 24.4805 232.731 22.6753 232.507 23.6037C232.267 24.6524 232.215 27.2828 232.421 28.8644C233.04 33.9017 234.983 38.0965 238.267 41.5349L239.9 43.2369L240.897 42.2742C242.221 41.002 242.96 40.5206 245.298 39.3515C247.361 38.32 248.032 37.9246 248.805 37.2197C249.407 36.6524 249.407 36.9446 248.771 37.8214C248.152 38.6638 247.396 39.2656 245.315 40.555C243.27 41.81 242.186 42.8071 241.722 43.873L241.361 44.7154L242.221 46.1252C243.854 48.8587 244.593 51.2999 244.748 54.5492C244.851 56.9733 244.576 59.0363 243.854 61.2025C243.338 62.7326 243.321 63.0421 243.768 63.4891C244.095 63.8157 244.335 63.8329 250.284 63.8329H256.456L256.989 63.2312C257.711 62.406 258.295 61.2025 258.759 59.5865C259.103 58.4174 259.155 57.8501 259.155 55.3229C259.155 52.0908 258.931 50.9217 257.848 48.3601C255.888 43.6667 255.373 40.1424 256.078 35.9819C256.49 33.4891 256.473 31.7527 256.009 30.8931C255.304 29.5177 253.447 28.0736 252.416 28.0736C251.694 28.0736 251.315 28.6237 251.195 29.81C251.109 30.7899 250.972 30.8931 249.407 31.0822C246.949 31.3916 244.645 30.0679 244.095 28.0392C243.648 26.3544 245.109 24.4633 246.845 24.4633C247.344 24.4633 248.29 25.1166 247.98 25.2541C247.103 25.6323 246.691 26.0449 246.691 26.5263C246.691 27.0765 247.206 27.7297 247.636 27.7297C247.929 27.7297 248.135 27.5062 248.599 26.7326C249.046 25.9762 249.596 26.0277 249.871 26.8701C250.129 27.6266 250.679 27.7641 251.075 27.1624C251.401 26.6638 251.195 25.959 250.645 25.6667C250.249 25.4604 250.181 25.1509 250.559 25.1509C250.696 25.1509 251.126 24.8415 251.504 24.4805C252.777 23.2598 252.381 22.8128 249.476 22.1767C247.086 21.661 244.49 21.6782 243.373 22.2111C242.444 22.6753 241.997 23.2083 241.722 24.2398C241.447 25.2369 240.794 25.5979 240.261 25.0478C239.59 24.3945 240.072 22.5893 241.189 21.5062C242.943 19.8042 246.227 19.5636 251.47 20.7498L253.258 21.1452L253.757 20.7326C254.823 19.8214 254.341 18.8415 250.782 14.5779C247.224 10.2799 245.951 9.33433 243.906 9.33433C243.27 9.35152 242.479 9.48906 241.997 9.67817ZM247.189 32.2169C247.791 32.32 248.891 32.3716 249.631 32.3372C250.972 32.2512 250.989 32.2512 250.748 32.6123C249.82 34.022 246.708 34.0048 245.436 32.5779C245.04 32.1481 245.212 31.7871 245.728 31.9246C245.917 31.9762 246.588 32.1137 247.189 32.2169Z" fill="white"/>
<path d="M207.27 70.0907C206.084 70.5205 205.327 71.1566 204.846 72.1022C204.33 73.1337 204.278 74.0448 204.657 74.9732C205.241 76.3486 206.221 76.9331 209.298 77.7411C211.499 78.3256 212.015 78.6351 212.015 79.4087C212.015 80.3887 210.502 81.042 208.869 80.7669C208.061 80.6294 207.029 79.8213 206.874 79.2024C206.771 78.807 206.702 78.7898 205.413 78.7898C204.107 78.7898 204.055 78.807 204.055 79.2024C204.055 79.8213 204.502 80.956 205.018 81.6265C205.276 81.9875 205.929 82.4517 206.599 82.7784C207.665 83.3113 207.854 83.3457 209.556 83.3457C211.069 83.3457 211.499 83.2769 212.221 82.9503C213.923 82.1595 214.766 80.9388 214.766 79.2196C214.766 78.085 214.508 77.466 213.768 76.6752C213.098 75.9703 212.17 75.5749 209.866 74.9904C207.098 74.3027 206.617 73.8557 207.596 72.9274C207.992 72.5663 208.198 72.5148 209.384 72.5148C210.829 72.5148 211.31 72.7554 211.637 73.5807C211.774 73.9417 211.894 73.9761 213.167 73.9761H214.559L214.439 73.3228C214.181 71.8271 212.874 70.4689 211.276 70.0219C210.416 69.7812 208.043 69.8328 207.27 70.0907Z" fill="white"/>
<path d="M240.76 70.1232C239.814 70.4499 238.851 71.2923 238.422 72.1347C238.129 72.6848 238.078 73.0631 238.129 73.957C238.232 75.9857 239.126 76.725 242.496 77.6017C244.954 78.2379 245.453 78.4785 245.591 79.0803C245.728 79.596 245.556 79.9227 244.903 80.404C244.542 80.6791 244.164 80.7651 243.287 80.7651C241.894 80.7651 241.103 80.3697 240.588 79.4241L240.244 78.788H238.92C237.424 78.788 237.442 78.7708 237.82 80.0602C238.507 82.3467 240.794 83.6189 243.82 83.3783C245.264 83.2751 246.433 82.7937 247.241 81.9857C248.805 80.4384 248.771 77.8252 247.189 76.4843C246.416 75.831 245.814 75.5903 243.459 74.9886C241.018 74.3525 240.846 74.2665 240.846 73.6304C240.846 72.1175 244.628 71.9628 245.195 73.4585C245.384 73.9742 245.401 73.9742 246.725 73.9742H248.066V73.4929C248.049 72.1863 246.622 70.5702 245.075 70.106C244.009 69.7794 241.671 69.7966 240.76 70.1232Z" fill="white"/>
<path d="M220.903 74.2683C220.903 76.6064 220.989 78.9961 221.092 79.5979C221.367 81.1623 222.089 82.1766 223.396 82.8299C224.358 83.3113 224.565 83.3457 226.318 83.3457C227.952 83.3457 228.313 83.2941 229.017 82.9503C229.98 82.4689 230.891 81.489 231.218 80.5606C231.39 80.0792 231.476 78.532 231.51 74.956L231.579 70.0219H230.204H228.811L228.794 74.2683C228.777 78.9789 228.656 79.8385 227.917 80.3887C227.281 80.8529 225.82 80.9732 224.977 80.6122C223.86 80.148 223.774 79.7182 223.688 74.5262L223.619 70.0219H222.261H220.903V74.2683Z" fill="white"/>
<path d="M255.802 75.6422C254.616 78.7367 253.481 81.7109 253.275 82.2611L252.897 83.2582H254.41H255.906L256.215 82.3126L256.507 81.3671H259.327H262.146L262.473 82.2611L262.817 83.1722L264.381 83.2238L265.963 83.2754L265.722 82.7081C265.602 82.3986 264.381 79.4072 263.023 76.072L260.547 70.0204H259.241H257.951L255.802 75.6422ZM261.012 78.6507C260.977 78.7367 260.221 78.7883 259.327 78.7883C258.433 78.7883 257.676 78.7367 257.642 78.6507C257.573 78.5648 258.192 76.7424 259.172 74.1465C259.224 73.9917 259.653 74.8857 260.169 76.2095C260.668 77.4817 261.046 78.582 261.012 78.6507Z" fill="white"/>
<path d="M204.158 86.0436C204.227 86.2671 204.605 87.3673 205.001 88.502C205.706 90.4791 205.757 90.5651 206.239 90.6166C206.617 90.651 206.789 90.5822 206.875 90.3587C206.943 90.1868 207.304 89.1897 207.665 88.1582C208.027 87.1095 208.37 86.1295 208.439 85.9576C208.542 85.7169 208.473 85.6653 207.975 85.6653H207.39L206.892 87.2126C206.617 88.055 206.342 88.7599 206.29 88.7599C206.221 88.7599 205.946 88.0894 205.654 87.247C205.155 85.8201 205.121 85.7513 204.588 85.6997C204.072 85.6481 204.038 85.6653 204.158 86.0436Z" fill="white"/>
<path d="M212.651 88.1595V90.6523H214.456H216.261V90.2225C216.261 89.8099 216.227 89.7927 214.972 89.7927H213.683V89.191V88.5893H214.886C216.055 88.5893 216.09 88.5721 216.09 88.1595C216.09 87.7469 216.055 87.7297 214.886 87.7297H213.683V87.2139V86.6982H214.972H216.261V86.1824V85.6667H214.456H212.651V88.1595Z" fill="white"/>
<path d="M220.731 88.1423V90.6523H221.247H221.763V89.1394V87.6437L222.726 89.1394C223.568 90.4804 223.74 90.6523 224.187 90.6523H224.686V88.1595V85.6667H224.17H223.671L223.62 87.128L223.568 88.5893L222.709 87.1624C221.935 85.9074 221.78 85.7526 221.282 85.7011L220.731 85.6495V88.1423Z" fill="white"/>
<path d="M228.846 86.1309C228.897 86.5607 228.966 86.6122 229.637 86.6638L230.359 86.7154V88.6925V90.6523H230.874H231.39V88.6753V86.6982H232.164C232.903 86.6982 232.937 86.681 232.937 86.1824V85.6667H230.857H228.794L228.846 86.1309Z" fill="white"/>
<path d="M237.064 87.7978V89.9296L237.597 90.3766C238.525 91.1674 240.348 90.8924 240.812 89.8781C240.932 89.6202 241.018 88.6402 241.018 87.5571V85.666H240.502H239.987V87.5571C239.987 89.3623 239.969 89.4483 239.557 89.7233C239.247 89.9296 239.024 89.964 238.663 89.8437L238.181 89.6717L238.13 87.6775L238.078 85.666H237.58H237.064V87.7978Z" fill="white"/>
<path d="M245.487 88.1595V90.6523H246.003C246.519 90.6523 246.519 90.6523 246.519 89.6896V88.744L247.327 88.7956L248.152 88.8472L248.29 89.7412C248.427 90.6352 248.444 90.6523 249.029 90.6523C249.631 90.6523 249.631 90.6523 249.527 89.999C249.459 89.6552 249.338 89.1051 249.252 88.7784C249.166 88.4346 249.184 88.0735 249.27 87.8844C249.579 87.3343 249.459 86.5263 249.012 86.0965C248.633 85.7011 248.462 85.6667 247.035 85.6667H245.487V88.1595ZM248.324 87.2139C248.324 87.6094 248.255 87.6437 247.43 87.6953L246.519 87.7469V87.2139V86.681L247.43 86.7326C248.255 86.7841 248.324 86.8185 248.324 87.2139Z" fill="white"/>
<path d="M253.911 88.1595V90.6523H255.802H257.693V90.2225C257.693 89.8099 257.659 89.7927 256.404 89.7927H255.115V89.191V88.5893H256.318C257.487 88.5893 257.521 88.5721 257.521 88.1595C257.521 87.7469 257.487 87.7297 256.318 87.7297H255.115V87.2139V86.7154L256.37 86.6638C257.573 86.6122 257.607 86.595 257.659 86.1309L257.711 85.6667H255.819H253.911V88.1595Z" fill="white"/>
<path d="M262.524 86.1136C261.493 86.9732 261.94 88.0735 263.504 88.5205C264.708 88.8644 265.069 89.1394 264.742 89.5177C264.433 89.9131 263.487 89.8615 263.109 89.4489C262.748 89.0363 261.82 88.9847 261.82 89.3629C261.82 89.5005 262.043 89.8615 262.318 90.1709C262.8 90.7039 262.885 90.7383 263.969 90.7383C265.017 90.7383 265.155 90.6867 265.533 90.2569C266.049 89.6552 266.083 88.7268 265.619 88.2626C265.43 88.0735 264.949 87.8328 264.536 87.7297C262.937 87.2999 262.628 87.0076 263.453 86.6982C263.917 86.5262 264.742 86.7326 264.742 87.042C264.742 87.128 265.017 87.2139 265.327 87.2139C265.911 87.2139 265.928 87.2139 265.739 86.6982C265.481 85.9589 264.983 85.6666 263.951 85.6666C263.229 85.6666 262.937 85.7526 262.524 86.1136Z" fill="white"/>
</svg>
