<svg width="16" height="17" viewBox="0 0 16 17" fill="none" xmlns="http://www.w3.org/2000/svg">
<path d="M10.5665 0.394968C10.1521 0.556652 9.57108 1.02149 8.71214 1.89055C7.83298 2.77476 7.32772 3.16381 6.92351 3.26992C6.71635 3.32044 6.66077 3.31034 6.35256 3.19413C5.41277 2.83539 4.52351 3.05265 3.82624 3.80044C3.24519 4.43202 2.85108 5.45771 2.85108 6.36718C2.85108 7.08465 2.53782 8.45392 2.14877 9.43413C1.93151 9.98486 1.32519 11.1419 0.819927 11.9705C0.178243 13.0215 0.00140052 14.0623 0.294453 15.0577C0.400558 15.4215 0.744137 15.9318 1.02203 16.144L1.24435 16.3108H2.47214H3.69993L3.8313 16.1592C3.90203 16.0733 4.0233 15.7954 4.10919 15.5377C4.36182 14.7444 4.43761 14.2796 4.43761 13.5065C4.43761 12.4556 4.36687 12.1625 3.6393 10.187C3.5433 9.91918 3.4473 9.58065 3.43214 9.42907C3.40182 9.18149 3.40687 9.16634 3.47761 9.25728C3.52308 9.31286 3.55845 9.37349 3.55845 9.39876C3.55845 9.41897 3.76056 9.88886 4.00814 10.4345C4.81656 12.2333 4.89235 12.5364 4.8974 13.936C4.8974 14.4767 4.87719 15.1689 4.85193 15.4771C4.81151 16.0076 4.81656 16.0379 4.92266 16.1693L5.02877 16.3108H7.37824C9.96519 16.3108 9.89951 16.3209 10.1471 15.9924C10.5311 15.4922 10.7483 14.6484 10.7483 13.6834C10.7483 12.3748 10.3745 11.3289 9.62161 10.5255C8.49487 9.32802 7.79256 8.09013 7.51972 6.83202C7.40856 6.30655 7.40856 5.46781 7.51466 5.05349C7.59551 4.74528 7.84308 4.21476 7.7774 4.4876C7.70666 4.79581 7.69151 5.56886 7.75214 6.0337C7.93403 7.51413 8.50498 8.74697 9.47003 9.75749L9.95003 10.2577L10.2431 9.97476C10.6321 9.60086 10.8494 9.45939 11.5366 9.11581C12.1429 8.81265 12.3399 8.69644 12.5673 8.48928C12.7441 8.32255 12.7441 8.40844 12.5572 8.66613C12.3753 8.9137 12.153 9.09055 11.5416 9.46949C10.9403 9.83834 10.622 10.1314 10.4856 10.4447L10.3795 10.6922L10.6321 11.1065C11.1121 11.9099 11.3294 12.6274 11.3749 13.5823C11.4052 14.2948 11.3243 14.9011 11.1121 15.5377C10.9606 15.9874 10.9555 16.0783 11.0869 16.2097C11.1829 16.3057 11.2536 16.3108 13.0018 16.3108H14.8157L14.9723 16.1339C15.1846 15.8914 15.3563 15.5377 15.4928 15.0628C15.5938 14.7192 15.609 14.5524 15.609 13.8097C15.609 12.8598 15.5433 12.5162 15.225 11.7634C14.649 10.384 14.4974 9.34823 14.7046 8.12549C14.8258 7.39286 14.8208 6.88255 14.6843 6.62992C14.4772 6.22571 13.9315 5.80128 13.6283 5.80128C13.4161 5.80128 13.305 5.96297 13.2696 6.3116C13.2443 6.5996 13.2039 6.62992 12.7441 6.68549C12.0216 6.77644 11.3446 6.38739 11.1829 5.79118C11.0515 5.29602 11.481 4.74023 11.9913 4.74023C12.1378 4.74023 12.4157 4.93223 12.3248 4.97265C12.0671 5.08381 11.9458 5.20507 11.9458 5.34655C11.9458 5.50823 12.0974 5.70023 12.2237 5.70023C12.3096 5.70023 12.3702 5.63455 12.5067 5.40718C12.638 5.18486 12.7997 5.20002 12.8806 5.4476C12.9563 5.66992 13.118 5.71034 13.2342 5.53349C13.3302 5.38697 13.2696 5.17981 13.1079 5.09391C12.9917 5.03328 12.9715 4.94234 13.0827 4.94234C13.1231 4.94234 13.2494 4.85139 13.3606 4.74528C13.7345 4.38655 13.6182 4.25518 12.7643 4.06823C12.062 3.91665 11.2991 3.9217 10.9707 4.07834C10.6978 4.21476 10.5665 4.37139 10.4856 4.67455C10.4048 4.9676 10.2128 5.0737 10.0561 4.91202C9.85909 4.72002 10.0006 4.18949 10.329 3.87118C10.8443 3.37097 11.8094 3.30023 13.3505 3.64886L13.8759 3.76507L14.0225 3.64381C14.3357 3.37602 14.1942 3.08802 13.1483 1.83497C12.1025 0.57181 11.7286 0.293915 11.1273 0.293915C10.9403 0.298967 10.7079 0.339389 10.5665 0.394968ZM12.0923 7.01897C12.2692 7.04928 12.5926 7.06444 12.8098 7.05434C13.2039 7.02907 13.209 7.02907 13.1382 7.13518C12.8654 7.54949 11.9509 7.54444 11.577 7.12507C11.4608 6.99876 11.5113 6.89265 11.6629 6.93307C11.7185 6.94823 11.9155 6.98865 12.0923 7.01897Z" fill="white"/>
</svg>
