<svg width="32" height="32" viewBox="0 0 32 32" fill="none" xmlns="http://www.w3.org/2000/svg">
<rect width="32" height="32" rx="16" fill="#F43B3A"/>
<circle cx="16.0159" cy="15.984" r="14.2568" stroke="white" stroke-width="0.833501"/>
<path d="M20.6667 18.5885C20.6667 19.5565 20.297 20.3689 19.5575 21.0257C18.8237 21.6768 17.8849 22.0571 16.741 22.1666V23.3333H15.5364V22.1666C14.7449 22.0974 13.9736 21.8958 13.2226 21.5616C12.4773 21.2274 11.8476 20.8039 11.3334 20.2911L12.538 18.6058C12.9481 18.9803 13.4161 19.3001 13.9419 19.5651C14.4676 19.8302 14.9991 20.0001 15.5364 20.075V16.9637C14.9876 16.8139 14.4936 16.6352 14.0545 16.4278C13.6212 16.2146 13.2283 15.9611 12.8759 15.6673C12.5235 15.3734 12.252 15.0248 12.0613 14.6215C11.8707 14.2182 11.7753 13.7774 11.7753 13.2992C11.7753 12.36 12.1162 11.5793 12.7979 10.957C13.4854 10.329 14.3983 9.9602 15.5364 9.85072V8.66667H16.741V9.83344C17.44 9.90258 18.0813 10.0697 18.6648 10.3347C19.2541 10.5998 19.7423 10.9282 20.1294 11.32L18.9942 12.9967C18.74 12.7431 18.4106 12.5213 18.0062 12.3312C17.6018 12.1353 17.1801 12.0028 16.741 11.9336V14.9067C17.053 14.9874 17.3534 15.0796 17.6423 15.1833C17.9369 15.2812 18.2778 15.4339 18.6648 15.6413C19.0519 15.8488 19.3841 16.0792 19.6614 16.3327C19.9388 16.5805 20.1756 16.9032 20.3721 17.3007C20.5685 17.6925 20.6667 18.1218 20.6667 18.5885ZM14.1498 13.23C14.1498 13.7947 14.612 14.2499 15.5364 14.5956V11.9509C15.1147 12.0316 14.7767 12.1871 14.5225 12.4176C14.2741 12.6423 14.1498 12.9131 14.1498 13.23ZM16.741 20.0578C17.1974 19.9886 17.5643 19.8359 17.8416 19.5997C18.1247 19.3577 18.2662 19.0523 18.2662 18.6836C18.2662 18.3436 18.1276 18.0642 17.8502 17.8452C17.5787 17.6263 17.209 17.439 16.741 17.2834V20.0578Z" fill="white"/>
</svg>
