<svg width="305" height="341" viewBox="0 0 305 341" fill="none" xmlns="http://www.w3.org/2000/svg">
<path d="M219.203 59.6544C210.702 54.1841 199.307 57.3975 194.923 66.4562L160.156 138.246C159.601 139.402 159.833 140.823 160.741 141.749L161.909 142.936C162.845 143.861 164.245 144.091 165.417 143.513L237.699 108.993C246.814 104.624 250.03 93.3081 244.537 84.8586C237.963 74.7613 229.316 66.1673 219.148 59.6544H219.207H219.203ZM185.808 123.748L177.862 127.106C176.985 127.481 176.139 126.614 176.489 125.747L179.851 117.876C180.61 116.111 182.391 115.041 184.29 115.154C186.571 115.299 188.38 117.091 188.525 119.352C188.643 121.261 187.562 123.026 185.777 123.78L185.808 123.752V123.748Z" fill="url(#paint0_linear_753_28)"/>
<path d="M167.08 147.387C165.853 147.82 165.008 148.98 165.008 150.28V151.928C165.008 153.228 165.826 154.388 167.08 154.821L242.783 181.181C252.338 184.508 262.679 178.752 264.814 168.94C267.354 157.191 267.354 145.04 264.814 133.291C262.683 123.452 252.369 117.724 242.783 121.05L167.08 147.41V147.383V147.387ZM200.534 153.986C199.279 155.403 197.231 155.895 195.449 155.173L187.444 151.959C186.567 151.612 186.567 150.397 187.444 150.022L195.449 146.809C197.231 146.087 199.275 146.578 200.534 147.996C202.051 149.702 202.051 152.248 200.534 153.927V153.986Z" fill="url(#paint1_linear_753_28)"/>
<path d="M237.758 193.25L165.476 158.73C164.308 158.179 162.877 158.409 161.968 159.307L160.801 160.494C159.865 161.42 159.633 162.81 160.215 163.997L194.982 235.787C199.366 244.845 210.757 248.055 219.262 242.589C229.43 236.08 238.077 227.486 244.651 217.384C250.144 208.935 246.932 197.623 237.813 193.254H237.754L237.758 193.25ZM188.525 182.719C188.38 184.976 186.567 186.768 184.29 186.913C182.364 187.03 180.579 185.929 179.851 184.191L176.489 176.32C176.108 175.453 176.985 174.582 177.862 174.961L185.808 178.319C187.562 179.073 188.671 180.837 188.553 182.747L188.525 182.719Z" fill="url(#paint2_linear_753_28)"/>
<path d="M156.243 165.59C155.807 164.376 154.635 163.536 153.322 163.536H151.659C150.345 163.536 149.173 164.344 148.737 165.59L122.208 240.765C118.846 250.257 124.634 260.526 134.538 262.639C146.37 265.184 158.614 265.184 170.446 262.639C180.351 260.526 186.135 250.253 182.777 240.765L156.247 165.59H156.243ZM155.394 198.806C153.699 200.31 151.128 200.31 149.405 198.806C147.974 197.533 147.479 195.507 148.206 193.742L151.419 185.816C151.769 184.949 152.995 184.949 153.345 185.816L156.558 193.742C157.289 195.507 156.794 197.533 155.359 198.806H155.386H155.394Z" fill="url(#paint3_linear_753_28)"/>
<path d="M137.924 154.825C139.151 154.392 139.996 153.232 139.996 151.932V150.284C139.996 148.984 139.178 147.824 137.924 147.391L62.2245 121.031C52.6697 117.704 42.3285 123.463 40.1934 133.272C37.6533 145.021 37.6533 157.172 40.1934 168.921C42.3245 178.76 52.6382 184.488 62.2245 181.161L137.924 154.802V154.829V154.825ZM104.266 148.054C105.524 146.637 107.569 146.145 109.35 146.867L117.328 150.081C118.205 150.428 118.205 151.643 117.328 152.021L109.35 155.235C107.569 155.957 105.524 155.465 104.266 154.048C102.748 152.342 102.748 149.796 104.266 148.117V148.058V148.054Z" fill="url(#paint4_linear_753_28)"/>
<path d="M144.235 160.494L143.067 159.307C142.131 158.382 140.731 158.152 139.56 158.73L67.2771 193.25C58.1627 197.592 54.9463 208.935 60.4393 217.381C67.0137 227.478 75.6602 236.072 85.8284 242.585C94.3295 248.055 105.724 244.842 110.109 235.783L144.848 163.993C145.434 162.806 145.171 161.416 144.262 160.491H144.235V160.494ZM128.31 176.292L124.948 184.164C124.189 185.929 122.408 186.999 120.509 186.886C118.228 186.741 116.42 184.949 116.274 182.692C116.156 180.783 117.237 179.018 119.019 178.264L126.965 174.906C127.842 174.531 128.688 175.398 128.338 176.265L128.31 176.292Z" fill="url(#paint5_linear_753_28)"/>
<path d="M304.669 151.237V151.108C304.669 130.71 300.647 110.922 292.708 92.2851C285.041 74.2888 274.07 58.1316 260.1 44.2586C246.129 30.3817 229.859 19.4878 211.736 11.8778C192.968 3.9944 173.037 0 152.5 0C131.963 0 112.036 3.9944 93.2679 11.8778C75.1452 19.4878 58.8706 30.3817 44.9001 44.2586C30.9296 58.1316 19.9592 74.2888 12.2957 92.2851C4.35695 110.922 0.330553 130.71 0.330553 151.108V151.237L0.259779 152.498C-0.271045 161.83 0.012059 171.189 1.10516 180.47L1.57701 184.48L2.56394 201.063C3.1852 211.481 8.35583 221.109 16.7153 227.431C21.3472 232.019 24.5597 237.829 25.9713 244.174L27.7958 252.37C29.7696 261.229 37.0164 267.976 46.0443 269.358C53.7118 270.534 60.1996 275.606 63.1486 282.732L64.0962 285.024L65.6848 288.378C71.17 299.967 83.717 306.554 96.449 304.531L99.1306 304.105C112.051 302.056 124.484 309.904 128.094 322.395C131.574 334.432 141.966 340.789 152.5 341C163.034 340.789 173.426 334.432 176.906 322.395C180.516 309.904 192.949 302.056 205.869 304.105L208.551 304.531C221.283 306.554 233.83 299.967 239.315 288.378L240.904 285.024L241.851 282.732C244.8 275.606 251.288 270.534 258.956 269.358C267.984 267.976 275.23 261.229 277.204 252.37L279.029 244.174C280.44 237.829 283.653 232.019 288.285 227.431C296.644 221.109 301.815 211.481 302.436 201.063L303.423 184.48L303.895 180.47C304.988 171.189 305.271 161.83 304.74 152.498L304.669 151.237ZM243.42 241.39C219.132 265.505 186.846 278.788 152.5 278.788C118.154 278.788 85.8679 265.505 61.5837 241.39C37.2995 217.275 23.9227 185.211 23.9227 151.108C23.9227 117.005 37.2995 84.9367 61.5837 60.8219C85.8679 36.7071 118.158 23.4276 152.5 23.4276C186.842 23.4276 219.132 36.7071 243.42 60.8219C267.704 84.9367 281.077 117.001 281.077 151.108C281.077 185.214 267.704 217.275 243.42 241.39Z" fill="url(#paint6_linear_753_28)"/>
<path d="M148.76 136.626C149.197 137.84 150.369 138.68 151.682 138.68H153.349C154.662 138.68 155.834 137.871 156.271 136.626L182.8 61.4505C186.162 51.9585 180.374 41.6894 170.469 39.577C158.638 37.0585 146.393 37.0585 134.562 39.577C124.657 41.6894 118.873 51.9624 122.231 61.4505L148.76 136.626ZM149.405 103.234C151.1 101.73 153.672 101.73 155.394 103.234C156.825 104.479 157.321 106.533 156.593 108.298L153.381 116.228C153.031 117.095 151.804 117.095 151.454 116.228L148.241 108.298C147.51 106.533 148.009 104.506 149.441 103.234H149.413H149.405Z" fill="url(#paint7_linear_753_28)"/>
<path d="M67.2456 108.989L139.528 143.509C140.696 144.087 142.127 143.83 143.035 142.932L144.203 141.745C145.139 140.819 145.371 139.429 144.789 138.242L110.05 66.4523C105.665 57.3936 94.2744 54.1841 85.7694 59.6505C75.6012 66.1595 66.9547 74.7535 60.3803 84.8547C54.8873 93.3042 58.0997 104.62 67.2181 108.989H67.2456ZM116.243 119.321C116.388 117.064 118.201 115.268 120.477 115.123C122.404 115.006 124.189 116.107 124.917 117.845L128.279 125.716C128.66 126.583 127.783 127.454 126.906 127.075L118.96 123.717C117.206 122.964 116.097 121.199 116.215 119.289L116.243 119.321Z" fill="url(#paint8_linear_753_28)"/>
<defs>
<linearGradient id="paint0_linear_753_28" x1="344.65" y1="-61.38" x2="-163.522" y2="74.7728" gradientUnits="userSpaceOnUse">
<stop stop-color="#D188FF"/>
<stop offset="1" stop-color="#831FD8"/>
</linearGradient>
<linearGradient id="paint1_linear_753_28" x1="344.65" y1="-61.38" x2="-163.522" y2="74.7728" gradientUnits="userSpaceOnUse">
<stop stop-color="#D188FF"/>
<stop offset="1" stop-color="#831FD8"/>
</linearGradient>
<linearGradient id="paint2_linear_753_28" x1="344.65" y1="-61.38" x2="-163.522" y2="74.7728" gradientUnits="userSpaceOnUse">
<stop stop-color="#D188FF"/>
<stop offset="1" stop-color="#831FD8"/>
</linearGradient>
<linearGradient id="paint3_linear_753_28" x1="344.65" y1="-61.38" x2="-163.522" y2="74.7728" gradientUnits="userSpaceOnUse">
<stop stop-color="#D188FF"/>
<stop offset="1" stop-color="#831FD8"/>
</linearGradient>
<linearGradient id="paint4_linear_753_28" x1="344.65" y1="-61.38" x2="-163.522" y2="74.7728" gradientUnits="userSpaceOnUse">
<stop stop-color="#D188FF"/>
<stop offset="1" stop-color="#831FD8"/>
</linearGradient>
<linearGradient id="paint5_linear_753_28" x1="344.65" y1="-61.38" x2="-163.522" y2="74.7728" gradientUnits="userSpaceOnUse">
<stop stop-color="#D188FF"/>
<stop offset="1" stop-color="#831FD8"/>
</linearGradient>
<linearGradient id="paint6_linear_753_28" x1="344.65" y1="-61.38" x2="-163.522" y2="74.7728" gradientUnits="userSpaceOnUse">
<stop stop-color="#D188FF"/>
<stop offset="1" stop-color="#831FD8"/>
</linearGradient>
<linearGradient id="paint7_linear_753_28" x1="344.65" y1="-61.38" x2="-163.522" y2="74.7728" gradientUnits="userSpaceOnUse">
<stop stop-color="#D188FF"/>
<stop offset="1" stop-color="#831FD8"/>
</linearGradient>
<linearGradient id="paint8_linear_753_28" x1="344.65" y1="-61.38" x2="-163.522" y2="74.7728" gradientUnits="userSpaceOnUse">
<stop stop-color="#D188FF"/>
<stop offset="1" stop-color="#831FD8"/>
</linearGradient>
</defs>
</svg>
