<svg width="384" height="384" viewBox="0 0 384 384" fill="none" xmlns="http://www.w3.org/2000/svg">
<g clip-path="url(#clip0_1653_27776)">
<g clip-path="url(#clip1_1653_27776)">
<circle cx="192" cy="192" r="192" fill="#131313"/>
<path d="M260.47 271.892H123.53M228.369 158.967L198.656 115.615C195.451 110.938 188.549 110.938 185.344 115.615L155.631 158.967C153.053 162.728 147.873 163.608 144.199 160.908L117.846 141.549C111.862 137.153 103.619 142.491 105.181 149.75L122.158 228.635C122.958 232.352 126.245 235.006 130.047 235.006H253.953C257.755 235.006 261.041 232.352 261.841 228.635L278.819 149.75C280.381 142.491 272.137 137.153 266.153 141.549L239.801 160.908C236.126 163.608 230.946 162.728 228.369 158.967Z" stroke="#FFC100" stroke-width="17.9758" stroke-linecap="round"/>
</g>
</g>
<defs>
<clipPath id="clip0_1653_27776">
<rect width="384" height="384" fill="white"/>
</clipPath>
<clipPath id="clip1_1653_27776">
<rect width="384" height="384" fill="white"/>
</clipPath>
</defs>
</svg>
