<svg width="220" height="220" viewBox="0 0 220 220" fill="none" xmlns="http://www.w3.org/2000/svg">
<circle cx="110" cy="110" r="110" fill="white"/>
<path d="M91.7777 117.174C91.7777 117.174 99.8929 173.626 69.8572 186.223V139.787C69.8572 139.787 82.4538 118.729 91.7777 117.174Z" fill="url(#paint0_linear_1_10)"/>
<path d="M149.785 33C149.785 33 145.053 47.3434 98.4483 57.0949C85.4389 59.8147 64.3881 77.1286 69.9014 114.977C69.9014 114.977 66.5625 85.3469 116.278 77.9172C130.622 75.7797 152.395 68.1215 149.785 33Z" fill="url(#paint1_linear_1_10)"/>
<path d="M149.785 68.9102C149.785 68.9102 145.053 83.2536 98.4483 93.0051C85.4389 95.7249 64.3881 113.039 69.9014 150.887C69.9014 150.887 66.5625 121.257 116.278 113.827C130.622 111.69 152.395 104.024 149.785 68.9102Z" fill="url(#paint2_linear_1_10)"/>
<defs>
<linearGradient id="paint0_linear_1_10" x1="72.2513" y1="134.496" x2="103.533" y2="164.548" gradientUnits="userSpaceOnUse">
<stop stop-color="#FD540B"/>
<stop offset="1" stop-color="#FDC32B"/>
</linearGradient>
<linearGradient id="paint1_linear_1_10" x1="77.4611" y1="53.5659" x2="100.623" y2="119.803" gradientUnits="userSpaceOnUse">
<stop stop-color="#FD540B"/>
<stop offset="1" stop-color="#FDC32B"/>
</linearGradient>
<linearGradient id="paint2_linear_1_10" x1="77.4611" y1="89.476" x2="100.623" y2="155.713" gradientUnits="userSpaceOnUse">
<stop stop-color="#FD540B"/>
<stop offset="1" stop-color="#FDC32B"/>
</linearGradient>
</defs>
</svg>
