<svg width="40" height="40" viewBox="0 0 40 40" fill="none" xmlns="http://www.w3.org/2000/svg">
    <rect width="40" height="40" rx="12" fill="#004038"/>
    <path d="M9.29429 26.8891L9.30548 26.8944L9.31679 26.8995C12.6865 28.4023 16.3383 29.1792 20.0317 29.1792C23.7207 29.1792 27.3682 28.4042 30.7345 26.9049C30.8618 26.8533 31.0048 26.8522 31.1332 26.902C31.2637 26.9527 31.3669 27.0512 31.4228 27.1742L32.3617 26.7475L31.4228 27.1742C31.4786 27.297 31.4837 27.436 31.4373 27.5622L32.4051 27.9183L31.4373 27.5622C31.3918 27.6859 31.2996 27.7895 31.1776 27.85C27.6725 29.4114 23.874 30.2187 20.0317 30.2187C16.1844 30.2187 12.3808 29.4092 8.87183 27.8437L8.86218 27.8394L8.85244 27.8353C8.7868 27.8076 8.72788 27.7674 8.67892 27.7174C8.62999 27.6673 8.592 27.6085 8.56681 27.5445C8.54163 27.4805 8.52966 27.4125 8.53142 27.3442C8.53319 27.2759 8.54866 27.2085 8.57716 27.1458C8.60567 27.083 8.64673 27.0261 8.6983 26.9785C8.74988 26.9309 8.81092 26.8937 8.878 26.8694C8.9451 26.845 9.01663 26.8342 9.08831 26.8376C9.15999 26.841 9.23004 26.8586 9.29429 26.8891Z" stroke="#D7FF30" stroke-width="2.0625"/>
    <path d="M24.4762 11.7824C23.1091 9.88697 21.4359 8.75 20.001 8.75C18.566 8.75 16.8929 9.88697 15.5258 11.7824C14.15 13.6992 13.3604 16.0039 13.3604 18.1133C13.3604 19.7452 14.06 21.3102 15.3053 22.4642C16.5507 23.6181 18.2398 24.2663 20.001 24.2663C21.7622 24.2663 23.4512 23.6181 24.6966 22.4642C25.942 21.3102 26.6416 19.7452 26.6416 18.1133C26.6416 16.0039 25.8519 13.6992 24.4762 11.7824ZM20.001 22.6612C18.6996 22.66 17.452 22.1804 16.5318 21.3278C15.6116 20.4752 15.094 19.3191 15.0927 18.1133C15.0927 14.0256 18.4267 10.3551 20.001 10.3551C21.5752 10.3551 24.9093 14.0256 24.9093 18.1133C24.9079 19.3191 24.3904 20.4752 23.4702 21.3278C22.55 22.1804 21.3023 22.66 20.001 22.6612Z" stroke="#D7FF30" stroke-width="2.0625"/>
</svg>
