<svg width="40" height="40" viewBox="0 0 40 40" fill="none" xmlns="http://www.w3.org/2000/svg">
    <rect width="40" height="40" rx="12" fill="#6ECF54"/>
    <path d="M9.29429 26.8891L9.30548 26.8944L9.31679 26.8994C12.6865 28.4023 16.3383 29.1791 20.0317 29.1791C23.7207 29.1791 27.3682 28.4041 30.7345 26.9049C30.8618 26.8533 31.0048 26.8521 31.1332 26.902C31.2637 26.9526 31.3669 27.0512 31.4228 27.1742L32.3617 26.7475L31.4228 27.1742C31.4786 27.2969 31.4837 27.4359 31.4373 27.5622L32.4051 27.9183L31.4373 27.5622C31.3918 27.6858 31.2996 27.7894 31.1776 27.85C27.6725 29.4113 23.874 30.2187 20.0317 30.2187C16.1844 30.2187 12.3808 29.4092 8.87183 27.8437L8.86218 27.8394L8.85244 27.8353C8.7868 27.8076 8.72788 27.7674 8.67892 27.7173C8.62999 27.6673 8.592 27.6085 8.56681 27.5445C8.54163 27.4805 8.52966 27.4124 8.53142 27.3441C8.53319 27.2759 8.54866 27.2084 8.57716 27.1457C8.60567 27.083 8.64673 27.026 8.6983 26.9785C8.74988 26.9309 8.81092 26.8937 8.878 26.8693C8.9451 26.845 9.01663 26.8341 9.08831 26.8375C9.15999 26.8409 9.23004 26.8585 9.29429 26.8891Z" stroke="#ECF8A3" stroke-width="2.0625"/>
    <path d="M24.4754 11.7824C23.1083 9.88697 21.4352 8.75 20.0002 8.75C18.5653 8.75 16.8921 9.88697 15.525 11.7824C14.1493 13.6992 13.3596 16.0039 13.3596 18.1133C13.3596 19.7452 14.0593 21.3102 15.3046 22.4642C16.55 23.6181 18.239 24.2663 20.0002 24.2663C21.7614 24.2663 23.4505 23.6181 24.6959 22.4642C25.9412 21.3102 26.6409 19.7452 26.6409 18.1133C26.6409 16.0039 25.8512 13.6992 24.4754 11.7824ZM20.0002 22.6612C18.6989 22.66 17.4512 22.1804 16.531 21.3278C15.6108 20.4752 15.0933 19.3191 15.092 18.1133C15.092 14.0256 18.426 10.3551 20.0002 10.3551C21.5745 10.3551 24.9085 14.0256 24.9085 18.1133C24.9072 19.3191 24.3896 20.4752 23.4694 21.3278C22.5493 22.1804 21.3016 22.66 20.0002 22.6612Z" stroke="#ECF8A3" stroke-width="2.0625"/>
</svg>
