<svg xmlns="http://www.w3.org/2000/svg" width="32" height="32" viewBox="0 0 32 32" fill="none"><path d="M26.9847 16C26.9847 22.0666 22.0667 26.9846 16 26.9846C9.93337 26.9846 5.01538 22.0666 5.01538 16C5.01538 9.93334 9.93337 5.01535 16 5.01535C22.0667 5.01535 26.9847 9.93334 26.9847 16Z" stroke="url(#paint0_linear_7901_8270)"></path><path d="M19.5337 9.86505C19.5345 10.8955 19.385 11.9206 19.09 12.908C18.8606 13.6753 18.5437 14.4137 18.1457 15.1087C17.9965 15.3738 17.8336 15.6319 17.6549 15.8812C17.6294 15.9205 17.6019 15.9598 17.5735 15.998C17.4727 16.1414 17.3676 16.2817 17.2584 16.4192L17.1985 16.4947C17.2162 16.3298 17.2309 16.1639 17.2397 15.998C17.2309 15.8322 17.2162 15.6663 17.1985 15.5014C17.1985 15.469 17.1916 15.4366 17.1877 15.4032C17.1671 15.2275 17.1416 15.0538 17.1121 14.88C16.9384 14.8506 16.7646 14.825 16.5889 14.8044L16.4908 14.7936C16.3258 14.776 16.16 14.7612 15.9941 14.7524C15.8282 14.7612 15.6623 14.776 15.4974 14.7936L15.3992 14.8044C15.2235 14.825 15.0498 14.8506 14.876 14.88C14.8466 15.0538 14.8211 15.2275 14.8005 15.4032C14.8005 15.4356 14.7936 15.468 14.7897 15.5014C14.772 15.6663 14.7573 15.8322 14.7484 15.998C14.7573 16.1639 14.772 16.3298 14.7897 16.4947L14.7298 16.4192C14.6211 16.2817 14.5161 16.1414 14.4147 15.998C14.3862 15.9598 14.3587 15.9205 14.3332 15.8812C14.1595 15.6319 13.9965 15.3738 13.8424 15.1087C13.4444 14.4137 13.1276 13.6753 12.8981 12.908C12.6031 11.9206 12.4537 10.8955 12.4544 9.86505C12.4544 9.02775 12.4201 8.4064 12.5526 7.70554C12.6675 7.09008 12.9079 6.41082 13.4095 5.46751C14.4971 3.44052 16 1.64322 16 3.05176e-05C16 1.64322 17.5028 3.44052 18.5806 5.46456C19.0822 6.40787 19.3227 7.08714 19.4375 7.7026C19.5681 8.4064 19.5337 9.03069 19.5337 9.86505Z" fill="url(#paint1_linear_7901_8270)"></path><path d="M19.4358 24.2974C19.3209 24.9129 19.0804 25.5921 18.5788 26.5354C17.503 28.5644 16.0002 30.3568 16.0002 32C16.0002 30.3568 14.4974 28.5595 13.4196 26.5354C12.918 25.5921 12.6775 24.9129 12.5627 24.2974C12.4321 23.5936 12.4645 22.9722 12.4645 22.1379C12.4637 21.1074 12.6132 20.0823 12.9082 19.095C13.1376 18.3276 13.4545 17.5892 13.8525 16.8942C14.0017 16.6292 14.1646 16.371 14.3433 16.1217C14.3688 16.0824 14.3963 16.0432 14.4247 16.0049C14.5255 15.8616 14.6305 15.7212 14.7398 15.5838L14.7997 15.5082C14.782 15.6731 14.7673 15.839 14.7585 16.0049C14.7673 16.1708 14.782 16.3367 14.7997 16.5016C14.7997 16.534 14.8066 16.5664 14.8105 16.5997C14.8311 16.7754 14.8566 16.9492 14.8861 17.1229C15.0598 17.1524 15.2336 17.1779 15.4093 17.1985L15.5074 17.2093C15.6723 17.227 15.8382 17.2417 16.0041 17.2505C16.17 17.2417 16.3359 17.227 16.5008 17.2093L16.599 17.1985C16.7747 17.1779 16.9484 17.1524 17.1222 17.1229C17.1516 16.9492 17.1771 16.7754 17.1977 16.5997C17.1977 16.5673 17.2046 16.535 17.2085 16.5016C17.2262 16.3367 17.2409 16.1708 17.2498 16.0049C17.2409 15.839 17.2262 15.6731 17.2085 15.5082L17.2684 15.5838C17.377 15.7212 17.4821 15.8616 17.5835 16.0049C17.612 16.0432 17.6395 16.0824 17.665 16.1217C17.8387 16.371 18.0017 16.6292 18.1558 16.8942C18.5538 17.5892 18.8706 18.3276 19.1001 19.095C19.3951 20.0823 19.5445 21.1074 19.5438 22.1379C19.5339 22.9693 19.5683 23.5936 19.4358 24.2974Z" fill="url(#paint2_linear_7901_8270)"></path><path d="M31.9998 16C30.3566 16 28.5593 17.5028 26.5353 18.5806C25.592 19.0822 24.9127 19.3226 24.2972 19.4375C23.5934 19.568 22.9721 19.5357 22.1377 19.5357C21.1072 19.5364 20.0822 19.387 19.0948 19.092C18.3275 18.8625 17.5891 18.5457 16.8941 18.1477C16.629 17.9985 16.3709 17.8355 16.1216 17.6569C16.0823 17.6314 16.043 17.6039 16.0047 17.5754C15.8614 17.4746 15.7211 17.3696 15.5836 17.2603L15.5081 17.2004C15.673 17.2181 15.8389 17.2328 16.0047 17.2417C16.1706 17.2328 16.3365 17.2181 16.5014 17.2004L16.5996 17.1896C16.7753 17.169 16.949 17.1435 17.1228 17.1141C17.1522 16.9403 17.1777 16.7666 17.1984 16.5909C17.1984 16.5585 17.2052 16.5261 17.2092 16.4927C17.2268 16.3278 17.2415 16.1619 17.2504 15.996C17.2415 15.8301 17.2268 15.6642 17.2092 15.4993C17.2092 15.4669 17.2023 15.4346 17.1984 15.4012C17.1777 15.2255 17.1522 15.0517 17.1228 14.878C16.949 14.8485 16.7753 14.823 16.5996 14.8024L16.5014 14.7916C16.3365 14.7739 16.1706 14.7592 16.0047 14.7504C15.8389 14.7592 15.673 14.7739 15.5081 14.7916L15.5836 14.7317C15.7211 14.6231 15.8614 14.5181 16.0047 14.4166C16.043 14.3882 16.0823 14.3607 16.1216 14.3352C16.3709 14.1614 16.629 13.9985 16.8941 13.8444C17.5891 13.4464 18.3275 13.1295 19.0948 12.9001C20.0822 12.6051 21.1072 12.4556 22.1377 12.4564C22.975 12.4564 23.5964 12.422 24.2972 12.5546C24.9127 12.6694 25.592 12.9099 26.5353 13.4115C28.5642 14.4971 30.3566 16 31.9998 16Z" fill="url(#paint3_linear_7901_8270)"></path><path d="M16 17.2446C16.1659 17.2358 16.3317 17.2211 16.4967 17.2034L16.4211 17.2633C16.2836 17.3719 16.1433 17.477 16 17.5784C15.9617 17.6069 15.9224 17.6343 15.8832 17.6599C15.6338 17.8336 15.3757 17.9965 15.1106 18.1507C14.4157 18.5487 13.6772 18.8655 12.9099 19.095C11.9226 19.39 10.8975 19.5394 9.86698 19.5386C9.02968 19.5386 8.40833 19.573 7.70747 19.4405C7.09201 19.3256 6.41275 19.0851 5.46944 18.5835C3.44048 17.5028 1.64319 16 0 16C1.64319 16 3.44048 14.4972 5.46453 13.4194C6.40784 12.9178 7.0871 12.6773 7.70256 12.5624C8.40637 12.4319 9.02771 12.4643 9.86207 12.4643C10.8926 12.4635 11.9176 12.613 12.905 12.908C13.6723 13.1374 14.4107 13.4543 15.1057 13.8523C15.3708 14.0015 15.6289 14.1644 15.8783 14.3431C15.9175 14.3686 15.9568 14.3961 15.9951 14.4245C16.1384 14.5253 16.2787 14.6303 16.4162 14.7396L16.4917 14.7995C16.3268 14.7818 16.161 14.7671 15.9951 14.7583C15.8292 14.7671 15.6633 14.7818 15.4984 14.7995L15.4002 14.8103C15.2245 14.8309 15.0508 14.8564 14.877 14.8859C14.8476 15.0596 14.8221 15.2334 14.8014 15.4091C14.8014 15.4415 14.7946 15.4739 14.7906 15.5072C14.773 15.6721 14.7583 15.838 14.7494 16.0039C14.7583 16.1698 14.773 16.3357 14.7906 16.5006C14.7906 16.533 14.7975 16.5654 14.8014 16.5988C14.8221 16.7745 14.8476 16.9482 14.877 17.1219C15.0508 17.1514 15.2245 17.1769 15.4002 17.1975L15.4984 17.2083C15.6682 17.2211 15.8341 17.2358 16 17.2446Z" fill="url(#paint4_linear_7901_8270)"></path><path d="M27.3137 4.68613C26.1515 5.84833 25.9395 8.18158 25.274 10.3794C24.9628 11.4002 24.6526 12.0481 24.2924 12.5664C23.888 13.1553 23.4246 13.5725 22.8318 14.1644C22.1042 14.8929 21.2742 15.5112 20.368 16C19.6639 16.3809 18.9182 16.6793 18.1456 16.8893C17.8512 16.9708 17.5567 17.0375 17.2563 17.0915C17.2102 17.1013 17.164 17.1092 17.1169 17.117C17.1464 16.9433 17.1719 16.7695 17.1925 16.5938C17.1925 16.5614 17.1994 16.5291 17.2033 16.4957C17.221 16.3308 17.2357 16.1649 17.2445 15.999C17.2357 15.8331 17.221 15.6672 17.2033 15.5023C17.2033 15.4699 17.1964 15.4375 17.1925 15.4041C17.1719 15.2284 17.1464 15.0547 17.1169 14.881C16.9432 14.8515 16.7694 14.826 16.5937 14.8054L16.4956 14.7946C16.3307 14.7769 16.1648 14.7622 15.9989 14.7534C15.833 14.7622 15.6671 14.7769 15.5022 14.7946L15.404 14.8054C15.2283 14.826 15.0546 14.8515 14.8809 14.881C14.8887 14.8338 14.8966 14.7828 14.9064 14.7416C14.9604 14.4471 15.0271 14.1457 15.1086 13.8522C15.3193 13.0803 15.6184 12.3353 15.9999 11.6319C16.4894 10.7237 17.1091 9.892 17.8394 9.16318C18.4283 8.57422 18.8455 8.10698 19.4374 7.70256C19.9537 7.34723 20.6035 7.03704 21.6244 6.72097C23.8183 6.05643 26.1515 5.84833 27.3137 4.68613Z" fill="url(#paint5_linear_7901_8270)"></path><path d="M17.1172 17.117C17.1093 17.1642 17.1015 17.2152 17.0917 17.2564C17.0377 17.5509 16.9709 17.8523 16.8895 18.1458C16.6795 18.9183 16.3811 19.664 16.0001 20.3681C15.5106 21.2763 14.8909 22.108 14.1606 22.8368C13.5717 23.4257 13.1545 23.893 12.5626 24.2974C12.0463 24.6527 11.3965 24.9629 10.3756 25.279C8.18175 25.9484 5.84851 26.1565 4.68237 27.3187C5.84458 26.1565 6.0566 23.8233 6.72212 21.6255C7.03329 20.6046 7.34347 19.9568 7.70372 19.4385C8.10813 18.8496 8.57144 18.4324 9.16433 17.8405C9.89279 17.11 10.7242 16.4899 11.6321 16C12.3361 15.619 13.0819 15.3206 13.8544 15.1107C14.1489 15.0292 14.4433 14.9624 14.7437 14.9085C14.7898 14.8986 14.836 14.8908 14.8831 14.8829C14.8536 15.0567 14.8281 15.2304 14.8075 15.4061C14.8075 15.4385 14.8006 15.4709 14.7967 15.5043C14.779 15.6692 14.7643 15.8351 14.7555 16.001C14.7643 16.1669 14.779 16.3327 14.7967 16.4977C14.7967 16.5301 14.8036 16.5624 14.8075 16.5958C14.8281 16.7715 14.8536 16.9453 14.8831 17.119C15.0568 17.1485 15.2306 17.174 15.4063 17.1946L15.5044 17.2054C15.6693 17.2231 15.8352 17.2378 16.0011 17.2466C16.167 17.2378 16.3329 17.2231 16.4978 17.2054L16.596 17.1946C16.7697 17.172 16.9435 17.1465 17.1172 17.117Z" fill="url(#paint6_linear_7901_8270)"></path><path d="M27.3137 27.3138C26.1515 26.1516 23.8183 25.9396 21.6205 25.2741C20.5996 24.9629 19.9518 24.6527 19.4335 24.2925C18.8445 23.8881 18.4273 23.4248 17.8354 22.8319C17.107 22.1043 16.4886 21.2743 15.9999 20.3681C15.6189 19.664 15.3205 18.9183 15.1105 18.1458C15.0291 17.8513 14.9623 17.5568 14.9083 17.2564C14.8985 17.2103 14.8907 17.1642 14.8828 17.1171C15.0566 17.1465 15.2303 17.172 15.406 17.1926L15.5042 17.2034C15.6691 17.2211 15.835 17.2358 16.0008 17.2447C16.1667 17.2358 16.3326 17.2211 16.4975 17.2034L16.5957 17.1926C16.7714 17.172 16.9451 17.1465 17.1189 17.1171C17.1483 16.9433 17.1739 16.7696 17.1945 16.5939C17.1945 16.5615 17.2013 16.5291 17.2053 16.4957C17.2229 16.3308 17.2377 16.1649 17.2465 15.999C17.2377 15.8331 17.2229 15.6672 17.2053 15.5023C17.2053 15.4699 17.1984 15.4375 17.1945 15.4042C17.1739 15.2285 17.1483 15.0547 17.1189 14.881C17.166 14.8888 17.217 14.8967 17.2583 14.9065C17.5527 14.9605 17.8541 15.0272 18.1476 15.1087C18.9195 15.3194 19.6646 15.6185 20.368 16C21.2761 16.4895 22.1078 17.1093 22.8367 17.8395C23.4256 18.4285 23.8929 18.8456 24.2973 19.4375C24.6526 19.9539 24.9628 20.6037 25.2789 21.6245C25.9434 23.8184 26.1515 26.1516 27.3137 27.3138Z" fill="url(#paint7_linear_7901_8270)"></path><path d="M17.1172 14.8829C16.9435 14.8535 16.7697 14.828 16.594 14.8074L16.4959 14.7966C16.3309 14.7789 16.1651 14.7642 15.9992 14.7553C15.8333 14.7642 15.6674 14.7789 15.5025 14.7966L15.4043 14.8074C15.2286 14.828 15.0549 14.8535 14.8811 14.8829C14.8517 15.0567 14.8262 15.2304 14.8055 15.4061C14.8055 15.4385 14.7987 15.4709 14.7948 15.5043C14.7771 15.6692 14.7624 15.8351 14.7535 16.001C14.7624 16.1669 14.7771 16.3328 14.7948 16.4977C14.7948 16.5301 14.8016 16.5624 14.8055 16.5958C14.8262 16.7715 14.8517 16.9453 14.8811 17.119C14.834 17.1112 14.783 17.1033 14.7417 17.0935C14.4473 17.0395 14.1459 16.9728 13.8524 16.8913C13.0805 16.6806 12.3354 16.3815 11.6321 16C10.7239 15.5105 9.89218 14.8907 9.16335 14.1605C8.5744 13.5715 8.10716 13.1544 7.70274 12.5625C7.3474 12.0461 7.03722 11.3963 6.72115 10.3755C6.0517 8.1816 5.8436 5.84835 4.6814 4.68222C5.8436 5.84443 8.17685 6.05645 10.3746 6.72197C11.3955 7.03314 12.0433 7.34332 12.5616 7.70357C13.1506 8.10798 13.5678 8.57129 14.1597 9.16418C14.8902 9.89264 15.5102 10.724 16.0001 11.6319C16.3811 12.336 16.6795 13.0817 16.8895 13.8542C16.9709 14.1487 17.0377 14.4432 17.0917 14.7436C17.1015 14.7897 17.1093 14.8358 17.1172 14.8829Z" fill="url(#paint8_linear_7901_8270)"></path><path d="M19.2837 9.86524V9.86505C19.2837 9.71119 19.2848 9.56582 19.2858 9.42692C19.2905 8.79757 19.2942 8.30095 19.1917 7.74846C19.0829 7.1651 18.8535 6.51031 18.3599 5.58207C18.0942 5.0831 17.8016 4.5967 17.5093 4.11822C17.4676 4.04995 17.4259 3.98178 17.3842 3.91375C17.1353 3.50709 16.8892 3.10513 16.6682 2.71201C16.403 2.24042 16.1665 1.7695 15.9999 1.3014C15.8332 1.7696 15.5963 2.24068 15.3304 2.71256C15.106 3.11079 14.8559 3.51804 14.6026 3.93026C14.5639 3.99334 14.5251 4.05653 14.4862 4.11983C14.1926 4.59867 13.8982 5.0856 13.63 5.58532C13.1366 6.5134 12.9072 7.16811 12.7984 7.7514L12.7983 7.75199C12.6941 8.30288 12.6977 8.79764 12.7024 9.4297C12.7034 9.56761 12.7044 9.71206 12.7044 9.86505V9.86524C12.7037 10.8714 12.8496 11.8723 13.1377 12.8364C13.3616 13.5851 13.6707 14.3057 14.059 14.9838C14.204 15.2331 14.3565 15.4754 14.5182 15.7094C14.525 15.6307 14.5328 15.5524 14.5411 15.4747L14.5414 15.4721L14.5414 15.4721C14.5428 15.4603 14.5443 15.4493 14.5456 15.4406L14.5488 15.4184C14.5504 15.4067 14.5504 15.4031 14.5505 15.4031V15.3886L14.5522 15.3741C14.5733 15.1936 14.5995 15.0156 14.6296 14.8382L14.6592 14.6632L14.8343 14.6335C15.0116 14.6035 15.1896 14.5773 15.3701 14.5561L15.3719 14.5559L15.4701 14.5451L15.4708 14.5451C15.6386 14.5271 15.8091 14.5119 15.9808 14.5028L15.9941 14.502L16.0074 14.5028C16.179 14.5119 16.3496 14.5271 16.5174 14.5451L16.5181 14.5451L16.6163 14.5559L16.618 14.5561C16.7985 14.5773 16.9765 14.6035 17.1539 14.6335L17.3289 14.6632L17.3586 14.8382C17.3886 15.0156 17.4148 15.1935 17.436 15.374C17.436 15.374 17.436 15.374 17.436 15.3741L19.2837 9.86524ZM19.2837 9.86524C19.2845 10.8714 19.1385 11.8723 18.8505 12.8364L19.2837 9.86524ZM17.6549 15.8812C17.8336 15.6319 17.9965 15.3738 18.1457 15.1087C18.5437 14.4137 18.8606 13.6753 19.09 12.908L17.6549 15.8812ZM17.6549 15.8812C17.6294 15.9205 17.6019 15.9598 17.5735 15.998L17.6549 15.8812ZM18.8505 12.8364C18.6265 13.5854 18.3173 14.3061 17.9288 14.9845L17.9279 14.9861C17.7879 15.2347 17.6358 15.4765 17.47 15.71C17.4634 15.6344 17.4561 15.5591 17.4481 15.4844L18.8505 12.8364Z" stroke="#262524" stroke-width="0.5"></path><path d="M19.19 24.2515L19.1901 24.2511C19.2903 23.7191 19.2907 23.2406 19.2913 22.6455C19.2915 22.4853 19.2916 22.3167 19.2938 22.1364C19.2944 21.1306 19.1485 20.1302 18.8606 19.1666C18.6367 18.4179 18.3275 17.6974 17.9393 17.0192C17.7943 16.7699 17.6417 16.5275 17.48 16.2936C17.4732 16.3723 17.4654 16.4505 17.4571 16.5282L17.4568 16.5308L17.4568 16.5308C17.4554 16.5426 17.4539 16.5537 17.4526 16.5624L17.4494 16.5846C17.4478 16.5962 17.4477 16.5998 17.4477 16.5998L17.4477 16.6144L17.446 16.6289C17.4249 16.8094 17.3987 16.9874 17.3686 17.1647L17.339 17.3397L17.1639 17.3694C16.9866 17.3995 16.8086 17.4256 16.6281 17.4468L16.6263 17.447L16.6263 17.447L16.5281 17.4578L16.5274 17.4579C16.3596 17.4759 16.1891 17.491 16.0174 17.5002L16.0041 17.5009L15.9908 17.5002C15.8192 17.491 15.6486 17.4759 15.4808 17.4579L15.4801 17.4578L15.3819 17.447L15.3801 17.4468L15.3802 17.4468C15.1997 17.4256 15.0217 17.3995 14.8443 17.3694L14.6693 17.3397L14.6396 17.1647C14.6095 16.9874 14.5834 16.8094 14.5622 16.629C14.5622 16.6288 14.5621 16.6282 14.562 16.6272C14.5603 16.6169 14.552 16.5633 14.5501 16.5185C14.5421 16.4438 14.5348 16.3685 14.5282 16.2929C14.3624 16.5264 14.2103 16.7683 14.0703 17.0169L14.0694 17.0185L14.0694 17.0185C13.6809 17.6968 13.3717 18.4176 13.1477 19.1665L19.19 24.2515ZM19.19 24.2515C19.0812 24.8349 18.8517 25.4897 18.3581 26.4181L18.358 26.4183C18.0928 26.9184 17.8006 27.4054 17.5086 27.884C17.4643 27.9567 17.4199 28.0293 17.3756 28.1018C17.1297 28.5039 16.8867 28.9013 16.6682 29.2898C16.4032 29.7609 16.1668 30.2312 16.0003 30.6987M19.19 24.2515L16.0003 30.6987M16.0003 30.6987C15.8337 30.2306 15.5972 29.7596 15.332 29.288C15.1109 28.8949 14.8649 28.4929 14.6159 28.0862C14.5743 28.0182 14.5326 27.95 14.4909 27.8818C14.1986 27.4033 13.906 26.917 13.6403 26.4181L16.0003 30.6987ZM12.7145 22.1377L12.7145 22.1379C12.7145 22.2854 12.7136 22.4251 12.7127 22.5587C12.7084 23.195 12.705 23.6941 12.8084 24.2517C12.9173 24.835 13.1467 25.4897 13.6403 26.4179L12.7145 22.1377ZM12.7145 22.1377C12.7137 21.1315 12.8597 20.1306 13.1477 19.1666L12.7145 22.1377Z" stroke="#262524" stroke-width="0.5"></path><path d="M22.1377 19.5357C22.2809 19.5357 22.4178 19.5366 22.55 19.5375C23.1878 19.542 23.7142 19.5456 24.2972 19.4375C24.9127 19.3226 25.592 19.0822 26.5353 18.5806C27.1139 18.2725 27.674 17.9296 28.2172 17.5971C29.2396 16.9712 30.2024 16.3819 31.1169 16.1293L22.1377 19.5357ZM22.1377 19.5357C21.1072 19.5364 20.0822 19.387 19.0948 19.092L22.1377 19.5357ZM30.6987 15.9998C30.2305 16.1664 29.7595 16.4029 29.2878 16.6682C28.8947 16.8892 28.4927 17.1353 28.086 17.3843C28.018 17.4259 27.9499 17.4676 27.8816 17.5093C27.4032 17.8015 26.9168 18.0942 26.4179 18.3598C25.4896 18.8534 24.8348 19.0829 24.2514 19.1917C23.6939 19.2951 23.1948 19.2918 22.5585 19.2875C22.4249 19.2866 22.2853 19.2857 22.1377 19.2857H22.1375C21.1314 19.2864 20.1305 19.1405 19.1664 18.8525C18.4174 18.6285 17.6967 18.3192 17.0183 17.9307L17.0167 17.9298C16.7681 17.7899 16.5263 17.6378 16.2928 17.4719C16.3717 17.4651 16.4502 17.4574 16.5281 17.449L16.5288 17.4489L16.6269 17.4381L16.6269 17.4382L16.6287 17.4379C16.8092 17.4168 16.9872 17.3906 17.1646 17.3605L17.3396 17.3309L17.3693 17.1558C17.3993 16.9785 17.4255 16.8005 17.4467 16.62L17.4484 16.6055L17.4484 16.5909C17.4484 16.5909 17.4484 16.5873 17.45 16.5757L17.4532 16.5535C17.4545 16.5448 17.4561 16.5338 17.4574 16.5219L17.4575 16.5219L17.4577 16.5193C17.4757 16.3515 17.4909 16.181 17.5 16.0093L17.5007 15.996L17.5 15.9827C17.4911 15.8144 17.4763 15.6471 17.4588 15.4824C17.4569 15.4376 17.4485 15.384 17.4469 15.3737C17.4468 15.3727 17.4467 15.3721 17.4466 15.372C17.4255 15.1915 17.3993 15.0135 17.3693 14.8362L17.3396 14.6612L17.1646 14.6315C16.9872 14.6014 16.8092 14.5753 16.6287 14.5541L16.6287 14.5541L16.6269 14.5539L16.5288 14.5431L16.5281 14.543C16.4504 14.5347 16.3721 14.527 16.2934 14.5202C16.5274 14.3584 16.7697 14.2059 17.019 14.0609C17.6972 13.6726 18.4177 13.3635 19.1664 13.1396L30.6987 15.9998ZM30.6987 15.9998C30.2311 15.8331 29.7607 15.5963 29.2894 15.3306C28.8949 15.1082 28.4914 14.8604 28.0829 14.6096C28.0165 14.5688 27.95 14.5279 27.8834 14.4871C27.4047 14.1938 26.9178 13.8997 26.4176 13.6321C25.4895 13.1386 24.8347 12.9092 24.2514 12.8003L24.2508 12.8002C23.6999 12.696 23.2051 12.6997 22.5731 12.7043C22.4352 12.7053 22.2907 12.7064 22.1377 12.7064H22.1375C21.1314 12.7056 20.1305 12.8516 19.1664 13.1396L30.6987 15.9998Z" stroke="#262524" stroke-width="0.5"></path><path d="M14.9857 17.9341C15.2346 17.7894 15.4766 17.6371 15.7102 17.4756C15.6789 17.4732 15.6477 17.4707 15.6167 17.4683C15.5706 17.4646 15.5249 17.461 15.4796 17.4576L15.471 17.457L15.471 17.4568L15.3729 17.446L15.3711 17.4458C15.1906 17.4247 15.0126 17.3985 14.8353 17.3684L14.6602 17.3388L14.6305 17.1637C14.6005 16.9864 14.5743 16.8084 14.5532 16.628C14.5531 16.6278 14.553 16.6272 14.5529 16.6262C14.5513 16.6159 14.5429 16.5623 14.541 16.5175C14.5235 16.3528 14.5087 16.1856 14.4998 16.0172L14.4991 16.0039L14.4998 15.9906C14.5089 15.819 14.5241 15.6484 14.5421 15.4806L14.5423 15.478C14.5438 15.4662 14.5453 15.4552 14.5466 15.4464L14.5498 15.4243C14.5514 15.4126 14.5514 15.409 14.5514 15.409V15.3945L14.5531 15.3799C14.5743 15.1994 14.6005 15.0215 14.6305 14.8441L14.6602 14.6691L14.8353 14.6394C15.0126 14.6093 15.1906 14.5832 15.3711 14.562L15.3729 14.5618L15.471 14.551L15.4717 14.5509C15.5496 14.5426 15.6281 14.5348 15.7071 14.528C15.4735 14.3622 15.2317 14.2101 14.9831 14.0701L14.9815 14.0692C14.3031 13.6807 13.5824 13.3715 12.8334 13.1475C11.8694 12.8595 10.8684 12.7135 9.86226 12.7143L9.86207 12.7143C9.71455 12.7143 9.5749 12.7133 9.4413 12.7125C8.80491 12.7082 8.30585 12.7048 7.7483 12.8082C7.16498 12.9171 6.51021 13.1465 5.58203 13.64L14.9857 17.9341ZM14.9857 17.9341C14.3075 18.3224 13.587 18.6315 12.8383 18.8554L14.9857 17.9341ZM1.30151 16C1.76957 15.8334 2.24044 15.5969 2.71198 15.3318C3.1051 15.1107 3.50706 14.8647 3.91372 14.6157C3.98175 14.5741 4.04992 14.5323 4.11819 14.4906C4.59662 14.1984 5.08298 13.9058 5.5819 13.6401L1.30151 16ZM1.30151 16C1.76967 16.1666 2.24072 16.4032 2.7126 16.6686C3.10595 16.8898 3.50824 17.136 3.9154 17.3853C3.98356 17.427 4.05185 17.4688 4.12026 17.5106C4.59942 17.8032 5.08676 18.0965 5.58697 18.3629C6.5152 18.8565 7.16998 19.0859 7.75333 19.1947L7.75392 19.1948C8.30481 19.299 8.79957 19.2954 9.43163 19.2907C9.56954 19.2897 9.71398 19.2886 9.86698 19.2886H9.86717C10.8733 19.2894 11.8742 19.1435 12.8383 18.8554L1.30151 16Z" stroke="#262524" stroke-width="0.5"></path><path d="M17.3783 17.0688C17.6366 17.0191 17.8911 16.9597 18.1456 16.8893C18.9182 16.6793 19.6639 16.3809 20.368 16L17.3783 17.0688ZM17.3783 17.0688C17.3924 16.9816 17.4055 16.8942 17.4175 16.8063M17.3783 17.0688L17.158 16.8562M17.158 16.8562C17.1738 16.8532 17.1891 16.8502 17.2043 16.847L17.2121 16.8453L17.2121 16.8455C17.2809 16.8331 17.3493 16.82 17.4175 16.8063M17.158 16.8562C17.1707 16.769 17.1822 16.6817 17.1925 16.5938C17.1925 16.5715 17.1958 16.5491 17.1991 16.5265C17.2006 16.5163 17.2021 16.506 17.2033 16.4957C17.221 16.3308 17.2357 16.1649 17.2445 15.999L17.158 16.8562ZM17.4175 16.8063C17.4258 16.7454 17.4336 16.6843 17.4408 16.623L17.4425 16.6085V16.5939C17.4425 16.5939 17.4426 16.5903 17.4442 16.5787L17.4474 16.5565C17.4486 16.5478 17.4502 16.5367 17.4516 16.5249L17.4516 16.5249L17.4519 16.5223C17.4699 16.3545 17.485 16.1839 17.4942 16.0123L17.4949 15.999L17.4942 15.9857C17.4852 15.8174 17.4704 15.6501 17.4529 15.4854C17.451 15.4406 17.4427 15.387 17.4411 15.3767C17.4409 15.3757 17.4408 15.3751 17.4408 15.3749C17.4196 15.1945 17.3935 15.0165 17.3634 14.8392L17.3337 14.6641L17.1587 14.6345C16.9814 14.6044 16.8034 14.5783 16.6229 14.5571L16.6211 14.5569L16.5229 14.5461L16.5222 14.546C16.3544 14.528 16.1838 14.5128 16.0122 14.5037L15.9989 14.503L15.9856 14.5037C15.8139 14.5128 15.6434 14.528 15.4756 14.546L15.4749 14.5461L15.3767 14.5569L15.3749 14.5571C15.3137 14.5643 15.2528 14.572 15.1921 14.5803C15.2369 14.359 15.2891 14.1365 15.3495 13.9191L15.3498 13.9181C15.5554 13.1647 15.8473 12.4376 16.2196 11.7511L16.2199 11.7505C16.6979 10.8638 17.303 10.0517 18.016 9.34012L18.0162 9.33995C18.1259 9.2302 18.2288 9.12574 18.327 9.02593C18.767 8.5791 19.115 8.22563 19.5785 7.90898L19.5791 7.90851C20.0683 7.57183 20.6929 7.27114 21.6976 6.96001C22.2383 6.79627 22.789 6.66017 23.3339 6.52918C23.4078 6.51142 23.4816 6.49374 23.5553 6.47609C24.023 6.3641 24.4852 6.2534 24.9232 6.13094C25.444 5.98535 25.944 5.81984 26.3926 5.60684C26.1792 6.05554 26.0131 6.55574 25.8669 7.07688C25.7433 7.51727 25.6316 7.98222 25.5186 8.45269C25.5015 8.52417 25.4843 8.59578 25.467 8.66745C25.3354 9.21307 25.1988 9.7648 25.0348 10.3067C24.7287 11.3109 24.4282 11.9329 24.0871 12.4237L24.0863 12.4248C23.7654 12.8922 23.4089 13.2435 22.9528 13.6928C22.858 13.7862 22.759 13.8838 22.6551 13.9875L22.6549 13.9877C21.9445 14.699 21.1341 15.3027 20.2493 15.7799L20.249 15.7801C19.5618 16.1519 18.834 16.4431 18.0801 16.648L18.079 16.6484C17.8594 16.7091 17.6398 16.7615 17.4175 16.8063Z" stroke="#262524" stroke-width="0.5"></path><path d="M16.6282 17.4425C16.6873 17.4348 16.7466 17.4268 16.8058 17.4184C16.761 17.6395 16.7089 17.8617 16.6486 18.0789L16.6482 18.0802C16.4433 18.8341 16.1521 19.5619 15.7803 20.2491L15.7801 20.2495C15.3021 21.1362 14.697 21.9482 13.984 22.6598L13.9839 22.66C13.8741 22.7698 13.7713 22.8742 13.673 22.974C13.233 23.4209 12.885 23.7743 12.4216 24.091L12.4209 24.0915C11.9316 24.4281 11.3071 24.7289 10.3023 25.04C9.76157 25.205 9.21074 25.342 8.66578 25.4737C8.58752 25.4926 8.50933 25.5114 8.43129 25.5302C7.96809 25.6416 7.51024 25.7518 7.07618 25.8733C6.55408 26.0196 6.05273 26.1856 5.60286 26.3993C5.81661 25.9503 5.98287 25.4496 6.12921 24.928C6.25276 24.4876 6.36445 24.0227 6.47746 23.5522C6.49463 23.4807 6.51184 23.4091 6.52912 23.3374C6.66065 22.7918 6.79723 22.2401 6.96131 21.6982C7.26742 20.694 7.5679 20.0719 7.909 19.5812L7.90981 19.58C8.23071 19.1127 8.58722 18.7614 9.04331 18.312C9.13804 18.2187 9.23706 18.1211 9.34096 18.0174L9.34135 18.017C10.0526 17.3038 10.8643 16.6983 11.7508 16.22L11.751 16.2199C12.4382 15.8481 13.166 15.5568 13.9199 15.3519L13.921 15.3516C14.1406 15.2909 14.3602 15.2385 14.5825 15.1937C14.5742 15.2545 14.5664 15.3156 14.5592 15.377L14.5575 15.3915V15.4061C14.5575 15.4061 14.5574 15.4096 14.5558 15.4213L14.5526 15.4435C14.5514 15.4522 14.5498 15.4632 14.5484 15.4751L14.5481 15.4777C14.5302 15.6455 14.515 15.816 14.5058 15.9877L14.5051 16.001L14.5058 16.0143C14.5148 16.1826 14.5296 16.3499 14.5471 16.5146C14.549 16.5593 14.5573 16.6129 14.559 16.6233C14.5591 16.6243 14.5592 16.6249 14.5592 16.625C14.5804 16.8055 14.6065 16.9835 14.6366 17.1608L14.6663 17.3358L14.8413 17.3655C15.0187 17.3955 15.1967 17.4217 15.3771 17.4429L15.3789 17.4431L15.4771 17.4539L15.4778 17.454C15.6456 17.4719 15.8162 17.4871 15.9878 17.4963L16.0011 17.497L16.0144 17.4963C16.1861 17.4871 16.3566 17.4719 16.5244 17.454L16.5251 17.4539L16.6233 17.4431L16.6233 17.4431L16.6282 17.4425Z" stroke="#262524" stroke-width="0.5"></path><path d="M17.1945 15.4042L17.4428 15.375C17.4356 15.3138 17.4278 15.2529 17.4195 15.1922C17.6408 15.237 17.8633 15.2893 18.0807 15.3496L18.0807 15.3496L18.0818 15.3499C18.8351 15.5556 19.5623 15.8474 20.2488 16.2198L20.2493 16.2201C21.1361 16.698 21.9481 17.3031 22.6597 18.0161L22.6599 18.0163C22.7696 18.126 22.8741 18.2289 22.9739 18.3272C23.4207 18.7671 23.7742 19.1151 24.0909 19.5786L24.0913 19.5793C24.428 20.0685 24.7287 20.693 25.0398 21.6977C25.2036 22.2384 25.3397 22.7892 25.4707 23.334C25.4884 23.4079 25.5061 23.4817 25.5237 23.5554C25.6357 24.0231 25.7464 24.4853 25.8689 24.9234C26.0145 25.4441 26.18 25.9441 26.393 26.3928C25.9443 26.1793 25.4441 26.0132 24.923 25.867C24.4826 25.7435 24.0176 25.6318 23.5472 25.5188C23.4757 25.5016 23.4041 25.4844 23.3324 25.4671C22.7868 25.3356 22.2351 25.199 21.6932 25.0349C20.689 24.7288 20.0669 24.4283 19.5762 24.0872L19.575 24.0864C19.1077 23.7655 18.7564 23.409 18.307 22.9529C18.2137 22.8582 18.1161 22.7592 18.0124 22.6553L18.0121 22.655C17.3009 21.9446 16.6971 21.1342 16.2199 20.2494L16.2197 20.2491C15.848 19.5619 15.5567 18.8342 15.3518 18.0802L15.3518 18.0802L15.3515 18.0791C15.2907 17.8595 15.2384 17.6399 15.1936 17.4176C15.2544 17.426 15.3155 17.4337 15.3769 17.4409L15.3769 17.4409L15.3787 17.4411L15.4768 17.4519L15.4775 17.452C15.6453 17.47 15.8159 17.4852 15.9876 17.4943L16.0008 17.495L16.0141 17.4943C16.1858 17.4852 16.3564 17.47 16.5242 17.452L16.5249 17.4519L16.623 17.4411L16.623 17.4411L16.6248 17.4409C16.8053 17.4198 16.9833 17.3936 17.1607 17.3635L17.3357 17.3339L17.3654 17.1588C17.3954 16.9815 17.4216 16.8035 17.4428 16.623L17.4445 16.6085V16.5939C17.4445 16.594 17.4445 16.5905 17.4461 16.5787L17.4493 16.5565C17.4506 16.5478 17.4522 16.5368 17.4535 16.5249L17.4536 16.5249L17.4538 16.5223C17.4718 16.3545 17.487 16.184 17.4961 16.0123L17.4968 15.999L17.4961 15.9857C17.4872 15.8174 17.4724 15.6501 17.4549 15.4854C17.453 15.4406 17.4446 15.387 17.443 15.3767C17.4429 15.3757 17.4428 15.3751 17.4428 15.375L17.1945 15.4042ZM17.1945 15.4042C17.1957 15.4145 17.1972 15.4248 17.1987 15.435C17.202 15.4576 17.2053 15.48 17.2053 15.5023L17.1599 15.1414C17.1726 15.2287 17.1841 15.3162 17.1945 15.4042Z" stroke="#262524" stroke-width="0.5"></path><path d="M16.8065 14.5823C16.7456 14.574 16.6845 14.5663 16.6231 14.5591L16.6213 14.5589L16.5232 14.5481L16.5225 14.548C16.3547 14.53 16.1841 14.5148 16.0125 14.5057L15.9992 14.505L15.9859 14.5057C15.8142 14.5148 15.6437 14.53 15.4758 14.548L15.4751 14.5481L15.377 14.5589L15.3752 14.5591C15.1947 14.5802 15.0167 14.6064 14.8394 14.6365L14.6643 14.6661L14.6346 14.8412C14.6046 15.0185 14.5784 15.1965 14.5573 15.377L14.5555 15.3915V15.4061C14.5555 15.4061 14.5555 15.4097 14.5539 15.4213L14.5507 15.4435C14.5494 15.4522 14.5479 15.4632 14.5465 15.4751L14.5462 15.4777C14.5282 15.6455 14.513 15.816 14.5039 15.9877L14.5032 16.001L14.5039 16.0143C14.5128 16.1826 14.5276 16.3499 14.5451 16.5146C14.547 16.5593 14.5554 16.613 14.557 16.6233C14.5572 16.6243 14.5572 16.6249 14.5573 16.625C14.5644 16.6862 14.5722 16.7471 14.5805 16.8078C14.3592 16.7629 14.1367 16.7107 13.9193 16.6504L13.9183 16.6501C13.1649 16.4444 12.4377 16.1526 11.7512 15.7802L11.7507 15.7799C10.864 15.302 10.0519 14.6969 9.3403 13.9839L9.34013 13.9837C9.23038 13.874 9.12591 13.7711 9.02611 13.6728C8.57928 13.2329 8.22581 12.8849 7.90916 12.4214L7.90868 12.4207C7.57198 11.9315 7.27126 11.3069 6.96011 10.302C6.79515 9.76133 6.65813 9.21055 6.52645 8.66563C6.50755 8.58738 6.48874 8.50919 6.46996 8.43116C6.35852 7.96795 6.24836 7.51009 6.12679 7.07602C5.98058 6.55393 5.81454 6.05258 5.60084 5.60271C6.04987 5.81646 6.55052 5.98272 7.07215 6.12906C7.51253 6.25261 7.97747 6.3643 8.44794 6.47731C8.51943 6.49448 8.59104 6.51169 8.66272 6.52897C9.20831 6.6605 9.76002 6.79708 10.3019 6.96116C11.3061 7.26727 11.9282 7.56775 12.4189 7.90885L12.4201 7.90966C12.8874 8.23056 13.2387 8.58707 13.6881 9.04316C13.7814 9.13789 13.879 9.23691 13.9827 9.34081L13.9831 9.3412C14.6964 10.0525 15.3018 10.8642 15.7801 11.7506L15.7803 11.7509C16.1521 12.438 16.4433 13.1658 16.6482 13.9198L16.6485 13.9209C16.7093 14.1405 16.7616 14.3601 16.8065 14.5823Z" stroke="#262524" stroke-width="0.5"></path><defs><linearGradient id="paint0_linear_7901_8270" x1="4.51538" y1="16" x2="27.4847" y2="16" gradientUnits="userSpaceOnUse"><stop stop-color="#D1BE9B"></stop><stop offset="0.338542" stop-color="#E7DDCB"></stop><stop offset="0.661458" stop-color="#F7E6C5"></stop><stop offset="1" stop-color="#A7987A"></stop></linearGradient><linearGradient id="paint1_linear_7901_8270" x1="12.4504" y1="8.24738" x2="19.5378" y2="8.24738" gradientUnits="userSpaceOnUse"><stop stop-color="#D1BE9B"></stop><stop offset="0.338542" stop-color="#E7DDCB"></stop><stop offset="0.661458" stop-color="#F7E6C5"></stop><stop offset="1" stop-color="#A7987A"></stop></linearGradient><linearGradient id="paint2_linear_7901_8270" x1="12.4609" y1="23.7541" x2="19.5438" y2="23.7541" gradientUnits="userSpaceOnUse"><stop stop-color="#D1BE9B"></stop><stop offset="0.338542" stop-color="#E7DDCB"></stop><stop offset="0.661458" stop-color="#F7E6C5"></stop><stop offset="1" stop-color="#A7987A"></stop></linearGradient><linearGradient id="paint3_linear_7901_8270" x1="15.5081" y1="15.9958" x2="31.9998" y2="15.9958" gradientUnits="userSpaceOnUse"><stop stop-color="#D1BE9B"></stop><stop offset="0.338542" stop-color="#E7DDCB"></stop><stop offset="0.661458" stop-color="#F7E6C5"></stop><stop offset="1" stop-color="#A7987A"></stop></linearGradient><linearGradient id="paint4_linear_7901_8270" x1="1.07546e-07" y1="16.0017" x2="16.4967" y2="16.0017" gradientUnits="userSpaceOnUse"><stop stop-color="#D1BE9B"></stop><stop offset="0.338542" stop-color="#E7DDCB"></stop><stop offset="0.661458" stop-color="#F7E6C5"></stop><stop offset="1" stop-color="#A7987A"></stop></linearGradient><linearGradient id="paint5_linear_7901_8270" x1="14.8809" y1="10.9016" x2="27.3137" y2="10.9016" gradientUnits="userSpaceOnUse"><stop stop-color="#D1BE9B"></stop><stop offset="0.338542" stop-color="#E7DDCB"></stop><stop offset="0.661458" stop-color="#F7E6C5"></stop><stop offset="1" stop-color="#A7987A"></stop></linearGradient><linearGradient id="paint6_linear_7901_8270" x1="4.68237" y1="21.1008" x2="17.1172" y2="21.1008" gradientUnits="userSpaceOnUse"><stop stop-color="#D1BE9B"></stop><stop offset="0.338542" stop-color="#E7DDCB"></stop><stop offset="0.661458" stop-color="#F7E6C5"></stop><stop offset="1" stop-color="#A7987A"></stop></linearGradient><linearGradient id="paint7_linear_7901_8270" x1="14.8828" y1="21.0974" x2="27.3137" y2="21.0974" gradientUnits="userSpaceOnUse"><stop stop-color="#D1BE9B"></stop><stop offset="0.338542" stop-color="#E7DDCB"></stop><stop offset="0.661458" stop-color="#F7E6C5"></stop><stop offset="1" stop-color="#A7987A"></stop></linearGradient><linearGradient id="paint8_linear_7901_8270" x1="4.6814" y1="10.9006" x2="17.1172" y2="10.9006" gradientUnits="userSpaceOnUse"><stop stop-color="#D1BE9B"></stop><stop offset="0.338542" stop-color="#E7DDCB"></stop><stop offset="0.661458" stop-color="#F7E6C5"></stop><stop offset="1" stop-color="#A7987A"></stop></linearGradient></defs></svg>