<svg width="32" height="32" viewBox="0 0 32 32" fill="none" xmlns="http://www.w3.org/2000/svg">
    <rect width="32" height="32" rx="9.6" fill="#272459"/>
    <path d="M7.43544 21.5113L7.44438 21.5156L7.45343 21.5196C10.1492 22.7219 13.0706 23.3434 16.0254 23.3434C18.9766 23.3434 21.8945 22.7234 24.5876 21.5239C24.6895 21.4827 24.8038 21.4818 24.9065 21.5216C25.011 21.5622 25.0935 21.641 25.1383 21.7394C25.1829 21.8376 25.187 21.9488 25.1498 22.0498C25.1134 22.1487 25.0397 22.2316 24.9421 22.28C22.138 23.5291 19.0992 24.175 16.0254 24.175C12.9475 24.175 9.90467 23.5274 7.09746 22.275L7.08974 22.2715L7.08195 22.2683C7.02944 22.2461 6.9823 22.2139 6.94314 22.1739C6.90399 22.1339 6.8736 22.0868 6.85345 22.0356C6.8333 21.9844 6.82372 21.93 6.82514 21.8754C6.82655 21.8207 6.83893 21.7668 6.86173 21.7166C6.88453 21.6664 6.91738 21.6209 6.95864 21.5828C6.9999 21.5448 7.04874 21.515 7.1024 21.4955C7.15608 21.476 7.2133 21.4673 7.27065 21.4701C7.328 21.4728 7.38403 21.4869 7.43544 21.5113Z" stroke="#B5A9FF" stroke-width="1.65"/>
    <path d="M19.5804 9.4259C18.4867 7.90958 17.1482 7 16.0002 7C14.8523 7 13.5138 7.90958 12.4201 9.4259C11.3195 10.9593 10.6877 12.8031 10.6877 14.4906C10.6877 15.7962 11.2475 17.0482 12.2437 17.9713C13.24 18.8945 14.5913 19.4131 16.0002 19.4131C17.4092 19.4131 18.7605 18.8945 19.7567 17.9713C20.753 17.0482 21.3127 15.7962 21.3127 14.4906C21.3127 12.8031 20.681 10.9593 19.5804 9.4259ZM16.0002 18.129C14.9592 18.128 13.961 17.7443 13.2249 17.0622C12.4887 16.3801 12.0747 15.4553 12.0736 14.4906C12.0736 11.2204 14.7408 8.28411 16.0002 8.28411C17.2597 8.28411 19.9269 11.2204 19.9269 14.4906C19.9258 15.4553 19.5118 16.3801 18.7756 17.0622C18.0395 17.7443 17.0413 18.128 16.0002 18.129Z" stroke="#B5A9FF" stroke-width="1.65"/>
</svg>
