<svg width="33" height="33" viewBox="0 0 33 33" fill="none" xmlns="http://www.w3.org/2000/svg">
<g clip-path="url(#clip0_4_173)">
<path fill-rule="evenodd" clip-rule="evenodd" d="M16.5 2.78571C8.92857 2.78571 2.78571 8.92857 2.78571 16.5C2.78571 24.0714 8.92857 30.2143 16.5 30.2143H24.7143C22.2857 31.6429 19.5 32.5 16.5 32.5C7.64286 32.5 0.5 25.2857 0.5 16.5C0.5 7.64286 7.64286 0.5 16.5 0.5C25.3571 0.5 32.5 7.64286 32.5 16.5C32.5 17.2857 32.4286 18.0714 32.3571 18.7857H30.0714C30.2143 18.0714 30.2857 17.2857 30.2857 16.5C30.2143 8.92857 24.0714 2.78571 16.5 2.78571Z" fill="#f0f0f8"/>
<path fill-rule="evenodd" clip-rule="evenodd" d="M29.6428 25.6429C29.0714 26.4286 28.3571 27.2143 27.6428 27.9286H24.0714H16.5C10.2143 27.9286 5.07141 22.7857 5.07141 16.5C5.07141 10.2143 10.2143 5.07144 16.5 5.07144C22.7857 5.07144 27.9286 10.2143 27.9286 16.5C27.9286 17.2857 27.8571 18.0714 27.7143 18.7857H25.3571C25.5714 18.0714 25.6428 17.2857 25.6428 16.5C25.6428 11.4286 21.5714 7.35716 16.5 7.35716C11.4286 7.35716 7.35713 11.4286 7.35713 16.5C7.35713 21.5714 11.4286 25.6429 16.5 25.6429H23.3571H26.7143H29.6428Z" fill="#f0f0f8"/>
<path fill-rule="evenodd" clip-rule="evenodd" d="M30.9286 23.3571C31.2857 22.6429 31.5714 21.8571 31.7857 21.0714H29.3571H26.9286H24.3571H21.5714H16.4286C13.9286 21.0714 11.8571 19 11.8571 16.5C11.8571 14 13.9286 11.9286 16.4286 11.9286C18.9286 11.9286 21 14 21 16.5C21 17.3571 20.7857 18.1429 20.3571 18.7857H22.8571C23.1429 18.0714 23.2143 17.2857 23.2143 16.5C23.2143 12.7143 20.1429 9.64285 16.3571 9.64285C12.5714 9.64285 9.5 12.7143 9.5 16.5C9.5 20.2857 12.5714 23.3571 16.3571 23.3571H22.4286H25.5H28.3571H30.9286Z" fill="#f0f0f8"/>
</g>
<defs>
<clipPath id="clip0_4_173">
<rect width="32" height="32" fill="#06060c" transform="translate(0.5 0.5)"/>
</clipPath>
</defs>
</svg>
