<svg width="33" height="32" viewBox="0 0 33 32" fill="none" xmlns="http://www.w3.org/2000/svg">
<g clip-path="url(#clip0_1_75)">
<path d="M16.5001 0C25.3367 0 32.5001 5.73074 32.5001 12.8C32.5001 19.445 26.171 24.907 18.0727 25.5387C18.1195 25.0798 18.1093 24.6181 18.0441 24.16C17.579 20.9088 14.3755 18.3424 10.3127 17.9666V1.01029L10.3047 0.995657C12.2098 0.354743 14.3035 0 16.5001 0Z" fill="#DEDEDE"/>
<path d="M8.31159 17.9648V1.81487L8.30359 1.80481C8.94588 1.49761 9.61445 1.22698 10.3036 0.995667L10.3116 1.0103V17.9666C14.3745 18.3424 17.579 20.9088 18.043 24.16C18.1093 24.6181 18.1185 25.0798 18.0716 25.5388C17.555 25.579 17.0305 25.5991 16.5002 25.6C10.9459 25.6 6.05217 23.3362 3.18359 19.8985C4.57445 18.8197 6.37445 18.1394 8.30017 17.9657H8.31159V17.9648Z" fill="#152E51"/>
<path d="M18.0727 25.5387C17.739 28.821 14.5458 31.5657 10.3013 31.9543C5.47268 32.3959 1.1104 29.6228 0.558398 25.76C0.23497 23.4999 1.28754 21.3668 3.18468 19.8985C6.05326 23.3362 10.947 25.6 16.5013 25.6C17.0315 25.5991 17.555 25.579 18.0727 25.5387Z" fill="#1E4480"/>
<path d="M8.31151 1.81487V17.9648H8.30008C6.37436 18.1385 4.57551 18.8178 3.18351 19.8976C1.48865 17.8661 0.501221 15.4258 0.501221 12.8C0.501221 8.12801 3.63036 4.03932 8.30465 1.80481L8.31151 1.81487Z" fill="#DEDEDE"/>
</g>
<defs>
<clipPath id="clip0_1_75">
<rect width="32" height="32" fill="white" transform="translate(0.5)"/>
</clipPath>
</defs>
</svg>
