<svg width="512" height="512" viewBox="0 0 512 512" fill="none" xmlns="http://www.w3.org/2000/svg">
<rect width="512" height="512" fill="#FF3D00"/>
<path d="M368 318.124C368 341.355 359.126 360.853 341.378 376.618C323.768 392.244 301.237 401.37 273.783 403.998V432H244.873V403.998C225.877 402.338 207.366 397.498 189.341 389.478C171.454 381.457 156.34 371.294 144 358.986L172.91 318.539C182.755 327.527 193.986 335.202 206.604 341.563C219.221 347.924 231.978 352.003 244.873 353.801V279.128C231.7 275.533 219.845 271.246 209.307 266.268C198.908 261.151 189.479 255.067 181.021 248.014C172.563 240.962 166.046 232.596 161.471 222.916C156.895 213.236 154.607 202.657 154.607 191.18C154.607 168.64 162.788 149.902 179.149 134.968C195.65 119.895 217.557 111.045 244.873 108.417V80H273.783V108.002C290.56 109.662 305.951 113.672 319.955 120.033C334.098 126.394 345.815 134.276 355.105 143.679L327.859 183.92C321.758 177.835 313.855 172.511 304.149 167.948C294.443 163.247 284.321 160.066 273.783 158.407V229.761C281.27 231.697 288.48 233.909 295.413 236.398C302.485 238.749 310.665 242.414 319.955 247.392C329.245 252.37 337.218 257.901 343.874 263.986C350.529 269.932 356.214 277.676 360.928 287.217C365.643 296.621 368 306.923 368 318.124ZM211.595 189.52C211.595 203.072 222.688 213.996 244.873 222.293V158.821C234.751 160.757 226.639 164.491 220.539 170.022C214.576 175.415 211.595 181.915 211.595 189.52ZM273.783 353.386C284.737 351.727 293.541 348.062 300.197 342.392C306.991 336.585 310.388 329.256 310.388 320.405C310.388 312.247 307.06 305.54 300.405 300.285C293.888 295.03 285.014 290.536 273.783 286.803V353.386Z" fill="white"/>
</svg>
