<svg width="391" height="391" viewBox="0 0 391 391" fill="none" xmlns="http://www.w3.org/2000/svg">
<path d="M195.095 3.52853H195.102C300.901 3.52853 386.668 89.2955 386.668 195.095V195.102C386.668 300.901 300.901 386.668 195.102 386.668H195.095C89.2955 386.668 3.52853 300.901 3.52853 195.102V195.095C3.52853 89.2955 89.2955 3.52853 195.095 3.52853Z" fill="black" stroke="black" stroke-width="7.05706"/>
<path fill-rule="evenodd" clip-rule="evenodd" d="M163.8 34.5591C88.4921 49.0647 31.6064 115.32 31.6064 194.862C31.6064 274.404 88.4921 340.659 163.8 355.165V339.865C96.8293 325.589 46.5991 266.091 46.5991 194.862C46.5991 123.633 96.8293 64.1355 163.8 49.8594V34.5591ZM226.201 49.9194V34.6133C301.37 49.2291 358.115 115.419 358.115 194.862C358.115 274.305 301.37 340.495 226.201 355.111V339.805C293.032 325.423 343.122 265.992 343.122 194.862C343.122 123.732 293.032 64.3014 226.201 49.9194Z" fill="white"/>
<path d="M218.119 189.407C230.576 191.781 240.237 196.359 247.104 203.142C253.971 209.755 257.405 218.233 257.405 228.577V244.856C257.405 257.234 252.933 267.239 243.99 274.869C235.047 282.33 223.31 286.061 208.777 286.061H203.747V312.005H186.5V286.061H181.23C171.648 286.061 163.184 283.941 155.838 279.702C148.492 275.293 142.743 269.189 138.591 261.388C134.599 253.419 132.603 244.262 132.603 233.918H149.85C149.85 244.432 152.724 252.995 158.473 259.608C164.382 266.052 172.127 269.273 181.709 269.273H208.298C217.72 269.273 225.306 267.069 231.055 262.66C236.804 258.082 239.678 252.147 239.678 244.856V228.577C239.678 222.812 237.522 217.894 233.211 213.825C229.059 209.755 223.31 207.127 215.964 205.94L172.846 198.309C160.709 196.105 151.287 191.526 144.58 184.574C137.872 177.622 134.519 168.889 134.519 158.376V144.641C134.519 132.262 138.831 122.428 147.454 115.136C156.237 107.675 167.815 103.945 182.188 103.945H186.5V78.0007H203.747V103.945H209.256C222.83 103.945 233.77 108.353 242.074 117.171C250.378 125.819 254.53 137.265 254.53 151.508H237.283C237.283 142.182 234.728 134.721 229.618 129.125C224.507 123.53 217.72 120.732 209.256 120.732H182.188C173.085 120.732 165.819 122.936 160.39 127.345C154.96 131.584 152.245 137.35 152.245 144.641V158.376C152.245 164.311 154.241 169.313 158.234 173.383C162.386 177.452 168.055 180.165 175.241 181.522L218.119 189.407Z" fill="white"/>
</svg>
