<svg width="64" height="65" viewBox="0 0 64 65" fill="none" xmlns="http://www.w3.org/2000/svg">
<path d="M42.7601 13.293H29.3841L27.4673 20.9794H21.6913L19.2625 30.7298C19.187 31.0313 19.1811 31.346 19.2453 31.6501C19.3094 31.9542 19.442 32.2398 19.6329 32.4851C19.8237 32.7304 20.0679 32.929 20.347 33.0659C20.626 33.2029 20.9325 33.2745 21.2433 33.2754H26.1329L21.5457 51.693L37.1361 35.1986C38.3697 33.893 37.4481 31.7394 35.6561 31.7394H28.2001L30.4961 22.5154H43.0769L44.7377 15.8402C44.8135 15.5387 44.8197 15.2239 44.7557 14.9197C44.6918 14.6155 44.5594 14.3298 44.3687 14.0844C44.178 13.8389 43.9339 13.6401 43.6549 13.503C43.3759 13.3658 43.0694 13.294 42.7585 13.293H42.7601Z" fill="#CBD4E2"/>
</svg>
