<svg width="24" height="24" viewBox="0 0 24 24" fill="none" xmlns="http://www.w3.org/2000/svg">
    <path fill-rule="evenodd" clip-rule="evenodd"
        d="M9.85707 5.14285C9.74341 5.14285 9.6344 5.188 9.55403 5.26837C9.47365 5.34875 9.4285 5.45776 9.4285 5.57142V6.85713H14.5714V5.57142C14.5714 5.45776 14.5262 5.34875 14.4458 5.26837C14.3655 5.188 14.2565 5.14285 14.1428 5.14285H9.85707ZM15.4285 6.85713V5.57142C15.4285 4.85999 14.8542 4.28571 14.1428 4.28571H9.85707C9.14564 4.28571 8.57136 4.85999 8.57136 5.57142V6.85713H4.71422C4.60055 6.85713 4.49154 6.90229 4.41117 6.98266C4.3308 7.06303 4.28564 7.17204 4.28564 7.28571C4.28564 7.39937 4.3308 7.50838 4.41117 7.58875C4.49154 7.66912 4.60055 7.71428 4.71422 7.71428H5.99993V18.4286C5.99993 18.71 6.05536 18.9886 6.16305 19.2486C6.27073 19.5086 6.42858 19.7448 6.62756 19.9438C6.82654 20.1428 7.06277 20.3006 7.32275 20.4083C7.58273 20.516 7.86138 20.5714 8.14279 20.5714H15.8571C16.1385 20.5714 16.4171 20.516 16.6771 20.4083C16.9371 20.3006 17.1733 20.1428 17.3723 19.9438C17.5713 19.7448 17.7291 19.5086 17.8368 19.2486C17.9445 18.9886 17.9999 18.71 17.9999 18.4286V7.71428H19.2856C19.3993 7.71428 19.5083 7.66912 19.5887 7.58875C19.6691 7.50838 19.7142 7.39937 19.7142 7.28571C19.7142 7.17204 19.6691 7.06303 19.5887 6.98266C19.5083 6.90229 19.3993 6.85713 19.2856 6.85713H15.4285ZM17.1428 7.71428H6.85707V18.4286C6.85707 19.14 7.43136 19.7143 8.14279 19.7143H15.8571C16.5685 19.7143 17.1428 19.14 17.1428 18.4286V7.71428ZM9.85707 10.2857C10.0971 10.2857 10.2856 10.4743 10.2856 10.7143V16.7143C10.2856 16.8279 10.2405 16.937 10.1601 17.0173C10.0797 17.0977 9.97074 17.1428 9.85707 17.1428C9.74341 17.1428 9.6344 17.0977 9.55403 17.0173C9.47365 16.937 9.4285 16.8279 9.4285 16.7143V10.7143C9.4285 10.4743 9.61707 10.2857 9.85707 10.2857ZM14.5714 10.7143C14.5714 10.6006 14.5262 10.4916 14.4458 10.4112C14.3655 10.3309 14.2565 10.2857 14.1428 10.2857C14.0291 10.2857 13.9201 10.3309 13.8397 10.4112C13.7594 10.4916 13.7142 10.6006 13.7142 10.7143V16.7143C13.7142 16.8279 13.7594 16.937 13.8397 17.0173C13.9201 17.0977 14.0291 17.1428 14.1428 17.1428C14.2565 17.1428 14.3655 17.0977 14.4458 17.0173C14.5262 16.937 14.5714 16.8279 14.5714 16.7143V10.7143Z"
        fill="#8B98A5" />
</svg>