<svg xmlns="http://www.w3.org/2000/svg" viewBox="0 0 24 24" width="20" height="20">
    <path fill="#8B98A5" fill-rule="evenodd"
        d="M11.5 6a.5.5 0 0 0-.5.5V8h6V6.5a.5.5 0 0 0-.5-.5h-5zM18 8V6.5c0-.83-.67-1.5-1.5-1.5h-5c-.83 0-1.5.67-1.5 1.5V8H5.5a.5.5 0 0 0 0 1H7v12.5A2.5 2.5 0 0 0 9.5 24h9a2.5 2.5 0 0 0 2.5-2.5V9h1.5a.5.5 0 0 0 0-1H18zm2 1H8v12.5c0 .83.67 1.5 1.5 1.5h9c.83 0 1.5-.67 1.5-1.5V9zm-8.5 3c.28 0 .5.22.5.5v7a.5.5 0 0 1-1 0v-7c0-.28.22-.5.5-.5zm5.5.5a.5.5 0 0 0-1 0v7a.5.5 0 0 0 1 0v-7z"></path>
</svg>