<svg width="24" height="24" viewBox="0 0 24 24" fill="none" xmlns="http://www.w3.org/2000/svg">
    <path d="M2.57153 4.28573H21.4287V3.42859H2.57153V4.28573Z" fill="#2b2928" />
    <path d="M2.57153 14.5714H21.4287V13.7143H2.57153V14.5714Z" fill="#2b2928" />
    <path d="M2.57153 9.42862H19.2858V8.57147H2.57153V9.42862Z" fill="#2b2928" />
    <path d="M4.71436 19.7143H21.4286V18.8572H4.71436V19.7143Z" fill="#2b2928" />
    <path
        d="M3.00003 20.5715C3.70975 20.5715 4.28575 19.9955 4.28575 19.2857C4.28575 18.576 3.70975 18 3.00003 18C2.29032 18 1.71432 18.576 1.71432 19.2857C1.71432 19.9955 2.29032 20.5715 3.00003 20.5715ZM3.00003 21.4286C1.81632 21.4286 0.857178 20.4695 0.857178 19.2857C0.857178 18.102 1.81632 17.1429 3.00003 17.1429C4.18375 17.1429 5.14289 18.102 5.14289 19.2857C5.14289 20.4695 4.18375 21.4286 3.00003 21.4286ZM21 10.2857C21.7097 10.2857 22.2857 9.70975 22.2857 9.00003C22.2857 8.29032 21.7097 7.71432 21 7.71432C20.2903 7.71432 19.7143 8.29032 19.7143 9.00003C19.7143 9.70975 20.2903 10.2857 21 10.2857ZM21 11.1429C19.8163 11.1429 18.8572 10.1837 18.8572 9.00003C18.8572 7.81632 19.8163 6.85718 21 6.85718C22.1838 6.85718 23.1429 7.81632 23.1429 9.00003C23.1429 10.1837 22.1838 11.1429 21 11.1429Z"
        fill="#2b2928" />
</svg>
    