<svg width="24" height="24" viewBox="0 0 24 24" fill="none" xmlns="http://www.w3.org/2000/svg">
  <path d="M6.42871 5.14285H17.5716V4.28571H6.42871V5.14285Z" fill="#2b2928" />
  <path d="M6.42871 19.7143H17.5716V18.8571H6.42871V19.7143Z" fill="#2b2928" />
  <path d="M4.28589 6.42853V17.5714H5.14303V6.42853H4.28589Z" fill="#2b2928" />
  <path d="M18.8572 6.42853V17.5714H19.7143V6.42853H18.8572Z" fill="#2b2928" />
  <path
    d="M4.71439 5.99998C5.4241 5.99998 6.0001 5.42398 6.0001 4.71427C6.0001 4.00455 5.4241 3.42855 4.71439 3.42855C4.00468 3.42855 3.42868 4.00455 3.42868 4.71427C3.42868 5.42398 4.00468 5.99998 4.71439 5.99998ZM4.71439 6.85713C3.53068 6.85713 2.57153 5.89798 2.57153 4.71427C2.57153 3.53055 3.53068 2.57141 4.71439 2.57141C5.8981 2.57141 6.85725 3.53055 6.85725 4.71427C6.85725 5.89798 5.8981 6.85713 4.71439 6.85713ZM19.2858 5.99998C19.9955 5.99998 20.5715 5.42398 20.5715 4.71427C20.5715 4.00455 19.9955 3.42855 19.2858 3.42855C18.5761 3.42855 18.0001 4.00455 18.0001 4.71427C18.0001 5.42398 18.5761 5.99998 19.2858 5.99998ZM19.2858 6.85713C18.1021 6.85713 17.143 5.89798 17.143 4.71427C17.143 3.53055 18.1021 2.57141 19.2858 2.57141C20.4695 2.57141 21.4287 3.53055 21.4287 4.71427C21.4287 5.89798 20.4695 6.85713 19.2858 6.85713ZM19.2858 20.5714C19.9955 20.5714 20.5715 19.9954 20.5715 19.2857C20.5715 18.576 19.9955 18 19.2858 18C18.5761 18 18.0001 18.576 18.0001 19.2857C18.0001 19.9954 18.5761 20.5714 19.2858 20.5714ZM19.2858 21.4286C18.1021 21.4286 17.143 20.4694 17.143 19.2857C17.143 18.102 18.1021 17.1428 19.2858 17.1428C20.4695 17.1428 21.4287 18.102 21.4287 19.2857C21.4287 20.4694 20.4695 21.4286 19.2858 21.4286ZM4.71439 20.5714C5.4241 20.5714 6.0001 19.9954 6.0001 19.2857C6.0001 18.576 5.4241 18 4.71439 18C4.00468 18 3.42868 18.576 3.42868 19.2857C3.42868 19.9954 4.00468 20.5714 4.71439 20.5714ZM4.71439 21.4286C3.53068 21.4286 2.57153 20.4694 2.57153 19.2857C2.57153 18.102 3.53068 17.1428 4.71439 17.1428C5.8981 17.1428 6.85725 18.102 6.85725 19.2857C6.85725 20.4694 5.8981 21.4286 4.71439 21.4286Z"
    fill="#2b2928" />
</svg>
  