<svg width="24" height="24" viewBox="0 0 24 24" fill="none" xmlns="http://www.w3.org/2000/svg">
<path d="M12 8.57145C11.5453 8.57145 11.1093 8.75206 10.7878 9.07355C10.4663 9.39504 10.2857 9.83108 10.2857 10.2857V19.7143H5.14282V10.2857C5.14282 6.50059 8.21482 3.42859 12 3.42859C15.7851 3.42859 18.8571 6.50059 18.8571 10.2857V19.7143H13.7143V10.2857C13.7143 9.83108 13.5336 9.39504 13.2121 9.07355C12.8907 8.75206 12.4546 8.57145 12 8.57145ZM9.42854 10.2857C9.42854 9.60375 9.69945 8.94969 10.1817 8.46746C10.6639 7.98522 11.318 7.7143 12 7.7143C12.682 7.7143 13.336 7.98522 13.8182 8.46746C14.3005 8.94969 14.5714 9.60375 14.5714 10.2857V18.8572H18V10.2857C18 6.97373 15.312 4.28573 12 4.28573C8.68797 4.28573 5.99997 6.97373 5.99997 10.2857V18.8572H9.42854V10.2857Z" fill="#2b2928"/>
<path fill-rule="evenodd" clip-rule="evenodd" d="M5.57129 15.4286H9.857V16.2857H5.57129V15.4286ZM14.1427 15.4286H18.4284V16.2857H14.1427V15.4286Z" fill="#2b2928"/>
</svg>
