<svg width="508" height="251" viewBox="0 0 508 251" fill="none" xmlns="http://www.w3.org/2000/svg">
<g filter="url(#filter0_b_2232_84491)">
<rect width="508" height="251" fill="#171D27" fill-opacity="0.3"/>
<path d="M17.2207 178.39L55.0566 98.6413L92.2822 138.722L109.369 108.145L181.99 201.943L219.216 138.722L249.728 98.6413L269.257 113.93L290.005 84.5923L335.164 156.077L362.626 118.475L387.036 132.938L402.903 79.6338" stroke="url(#paint0_linear_2232_84491)" stroke-width="2" stroke-linecap="round"/>
<line y1="-0.5" x2="422.302" y2="-0.5" transform="matrix(-0.999998 0.00197795 -0.0043142 -0.999991 439.518 59.7998)" stroke="#7371FC" stroke-dasharray="2 2"/>
<line y1="-0.5" x2="422.298" y2="-0.5" transform="matrix(-1 0.000999467 -0.00218012 -0.999998 439.518 172.192)" stroke="#7371FC" stroke-dasharray="2 2"/>
<path d="M447.526 41V36.144L447.702 36.2L445.382 39.032L445.318 38.888H449.11V39.48H445.086L444.79 38.888L447.646 35.4H448.134V41H447.526ZM450.111 42.32L449.887 42.032C450.058 41.9307 450.191 41.8213 450.287 41.704C450.383 41.5867 450.431 41.4747 450.431 41.368C450.431 41.3093 450.421 41.2533 450.399 41.2C450.378 41.1467 450.325 41.08 450.239 41C450.165 40.9307 450.109 40.864 450.071 40.8C450.039 40.736 450.023 40.6693 450.023 40.6C450.023 40.4933 450.061 40.408 450.135 40.344C450.21 40.2747 450.309 40.24 450.431 40.24C450.554 40.24 450.661 40.272 450.751 40.336C450.842 40.4 450.911 40.4907 450.959 40.608C451.013 40.72 451.039 40.8533 451.039 41.008C451.039 41.152 451.018 41.2853 450.975 41.408C450.933 41.536 450.871 41.656 450.791 41.768C450.711 41.88 450.615 41.9813 450.503 42.072C450.391 42.1627 450.261 42.2453 450.111 42.32ZM453.495 41.056C453.127 41.056 452.794 40.9733 452.495 40.808C452.197 40.6373 451.949 40.3947 451.751 40.08L452.127 39.672C452.351 39.9707 452.575 40.1787 452.799 40.296C453.029 40.408 453.263 40.464 453.503 40.464C453.759 40.464 453.991 40.4053 454.199 40.288C454.413 40.1653 454.581 40.0027 454.703 39.8C454.826 39.5973 454.887 39.3733 454.887 39.128C454.887 38.888 454.831 38.672 454.719 38.48C454.607 38.2827 454.455 38.128 454.263 38.016C454.071 37.8987 453.85 37.84 453.599 37.84C453.466 37.84 453.333 37.856 453.199 37.888C453.066 37.9147 452.927 37.96 452.783 38.024C452.645 38.0827 452.495 38.1573 452.335 38.248L451.983 37.776L452.311 35.4H455.335V35.984H452.639L452.839 35.84L452.543 37.8L452.359 37.672C452.445 37.6027 452.559 37.536 452.703 37.472C452.847 37.408 453.005 37.3573 453.175 37.32C453.351 37.2773 453.522 37.256 453.687 37.256C454.034 37.256 454.343 37.336 454.615 37.496C454.887 37.6507 455.103 37.8667 455.263 38.144C455.423 38.416 455.503 38.7307 455.503 39.088C455.503 39.4613 455.415 39.7973 455.239 40.096C455.063 40.3893 454.823 40.624 454.519 40.8C454.215 40.9707 453.874 41.056 453.495 41.056ZM458.434 41.08C457.997 41.08 457.624 40.9653 457.314 40.736C457.01 40.5067 456.776 40.1787 456.61 39.752C456.45 39.32 456.37 38.8027 456.37 38.2C456.37 37.5973 456.45 37.0827 456.61 36.656C456.776 36.224 457.01 35.8933 457.314 35.664C457.624 35.4347 457.997 35.32 458.434 35.32C458.866 35.32 459.237 35.4347 459.546 35.664C459.856 35.8933 460.09 36.224 460.25 36.656C460.416 37.0827 460.498 37.5973 460.498 38.2C460.498 38.8027 460.416 39.32 460.25 39.752C460.09 40.1787 459.856 40.5067 459.546 40.736C459.237 40.9653 458.866 41.08 458.434 41.08ZM458.434 40.496C458.893 40.496 459.245 40.296 459.49 39.896C459.741 39.496 459.866 38.9307 459.866 38.2C459.866 37.4693 459.741 36.904 459.49 36.504C459.245 36.104 458.893 35.904 458.434 35.904C457.97 35.904 457.613 36.104 457.362 36.504C457.117 36.904 456.994 37.4693 456.994 38.2C456.994 38.9307 457.117 39.496 457.362 39.896C457.613 40.296 457.97 40.496 458.434 40.496ZM463.333 41.08C462.895 41.08 462.522 40.9653 462.213 40.736C461.909 40.5067 461.674 40.1787 461.509 39.752C461.349 39.32 461.269 38.8027 461.269 38.2C461.269 37.5973 461.349 37.0827 461.509 36.656C461.674 36.224 461.909 35.8933 462.213 35.664C462.522 35.4347 462.895 35.32 463.333 35.32C463.765 35.32 464.135 35.4347 464.445 35.664C464.754 35.8933 464.989 36.224 465.149 36.656C465.314 37.0827 465.397 37.5973 465.397 38.2C465.397 38.8027 465.314 39.32 465.149 39.752C464.989 40.1787 464.754 40.5067 464.445 40.736C464.135 40.9653 463.765 41.08 463.333 41.08ZM463.333 40.496C463.791 40.496 464.143 40.296 464.389 39.896C464.639 39.496 464.765 38.9307 464.765 38.2C464.765 37.4693 464.639 36.904 464.389 36.504C464.143 36.104 463.791 35.904 463.333 35.904C462.869 35.904 462.511 36.104 462.261 36.504C462.015 36.904 461.893 37.4693 461.893 38.2C461.893 38.9307 462.015 39.496 462.261 39.896C462.511 40.296 462.869 40.496 463.333 40.496ZM466.695 41.08C466.551 41.08 466.439 41.0373 466.359 40.952C466.285 40.8667 466.247 40.744 466.247 40.584C466.247 40.44 466.287 40.3227 466.367 40.232C466.453 40.136 466.562 40.088 466.695 40.088C466.839 40.088 466.949 40.1333 467.023 40.224C467.103 40.3093 467.143 40.4293 467.143 40.584C467.143 40.7333 467.101 40.8533 467.015 40.944C466.935 41.0347 466.829 41.08 466.695 41.08ZM470.052 41.08C469.614 41.08 469.241 40.9653 468.932 40.736C468.628 40.5067 468.393 40.1787 468.228 39.752C468.068 39.32 467.988 38.8027 467.988 38.2C467.988 37.5973 468.068 37.0827 468.228 36.656C468.393 36.224 468.628 35.8933 468.932 35.664C469.241 35.4347 469.614 35.32 470.052 35.32C470.484 35.32 470.854 35.4347 471.164 35.664C471.473 35.8933 471.708 36.224 471.868 36.656C472.033 37.0827 472.116 37.5973 472.116 38.2C472.116 38.8027 472.033 39.32 471.868 39.752C471.708 40.1787 471.473 40.5067 471.164 40.736C470.854 40.9653 470.484 41.08 470.052 41.08ZM470.052 40.496C470.51 40.496 470.862 40.296 471.108 39.896C471.358 39.496 471.484 38.9307 471.484 38.2C471.484 37.4693 471.358 36.904 471.108 36.504C470.862 36.104 470.51 35.904 470.052 35.904C469.588 35.904 469.23 36.104 468.98 36.504C468.734 36.904 468.612 37.4693 468.612 38.2C468.612 38.9307 468.734 39.496 468.98 39.896C469.23 40.296 469.588 40.496 470.052 40.496ZM474.95 41.08C474.513 41.08 474.139 40.9653 473.83 40.736C473.526 40.5067 473.291 40.1787 473.126 39.752C472.966 39.32 472.886 38.8027 472.886 38.2C472.886 37.5973 472.966 37.0827 473.126 36.656C473.291 36.224 473.526 35.8933 473.83 35.664C474.139 35.4347 474.513 35.32 474.95 35.32C475.382 35.32 475.753 35.4347 476.062 35.664C476.371 35.8933 476.606 36.224 476.766 36.656C476.931 37.0827 477.014 37.5973 477.014 38.2C477.014 38.8027 476.931 39.32 476.766 39.752C476.606 40.1787 476.371 40.5067 476.062 40.736C475.753 40.9653 475.382 41.08 474.95 41.08ZM474.95 40.496C475.409 40.496 475.761 40.296 476.006 39.896C476.257 39.496 476.382 38.9307 476.382 38.2C476.382 37.4693 476.257 36.904 476.006 36.504C475.761 36.104 475.409 35.904 474.95 35.904C474.486 35.904 474.129 36.104 473.878 36.504C473.633 36.904 473.51 37.4693 473.51 38.2C473.51 38.9307 473.633 39.496 473.878 39.896C474.129 40.296 474.486 40.496 474.95 40.496Z" fill="#EBEBFF" fill-opacity="0.4"/>
<path d="M448.175 84.7998V79.9438L448.351 79.9998L446.031 82.8318L445.967 82.6878H449.759V83.2798H445.735L445.439 82.6878L448.295 79.1998H448.783V84.7998H448.175ZM450.76 86.1198L450.536 85.8318C450.706 85.7305 450.84 85.6211 450.936 85.5038C451.032 85.3865 451.08 85.2745 451.08 85.1678C451.08 85.1091 451.069 85.0531 451.048 84.9998C451.026 84.9465 450.973 84.8798 450.888 84.7998C450.813 84.7305 450.757 84.6638 450.72 84.5998C450.688 84.5358 450.672 84.4691 450.672 84.3998C450.672 84.2931 450.709 84.2078 450.784 84.1438C450.858 84.0745 450.957 84.0398 451.08 84.0398C451.202 84.0398 451.309 84.0718 451.4 84.1358C451.49 84.1998 451.56 84.2905 451.608 84.4078C451.661 84.5198 451.688 84.6531 451.688 84.8078C451.688 84.9518 451.666 85.0851 451.624 85.2078C451.581 85.3358 451.52 85.4558 451.44 85.5678C451.36 85.6798 451.264 85.7811 451.152 85.8718C451.04 85.9625 450.909 86.0451 450.76 86.1198ZM454.536 84.8798C454.099 84.8798 453.725 84.7651 453.416 84.5358C453.112 84.3065 452.877 83.9785 452.712 83.5518C452.552 83.1198 452.472 82.6025 452.472 81.9998C452.472 81.3971 452.552 80.8825 452.712 80.4558C452.877 80.0238 453.112 79.6931 453.416 79.4638C453.725 79.2345 454.099 79.1198 454.536 79.1198C454.968 79.1198 455.339 79.2345 455.648 79.4638C455.957 79.6931 456.192 80.0238 456.352 80.4558C456.517 80.8825 456.6 81.3971 456.6 81.9998C456.6 82.6025 456.517 83.1198 456.352 83.5518C456.192 83.9785 455.957 84.3065 455.648 84.5358C455.339 84.7651 454.968 84.8798 454.536 84.8798ZM454.536 84.2958C454.995 84.2958 455.347 84.0958 455.592 83.6958C455.843 83.2958 455.968 82.7305 455.968 81.9998C455.968 81.2691 455.843 80.7038 455.592 80.3038C455.347 79.9038 454.995 79.7038 454.536 79.7038C454.072 79.7038 453.715 79.9038 453.464 80.3038C453.219 80.7038 453.096 81.2691 453.096 81.9998C453.096 82.7305 453.219 83.2958 453.464 83.6958C453.715 84.0958 454.072 84.2958 454.536 84.2958ZM459.434 84.8798C458.997 84.8798 458.624 84.7651 458.314 84.5358C458.01 84.3065 457.776 83.9785 457.61 83.5518C457.45 83.1198 457.37 82.6025 457.37 81.9998C457.37 81.3971 457.45 80.8825 457.61 80.4558C457.776 80.0238 458.01 79.6931 458.314 79.4638C458.624 79.2345 458.997 79.1198 459.434 79.1198C459.866 79.1198 460.237 79.2345 460.546 79.4638C460.856 79.6931 461.09 80.0238 461.25 80.4558C461.416 80.8825 461.498 81.3971 461.498 81.9998C461.498 82.6025 461.416 83.1198 461.25 83.5518C461.09 83.9785 460.856 84.3065 460.546 84.5358C460.237 84.7651 459.866 84.8798 459.434 84.8798ZM459.434 84.2958C459.893 84.2958 460.245 84.0958 460.49 83.6958C460.741 83.2958 460.866 82.7305 460.866 81.9998C460.866 81.2691 460.741 80.7038 460.49 80.3038C460.245 79.9038 459.893 79.7038 459.434 79.7038C458.97 79.7038 458.613 79.9038 458.362 80.3038C458.117 80.7038 457.994 81.2691 457.994 81.9998C457.994 82.7305 458.117 83.2958 458.362 83.6958C458.613 84.0958 458.97 84.2958 459.434 84.2958ZM464.333 84.8798C463.895 84.8798 463.522 84.7651 463.213 84.5358C462.909 84.3065 462.674 83.9785 462.509 83.5518C462.349 83.1198 462.269 82.6025 462.269 81.9998C462.269 81.3971 462.349 80.8825 462.509 80.4558C462.674 80.0238 462.909 79.6931 463.213 79.4638C463.522 79.2345 463.895 79.1198 464.333 79.1198C464.765 79.1198 465.135 79.2345 465.445 79.4638C465.754 79.6931 465.989 80.0238 466.149 80.4558C466.314 80.8825 466.397 81.3971 466.397 81.9998C466.397 82.6025 466.314 83.1198 466.149 83.5518C465.989 83.9785 465.754 84.3065 465.445 84.5358C465.135 84.7651 464.765 84.8798 464.333 84.8798ZM464.333 84.2958C464.791 84.2958 465.143 84.0958 465.389 83.6958C465.639 83.2958 465.765 82.7305 465.765 81.9998C465.765 81.2691 465.639 80.7038 465.389 80.3038C465.143 79.9038 464.791 79.7038 464.333 79.7038C463.869 79.7038 463.511 79.9038 463.261 80.3038C463.015 80.7038 462.893 81.2691 462.893 81.9998C462.893 82.7305 463.015 83.2958 463.261 83.6958C463.511 84.0958 463.869 84.2958 464.333 84.2958ZM467.695 84.8798C467.551 84.8798 467.439 84.8371 467.359 84.7518C467.285 84.6665 467.247 84.5438 467.247 84.3838C467.247 84.2398 467.287 84.1225 467.367 84.0318C467.453 83.9358 467.562 83.8878 467.695 83.8878C467.839 83.8878 467.949 83.9331 468.023 84.0238C468.103 84.1091 468.143 84.2291 468.143 84.3838C468.143 84.5331 468.101 84.6531 468.015 84.7438C467.935 84.8345 467.829 84.8798 467.695 84.8798ZM471.052 84.8798C470.614 84.8798 470.241 84.7651 469.932 84.5358C469.628 84.3065 469.393 83.9785 469.228 83.5518C469.068 83.1198 468.988 82.6025 468.988 81.9998C468.988 81.3971 469.068 80.8825 469.228 80.4558C469.393 80.0238 469.628 79.6931 469.932 79.4638C470.241 79.2345 470.614 79.1198 471.052 79.1198C471.484 79.1198 471.854 79.2345 472.164 79.4638C472.473 79.6931 472.708 80.0238 472.868 80.4558C473.033 80.8825 473.116 81.3971 473.116 81.9998C473.116 82.6025 473.033 83.1198 472.868 83.5518C472.708 83.9785 472.473 84.3065 472.164 84.5358C471.854 84.7651 471.484 84.8798 471.052 84.8798ZM471.052 84.2958C471.51 84.2958 471.862 84.0958 472.108 83.6958C472.358 83.2958 472.484 82.7305 472.484 81.9998C472.484 81.2691 472.358 80.7038 472.108 80.3038C471.862 79.9038 471.51 79.7038 471.052 79.7038C470.588 79.7038 470.23 79.9038 469.98 80.3038C469.734 80.7038 469.612 81.2691 469.612 81.9998C469.612 82.7305 469.734 83.2958 469.98 83.6958C470.23 84.0958 470.588 84.2958 471.052 84.2958ZM475.95 84.8798C475.513 84.8798 475.139 84.7651 474.83 84.5358C474.526 84.3065 474.291 83.9785 474.126 83.5518C473.966 83.1198 473.886 82.6025 473.886 81.9998C473.886 81.3971 473.966 80.8825 474.126 80.4558C474.291 80.0238 474.526 79.6931 474.83 79.4638C475.139 79.2345 475.513 79.1198 475.95 79.1198C476.382 79.1198 476.753 79.2345 477.062 79.4638C477.371 79.6931 477.606 80.0238 477.766 80.4558C477.931 80.8825 478.014 81.3971 478.014 81.9998C478.014 82.6025 477.931 83.1198 477.766 83.5518C477.606 83.9785 477.371 84.3065 477.062 84.5358C476.753 84.7651 476.382 84.8798 475.95 84.8798ZM475.95 84.2958C476.409 84.2958 476.761 84.0958 477.006 83.6958C477.257 83.2958 477.382 82.7305 477.382 81.9998C477.382 81.2691 477.257 80.7038 477.006 80.3038C476.761 79.9038 476.409 79.7038 475.95 79.7038C475.486 79.7038 475.129 79.9038 474.878 80.3038C474.633 80.7038 474.51 81.2691 474.51 81.9998C474.51 82.7305 474.633 83.2958 474.878 83.6958C475.129 84.0958 475.486 84.2958 475.95 84.2958Z" fill="#EBEBFF" fill-opacity="0.4"/>
<path d="M447.261 128.68C446.866 128.68 446.517 128.592 446.213 128.416C445.914 128.234 445.634 127.928 445.373 127.496L445.885 127.176C446.029 127.405 446.176 127.589 446.325 127.728C446.48 127.861 446.637 127.957 446.797 128.016C446.957 128.074 447.128 128.104 447.309 128.104C447.533 128.104 447.738 128.05 447.925 127.944C448.112 127.832 448.261 127.682 448.373 127.496C448.485 127.304 448.541 127.09 448.541 126.856C448.541 126.616 448.49 126.405 448.389 126.224C448.288 126.042 448.146 125.901 447.965 125.8C447.789 125.698 447.584 125.648 447.349 125.648C447.264 125.648 447.17 125.658 447.069 125.68C446.973 125.696 446.866 125.73 446.749 125.784C446.637 125.832 446.514 125.904 446.381 126L446.197 125.504L448.173 123.352L448.309 123.584H445.765V123H448.789L448.949 123.32L447.029 125.368L446.869 125.208C446.938 125.165 447.021 125.13 447.117 125.104C447.213 125.072 447.309 125.056 447.405 125.056C447.65 125.056 447.88 125.101 448.093 125.192C448.306 125.282 448.49 125.41 448.645 125.576C448.805 125.736 448.93 125.922 449.021 126.136C449.112 126.349 449.157 126.581 449.157 126.832C449.157 127.178 449.074 127.493 448.909 127.776C448.744 128.053 448.517 128.274 448.229 128.44C447.941 128.6 447.618 128.68 447.261 128.68ZM450.111 129.92L449.887 129.632C450.058 129.53 450.191 129.421 450.287 129.304C450.383 129.186 450.431 129.074 450.431 128.968C450.431 128.909 450.421 128.853 450.399 128.8C450.378 128.746 450.325 128.68 450.239 128.6C450.165 128.53 450.109 128.464 450.071 128.4C450.039 128.336 450.023 128.269 450.023 128.2C450.023 128.093 450.061 128.008 450.135 127.944C450.21 127.874 450.309 127.84 450.431 127.84C450.554 127.84 450.661 127.872 450.751 127.936C450.842 128 450.911 128.09 450.959 128.208C451.013 128.32 451.039 128.453 451.039 128.608C451.039 128.752 451.018 128.885 450.975 129.008C450.933 129.136 450.871 129.256 450.791 129.368C450.711 129.48 450.615 129.581 450.503 129.672C450.391 129.762 450.261 129.845 450.111 129.92ZM453.495 128.656C453.127 128.656 452.794 128.573 452.495 128.408C452.197 128.237 451.949 127.994 451.751 127.68L452.127 127.272C452.351 127.57 452.575 127.778 452.799 127.896C453.029 128.008 453.263 128.064 453.503 128.064C453.759 128.064 453.991 128.005 454.199 127.888C454.413 127.765 454.581 127.602 454.703 127.4C454.826 127.197 454.887 126.973 454.887 126.728C454.887 126.488 454.831 126.272 454.719 126.08C454.607 125.882 454.455 125.728 454.263 125.616C454.071 125.498 453.85 125.44 453.599 125.44C453.466 125.44 453.333 125.456 453.199 125.488C453.066 125.514 452.927 125.56 452.783 125.624C452.645 125.682 452.495 125.757 452.335 125.848L451.983 125.376L452.311 123H455.335V123.584H452.639L452.839 123.44L452.543 125.4L452.359 125.272C452.445 125.202 452.559 125.136 452.703 125.072C452.847 125.008 453.005 124.957 453.175 124.92C453.351 124.877 453.522 124.856 453.687 124.856C454.034 124.856 454.343 124.936 454.615 125.096C454.887 125.25 455.103 125.466 455.263 125.744C455.423 126.016 455.503 126.33 455.503 126.688C455.503 127.061 455.415 127.397 455.239 127.696C455.063 127.989 454.823 128.224 454.519 128.4C454.215 128.57 453.874 128.656 453.495 128.656ZM458.434 128.68C457.997 128.68 457.624 128.565 457.314 128.336C457.01 128.106 456.776 127.778 456.61 127.352C456.45 126.92 456.37 126.402 456.37 125.8C456.37 125.197 456.45 124.682 456.61 124.256C456.776 123.824 457.01 123.493 457.314 123.264C457.624 123.034 457.997 122.92 458.434 122.92C458.866 122.92 459.237 123.034 459.546 123.264C459.856 123.493 460.09 123.824 460.25 124.256C460.416 124.682 460.498 125.197 460.498 125.8C460.498 126.402 460.416 126.92 460.25 127.352C460.09 127.778 459.856 128.106 459.546 128.336C459.237 128.565 458.866 128.68 458.434 128.68ZM458.434 128.096C458.893 128.096 459.245 127.896 459.49 127.496C459.741 127.096 459.866 126.53 459.866 125.8C459.866 125.069 459.741 124.504 459.49 124.104C459.245 123.704 458.893 123.504 458.434 123.504C457.97 123.504 457.613 123.704 457.362 124.104C457.117 124.504 456.994 125.069 456.994 125.8C456.994 126.53 457.117 127.096 457.362 127.496C457.613 127.896 457.97 128.096 458.434 128.096ZM463.333 128.68C462.895 128.68 462.522 128.565 462.213 128.336C461.909 128.106 461.674 127.778 461.509 127.352C461.349 126.92 461.269 126.402 461.269 125.8C461.269 125.197 461.349 124.682 461.509 124.256C461.674 123.824 461.909 123.493 462.213 123.264C462.522 123.034 462.895 122.92 463.333 122.92C463.765 122.92 464.135 123.034 464.445 123.264C464.754 123.493 464.989 123.824 465.149 124.256C465.314 124.682 465.397 125.197 465.397 125.8C465.397 126.402 465.314 126.92 465.149 127.352C464.989 127.778 464.754 128.106 464.445 128.336C464.135 128.565 463.765 128.68 463.333 128.68ZM463.333 128.096C463.791 128.096 464.143 127.896 464.389 127.496C464.639 127.096 464.765 126.53 464.765 125.8C464.765 125.069 464.639 124.504 464.389 124.104C464.143 123.704 463.791 123.504 463.333 123.504C462.869 123.504 462.511 123.704 462.261 124.104C462.015 124.504 461.893 125.069 461.893 125.8C461.893 126.53 462.015 127.096 462.261 127.496C462.511 127.896 462.869 128.096 463.333 128.096ZM466.695 128.68C466.551 128.68 466.439 128.637 466.359 128.552C466.285 128.466 466.247 128.344 466.247 128.184C466.247 128.04 466.287 127.922 466.367 127.832C466.453 127.736 466.562 127.688 466.695 127.688C466.839 127.688 466.949 127.733 467.023 127.824C467.103 127.909 467.143 128.029 467.143 128.184C467.143 128.333 467.101 128.453 467.015 128.544C466.935 128.634 466.829 128.68 466.695 128.68ZM470.052 128.68C469.614 128.68 469.241 128.565 468.932 128.336C468.628 128.106 468.393 127.778 468.228 127.352C468.068 126.92 467.988 126.402 467.988 125.8C467.988 125.197 468.068 124.682 468.228 124.256C468.393 123.824 468.628 123.493 468.932 123.264C469.241 123.034 469.614 122.92 470.052 122.92C470.484 122.92 470.854 123.034 471.164 123.264C471.473 123.493 471.708 123.824 471.868 124.256C472.033 124.682 472.116 125.197 472.116 125.8C472.116 126.402 472.033 126.92 471.868 127.352C471.708 127.778 471.473 128.106 471.164 128.336C470.854 128.565 470.484 128.68 470.052 128.68ZM470.052 128.096C470.51 128.096 470.862 127.896 471.108 127.496C471.358 127.096 471.484 126.53 471.484 125.8C471.484 125.069 471.358 124.504 471.108 124.104C470.862 123.704 470.51 123.504 470.052 123.504C469.588 123.504 469.23 123.704 468.98 124.104C468.734 124.504 468.612 125.069 468.612 125.8C468.612 126.53 468.734 127.096 468.98 127.496C469.23 127.896 469.588 128.096 470.052 128.096ZM474.95 128.68C474.513 128.68 474.139 128.565 473.83 128.336C473.526 128.106 473.291 127.778 473.126 127.352C472.966 126.92 472.886 126.402 472.886 125.8C472.886 125.197 472.966 124.682 473.126 124.256C473.291 123.824 473.526 123.493 473.83 123.264C474.139 123.034 474.513 122.92 474.95 122.92C475.382 122.92 475.753 123.034 476.062 123.264C476.371 123.493 476.606 123.824 476.766 124.256C476.931 124.682 477.014 125.197 477.014 125.8C477.014 126.402 476.931 126.92 476.766 127.352C476.606 127.778 476.371 128.106 476.062 128.336C475.753 128.565 475.382 128.68 474.95 128.68ZM474.95 128.096C475.409 128.096 475.761 127.896 476.006 127.496C476.257 127.096 476.382 126.53 476.382 125.8C476.382 125.069 476.257 124.504 476.006 124.104C475.761 123.704 475.409 123.504 474.95 123.504C474.486 123.504 474.129 123.704 473.878 124.104C473.633 124.504 473.51 125.069 473.51 125.8C473.51 126.53 473.633 127.096 473.878 127.496C474.129 127.896 474.486 128.096 474.95 128.096Z" fill="#EBEBFF" fill-opacity="0.4"/>
<path d="M446.909 172.48C446.515 172.48 446.165 172.392 445.861 172.216C445.563 172.035 445.283 171.728 445.021 171.296L445.533 170.976C445.677 171.206 445.824 171.39 445.973 171.528C446.128 171.662 446.285 171.758 446.445 171.816C446.605 171.875 446.776 171.904 446.957 171.904C447.181 171.904 447.387 171.851 447.573 171.744C447.76 171.632 447.909 171.483 448.021 171.296C448.133 171.104 448.189 170.891 448.189 170.656C448.189 170.416 448.139 170.206 448.037 170.024C447.936 169.843 447.795 169.702 447.613 169.6C447.437 169.499 447.232 169.448 446.997 169.448C446.912 169.448 446.819 169.459 446.717 169.48C446.621 169.496 446.515 169.531 446.397 169.584C446.285 169.632 446.163 169.704 446.029 169.8L445.845 169.304L447.821 167.152L447.957 167.384H445.413V166.8H448.437L448.597 167.12L446.677 169.168L446.517 169.008C446.587 168.966 446.669 168.931 446.765 168.904C446.861 168.872 446.957 168.856 447.053 168.856C447.299 168.856 447.528 168.902 447.741 168.992C447.955 169.083 448.139 169.211 448.293 169.376C448.453 169.536 448.579 169.723 448.669 169.936C448.76 170.15 448.805 170.382 448.805 170.632C448.805 170.979 448.723 171.294 448.557 171.576C448.392 171.854 448.165 172.075 447.877 172.24C447.589 172.4 447.267 172.48 446.909 172.48ZM449.76 173.72L449.536 173.432C449.706 173.331 449.84 173.222 449.936 173.104C450.032 172.987 450.08 172.875 450.08 172.768C450.08 172.71 450.069 172.654 450.048 172.6C450.026 172.547 449.973 172.48 449.888 172.4C449.813 172.331 449.757 172.264 449.72 172.2C449.688 172.136 449.672 172.07 449.672 172C449.672 171.894 449.709 171.808 449.784 171.744C449.858 171.675 449.957 171.64 450.08 171.64C450.202 171.64 450.309 171.672 450.4 171.736C450.49 171.8 450.56 171.891 450.608 172.008C450.661 172.12 450.688 172.254 450.688 172.408C450.688 172.552 450.666 172.686 450.624 172.808C450.581 172.936 450.52 173.056 450.44 173.168C450.36 173.28 450.264 173.382 450.152 173.472C450.04 173.563 449.909 173.646 449.76 173.72ZM453.536 172.48C453.099 172.48 452.725 172.366 452.416 172.136C452.112 171.907 451.877 171.579 451.712 171.152C451.552 170.72 451.472 170.203 451.472 169.6C451.472 168.998 451.552 168.483 451.712 168.056C451.877 167.624 452.112 167.294 452.416 167.064C452.725 166.835 453.099 166.72 453.536 166.72C453.968 166.72 454.339 166.835 454.648 167.064C454.957 167.294 455.192 167.624 455.352 168.056C455.517 168.483 455.6 168.998 455.6 169.6C455.6 170.203 455.517 170.72 455.352 171.152C455.192 171.579 454.957 171.907 454.648 172.136C454.339 172.366 453.968 172.48 453.536 172.48ZM453.536 171.896C453.995 171.896 454.347 171.696 454.592 171.296C454.843 170.896 454.968 170.331 454.968 169.6C454.968 168.87 454.843 168.304 454.592 167.904C454.347 167.504 453.995 167.304 453.536 167.304C453.072 167.304 452.715 167.504 452.464 167.904C452.219 168.304 452.096 168.87 452.096 169.6C452.096 170.331 452.219 170.896 452.464 171.296C452.715 171.696 453.072 171.896 453.536 171.896ZM458.434 172.48C457.997 172.48 457.624 172.366 457.314 172.136C457.01 171.907 456.776 171.579 456.61 171.152C456.45 170.72 456.37 170.203 456.37 169.6C456.37 168.998 456.45 168.483 456.61 168.056C456.776 167.624 457.01 167.294 457.314 167.064C457.624 166.835 457.997 166.72 458.434 166.72C458.866 166.72 459.237 166.835 459.546 167.064C459.856 167.294 460.09 167.624 460.25 168.056C460.416 168.483 460.498 168.998 460.498 169.6C460.498 170.203 460.416 170.72 460.25 171.152C460.09 171.579 459.856 171.907 459.546 172.136C459.237 172.366 458.866 172.48 458.434 172.48ZM458.434 171.896C458.893 171.896 459.245 171.696 459.49 171.296C459.741 170.896 459.866 170.331 459.866 169.6C459.866 168.87 459.741 168.304 459.49 167.904C459.245 167.504 458.893 167.304 458.434 167.304C457.97 167.304 457.613 167.504 457.362 167.904C457.117 168.304 456.994 168.87 456.994 169.6C456.994 170.331 457.117 170.896 457.362 171.296C457.613 171.696 457.97 171.896 458.434 171.896ZM463.333 172.48C462.895 172.48 462.522 172.366 462.213 172.136C461.909 171.907 461.674 171.579 461.509 171.152C461.349 170.72 461.269 170.203 461.269 169.6C461.269 168.998 461.349 168.483 461.509 168.056C461.674 167.624 461.909 167.294 462.213 167.064C462.522 166.835 462.895 166.72 463.333 166.72C463.765 166.72 464.135 166.835 464.445 167.064C464.754 167.294 464.989 167.624 465.149 168.056C465.314 168.483 465.397 168.998 465.397 169.6C465.397 170.203 465.314 170.72 465.149 171.152C464.989 171.579 464.754 171.907 464.445 172.136C464.135 172.366 463.765 172.48 463.333 172.48ZM463.333 171.896C463.791 171.896 464.143 171.696 464.389 171.296C464.639 170.896 464.765 170.331 464.765 169.6C464.765 168.87 464.639 168.304 464.389 167.904C464.143 167.504 463.791 167.304 463.333 167.304C462.869 167.304 462.511 167.504 462.261 167.904C462.015 168.304 461.893 168.87 461.893 169.6C461.893 170.331 462.015 170.896 462.261 171.296C462.511 171.696 462.869 171.896 463.333 171.896ZM466.695 172.48C466.551 172.48 466.439 172.438 466.359 172.352C466.285 172.267 466.247 172.144 466.247 171.984C466.247 171.84 466.287 171.723 466.367 171.632C466.453 171.536 466.562 171.488 466.695 171.488C466.839 171.488 466.949 171.534 467.023 171.624C467.103 171.71 467.143 171.83 467.143 171.984C467.143 172.134 467.101 172.254 467.015 172.344C466.935 172.435 466.829 172.48 466.695 172.48ZM470.052 172.48C469.614 172.48 469.241 172.366 468.932 172.136C468.628 171.907 468.393 171.579 468.228 171.152C468.068 170.72 467.988 170.203 467.988 169.6C467.988 168.998 468.068 168.483 468.228 168.056C468.393 167.624 468.628 167.294 468.932 167.064C469.241 166.835 469.614 166.72 470.052 166.72C470.484 166.72 470.854 166.835 471.164 167.064C471.473 167.294 471.708 167.624 471.868 168.056C472.033 168.483 472.116 168.998 472.116 169.6C472.116 170.203 472.033 170.72 471.868 171.152C471.708 171.579 471.473 171.907 471.164 172.136C470.854 172.366 470.484 172.48 470.052 172.48ZM470.052 171.896C470.51 171.896 470.862 171.696 471.108 171.296C471.358 170.896 471.484 170.331 471.484 169.6C471.484 168.87 471.358 168.304 471.108 167.904C470.862 167.504 470.51 167.304 470.052 167.304C469.588 167.304 469.23 167.504 468.98 167.904C468.734 168.304 468.612 168.87 468.612 169.6C468.612 170.331 468.734 170.896 468.98 171.296C469.23 171.696 469.588 171.896 470.052 171.896ZM474.95 172.48C474.513 172.48 474.139 172.366 473.83 172.136C473.526 171.907 473.291 171.579 473.126 171.152C472.966 170.72 472.886 170.203 472.886 169.6C472.886 168.998 472.966 168.483 473.126 168.056C473.291 167.624 473.526 167.294 473.83 167.064C474.139 166.835 474.513 166.72 474.95 166.72C475.382 166.72 475.753 166.835 476.062 167.064C476.371 167.294 476.606 167.624 476.766 168.056C476.931 168.483 477.014 168.998 477.014 169.6C477.014 170.203 476.931 170.72 476.766 171.152C476.606 171.579 476.371 171.907 476.062 172.136C475.753 172.366 475.382 172.48 474.95 172.48ZM474.95 171.896C475.409 171.896 475.761 171.696 476.006 171.296C476.257 170.896 476.382 170.331 476.382 169.6C476.382 168.87 476.257 168.304 476.006 167.904C475.761 167.504 475.409 167.304 474.95 167.304C474.486 167.304 474.129 167.504 473.878 167.904C473.633 168.304 473.51 168.87 473.51 169.6C473.51 170.331 473.633 170.896 473.878 171.296C474.129 171.696 474.486 171.896 474.95 171.896Z" fill="#EBEBFF" fill-opacity="0.4"/>
<path d="M445.808 216.2L445.616 215.736L447.504 213.616C447.595 213.515 447.688 213.4 447.784 213.272C447.886 213.144 447.979 213.011 448.064 212.872C448.155 212.728 448.227 212.587 448.28 212.448C448.334 212.31 448.36 212.174 448.36 212.04C448.36 211.843 448.318 211.678 448.232 211.544C448.147 211.406 448.024 211.299 447.864 211.224C447.71 211.15 447.528 211.112 447.32 211.112C447.139 211.112 446.96 211.155 446.784 211.24C446.608 211.326 446.448 211.456 446.304 211.632C446.16 211.808 446.048 212.032 445.968 212.304L445.472 212.008C445.568 211.683 445.71 211.411 445.896 211.192C446.083 210.968 446.304 210.8 446.56 210.688C446.816 210.576 447.091 210.52 447.384 210.52C447.694 210.52 447.971 210.584 448.216 210.712C448.462 210.835 448.656 211.011 448.8 211.24C448.944 211.464 449.016 211.723 449.016 212.016C449.016 212.144 449 212.272 448.968 212.4C448.942 212.528 448.899 212.656 448.84 212.784C448.782 212.912 448.71 213.043 448.624 213.176C448.544 213.31 448.448 213.446 448.336 213.584C448.23 213.723 448.11 213.867 447.976 214.016L446.368 215.808L446.272 215.6H449.192V216.2H445.808ZM450.111 217.52L449.887 217.232C450.058 217.131 450.191 217.022 450.287 216.904C450.383 216.787 450.431 216.675 450.431 216.568C450.431 216.51 450.421 216.454 450.399 216.4C450.378 216.347 450.325 216.28 450.239 216.2C450.165 216.131 450.109 216.064 450.071 216C450.039 215.936 450.023 215.87 450.023 215.8C450.023 215.694 450.061 215.608 450.135 215.544C450.21 215.475 450.309 215.44 450.431 215.44C450.554 215.44 450.661 215.472 450.751 215.536C450.842 215.6 450.911 215.691 450.959 215.808C451.013 215.92 451.039 216.054 451.039 216.208C451.039 216.352 451.018 216.486 450.975 216.608C450.933 216.736 450.871 216.856 450.791 216.968C450.711 217.08 450.615 217.182 450.503 217.272C450.391 217.363 450.261 217.446 450.111 217.52ZM453.495 216.256C453.127 216.256 452.794 216.174 452.495 216.008C452.197 215.838 451.949 215.595 451.751 215.28L452.127 214.872C452.351 215.171 452.575 215.379 452.799 215.496C453.029 215.608 453.263 215.664 453.503 215.664C453.759 215.664 453.991 215.606 454.199 215.488C454.413 215.366 454.581 215.203 454.703 215C454.826 214.798 454.887 214.574 454.887 214.328C454.887 214.088 454.831 213.872 454.719 213.68C454.607 213.483 454.455 213.328 454.263 213.216C454.071 213.099 453.85 213.04 453.599 213.04C453.466 213.04 453.333 213.056 453.199 213.088C453.066 213.115 452.927 213.16 452.783 213.224C452.645 213.283 452.495 213.358 452.335 213.448L451.983 212.976L452.311 210.6H455.335V211.184H452.639L452.839 211.04L452.543 213L452.359 212.872C452.445 212.803 452.559 212.736 452.703 212.672C452.847 212.608 453.005 212.558 453.175 212.52C453.351 212.478 453.522 212.456 453.687 212.456C454.034 212.456 454.343 212.536 454.615 212.696C454.887 212.851 455.103 213.067 455.263 213.344C455.423 213.616 455.503 213.931 455.503 214.288C455.503 214.662 455.415 214.998 455.239 215.296C455.063 215.59 454.823 215.824 454.519 216C454.215 216.171 453.874 216.256 453.495 216.256ZM458.434 216.28C457.997 216.28 457.624 216.166 457.314 215.936C457.01 215.707 456.776 215.379 456.61 214.952C456.45 214.52 456.37 214.003 456.37 213.4C456.37 212.798 456.45 212.283 456.61 211.856C456.776 211.424 457.01 211.094 457.314 210.864C457.624 210.635 457.997 210.52 458.434 210.52C458.866 210.52 459.237 210.635 459.546 210.864C459.856 211.094 460.09 211.424 460.25 211.856C460.416 212.283 460.498 212.798 460.498 213.4C460.498 214.003 460.416 214.52 460.25 214.952C460.09 215.379 459.856 215.707 459.546 215.936C459.237 216.166 458.866 216.28 458.434 216.28ZM458.434 215.696C458.893 215.696 459.245 215.496 459.49 215.096C459.741 214.696 459.866 214.131 459.866 213.4C459.866 212.67 459.741 212.104 459.49 211.704C459.245 211.304 458.893 211.104 458.434 211.104C457.97 211.104 457.613 211.304 457.362 211.704C457.117 212.104 456.994 212.67 456.994 213.4C456.994 214.131 457.117 214.696 457.362 215.096C457.613 215.496 457.97 215.696 458.434 215.696ZM463.333 216.28C462.895 216.28 462.522 216.166 462.213 215.936C461.909 215.707 461.674 215.379 461.509 214.952C461.349 214.52 461.269 214.003 461.269 213.4C461.269 212.798 461.349 212.283 461.509 211.856C461.674 211.424 461.909 211.094 462.213 210.864C462.522 210.635 462.895 210.52 463.333 210.52C463.765 210.52 464.135 210.635 464.445 210.864C464.754 211.094 464.989 211.424 465.149 211.856C465.314 212.283 465.397 212.798 465.397 213.4C465.397 214.003 465.314 214.52 465.149 214.952C464.989 215.379 464.754 215.707 464.445 215.936C464.135 216.166 463.765 216.28 463.333 216.28ZM463.333 215.696C463.791 215.696 464.143 215.496 464.389 215.096C464.639 214.696 464.765 214.131 464.765 213.4C464.765 212.67 464.639 212.104 464.389 211.704C464.143 211.304 463.791 211.104 463.333 211.104C462.869 211.104 462.511 211.304 462.261 211.704C462.015 212.104 461.893 212.67 461.893 213.4C461.893 214.131 462.015 214.696 462.261 215.096C462.511 215.496 462.869 215.696 463.333 215.696ZM466.695 216.28C466.551 216.28 466.439 216.238 466.359 216.152C466.285 216.067 466.247 215.944 466.247 215.784C466.247 215.64 466.287 215.523 466.367 215.432C466.453 215.336 466.562 215.288 466.695 215.288C466.839 215.288 466.949 215.334 467.023 215.424C467.103 215.51 467.143 215.63 467.143 215.784C467.143 215.934 467.101 216.054 467.015 216.144C466.935 216.235 466.829 216.28 466.695 216.28ZM470.052 216.28C469.614 216.28 469.241 216.166 468.932 215.936C468.628 215.707 468.393 215.379 468.228 214.952C468.068 214.52 467.988 214.003 467.988 213.4C467.988 212.798 468.068 212.283 468.228 211.856C468.393 211.424 468.628 211.094 468.932 210.864C469.241 210.635 469.614 210.52 470.052 210.52C470.484 210.52 470.854 210.635 471.164 210.864C471.473 211.094 471.708 211.424 471.868 211.856C472.033 212.283 472.116 212.798 472.116 213.4C472.116 214.003 472.033 214.52 471.868 214.952C471.708 215.379 471.473 215.707 471.164 215.936C470.854 216.166 470.484 216.28 470.052 216.28ZM470.052 215.696C470.51 215.696 470.862 215.496 471.108 215.096C471.358 214.696 471.484 214.131 471.484 213.4C471.484 212.67 471.358 212.104 471.108 211.704C470.862 211.304 470.51 211.104 470.052 211.104C469.588 211.104 469.23 211.304 468.98 211.704C468.734 212.104 468.612 212.67 468.612 213.4C468.612 214.131 468.734 214.696 468.98 215.096C469.23 215.496 469.588 215.696 470.052 215.696ZM474.95 216.28C474.513 216.28 474.139 216.166 473.83 215.936C473.526 215.707 473.291 215.379 473.126 214.952C472.966 214.52 472.886 214.003 472.886 213.4C472.886 212.798 472.966 212.283 473.126 211.856C473.291 211.424 473.526 211.094 473.83 210.864C474.139 210.635 474.513 210.52 474.95 210.52C475.382 210.52 475.753 210.635 476.062 210.864C476.371 211.094 476.606 211.424 476.766 211.856C476.931 212.283 477.014 212.798 477.014 213.4C477.014 214.003 476.931 214.52 476.766 214.952C476.606 215.379 476.371 215.707 476.062 215.936C475.753 216.166 475.382 216.28 474.95 216.28ZM474.95 215.696C475.409 215.696 475.761 215.496 476.006 215.096C476.257 214.696 476.382 214.131 476.382 213.4C476.382 212.67 476.257 212.104 476.006 211.704C475.761 211.304 475.409 211.104 474.95 211.104C474.486 211.104 474.129 211.304 473.878 211.704C473.633 212.104 473.51 212.67 473.51 213.4C473.51 214.131 473.633 214.696 473.878 215.096C474.129 215.496 474.486 215.696 474.95 215.696Z" fill="#EBEBFF" fill-opacity="0.4"/>
</g>
<defs>
<filter id="filter0_b_2232_84491" x="-20" y="-20" width="548" height="291" filterUnits="userSpaceOnUse" color-interpolation-filters="sRGB">
<feFlood flood-opacity="0" result="BackgroundImageFix"/>
<feGaussianBlur in="BackgroundImage" stdDeviation="10"/>
<feComposite in2="SourceAlpha" operator="in" result="effect1_backgroundBlur_2232_84491"/>
<feBlend mode="normal" in="SourceGraphic" in2="effect1_backgroundBlur_2232_84491" result="shape"/>
</filter>
<linearGradient id="paint0_linear_2232_84491" x1="17.2207" y1="140.789" x2="402.903" y2="140.789" gradientUnits="userSpaceOnUse">
<stop stop-color="#7371FC"/>
<stop offset="0.494792" stop-color="#CDC1FF"/>
<stop offset="1" stop-color="#7371FC"/>
</linearGradient>
</defs>
</svg>
