<svg version="1.0" xmlns="http://www.w3.org/2000/svg"
 width="235.000000pt" height="231.000000pt" viewBox="0 0 235.000000 231.000000"
 preserveAspectRatio="xMidYMid meet">

<g transform="translate(0.000000,231.000000) scale(0.100000,-0.100000)"
fill="#baacff" stroke="none">
<path d="M204 2115 c-9 -14 -14 -35 -12 -48 3 -17 402 -600 437 -640 4 -4 34
13 66 39 72 55 196 117 285 140 36 10 69 21 74 25 7 6 -207 377 -263 456 -35
49 -61 53 -325 53 l-246 0 -16 -25z"/>
<path d="M1628 2123 c-17 -11 -78 -102 -165 -247 -76 -126 -138 -234 -138
-239 0 -5 33 -18 73 -28 95 -24 187 -69 268 -130 36 -27 70 -51 74 -52 4 -1
108 140 229 313 231 330 243 353 199 384 -35 24 -501 23 -540 -1z"/>
<path d="M1097 1509 c-291 -38 -520 -255 -582 -553 -31 -151 -12 -285 62 -436
38 -78 61 -109 128 -176 67 -68 98 -90 176 -127 394 -191 829 -6 967 411 22
66 25 95 25 202 0 108 -3 136 -26 205 -43 131 -109 228 -215 317 -144 122
-347 181 -535 157z m173 -401 c24 -51 48 -96 53 -99 4 -3 53 -12 108 -19 157
-20 163 -40 50 -155 l-80 -80 14 -80 c8 -44 17 -94 20 -112 5 -26 1 -35 -19
-48 -23 -15 -28 -14 -128 36 l-103 52 -96 -52 c-53 -28 -101 -51 -107 -51 -7
0 -18 10 -27 23 -13 21 -13 34 4 128 l20 104 -80 80 c-117 119 -112 133 63
156 l95 12 49 100 c73 148 96 149 164 5z"/>
</g>
</svg>
