<svg width="17" height="15" viewBox="0 0 17 15" fill="none" xmlns="http://www.w3.org/2000/svg">
<path d="M14.6666 7.50001V4.16668H2.99992C2.55789 4.16668 2.13397 3.99108 1.82141 3.67852C1.50885 3.36596 1.33325 2.94204 1.33325 2.50001M1.33325 2.50001C1.33325 1.58334 2.08325 0.833344 2.99992 0.833344H12.9999V4.16668M1.33325 2.50001V12.5C1.33325 13.4167 2.08325 14.1667 2.99992 14.1667H14.6666V10.8333M12.9999 7.50001C12.5579 7.50001 12.134 7.67561 11.8214 7.98817C11.5088 8.30073 11.3333 8.72465 11.3333 9.16668C11.3333 10.0833 12.0833 10.8333 12.9999 10.8333H16.3333V7.50001H12.9999Z" stroke="#7371FC" stroke-linecap="round" stroke-linejoin="round"/>
</svg>
