<svg width="17" height="15" viewBox="0 0 17 15" fill="none" xmlns="http://www.w3.org/2000/svg">
<path d="M14.3333 7.66667V4.33333H2.66667C2.22464 4.33333 1.80072 4.15774 1.48816 3.84518C1.17559 3.53262 1 3.10869 1 2.66667C1 1.75 1.75 1 2.66667 1H12.6667V4.33333M1.33333 2.5V12.5C1.33333 13.4167 2.08333 14.1667 3 14.1667H14.6667V10.8333M13 7.5C12.558 7.5 12.134 7.6756 11.8215 7.98816C11.5089 8.30072 11.3333 8.72464 11.3333 9.16667C11.3333 10.0833 12.0833 10.8333 13 10.8333H16.3333V7.5H13Z" stroke="#EBEBFF" stroke-opacity="0.6" stroke-linecap="round" stroke-linejoin="round"/>
</svg>
