<svg width="489" height="175" viewBox="0 0 489 175" fill="none" xmlns="http://www.w3.org/2000/svg">
<path d="M90.0938 3.76953H75.8438V0.378906H90.0938V3.76953ZM109.312 3.76953H95.0625V0.378906H109.312V3.76953ZM128.531 3.76953H114.281V0.378906H128.531V3.76953ZM147.75 3.76953H133.5V0.378906H147.75V3.76953ZM166.969 3.76953H152.719V0.378906H166.969V3.76953ZM186.188 3.76953H171.938V0.378906H186.188V3.76953ZM205.406 3.76953H191.156V0.378906H205.406V3.76953ZM224.625 3.76953H210.375V0.378906H224.625V3.76953ZM282.281 3.76953H268.031V0.378906H282.281V3.76953ZM301.5 3.76953H287.25V0.378906H301.5V3.76953ZM320.719 3.76953H306.469V0.378906H320.719V3.76953ZM339.938 3.76953H325.688V0.378906H339.938V3.76953ZM359.156 3.76953H344.906V0.378906H359.156V3.76953ZM378.375 3.76953H364.125V0.378906H378.375V3.76953ZM397.594 3.76953H383.344V0.378906H397.594V3.76953ZM416.812 3.76953H402.562V0.378906H416.812V3.76953ZM436.031 3.76953H421.781V0.378906H436.031V3.76953ZM455.25 3.76953H441V0.378906H455.25V3.76953ZM474.469 3.76953H460.219V0.378906H474.469V3.76953ZM61.7969 44.332H57.75L66.2656 19.6289H70.3125L61.7969 44.332ZM109.312 45.7695H95.0625V42.3789H109.312V45.7695ZM128.531 45.7695H114.281V42.3789H128.531V45.7695ZM147.75 45.7695H133.5V42.3789H147.75V45.7695ZM166.969 45.7695H152.719V42.3789H166.969V45.7695ZM177.109 44.332H173.062L181.578 19.6289H185.625L177.109 44.332ZM215.547 44.332H211.5L220.016 19.6289H224.062L215.547 44.332ZM253.984 44.332H249.938L258.453 19.6289H262.5L253.984 44.332ZM292.422 44.332H288.375L296.891 19.6289H300.938L292.422 44.332ZM320.719 45.7695H306.469V42.3789H320.719V45.7695ZM378.375 45.7695H364.125V42.3789H378.375V45.7695ZM397.594 45.7695H383.344V42.3789H397.594V45.7695ZM407.734 44.332H403.688L412.203 19.6289H416.25L407.734 44.332ZM488.172 48.7852H485.453V19.6289H488.172V48.7852ZM42.5781 86.332H38.5312L47.0469 61.6289H51.0938L42.5781 86.332ZM81.0156 86.332H76.9688L85.4844 61.6289H89.5312L81.0156 86.332ZM109.312 87.7695H95.0625V84.3789H109.312V87.7695ZM157.891 86.332H153.844L162.359 61.6289H166.406L157.891 86.332ZM196.328 86.332H192.281L200.797 61.6289H204.844L196.328 86.332ZM234.766 86.332H230.719L239.234 61.6289H243.281L234.766 86.332ZM273.203 86.332H269.156L277.672 61.6289H281.719L273.203 86.332ZM311.641 86.332H307.594L316.109 61.6289H320.156L311.641 86.332ZM350.078 86.332H346.031L354.547 61.6289H358.594L350.078 86.332ZM388.516 86.332H384.469L392.984 61.6289H397.031L388.516 86.332ZM426.953 86.332H422.906L431.422 61.6289H435.469L426.953 86.332ZM449.734 90.7852H447.016V61.6289H449.734V90.7852ZM488.172 90.7852H485.453V61.6289H488.172V90.7852ZM23.3594 128.332H19.3125L27.8281 103.629H31.875L23.3594 128.332ZM70.875 129.77H56.625V126.379H70.875V129.77ZM90.0938 129.77H75.8438V126.379H90.0938V129.77ZM100.234 128.332H96.1875L104.703 103.629H108.75L100.234 128.332ZM138.672 128.332H134.625L143.141 103.629H147.188L138.672 128.332ZM177.109 128.332H173.062L181.578 103.629H185.625L177.109 128.332ZM205.406 129.77H191.156V126.379H205.406V129.77ZM215.547 128.332H211.5L220.016 103.629H224.062L215.547 128.332ZM253.984 128.332H249.938L258.453 103.629H262.5L253.984 128.332ZM292.422 128.332H288.375L296.891 103.629H300.938L292.422 128.332ZM330.859 128.332H326.812L335.328 103.629H339.375L330.859 128.332ZM369.297 128.332H365.25L373.766 103.629H377.812L369.297 128.332ZM416.812 129.77H402.562V126.379H416.812V129.77ZM436.031 129.77H421.781V126.379H436.031V129.77ZM455.25 129.77H441V126.379H455.25V129.77ZM488.172 132.785H485.453V103.629H488.172V132.785ZM4.14062 170.332H0.09375L8.60938 145.629H12.6562L4.14062 170.332ZM32.4375 171.77H18.1875V168.379H32.4375V171.77ZM42.5781 170.332H38.5312L47.0469 145.629H51.0938L42.5781 170.332ZM134.938 145.629H139L147.516 170.332H143.453L134.938 145.629ZM166.969 171.77H152.719V168.379H166.969V171.77ZM186.188 171.77H171.938V168.379H186.188V171.77ZM205.406 171.77H191.156V168.379H205.406V171.77ZM224.625 171.77H210.375V168.379H224.625V171.77ZM234.766 170.332H230.719L239.234 145.629H243.281L234.766 170.332ZM273.203 170.332H269.156L277.672 145.629H281.719L273.203 170.332ZM301.5 171.77H287.25V168.379H301.5V171.77ZM311.641 170.332H307.594L316.109 145.629H320.156L311.641 170.332ZM350.078 170.332H346.031L354.547 145.629H358.594L350.078 170.332ZM378.375 171.77H364.125V168.379H378.375V171.77ZM388.516 170.332H384.469L392.984 145.629H397.031L388.516 170.332ZM449.734 174.785H447.016V145.629H449.734V174.785ZM474.469 171.77H460.219V168.379H474.469V171.77ZM488.172 174.785H485.453V145.629H488.172V174.785Z" fill="#62EBF1"/>
</svg>
