<svg width="492" height="235" viewBox="0 0 492 235" fill="none" xmlns="http://www.w3.org/2000/svg">
<path d="M490.538 3.98303L468.405 147.91L457.656 134.663L449.436 151.49L443.113 127.144L426.672 162.231L405.805 86.3292L393.789 121.416L361.541 114.255L347.63 134.663L329.923 124.996L317.909 134.663L295.776 72.7242L274.909 154.355L264.792 147.91L251.83 150.058L243.293 122.132L228.117 172.972L214.838 154.355L206.617 162.947L199.661 146.478L181.956 183.713L175.632 169.392L160.456 205.194L152.868 196.602L144.016 210.207L130.104 208.774L123.781 196.602L106.075 209.491L97.8547 198.75L89.002 203.762L84.5756 181.564L68.767 222.38L56.7524 215.935L38.4146 225.96L28.2974 219.515L3.00366 233.12L489.272 232.404L490.538 3.98303Z" fill="url(#paint0_linear_2301_1941)"/>
<path d="M489.866 5.28088L467.733 149.208L456.984 135.961L448.765 152.788L442.441 128.442L426 163.529L405.133 87.627L393.117 122.714L360.869 115.553L346.958 135.961L329.251 126.294L317.237 135.961L295.104 74.0221L274.238 155.652L264.12 149.208L251.158 151.356L242.621 123.43L227.445 174.27L214.166 155.652L205.945 164.245L198.99 147.776L181.284 185.01L174.961 170.689L159.784 206.492L152.196 197.9L143.344 211.504L129.432 210.072L123.109 197.9L105.403 210.788L97.1829 200.048L88.3301 205.06L83.9038 182.862L68.0952 223.677L56.0806 217.233L37.7427 227.258L27.6255 220.813L2.33179 234.418" stroke="url(#paint1_linear_2301_1941)" stroke-linecap="round" stroke-linejoin="bevel"/>
<defs>
<linearGradient id="paint0_linear_2301_1941" x1="247.166" y1="232.36" x2="247.166" y2="5.28133" gradientUnits="userSpaceOnUse">
<stop stop-color="#7371FC" stop-opacity="0"/>
<stop offset="1" stop-color="#7371FC"/>
</linearGradient>
<linearGradient id="paint1_linear_2301_1941" x1="2.33179" y1="119.85" x2="489.866" y2="119.85" gradientUnits="userSpaceOnUse">
<stop stop-color="#7371FC"/>
<stop offset="0.494792" stop-color="#CDC1FF"/>
<stop offset="1" stop-color="#7371FC"/>
</linearGradient>
</defs>
</svg>
