<svg width="22" height="23" viewBox="0 0 22 23" fill="none" xmlns="http://www.w3.org/2000/svg">
<g clip-path="url(#clip0_11139_194)">
<mask id="mask0_11139_194" style="mask-type:luminance" maskUnits="userSpaceOnUse" x="0" y="0" width="22" height="23">
<path d="M21.7143 0.785706H0.285706V22.2143H21.7143V0.785706Z" fill="white"/>
</mask>
<g mask="url(#mask0_11139_194)">
<path d="M5.92705 9.45502C5.92705 9.97658 5.92502 10.4988 5.92907 11.0204C5.93043 11.1559 5.93314 11.2955 5.96764 11.4248C6.10569 11.9491 6.75257 12.2555 7.20121 11.7673C7.93538 10.968 8.7088 10.2054 9.46734 9.42914C10.2814 8.59573 11.1001 7.76778 11.9094 6.93096C12.1672 6.66406 12.4494 6.51767 12.8155 6.66133C13.1822 6.805 13.2966 7.10255 13.2939 7.47771C13.2878 8.45343 13.2871 9.42914 13.2952 10.4042C13.3 10.97 13.6694 11.3418 14.1546 11.2355C14.3576 11.1913 14.5592 11.0394 14.7128 10.8876C16.031 9.5837 17.3369 8.26756 18.6503 6.95888C18.7682 6.84178 18.9021 6.72057 19.0516 6.65861C19.5361 6.45707 20.0402 6.81658 20.047 7.37695C20.0604 8.47727 20.049 9.57758 20.0578 10.6779C20.0592 10.8549 20.0781 11.0483 20.1518 11.2049C20.3908 11.7122 20.9917 11.7755 21.4172 11.3656C21.4937 11.2914 21.6142 11.2635 21.7143 11.2138C21.6737 11.3247 21.6622 11.4643 21.5871 11.5419C20.2161 12.9527 18.8358 14.3547 17.4615 15.7628C17.2029 16.0276 16.9195 16.1693 16.5527 16.0222C16.1819 15.8731 16.0858 15.5674 16.0871 15.1983C16.0913 14.132 16.0972 13.0658 16.0784 11.9995C16.0743 11.7741 16.0222 11.5106 15.897 11.3336C15.6182 10.94 15.11 10.9632 14.723 11.3499C13.8751 12.197 13.032 13.0487 12.1869 13.8985C11.6848 14.4037 11.1786 14.9055 10.6806 15.4148C10.4187 15.6831 10.1251 15.8016 9.76508 15.6497C9.4166 15.502 9.30698 15.2085 9.30765 14.8511C9.30969 13.8645 9.3124 12.8772 9.30494 11.8906C9.30156 11.4105 9.04714 11.1082 8.62964 11.0585C8.31295 11.0204 8.10253 11.2049 7.89952 11.4126C6.37433 12.9739 4.8525 14.5372 3.31378 16.0848C3.1534 16.2463 2.89762 16.3756 2.67568 16.3953C2.25345 16.4321 1.96248 16.0794 1.95436 15.5912C1.93609 14.4684 1.91781 13.3456 1.92052 12.2222C1.9212 11.8504 1.80278 11.578 1.46039 11.4323C1.11733 11.2859 0.829067 11.3792 0.579378 11.6556C0.513741 11.7285 0.385175 11.7448 0.285706 11.7871C0.323599 11.6849 0.333749 11.5556 0.403445 11.4847C1.79872 10.0481 3.20145 8.62093 4.60281 7.19242C4.84844 6.94186 5.13671 6.85471 5.46556 6.99292C5.78089 7.12502 5.92434 7.38239 5.92569 7.71943C5.9284 8.29818 5.92636 8.87627 5.92705 9.45502Z" fill="#1389F5"/>
</g>
</g>
<defs>
<clipPath id="clip0_11139_194">
<rect width="21.4286" height="21.4286" fill="white" transform="translate(0.285706 0.785706)"/>
</clipPath>
</defs>
</svg>
