<svg width="100" height="46" viewBox="0 0 100 46" fill="none" xmlns="http://www.w3.org/2000/svg">
<path d="M26.3263 13.4569C26.3263 15.8908 26.3168 18.328 26.3357 20.7619C26.3421 21.3942 26.3547 22.0456 26.5157 22.6493C27.1599 25.096 30.1787 26.5258 32.2724 24.2476C35.6985 20.5172 39.3078 16.9585 42.8476 13.3361C46.6464 9.44689 50.4674 5.5831 54.244 1.67796C55.4471 0.432386 56.7639 -0.250757 58.4723 0.419671C60.1838 1.0901 60.7174 2.47867 60.7048 4.22946C60.6764 8.78281 60.6732 13.3361 60.7111 17.8862C60.7332 20.5267 62.4574 22.2617 64.7215 21.766C65.6688 21.5595 66.6099 20.8509 67.3266 20.1423C73.4779 14.0574 79.5721 7.91539 85.7014 1.80824C86.2514 1.26174 86.8764 0.6961 87.5743 0.406958C89.835 -0.533542 92.1879 1.14417 92.2193 3.75924C92.2821 8.89403 92.2286 14.0288 92.27 19.1636C92.2764 19.9897 92.3643 20.8922 92.7086 21.623C93.8236 23.9902 96.6279 24.2857 98.6136 22.3729C98.9707 22.0265 99.5329 21.8962 100 21.6643C99.8107 22.1822 99.7571 22.8336 99.4064 23.1958C93.0086 29.7796 86.5671 36.322 80.1536 42.893C78.9471 44.129 77.6243 44.79 75.9129 44.1037C74.1821 43.4077 73.7336 41.9811 73.74 40.2589C73.7593 35.283 73.7871 30.307 73.6993 25.3311C73.68 24.2794 73.4371 23.0497 72.8529 22.2235C71.5514 20.387 69.1802 20.495 67.374 22.2998C63.4174 26.2526 59.4828 30.2276 55.5387 34.1931C53.1956 36.5507 50.8336 38.8926 48.5096 41.2693C47.2875 42.5212 45.917 43.0742 44.2371 42.3655C42.6109 41.676 42.0993 40.3065 42.1024 38.6384C42.1119 34.0342 42.1246 29.4269 42.0898 24.8227C42.074 22.5826 40.8867 21.1718 38.9384 20.9398C37.4605 20.7619 36.4785 21.623 35.5311 22.5921C28.4136 29.8781 21.3117 37.1735 14.131 44.396C13.3826 45.1493 12.1889 45.7529 11.1532 45.845C9.18279 46.0165 7.82493 44.3705 7.78707 42.0923C7.70179 36.8527 7.6165 31.613 7.62914 26.3702C7.63229 24.6352 7.0797 23.3642 5.48187 22.6842C3.88089 22.0011 2.53569 22.4365 1.37047 23.7265C1.06416 24.0665 0.464191 24.1427 0 24.3397C0.176835 23.8631 0.224201 23.2594 0.549451 22.929C7.06076 16.2245 13.6068 9.56446 20.1465 2.8981C21.2928 1.72881 22.638 1.3221 24.1726 1.9671C25.6442 2.58353 26.3136 3.7846 26.3199 5.35746C26.3326 8.05831 26.3231 10.756 26.3263 13.4569Z" fill="white"/>
</svg>
