<svg width="224" height="43" viewBox="0 0 224 43" fill="none" xmlns="http://www.w3.org/2000/svg">
<path d="M30.3354 20.9487C30.3354 25.7517 26.5699 29.6453 21.925 29.6453C17.2801 29.6453 13.5146 25.7517 13.5146 20.9487C13.5146 25.4538 17.2801 29.106 21.925 29.106C26.5699 29.106 30.3354 25.4538 30.3354 20.9487Z" fill="#7371FC" stroke="#7371FC" stroke-width="0.272212"/>
<path d="M32.0847 20.9487C32.0847 26.7197 27.5361 31.3981 21.925 31.3981C16.3139 31.3981 11.7653 26.7197 11.7653 20.9487C11.7653 19.8045 12.0249 18.7046 12.3745 17.679C12.0249 18.7046 11.8998 19.8045 11.8998 20.9487C11.8998 26.4219 16.3883 30.7416 21.925 30.7416C27.4617 30.7416 31.9502 26.4219 31.9502 20.9487C31.9502 19.8088 31.8319 18.7129 31.4849 17.6906C31.8319 18.7129 32.0847 19.8088 32.0847 20.9487Z" fill="#7371FC" stroke="#7371FC" stroke-width="0.272212"/>
<path d="M32.4708 14.9729C33.4688 16.7369 34.1033 18.7761 34.1033 20.9487C34.1033 27.7995 28.6509 33.3531 21.925 33.3531C15.1992 33.3531 9.7468 27.7995 9.7468 20.9487C9.7468 18.7724 10.3885 16.73 11.3897 14.964C10.3885 16.73 9.88136 18.7724 9.88136 20.9487C9.88136 27.4644 15.2735 32.5618 21.925 32.5618C28.5765 32.5618 33.9687 27.4644 33.9687 20.9487C33.9687 18.7761 33.4688 16.7369 32.4708 14.9729Z" fill="#7371FC" stroke="#7371FC" stroke-width="0.272212"/>
<path d="M36.5254 20.9487C36.5254 29.2143 29.9886 35.915 21.925 35.915C13.8614 35.915 7.3246 29.2143 7.3246 20.9487C7.3246 17.6351 8.49916 14.58 10.3595 12.1329C8.49916 14.58 7.45917 17.6351 7.45917 20.9487C7.45917 28.7675 13.9357 34.955 21.925 34.955C29.9143 34.955 36.3908 28.7675 36.3908 20.9487C36.3908 17.6377 35.358 14.5849 33.5004 12.1388C35.358 14.5849 36.5254 17.6377 36.5254 20.9487Z" fill="#7371FC" stroke="#7371FC" stroke-width="0.272212"/>
<path d="M39.284 20.9487C39.284 30.3685 31.5121 37.7528 21.925 37.7528C12.3379 37.7528 4.566 30.3685 4.566 20.9487C4.566 14.4843 7.99126 8.83972 13.1993 5.81715C7.99126 8.83972 4.36415 14.4843 4.36415 20.9487C4.36415 30.8525 12.2264 38.8812 21.925 38.8812C31.6236 38.8812 39.4859 30.8525 39.4859 20.9487C39.4859 14.4704 35.8491 8.8155 30.6225 5.79773C35.8491 8.8155 39.284 14.4704 39.284 20.9487Z" fill="#7371FC" stroke="#7371FC" stroke-width="0.272212"/>
<path d="M42.85 20.9487C42.85 32.2674 33.4816 40.7528 21.925 40.7528C10.3684 40.7528 1 32.2674 1 20.9487C1 32.7887 10.3684 41.9326 21.925 41.9326C33.4816 41.9326 42.85 32.7887 42.85 20.9487Z" fill="#7371FC" stroke="#7371FC" stroke-width="0.272212"/>
<path fill-rule="evenodd" clip-rule="evenodd" d="M124.169 20.8396V33.7844H125.05H125.931L125.942 32.9228C125.948 32.449 125.976 31.6307 126.005 31.1045L126.057 30.1477L126.374 30.6095C127.453 32.1828 129.469 33.4314 131.719 33.92C132.621 34.1156 135.063 34.1396 135.956 33.9616C139.827 33.19 142.682 30.2846 143.35 26.437C143.549 25.2889 143.471 23.1717 143.189 22.0962C142.76 20.4552 142.01 19.1236 140.838 17.9192C139.402 16.4438 137.665 15.5602 135.579 15.2452C133.468 14.9264 131.277 15.2546 129.412 16.1686C127.987 16.8672 127.038 17.668 126.275 18.815L125.973 19.27L125.951 13.5825L125.93 7.89484H125.049H124.169V20.8396ZM216.45 12.8962V15.544H213.765H211.081V16.3846V17.2252H213.765H216.45V25.5048V33.7844H217.331H218.211V25.5048V17.2252H221.106H224V16.3846V15.544H221.106H218.211V12.8962V10.2484H217.331H216.45V12.8962ZM64.9419 15.1715C64.8265 15.1917 64.449 15.25 64.1029 15.3009C61.2269 15.7241 58.5538 17.7055 57.2639 20.3701C55.8256 23.3416 56.0712 27.3823 57.8548 30.0939C58.4224 30.9568 59.6325 32.129 60.5292 32.6848C61.3667 33.204 62.4402 33.6327 63.5498 33.8913C64.1931 34.0413 64.5757 34.0689 65.9905 34.0679C67.5281 34.0667 67.7356 34.0485 68.4724 33.8498C70.4388 33.3195 71.8229 32.5329 73.0441 31.2515C73.3246 30.9571 73.6644 30.5488 73.7991 30.344L74.0441 29.9718L74.0666 31.878L74.0892 33.7844H74.9685H75.8477V24.6642V15.544H74.9669H74.086L74.0756 16.6998C74.0698 17.3355 74.0416 18.1086 74.0127 18.4178L73.9602 18.9799L73.5225 18.4431C72.3372 16.989 70.3872 15.8394 68.3057 15.3676C67.6127 15.2106 65.4403 15.0839 64.9419 15.1715ZM92.6595 15.2406C91.3515 15.4549 90.0332 15.9663 89.0604 16.6369C88.4876 17.0318 87.6121 17.8748 87.2132 18.4155L86.8621 18.8913L86.8079 18.0031C86.778 17.5146 86.7536 16.7615 86.7536 16.3294V15.544H85.8728H84.9919V24.6642V33.7844H85.8685H86.7451L86.7754 28.0475C86.809 21.7189 86.7917 21.9342 87.3575 20.8029C88.2631 18.992 89.9238 17.6117 91.775 17.1314C92.7077 16.8894 93.9335 16.8375 94.8027 17.0031C96.7943 17.3825 98.0905 18.6496 98.6845 20.7976C98.8674 21.4589 98.8709 21.5713 98.8982 27.6272L98.9259 33.7844H99.8447H100.763L100.765 28.1736C100.766 22.0395 100.764 22.0623 101.264 20.9582C102.548 18.1212 105.857 16.4207 108.942 17.0122C110.836 17.3752 112.105 18.6558 112.694 20.7976C112.876 21.4576 112.88 21.5838 112.908 27.6272L112.937 33.7844H113.855H114.773L114.772 28.0475C114.771 24.8639 114.733 21.9552 114.687 21.5121C114.5 19.71 113.863 18.0628 112.974 17.0825C110.751 14.6288 106.304 14.4498 102.903 16.6772C102.262 17.0966 101.052 18.2997 100.639 18.9268L100.321 19.4097L100.044 18.771C99.2059 16.8396 98.0769 15.8124 96.3078 15.3717C95.4071 15.1474 93.6207 15.0831 92.6595 15.2406ZM169.488 15.2164C169.151 15.262 168.517 15.3904 168.079 15.5018C163.657 16.6257 160.809 20.6212 161.119 25.2668C161.356 28.8277 163.036 31.4323 166.073 32.9467C167.893 33.8546 169.507 34.172 171.903 34.0938C173.99 34.0257 175.456 33.6832 177.021 32.8987C177.851 32.4823 179.286 31.5554 179.286 31.4353C179.286 31.3753 178.693 30.3261 178.488 30.0217C178.479 30.0095 178.22 30.1691 177.912 30.3763C176.06 31.6203 174.498 32.1348 172.239 32.2439C170.397 32.333 168.498 31.9986 167.159 31.3492C164.855 30.232 163.409 28.1956 163.112 25.6519L163.041 25.0425H171.583H180.125V23.7738C180.125 22.8266 180.081 22.2887 179.952 21.6513C179.28 18.3237 176.86 16.0219 173.309 15.332C172.465 15.1681 170.323 15.1032 169.488 15.2164ZM195.645 15.1769C193.324 15.476 190.977 16.8717 189.763 18.6739L189.545 18.9988L189.491 18.6046C189.461 18.3877 189.436 17.8658 189.436 17.4445C189.436 17.0234 189.411 16.4235 189.382 16.1114L189.329 15.544H188.46H187.591V24.6642V33.7844H188.511H189.43L189.454 27.9634L189.479 22.1425L189.737 21.4181C190.391 19.588 192.073 17.9649 194.009 17.2961C195.295 16.8519 196.821 16.7791 198.03 17.1044C199.654 17.5416 200.963 18.7735 201.523 20.3911C201.901 21.4834 201.936 22.1285 201.936 28.1315L201.937 33.7844H202.859H203.782L203.781 28.2576C203.781 22.5102 203.729 21.2809 203.439 20.0831C203.193 19.0653 202.563 17.8062 201.975 17.1578C200.777 15.835 199.282 15.2291 197.071 15.1695C196.448 15.1527 195.806 15.156 195.645 15.1769ZM151.434 24.6642V33.7844H152.357H153.28V24.6642V15.544H152.357H151.434V24.6642ZM67.0549 16.9742C70.6149 17.3125 73.3465 19.6868 74.0367 23.0426C74.2022 23.8475 74.2091 25.3289 74.051 26.1488C73.5014 29.0006 71.3751 31.2533 68.5072 32.022C67.6501 32.2518 65.7661 32.3377 64.7732 32.1923C61.5083 31.7139 59.1288 29.5286 58.4289 26.3658C58.2477 25.5475 58.2487 23.7765 58.4308 22.9534C59.1477 19.7109 61.9014 17.3089 65.2774 16.9809C65.6696 16.9428 66.0282 16.9066 66.0744 16.9004C66.1205 16.8941 66.5617 16.9274 67.0549 16.9742ZM135.327 17.0678C138.25 17.5965 140.596 19.7527 141.344 22.5994C141.637 23.7123 141.652 25.401 141.38 26.5084C140.704 29.2534 138.727 31.269 135.956 32.0371C135.032 32.293 133.002 32.3365 131.97 32.1224C129.973 31.7078 128.216 30.5506 127.117 28.9248C126.662 28.2523 126.463 27.8369 126.177 26.9577C125.188 23.9275 126.235 20.4231 128.686 18.5597C130.453 17.2156 132.991 16.6453 135.327 17.0678ZM172.598 17.0982C173.951 17.3346 175.139 17.8805 176.117 18.7154C177.408 19.8178 178.279 21.4931 178.279 22.8746V23.3613H170.678H163.076L163.132 23.0461C163.553 20.6715 164.72 18.9787 166.619 17.9867C168.325 17.0959 170.627 16.7538 172.598 17.0982Z" fill="#7371FC"/>
<path d="M153.993 10.1709C153.993 11.0762 153.26 11.81 152.357 11.81C151.453 11.81 150.721 11.0762 150.721 10.1709C150.721 9.26567 151.453 8.53182 152.357 8.53182C153.26 8.53182 153.993 9.26567 153.993 10.1709Z" fill="#7371FC"/>
</svg>
