<svg width="1376" height="120" viewBox="0 0 1376 120" fill="none" xmlns="http://www.w3.org/2000/svg">
<path fill-rule="evenodd" clip-rule="evenodd" d="M242.822 59.8293V106.069H245.975H249.127L249.166 102.991C249.188 101.298 249.289 98.3755 249.391 96.4959L249.577 93.0784L250.711 94.7277C254.573 100.348 261.789 104.808 269.841 106.553C273.066 107.252 281.804 107.337 285.001 106.702C298.853 103.945 309.069 93.5672 311.46 79.8236C312.173 75.7224 311.893 68.1596 310.885 64.3178C309.348 58.4562 306.665 53.6996 302.472 49.3975C297.334 44.1271 291.116 40.9711 283.651 39.8458C276.099 38.7069 268.256 39.8794 261.585 43.1441C256.486 45.6395 253.089 48.5 250.36 52.5973L249.277 54.2226L249.2 33.9064L249.122 13.59H245.972H242.822V59.8293ZM573.046 31.4552V40.9132H563.44H553.833V43.9158V46.9183H563.44H573.046V76.4935V106.069H576.198H579.35V76.4935V46.9183H589.707H600.064V43.9158V40.9132H589.707H579.35V31.4552V21.9971H576.198H573.046V31.4552ZM30.8788 39.5825C30.466 39.6548 29.1151 39.8629 27.8768 40.0449C17.5849 41.5563 8.01922 48.634 3.40359 58.1521C-1.7434 68.7667 -0.864701 83.2003 5.51792 92.8859C7.5491 95.9683 11.8792 100.156 15.0881 102.141C18.085 103.995 21.9267 105.527 25.8975 106.451C28.1995 106.986 29.5684 107.085 34.6314 107.081C40.1335 107.077 40.8762 107.012 43.5129 106.302C50.5496 104.408 55.5024 101.598 59.8725 97.021C60.8763 95.9695 62.0922 94.5109 62.5743 93.7794L63.4509 92.4499L63.5316 99.2591L63.6124 106.069H66.7588H69.9053V73.4909V40.9132H66.7531H63.601L63.5638 45.0417C63.543 47.3125 63.4419 50.074 63.3386 51.1783L63.1507 53.1864L61.5845 51.2687C57.3429 46.0746 50.3647 41.9683 42.9164 40.283C40.4364 39.7221 32.6626 39.2696 30.8788 39.5825ZM130.066 39.8293C125.385 40.5949 120.668 42.4217 117.186 44.8171C115.137 46.2277 112.004 49.2387 110.576 51.1702L109.32 52.87L109.126 49.6972C109.019 47.9524 108.932 45.2621 108.932 43.7188V40.9132H105.78H102.627V73.4909V106.069H105.764H108.901L109.01 85.5762C109.13 62.9703 109.068 63.7392 111.093 59.6981C114.333 53.2294 120.276 48.2992 126.901 46.5835C130.238 45.7191 134.625 45.5335 137.735 46.125C144.862 47.4804 149.501 52.0064 151.626 59.6792C152.28 62.0416 152.293 62.443 152.391 84.0749L152.49 106.069H155.778H159.066L159.07 86.0266C159.075 64.1154 159.069 64.1968 160.857 60.2529C165.451 50.119 177.291 44.0449 188.332 46.1575C195.108 47.4543 199.651 52.0286 201.76 59.6792C202.409 62.0368 202.424 62.4874 202.525 84.0749L202.627 106.069H205.914H209.2L209.195 85.5762C209.192 74.2043 209.057 63.8143 208.892 62.2313C208.221 55.7945 205.941 49.9103 202.762 46.4088C194.804 37.644 178.891 37.0048 166.721 44.9609C164.429 46.4592 160.097 50.7565 158.619 52.9967L157.482 54.7216L156.49 52.44C153.492 45.541 149.452 41.8719 143.121 40.2977C139.898 39.4963 133.505 39.2669 130.066 39.8293ZM404.993 39.7428C403.789 39.9058 401.52 40.3646 399.952 40.7625C384.128 44.7772 373.937 59.0492 375.045 75.6434C375.894 88.3631 381.907 97.6669 392.774 103.077C399.288 106.319 405.063 107.453 413.638 107.174C421.103 106.931 426.351 105.707 431.951 102.905C434.923 101.417 440.056 98.1067 440.056 97.6777C440.056 97.4633 437.936 93.7155 437.199 92.628C437.17 92.5844 436.243 93.1546 435.139 93.8947C428.514 98.3385 422.921 100.176 414.839 100.566C408.246 100.884 401.451 99.6897 396.66 97.3702C388.417 93.3795 383.241 86.1052 382.18 77.0189L381.925 74.842H412.492H443.058V70.3103C443.058 66.927 442.902 65.0057 442.441 62.7288C440.036 50.8423 431.376 42.6201 418.667 40.156C415.647 39.5705 407.982 39.3387 404.993 39.7428ZM498.596 39.6017C490.291 40.6703 481.891 45.6557 477.549 52.0932L476.767 53.2537L476.574 51.8458C476.467 51.0711 476.38 49.2066 476.379 47.702C476.377 46.1977 476.29 44.0548 476.185 42.9399L475.994 40.9132H472.885H469.776V73.4909V106.069H473.067H476.358L476.444 85.2759L476.531 64.4832L477.457 61.8956C479.797 55.3585 485.816 49.5609 492.742 47.1717C497.343 45.5849 502.806 45.3249 507.131 46.4868C512.943 48.0488 517.629 52.449 519.632 58.2271C520.984 62.1289 521.107 64.4331 521.109 85.8764L521.111 106.069H524.413H527.715L527.713 86.3268C527.71 65.7969 527.526 61.4056 526.489 57.127C525.607 53.4915 523.352 48.994 521.249 46.6778C516.96 41.9527 511.611 39.7881 503.699 39.5753C501.47 39.5155 499.174 39.5272 498.596 39.6017ZM340.389 73.4909V106.069H343.691H346.993V73.4909V40.9132H343.691H340.389V73.4909ZM38.4403 46.022C51.1798 47.2303 60.9547 55.7113 63.4245 67.6984C64.0168 70.5736 64.0414 75.8653 63.4758 78.794C61.5089 88.9808 53.8999 97.0276 43.6375 99.7734C40.5703 100.594 33.8283 100.901 30.2754 100.381C18.5918 98.6727 10.0768 90.8667 7.57222 79.569C6.92408 76.646 6.92768 70.3199 7.57912 67.3798C10.1447 55.7975 19.9985 47.2174 32.0796 46.0458C33.4831 45.9097 34.7664 45.7803 34.9316 45.7581C35.0967 45.7359 36.6754 45.8548 38.4403 46.022ZM282.749 46.3562C293.21 48.2448 301.604 55.9467 304.283 66.1154C305.33 70.0908 305.385 76.1226 304.41 80.0785C301.992 89.8836 294.916 97.0835 285.001 99.8272C281.696 100.741 274.431 100.897 270.738 100.132C263.59 98.6511 257.305 94.5175 253.37 88.7099C251.743 86.3079 251.032 84.824 250.006 81.6834C246.47 70.8595 250.216 58.3415 258.985 51.6855C265.31 46.8841 274.392 44.8471 282.749 46.3562ZM416.124 46.4649C420.965 47.3092 425.215 49.2591 428.715 52.2415C433.337 56.1794 436.454 62.1638 436.454 67.0985V68.8369H409.252H382.05L382.25 67.711C383.756 59.2288 387.931 53.1819 394.73 49.6386C400.835 46.4565 409.071 45.2348 416.124 46.4649Z" fill="white"/>
<path d="M349.545 21.7203C349.545 24.9539 346.924 27.5753 343.691 27.5753C340.458 27.5753 337.837 24.9539 337.837 21.7203C337.837 18.4867 340.458 15.8653 343.691 15.8653C346.924 15.8653 349.545 18.4867 349.545 21.7203Z" fill="white"/>
<path d="M763.586 86.9673L744.476 62.8873L724.456 37.9673H728.866L746.156 59.5273L768.066 86.9673H763.586ZM724.036 86.9673L744.266 60.7173L746.436 63.3073L728.236 86.9673H724.036ZM747.206 63.3073L745.386 60.7173L763.096 37.9673H767.226L747.206 63.3073Z" fill="white"/>
<path d="M1373.19 38.4239L1354.66 24.7844H1286.09L1281.63 38.4239H1317.8L1298.38 97.303H1313.34L1332.7 38.4239H1373.19Z" fill="#FCFC03"/>
<path d="M1117.32 24.7844L1098.72 38.4238H1168.87L1173.4 24.7844H1117.32Z" fill="#FCFC03"/>
<path d="M1098.72 38.424L1079.3 97.3031H1094.26L1110.8 47.1342L1098.72 38.424Z" fill="#FCFC03"/>
<path d="M1173.4 24.7844L1153.15 86.1618L1160.22 85.6217L1131.19 63.9471H1109.63L1152.67 97.303H1164.4L1185.48 33.4947L1173.4 24.7844Z" fill="#FCFC03"/>
<path d="M991.378 60.3684L1009.02 51.7933L1015.06 33.4947L1002.98 24.7844H922.264L903.595 38.4239H998.448L993.437 53.8188H955.414L951.708 64.96H989.731L979.093 97.303L996.869 88.5927L1003.25 69.2139L991.31 60.5711L991.378 60.3684Z" fill="#FCFC03"/>
<path d="M930.431 83.3933L941.413 49.7674L929.196 40.787L910.939 97.3029H979.093L983.623 83.3933H930.431Z" fill="#FCFC03"/>
<path d="M1037.98 32.2794L1025.9 23.5691L1006.34 82.7859L1004.62 87.985L1017.46 97.3031H1071.68L1076.28 83.3936H1021.1L1037.98 32.2794Z" fill="#FCFC03"/>
<path d="M1202.22 54.1566L1204.62 47.0667L1192.61 38.424L1185.75 59.0857L1197.69 67.6609V67.7285H1251.23L1246.08 83.3935H1177.93L1173.4 97.3031H1241.48L1259.33 88.5928L1268.11 61.9891L1257.06 54.0214L1202.22 54.1566Z" fill="#FCFC03"/>
<path d="M1211.14 24.7844L1192.61 38.4238H1274.22L1278.75 24.7844H1211.14Z" fill="#FCFC03"/>
</svg>
