<svg width="329" height="68" viewBox="0 0 329 68" fill="none" xmlns="http://www.w3.org/2000/svg">
<path d="M327.133 19.0546L314.533 9.77979H267.913L264.88 19.0546H289.473L276.267 59.0924H286.44L299.6 19.0546H327.133Z" fill="#FCFC03"/>
<path d="M153.16 9.77979L140.513 19.0546H188.207L191.287 9.77979H153.16Z" fill="#FCFC03"/>
<path d="M140.513 19.0547L127.307 59.0925H137.48L148.727 24.9777L140.513 19.0547Z" fill="#FCFC03"/>
<path d="M191.287 9.77979L177.52 51.5164L182.327 51.1491L162.587 36.4104H147.933L177.193 59.0924H185.173L199.5 15.7028L191.287 9.77979Z" fill="#FCFC03"/>
<path d="M67.5267 33.9769L79.52 28.1458L83.6267 15.7028L75.4133 9.77979H20.5333L7.84 19.0546H72.3333L68.9267 29.5232H43.0733L40.5533 37.0992H66.4067L59.1733 59.0924L71.26 53.1694L75.6 39.9918L67.48 34.1147L67.5267 33.9769Z" fill="#FCFC03"/>
<path d="M26.0867 49.6339L33.5533 26.7683L25.2467 20.6616L12.8333 59.0924H59.1733L62.2533 49.6339H26.0867Z" fill="#FCFC03"/>
<path d="M99.2133 14.8764L91 8.95337L77.7 49.2208L76.5333 52.7562L85.26 59.0925H122.127L125.253 49.634H87.7333L99.2133 14.8764Z" fill="#FCFC03"/>
<path d="M210.887 29.7529L212.52 24.9318L204.353 19.0547L199.687 33.1047L207.807 38.9358V38.9818H244.207L240.707 49.634H194.367L191.287 59.0925H237.58L249.713 53.1695L255.687 35.079L248.173 29.661L210.887 29.7529Z" fill="#FCFC03"/>
<path d="M216.953 9.77979L204.353 19.0546H259.84L262.92 9.77979H216.953Z" fill="#FCFC03"/>
</svg>
