<svg width="43" height="43" viewBox="0 0 43 43" fill="none" xmlns="http://www.w3.org/2000/svg">
<path d="M30.3354 20.9487C30.3354 25.7517 26.5699 29.6453 21.925 29.6453C17.2801 29.6453 13.5146 25.7517 13.5146 20.9487C13.5146 25.4538 17.2801 29.106 21.925 29.106C26.5699 29.106 30.3354 25.4538 30.3354 20.9487Z" fill="#7371FC" stroke="#7371FC" stroke-width="0.272212"/>
<path d="M32.0847 20.9487C32.0847 26.7197 27.5361 31.3981 21.925 31.3981C16.3139 31.3981 11.7653 26.7197 11.7653 20.9487C11.7653 19.8045 12.0249 18.7046 12.3745 17.679C12.0249 18.7046 11.8998 19.8045 11.8998 20.9487C11.8998 26.4219 16.3883 30.7416 21.925 30.7416C27.4617 30.7416 31.9502 26.4219 31.9502 20.9487C31.9502 19.8088 31.8319 18.7129 31.4849 17.6906C31.8319 18.7129 32.0847 19.8088 32.0847 20.9487Z" fill="#7371FC" stroke="#7371FC" stroke-width="0.272212"/>
<path d="M32.4708 14.9729C33.4688 16.7369 34.1033 18.7761 34.1033 20.9487C34.1033 27.7995 28.6509 33.3531 21.925 33.3531C15.1992 33.3531 9.7468 27.7995 9.7468 20.9487C9.7468 18.7724 10.3885 16.73 11.3897 14.964C10.3885 16.73 9.88136 18.7724 9.88136 20.9487C9.88136 27.4644 15.2735 32.5618 21.925 32.5618C28.5765 32.5618 33.9687 27.4644 33.9687 20.9487C33.9687 18.7761 33.4688 16.7369 32.4708 14.9729Z" fill="#7371FC" stroke="#7371FC" stroke-width="0.272212"/>
<path d="M36.5254 20.9487C36.5254 29.2143 29.9886 35.915 21.925 35.915C13.8614 35.915 7.3246 29.2143 7.3246 20.9487C7.3246 17.6351 8.49916 14.58 10.3595 12.1329C8.49916 14.58 7.45917 17.6351 7.45917 20.9487C7.45917 28.7675 13.9357 34.955 21.925 34.955C29.9143 34.955 36.3908 28.7675 36.3908 20.9487C36.3908 17.6377 35.358 14.5849 33.5004 12.1388C35.358 14.5849 36.5254 17.6377 36.5254 20.9487Z" fill="#7371FC" stroke="#7371FC" stroke-width="0.272212"/>
<path d="M39.284 20.9487C39.284 30.3685 31.5121 37.7528 21.925 37.7528C12.3379 37.7528 4.566 30.3685 4.566 20.9487C4.566 14.4843 7.99126 8.83972 13.1993 5.81715C7.99126 8.83972 4.36415 14.4843 4.36415 20.9487C4.36415 30.8525 12.2264 38.8812 21.925 38.8812C31.6236 38.8812 39.4859 30.8525 39.4859 20.9487C39.4859 14.4704 35.8491 8.8155 30.6225 5.79773C35.8491 8.8155 39.284 14.4704 39.284 20.9487Z" fill="#7371FC" stroke="#7371FC" stroke-width="0.272212"/>
<path d="M42.85 20.9487C42.85 32.2674 33.4816 40.7528 21.925 40.7528C10.3684 40.7528 1 32.2674 1 20.9487C1 32.7887 10.3684 41.9326 21.925 41.9326C33.4816 41.9326 42.85 32.7887 42.85 20.9487Z" fill="#7371FC" stroke="#7371FC" stroke-width="0.272212"/>
</svg>
