<svg width="170" height="32" viewBox="0 0 170 32" fill="none" xmlns="http://www.w3.org/2000/svg">
<path d="M15.9991 0C11.4015 0 0.078125 11.3792 0.078125 15.9999C0.078125 20.6206 11.4015 32 15.9991 32C20.5968 32 31.9203 20.6204 31.9203 15.9999C31.9203 11.3794 20.5969 0 15.9991 0ZM13.5181 25.1492C11.5793 24.6183 6.36676 15.455 6.89516 13.5066C7.42356 11.5581 16.5415 6.31979 18.4802 6.8508C20.4191 7.38173 25.6317 16.5449 25.1033 18.4934C24.5749 20.4418 15.4569 25.6802 13.5181 25.1492Z" fill="#836EF9"/>
<path d="M54.1755 19.5465V19.5407L45.1291 2.77265C44.9511 2.44259 44.4589 2.52164 44.3921 2.89103L39.8869 27.7944C39.8427 28.0384 40.0293 28.2631 40.2761 28.2631H43.7618C43.953 28.2631 44.1169 28.1256 44.151 27.9365L46.7747 13.4058L53.8267 26.9167C53.9749 27.2006 54.3792 27.2006 54.5274 26.9167L61.5794 13.4058L64.2031 27.9365C64.2372 28.1256 64.4011 28.2631 64.5923 28.2631H68.078C68.3249 28.2631 68.5114 28.0384 68.4673 27.7944L63.962 2.89103C63.8952 2.52164 63.4031 2.44259 63.225 2.77265L54.1755 19.5465Z" fill="white"/>
<path d="M83.1233 3.2416C75.9475 3.2416 70.3263 8.84552 70.3263 16.0009C70.3263 23.1563 75.9475 28.7633 83.1233 28.7633C90.2806 28.7633 95.8878 23.1578 95.8878 16.0009C95.8878 8.84396 90.2806 3.2416 83.1233 3.2416ZM83.1233 24.491C78.4439 24.491 74.7776 20.7613 74.7776 16.0009C74.7776 11.2405 78.4439 7.51392 83.1233 7.51392C87.7842 7.51392 91.4365 11.2421 91.4365 16.0009C91.4365 20.7597 87.7841 24.491 83.1233 24.491Z" fill="white"/>
<path d="M115.612 18.9277L100.607 2.6968C100.362 2.43211 99.9214 2.60612 99.9214 2.96742V27.8653C99.9214 28.0849 100.099 28.2629 100.317 28.2629H103.945C104.163 28.2629 104.34 28.0849 104.34 27.8653V13.0463L119.312 29.3078C119.557 29.5733 119.998 29.3995 119.998 29.0378V4.13983C119.998 3.92025 119.821 3.74224 119.603 3.74224H116.008C115.789 3.74224 115.612 3.92025 115.612 4.13983V18.9277Z" fill="white"/>
<path d="M123.845 28.2634H127.741C127.895 28.2634 128.035 28.1732 128.1 28.0325L131.018 21.6818H140.349L143.201 28.0294C143.265 28.1718 143.406 28.2634 143.561 28.2634H147.788C148.079 28.2634 148.271 27.9568 148.144 27.6928L136.173 2.79643C136.029 2.49696 135.604 2.49696 135.46 2.79643L123.489 27.6928C123.362 27.9568 123.554 28.2634 123.845 28.2634ZM132.847 17.7416L135.747 11.4173L138.592 17.7416H132.847Z" fill="white"/>
<path d="M157.598 3.74254H151.612C151.393 3.74254 151.216 3.92054 151.216 4.14012V27.8656C151.216 28.0852 151.393 28.2632 151.612 28.2632H157.598C165.019 28.2632 169.63 23.5652 169.63 16.0013C169.63 8.43743 165.019 3.74254 157.598 3.74254ZM157.598 24.0564H155.668V7.91663H157.598C162.415 7.91663 165.178 10.8636 165.178 16.0013C165.178 21.1203 162.415 24.0564 157.598 24.0564Z" fill="white"/>
</svg>
