<svg width="582" height="139" viewBox="0 0 582 139" fill="none" xmlns="http://www.w3.org/2000/svg">
<path d="M215.612 30.2773C226.365 30.2773 235.321 34.1648 242.49 41.9478C249.658 49.7307 253.242 59.4375 253.242 71.068C253.242 82.6985 249.658 92.4053 242.49 100.188C235.321 107.971 226.365 111.859 215.612 111.859C206.209 111.859 198.37 108.65 192.096 102.24V138.999H169.777V32.1452H192.096V39.9043C198.37 33.4943 206.209 30.2853 215.612 30.2853V30.2773ZM197.548 84.79C201.18 88.4699 205.738 90.3059 211.206 90.3059C216.674 90.3059 221.232 88.4699 224.864 84.79C228.496 81.11 230.316 76.536 230.316 71.068C230.316 65.6 228.496 61.026 224.864 57.3461C221.232 53.6661 216.674 51.8301 211.206 51.8301C205.738 51.8301 201.18 53.6661 197.548 57.3461C193.916 61.026 192.096 65.6 192.096 71.068C192.096 76.536 193.908 81.11 197.548 84.79Z" fill="#f43b3a"/>
<path d="M258.732 109.991V0H281.051V109.991H258.732Z" fill="#f43b3a"/>
<path d="M326.246 111.857C315.15 111.857 306.226 108.84 299.481 102.797C292.735 96.754 289.367 88.7635 289.367 78.8253V32.1436H311.686V75.768C311.686 80.1424 313.019 83.6627 315.677 86.3209C318.335 88.9791 321.864 90.3122 326.238 90.3122C330.612 90.3122 334.125 88.9791 336.767 86.3209C339.401 83.6627 340.726 80.1424 340.726 75.768V32.1436H363.045V78.8253C363.045 88.7715 359.701 96.762 353.003 102.797C346.306 108.84 337.39 111.857 326.238 111.857H326.246Z" fill="#f43b3a"/>
<path d="M465.89 30.2775C474.647 30.2775 481.656 32.9117 486.908 38.1802C492.161 43.4487 494.787 50.4334 494.787 59.1343V109.991H472.468V65.8476C472.468 61.6248 471.239 58.2323 468.772 55.6699C466.305 53.1075 463.009 51.8303 458.882 51.8303C454.755 51.8303 451.115 53.1474 448.432 55.7816C445.742 58.4159 444.401 61.8723 444.401 66.143V109.991H422.082V65.8476C422.082 61.6248 420.837 58.2323 418.346 55.6699C415.856 53.1075 412.551 51.8303 408.416 51.8303C404.281 51.8303 400.649 53.1474 397.967 55.7816C395.277 58.4159 393.936 61.8723 393.936 66.143V109.991H371.617V32.1374H393.936V39.5931C399.707 33.3827 407.099 30.2695 416.111 30.2695C421.34 30.2695 425.994 31.3232 430.073 33.4386C434.152 35.554 437.441 38.5234 439.923 42.3471C446.293 34.2927 454.954 30.2695 465.898 30.2695L465.89 30.2775Z" fill="#f43b3a"/>
<path d="M581.106 71.3633C581.106 74.0455 580.954 76.3843 580.659 78.372H522.578C523.975 82.7464 526.434 86.1789 529.97 88.6615C533.506 91.152 537.705 92.3893 542.582 92.3893C546.765 92.3893 550.573 91.5671 554.005 89.9307C557.438 88.2943 560.152 86.2268 562.139 83.7442L577.146 96.7158C572.916 101.489 567.767 105.201 561.692 107.867C555.618 110.526 549.048 111.859 541.983 111.859C529.595 111.859 519.249 107.923 510.963 100.037C502.678 92.1578 498.535 82.3553 498.535 70.621C498.535 63.1174 500.339 56.2764 503.947 50.1139C507.555 43.9514 512.544 39.106 518.914 35.5698C525.284 32.0415 532.349 30.2773 540.116 30.2773C551.81 30.2773 561.565 34.1808 569.379 41.9877C577.194 49.7946 581.098 59.5891 581.098 71.3713L581.106 71.3633ZM539.828 49.5152C535.645 49.5152 531.989 50.7685 528.852 53.283C525.715 55.7974 523.576 59.214 522.434 63.5325H557.446C556.2 59.1581 554.013 55.7256 550.876 53.2431C547.739 50.7605 544.059 49.5152 539.828 49.5152Z" fill="#f43b3a"/>
<path d="M99.874 44.1354V93.9463L80.1796 74.2301V24.4192L99.874 44.1354Z" fill="#f43b3a"/>
<path d="M44.9674 99.1304H94.6978L75.0135 79.4041H25.2831L44.9674 99.1304Z" fill="#f43b3a"/>
<path d="M127.865 127.341V72.1719L108.171 52.4558V107.625L53.2745 107.441L72.9588 127.167L127.855 127.351" fill="#f43b3a"/>
<path d="M4.81524e-06 0.0101294L0 55.1792L19.6944 74.8953L19.6944 19.7263L74.5908 19.9104L54.9065 0.184148L0.0104829 0" fill="#f43b3a"/>
<path d="M133.072 137.818L121.899 126.627L127.326 121.191L138.499 132.383L139.776 138.778L133.072 137.818Z" fill="#f43b3a"/>
</svg>
