<svg width="170" height="41" viewBox="0 0 170 41" fill="none" xmlns="http://www.w3.org/2000/svg">
<path d="M63.0768 8.85889C66.2225 8.85889 68.8426 9.99633 70.9398 12.2736C73.0368 14.5508 74.0853 17.3909 74.0853 20.7939C74.0853 24.1969 73.0368 27.037 70.9398 29.3141C68.8426 31.5914 66.2225 32.7289 63.0768 32.7289C60.326 32.7289 58.0327 31.79 56.1973 29.9145V40.6699H49.668V9.40542H56.1973V11.6757C58.0327 9.80015 60.326 8.86123 63.0768 8.86123V8.85889ZM57.7923 24.8088C58.8548 25.8855 60.1882 26.4227 61.7878 26.4227C63.3875 26.4227 64.7209 25.8855 65.7834 24.8088C66.846 23.7321 67.3784 22.3938 67.3784 20.7939C67.3784 19.194 66.846 17.8557 65.7834 16.779C64.7209 15.7022 63.3875 15.165 61.7878 15.165C60.1882 15.165 58.8548 15.7022 57.7923 16.779C56.7297 17.8557 56.1973 19.194 56.1973 20.7939C56.1973 22.3938 56.7274 23.7321 57.7923 24.8088Z" fill="#f0f0f8"/>
<path d="M75.6914 32.1824V0H82.2207V32.1824H75.6914Z" fill="#f0f0f8"/>
<path d="M95.4421 32.7282C92.196 32.7282 89.5853 31.8454 87.6121 30.0773C85.6386 28.3092 84.6533 25.9712 84.6533 23.0634V9.40479H91.1826V22.1689C91.1826 23.4488 91.5726 24.4788 92.3502 25.2566C93.1278 26.0343 94.1602 26.4244 95.4398 26.4244C96.7194 26.4244 97.7471 26.0343 98.52 25.2566C99.2905 24.4788 99.6782 23.4488 99.6782 22.1689V9.40479H106.207V23.0634C106.207 25.9736 105.229 28.3115 103.27 30.0773C101.311 31.8454 98.7022 32.7282 95.4398 32.7282H95.4421Z" fill="#f0f0f8"/>
<path d="M136.294 8.85879C138.856 8.85879 140.906 9.62953 142.443 11.171C143.979 12.7126 144.748 14.7562 144.748 17.302V32.1822H138.218V19.2663C138.218 18.0307 137.859 17.0381 137.137 16.2884C136.415 15.5386 135.451 15.1649 134.244 15.1649C133.036 15.1649 131.972 15.5503 131.187 16.3211C130.4 17.0918 130.007 18.1031 130.007 19.3527V32.1822H123.478V19.2663C123.478 18.0307 123.114 17.0381 122.385 16.2884C121.657 15.5386 120.69 15.1649 119.48 15.1649C118.271 15.1649 117.208 15.5503 116.423 16.3211C115.636 17.0918 115.244 18.1031 115.244 19.3527V32.1822H108.715V9.40298H115.244V11.5844C116.932 9.76734 119.095 8.85645 121.731 8.85645C123.261 8.85645 124.623 9.16475 125.816 9.78369C127.009 10.4026 127.971 11.2715 128.697 12.3902C130.561 10.0336 133.095 8.85645 136.296 8.85645L136.294 8.85879Z" fill="#f0f0f8"/>
<path d="M170 20.8803C170 21.6651 169.956 22.3494 169.869 22.931H152.878C153.287 24.2109 154.006 25.2152 155.04 25.9416C156.075 26.6703 157.303 27.0323 158.73 27.0323C159.954 27.0323 161.068 26.7917 162.072 26.3129C163.076 25.8341 163.87 25.2292 164.451 24.5028L168.842 28.2982C167.604 29.6948 166.098 30.7809 164.321 31.5609C162.544 32.3389 160.622 32.7289 158.555 32.7289C154.931 32.7289 151.904 31.5773 149.48 29.2699C147.056 26.9646 145.844 24.0964 145.844 20.6631C145.844 18.4676 146.372 16.466 147.427 14.6629C148.483 12.8598 149.943 11.4421 151.806 10.4074C153.67 9.37508 155.736 8.85889 158.009 8.85889C161.43 8.85889 164.283 10.001 166.569 12.2852C168.856 14.5695 169.998 17.4353 169.998 20.8826L170 20.8803ZM157.924 14.4877C156.701 14.4877 155.631 14.8544 154.713 15.5901C153.796 16.3258 153.17 17.3255 152.836 18.5891H163.078C162.714 17.3091 162.074 16.3048 161.156 15.5785C160.239 14.8521 159.162 14.4877 157.924 14.4877Z" fill="#f0f0f8"/>
<path fill-rule="evenodd" clip-rule="evenodd" d="M0 0.00296377V16.1449L5.76151 21.9137V5.77173L21.8212 5.8256L16.0627 0.05388L0.00306673 0L0 0.00296377ZM29.218 12.9139V27.4881L23.4565 21.7194V7.14515L29.218 12.9139ZM13.1548 29.0048H27.7032L21.9446 23.2331H7.39623L13.1548 29.0048ZM37.406 35.6173V21.1166L31.6446 15.3478V31.4898L15.5849 31.436L21.3434 37.2076L35.8666 37.2563L38.9298 40.3245L40.8913 40.6054L40.5177 38.7342L37.406 35.6173Z" fill="#f0f0f8"/>
</svg>
