<svg viewBox="10 13.232 187 52.536" xmlns="http://www.w3.org/2000/svg">
<path d="M62.8564 44.9017L62.792 44.9694C62.7619 45.0005 62.7314 45.0314 62.7006 45.0621L45.0382 62.6961C41.9614 65.768 36.9729 65.768 33.8961 62.6961L29.0186 57.8267C28.6728 57.4828 28.6721 56.9236 29.0163 56.5782C29.1176 56.4766 29.2421 56.4012 29.379 56.3584C34.6069 54.7446 38.8548 52.8817 42.1225 50.7699C49.9047 45.7403 56.816 43.7843 62.8564 44.9017ZM59.1535 30.3958C65.6746 32.4507 64.9135 37.2479 65 39.1391C57.8584 35.3943 49.2669 36.7669 39.2254 43.2566C31.741 48.0937 25.4716 50.088 20.4173 49.2395C15.363 48.391 14.226 42.2183 14 40.578C19.5538 43.3861 26.9966 41.7744 36.3283 35.7434C45.024 30.1235 52.6324 28.3409 59.1535 30.3958ZM45.0382 16.3039L49.6212 20.8789C49.9664 21.2233 49.9669 21.7825 49.6225 22.1278C49.4996 22.251 49.3431 22.3351 49.1726 22.3694C42.538 23.706 37.232 25.6596 33.2546 28.2302C26.4389 32.6351 20.6308 34.6825 15.8303 34.3724L15.8308 34.3711L33.8961 16.3039C36.9729 13.232 41.9614 13.232 45.0382 16.3039Z" fill="#f0f0f8"/>
<g transform="translate(-55, -25) scale(1.7)">
<path d="M89.7905 34.556C89.6997 33.7065 89.3171 33.0451 88.6427 32.5718C87.9749 32.0984 87.1059 31.8617 86.036 31.8617C85.2838 31.8617 84.6386 31.9752 84.1004 32.2022C83.5622 32.4291 83.1505 32.7371 82.8651 33.1262C82.5798 33.5152 82.4339 33.9594 82.4274 34.4587C82.4274 34.8737 82.5215 35.2336 82.7095 35.5384C82.904 35.8431 83.1667 36.1025 83.4974 36.3165C83.8281 36.524 84.1944 36.6991 84.5965 36.8417C84.9985 36.9844 85.4038 37.1044 85.8123 37.2016L87.6798 37.6685C88.432 37.8436 89.155 38.0803 89.8488 38.3785C90.5492 38.6768 91.1749 39.0529 91.7261 39.5068C92.2837 39.9607 92.7247 40.5087 93.0489 41.1506C93.3731 41.7926 93.5352 42.5448 93.5352 43.4072C93.5352 44.5744 93.2369 45.6022 92.6404 46.4905C92.0438 47.3724 91.1814 48.063 90.0531 48.5623C88.9313 49.0551 87.5728 49.3015 85.9777 49.3015C84.4279 49.3015 83.0824 49.0616 81.9411 48.5818C80.8063 48.1019 79.918 47.4016 79.276 46.4808C78.6406 45.56 78.2969 44.4382 78.245 43.1154H81.7952C81.8471 43.8092 82.0611 44.3863 82.4372 44.8467C82.8133 45.3071 83.3028 45.6508 83.9059 45.8778C84.5154 46.1047 85.1963 46.2182 85.9485 46.2182C86.7331 46.2182 87.4204 46.1015 88.0105 45.868C88.6071 45.6281 89.074 45.2974 89.4111 44.8759C89.7483 44.4479 89.9202 43.9487 89.9267 43.378C89.9202 42.8593 89.7678 42.4313 89.4695 42.0941C89.1712 41.7504 88.753 41.4651 88.2148 41.2382C87.6831 41.0047 87.0605 40.7972 86.3473 40.6157L84.081 40.0321C82.4404 39.6106 81.1435 38.9719 80.1903 38.1159C79.2436 37.2535 78.7702 36.109 78.7702 34.6824C78.7702 33.5088 79.088 32.481 79.7234 31.5991C80.3654 30.7172 81.2376 30.0331 82.3399 29.5468C83.4423 29.054 84.6905 28.8076 86.0846 28.8076C87.4982 28.8076 88.7368 29.054 89.8002 29.5468C90.8701 30.0331 91.7099 30.7107 92.3194 31.5797C92.9289 32.4421 93.2434 33.4342 93.2629 34.556H89.7905ZM99.68 49L95.4587 34.0599H99.0478L101.674 44.5647H101.81L104.495 34.0599H108.045L110.729 44.5063H110.875L113.463 34.0599H117.061L112.83 49H109.163L106.362 38.9038H106.158L103.357 49H99.68ZM125.706 49.2918C124.208 49.2918 122.914 48.9805 121.825 48.358C120.742 47.7291 119.909 46.8407 119.325 45.693C118.742 44.5387 118.45 43.1802 118.45 41.6175C118.45 40.0807 118.742 38.7319 119.325 37.5712C119.915 36.404 120.739 35.4962 121.796 34.8478C122.853 34.1929 124.095 33.8654 125.521 33.8654C126.442 33.8654 127.311 34.0145 128.128 34.3128C128.951 34.6046 129.678 35.0585 130.307 35.6746C130.942 36.2906 131.441 37.0752 131.805 38.0284C132.168 38.9751 132.349 40.1034 132.349 41.4132V42.4929H120.103V40.1196H128.974C128.968 39.4452 128.822 38.8454 128.536 38.3202C128.251 37.7885 127.852 37.3702 127.34 37.0655C126.834 36.7607 126.244 36.6083 125.57 36.6083C124.85 36.6083 124.218 36.7834 123.673 37.1335C123.128 37.4772 122.704 37.9311 122.399 38.4953C122.101 39.0529 121.948 39.6657 121.942 40.3336V42.4054C121.942 43.2743 122.101 44.02 122.418 44.6425C122.736 45.2585 123.18 45.7319 123.751 46.0626C124.322 46.3868 124.989 46.5489 125.755 46.5489C126.267 46.5489 126.731 46.4776 127.146 46.3349C127.561 46.1858 127.92 45.9685 128.225 45.6832C128.53 45.3979 128.76 45.0445 128.916 44.623L132.203 44.9926C131.996 45.8615 131.6 46.6202 131.017 47.2687C130.44 47.9106 129.7 48.4099 128.799 48.7666C127.898 49.1167 126.867 49.2918 125.706 49.2918ZM138.849 29.0799V49H135.328V29.0799H138.849ZM145.991 29.0799V49H142.47V29.0799H145.991Z" fill="#f0f0f8"/>
</g>
</svg>